<svg width="408" height="65" viewBox="0 0 408 65" fill="none" xmlns="http://www.w3.org/2000/svg">
<g clip-path="url(#clip0_648_12181)">
<path d="M93.9154 35.528C94.1642 34.416 94.0532 33.2536 93.5986 32.2087C92.2997 29.1592 88.747 21.6066 85.329 21.37C81.043 21.0732 82.395 24.8478 83.9161 25.7491C84.7649 26.2834 85.8503 26.2613 86.6766 25.6928C86.6766 25.6928 90.7819 30.6809 90.3385 32.2278C90.3385 32.2278 87.9723 32.2278 88.761 34.4813C89.4512 36.4531 93.0312 39.3306 93.9154 35.528Z" fill="#79C9E7"/>
<path d="M85.8045 67.6137C85.8045 67.6137 96.8362 105.683 81.8809 118.358C66.9256 131.033 50.955 136.864 50.955 136.864L49.434 142.694L41.829 124.189L63.1231 99.8524L72.2479 62.5878" fill="#DFEFFF"/>
<path d="M81.2946 61.9058C81.2946 61.9058 84.7064 117.592 75.0702 143.957L77.083 146.915H59.9438C59.9438 146.915 58.0714 76.0851 58.0714 60.7974L81.2946 61.9058Z" fill="#F0F8FF"/>
<path d="M77.3121 18.8209V26.0577L68.347 28.2613V16.0485L77.3121 13.845V18.8209Z" fill="#F0F8FF"/>
<path d="M72.2479 21.3248C72.3803 21.3248 72.4876 21.2174 72.4876 21.085C72.4876 20.9527 72.3803 20.8453 72.2479 20.8453C72.1155 20.8453 72.0082 20.9527 72.0082 21.085C72.0082 21.2174 72.1155 21.3248 72.2479 21.3248Z" fill="#07294A"/>
<path d="M75.9296 21.3248C76.062 21.3248 76.1694 21.2174 76.1694 21.085C76.1694 20.9527 76.062 20.8453 75.9296 20.8453C75.7973 20.8453 75.6899 20.9527 75.6899 21.085C75.6899 21.2174 75.7973 21.3248 75.9296 21.3248Z" fill="#07294A"/>
<path d="M74.8495 22.515V18.8209H76.7001" stroke="#07294A" stroke-width="0.212949" stroke-linecap="round" stroke-linejoin="round"/>
<path d="M71.7963 18.8208H73.6469" stroke="#07294A" stroke-width="0.212949" stroke-linecap="round" stroke-linejoin="round"/>
<path d="M68.9375 20.7136V21.9965C68.2455 21.9965 67.6846 21.4355 67.6846 20.7435C67.6846 20.7051 67.6863 20.6671 67.6897 20.6295C67.7599 19.8514 68.9375 19.9324 68.9375 20.7136Z" fill="#F0F8FF"/>
<path d="M68.9375 21.9965C68.2455 21.9965 67.6846 21.4355 67.6846 20.7435" stroke="#07294A" stroke-width="0.212949" stroke-linecap="round" stroke-linejoin="round"/>
<path d="M74.0401 23.4256C73.3397 23.4256 72.772 22.8578 72.772 22.1575" stroke="#79C9E7" stroke-width="0.212949" stroke-linecap="round" stroke-linejoin="round"/>
<path d="M77.3122 26.0577L68.347 28.2612" stroke="#07294A" stroke-width="0.212949" stroke-linecap="round" stroke-linejoin="round"/>
<path d="M74.8495 22.5179L74.04 22.7169" stroke="#07294A" stroke-width="0.212949" stroke-linecap="round" stroke-linejoin="round"/>
<path d="M58.0714 41.2207V60.7975L85.8046 67.6138V45.8106C85.8046 38.0795 80.5266 31.3473 73.019 29.5021H73.019C69.4186 28.6172 65.6113 29.4364 62.6935 31.7239C59.7757 34.0113 58.0714 37.5131 58.0714 41.2207V41.2207Z" fill="#79C9E7"/>
<path d="M81.2945 61.9059C81.2945 61.9059 84.7063 117.592 75.0701 143.958" stroke="#07294A" stroke-width="0.212949" stroke-linecap="round" stroke-linejoin="round"/>
<path d="M69.4628 19.7352C69.4628 19.7352 70.9829 19.6507 74.8495 16.8198V17.9184C74.8495 17.9184 77.0682 17.2846 77.702 16.186" stroke="#07294A" stroke-width="0.212949" stroke-linecap="round" stroke-linejoin="round"/>
<path d="M77.9043 15.7559C77.9043 15.7559 82.6878 9.42567 69.4628 13.845L70.8994 12.2777C70.8994 12.2777 63.8432 14.562 67.984 20.0852" stroke="#07294A" stroke-width="0.212949" stroke-linecap="round" stroke-linejoin="round"/>
<path d="M77.1809 20.4818C77.1809 20.4818 78.9311 18.1308 78.2285 15.2537" stroke="#07294A" stroke-width="0.212949" stroke-linecap="round" stroke-linejoin="round"/>
<path d="M60.672 33.7335C60.672 33.7335 43.4103 47.664 46.1144 65.4099C48.8186 83.1559 66.6815 84.3389 66.6815 84.3389L69.4628 79.4377L58.0713 60.7974L68.9375 49.6921" stroke="#07294A" stroke-width="0.212949" stroke-linecap="round" stroke-linejoin="round"/>
<path d="M80.6803 33.7335C80.6803 33.7335 86.4513 39.7769 89.2681 46.5372" stroke="#07294A" stroke-width="0.212949" stroke-linecap="round" stroke-linejoin="round"/>
<path d="M85.329 60.396C85.329 60.396 87.4653 64.9029 93.3243 66.3676C99.1424 67.8222 105.294 41.8333 92.2499 25.1417C91.9707 24.7772 91.5794 24.5146 91.1363 24.3943C90.3313 24.1856 89.2941 24.4815 89.7232 27.7209C89.7232 27.7209 87.916 27.0811 88.8174 29.1474C89.7187 31.2137 91.3933 39.2297 88.2462 44.3482" stroke="#07294A" stroke-width="0.212949" stroke-linecap="round" stroke-linejoin="round"/>
<path d="M325.15 60.3471C325.15 60.3471 293.006 120.018 361.883 124.099L365.199 126.905V107.263L342.059 100.12L341.379 52.6715" fill="#DFEFFF"/>
<path d="M329.441 59.9296L349.355 58.5654L352.976 60.04L354.678 147.008H336.181L338.137 143.503L329.441 59.9296Z" fill="#F0F8FF"/>
<path d="M331.691 18.1059V21.2492C331.691 23.6797 333.35 25.7962 335.71 26.3764L340.712 27.6058V15.316L336.553 14.2938C335.382 14.0059 334.143 14.2724 333.194 15.0165C332.245 15.7607 331.691 16.8998 331.691 18.1059V18.1059Z" fill="#F0F8FF"/>
<path d="M331.691 21.2491C331.691 23.6797 333.35 25.7962 335.71 26.3763L340.712 27.6057" stroke="#07294A" stroke-width="0.212949" stroke-linecap="round" stroke-linejoin="round"/>
<path d="M336.787 20.6255C336.92 20.6255 337.028 20.5175 337.028 20.3843C337.028 20.2511 336.92 20.1431 336.787 20.1431C336.654 20.1431 336.546 20.2511 336.546 20.3843C336.546 20.5175 336.654 20.6255 336.787 20.6255Z" fill="#07294A"/>
<path d="M333.082 20.6255C333.215 20.6255 333.323 20.5175 333.323 20.3843C333.323 20.2511 333.215 20.1431 333.082 20.1431C332.949 20.1431 332.841 20.2511 332.841 20.3843C332.841 20.5175 332.949 20.6255 333.082 20.6255Z" fill="#07294A"/>
<path d="M334.169 21.8232V18.1058H332.307" stroke="#07294A" stroke-width="0.212949" stroke-linecap="round" stroke-linejoin="round"/>
<path d="M337.241 18.1058H335.379" stroke="#07294A" stroke-width="0.212949" stroke-linecap="round" stroke-linejoin="round"/>
<path d="M340.118 20.0106V21.3015C340.815 21.3015 341.379 20.737 341.379 20.0406C341.379 20.002 341.377 19.9637 341.374 19.9259C341.303 19.1429 340.118 19.2244 340.118 20.0106Z" fill="#F0F8FF"/>
<path d="M340.118 21.3015C340.815 21.3015 341.379 20.737 341.379 20.0406" stroke="#07294A" stroke-width="0.212949" stroke-linecap="round" stroke-linejoin="round"/>
<path d="M335.187 22.2576C335.344 22.4141 335.556 22.5021 335.777 22.5021C335.999 22.5021 336.211 22.4141 336.368 22.2576" stroke="#79C9E7" stroke-width="0.212949" stroke-linecap="round" stroke-linejoin="round"/>
<path d="M334.169 21.8262L334.983 22.0264" stroke="#07294A" stroke-width="0.212949" stroke-linecap="round" stroke-linejoin="round"/>
<path d="M325.15 40.6468V60.3471L353.058 67.2064V45.2657C353.058 37.4859 347.747 30.7112 340.192 28.8544H340.192C336.569 27.9639 332.738 28.7883 329.801 31.0902C326.865 33.3921 325.15 36.9159 325.15 40.6468V40.6468Z" fill="#79C9E7"/>
<path d="M338.137 143.503L329.441 59.9296" stroke="#07294A" stroke-width="0.212949" stroke-linecap="round" stroke-linejoin="round"/>
<path d="M334.576 25.9541C334.576 25.9541 334.576 29.9973 327.716 29.6332L326.145 28.0627C326.145 28.0627 327.013 10.1608 339.192 12.4871C341.117 12.8549 342.834 13.995 343.767 15.7185C344.809 17.6414 344.976 20.433 340.749 23.4609" stroke="#07294A" stroke-width="0.212949" stroke-linecap="round" stroke-linejoin="round"/>
<path d="M325.555 28.6759C325.619 28.6759 327.128 30.2491 327.128 30.2491" stroke="#79C9E7" stroke-width="0.212949" stroke-linecap="round" stroke-linejoin="round"/>
<path d="M331.691 19.7618C331.691 19.7618 335.803 18.7414 337.028 16.2328C337.028 16.2328 338.369 19.7066 340.118 20.0106" stroke="#07294A" stroke-width="0.212949" stroke-linecap="round" stroke-linejoin="round"/>
<path d="M325.257 29.4625C325.257 29.4625 320.92 31.908 321.657 37.8606C321.89 39.8344 322.881 41.6403 324.421 42.8966C325.212 43.5612 326.305 43.7346 327.262 43.3475C328.22 42.9603 328.885 42.0758 328.992 41.0484C329.12 39.89 329.365 38.7007 329.821 37.8039C331.691 34.1189 326.057 30.2491 326.057 30.2491" stroke="#07294A" stroke-width="0.212949" stroke-linecap="round" stroke-linejoin="round"/>
<path d="M347.276 32.5376C347.276 32.5376 375.117 63.7686 348.075 79.7556L343.653 72.345L349.946 60.8773L343.653 50.3327" stroke="#07294A" stroke-width="0.212949" stroke-linecap="round" stroke-linejoin="round"/>
<path d="M314.799 32.8127C314.549 31.6936 314.66 30.524 315.118 29.4725C316.425 26.4037 320 18.8035 323.439 18.5654C327.752 18.2668 326.392 22.0651 324.861 22.9722C324.007 23.5098 322.915 23.4875 322.083 22.9155C322.083 22.9155 317.952 27.9351 318.398 29.4917C318.398 29.4917 320.779 29.4917 319.986 31.7594C319.291 33.7436 315.689 36.6393 314.799 32.8127Z" fill="#79C9E7"/>
<path d="M318.227 26.6184C318.227 26.6184 321.459 23.8862 318.227 22.9508C314.996 22.0153 307.768 32.0498 308.958 43.1046C310.149 54.1595 318.042 61.4727 325.15 55.435" stroke="#07294A" stroke-width="0.212949" stroke-linecap="round" stroke-linejoin="round"/>
<path d="M318.344 33.9171C318.344 33.9171 318.869 38.8527 320.504 41.829L322.344 40.2501" stroke="#07294A" stroke-width="0.212949" stroke-linecap="round" stroke-linejoin="round"/>
</g>
<defs>
<clipPath id="clip0_648_12181">
<rect width="408" height="64" fill="white" transform="translate(0 0.602539)"/>
</clipPath>
</defs>
</svg>
