<svg width="620" height="395" viewBox="0 0 620 395" fill="none" xmlns="http://www.w3.org/2000/svg">
<g clip-path="url(#clip0_345_9843)">
<path fill-rule="evenodd" clip-rule="evenodd" d="M523.5 24C523.5 10.7452 512.755 0 499.5 0H385.992C372.737 0 361.992 10.7452 361.992 24V138.729C361.992 151.984 351.247 162.729 337.992 162.729H336.581C323.326 162.729 312.581 151.984 312.581 138.729V100.342C312.581 87.0871 301.836 76.342 288.581 76.342H120.5C107.245 76.342 96.5 87.0871 96.5 100.342V284.046C96.5 297.301 107.245 308.046 120.5 308.046H237.695C250.95 308.046 261.695 318.792 261.695 332.046V370.433C261.695 383.688 272.44 394.433 285.695 394.433H363.067C376.322 394.433 387.067 383.688 387.067 370.433V332.047C387.067 318.792 397.812 308.047 411.067 308.047H499.5C512.755 308.047 523.5 297.301 523.5 284.047V24Z" fill="url(#paint0_linear_345_9843)"/>
<path d="M418.118 80.9328H368.776L372.817 71.8586H422.159L418.118 80.9328Z" fill="#79C9E7"/>
<path d="M272.362 99.9322H223.021L227.061 90.8577H276.403L272.362 99.9322Z" fill="#79C9E7"/>
<path d="M317.841 128.488L295.153 151.071C295.153 151.071 254.994 283.264 261.374 348.341L252.035 356.893L297.971 367.808L328.19 210.152L317.841 128.488Z" fill="#79C9E7"/>
<path d="M303.906 294.511C303.894 304.025 304.773 313.519 306.533 322.868L326.689 217.709C312.699 236.649 303.906 264.041 303.906 294.511Z" fill="#07294A"/>
<path d="M306.091 150.027L364.951 146.615V210.426V367.808H318.692L323.583 359.044L306.091 150.027Z" fill="#79C9E7"/>
<path d="M303.959 45.4255V53.287C303.959 59.3657 308.109 64.6591 314.012 66.11L326.522 69.1848V38.4482L316.12 35.8915C313.191 35.1716 310.093 35.8381 307.719 37.6991C305.346 39.5602 303.959 42.4091 303.959 45.4255V45.4255Z" fill="#F0F8FF"/>
<path d="M303.959 53.2869C303.959 59.3656 308.109 64.659 314.012 66.1099L326.522 69.1847" stroke="#07294A" stroke-width="0.539302" stroke-linecap="round" stroke-linejoin="round"/>
<path d="M316.705 51.7271C317.038 51.7271 317.308 51.457 317.308 51.1238C317.308 50.7906 317.038 50.5205 316.705 50.5205C316.372 50.5205 316.102 50.7906 316.102 51.1238C316.102 51.457 316.372 51.7271 316.705 51.7271Z" fill="#07294A"/>
<path d="M307.438 51.7271C307.771 51.7271 308.042 51.457 308.042 51.1238C308.042 50.7906 307.771 50.5205 307.438 50.5205C307.105 50.5205 306.835 50.7906 306.835 51.1238C306.835 51.457 307.105 51.7271 307.438 51.7271Z" fill="#07294A"/>
<path d="M310.157 54.7227V45.4253H305.499" stroke="#07294A" stroke-width="0.539302" stroke-linecap="round" stroke-linejoin="round"/>
<path d="M317.841 45.4253H313.184" stroke="#07294A" stroke-width="0.539302" stroke-linecap="round" stroke-linejoin="round"/>
<path d="M325.036 50.1891V53.4177C326.778 53.4177 328.19 52.0058 328.19 50.2643C328.19 50.1675 328.185 50.0718 328.177 49.9772C328 48.0191 325.036 48.2229 325.036 50.1891Z" fill="#F0F8FF"/>
<path d="M325.036 53.4178C326.778 53.4178 328.19 52.006 328.19 50.2644" stroke="#07294A" stroke-width="0.539302" stroke-linecap="round" stroke-linejoin="round"/>
<path d="M312.704 55.8088C313.096 56.2004 313.627 56.4204 314.181 56.4204C314.734 56.4204 315.266 56.2004 315.657 55.8088" stroke="#79C9E7" stroke-width="0.539302" stroke-linecap="round" stroke-linejoin="round"/>
<path d="M310.157 54.73L312.194 55.2307" stroke="#07294A" stroke-width="0.539302" stroke-linecap="round" stroke-linejoin="round"/>
<path d="M303.481 44.2812C303.481 44.2812 309.224 47.9676 320.212 40.1694C320.212 40.1694 319.929 48.6357 324.608 50.074" stroke="#07294A" stroke-width="0.539302" stroke-linecap="round" stroke-linejoin="round"/>
<path d="M303.959 46.9752C303.959 46.9752 300.575 45.2029 300.504 41.3038C300.504 41.3038 310.358 24.7858 323.615 33.7183C323.615 33.7183 331.13 35.5615 331.697 44.7067C332.264 53.8519 326.522 58.6726 326.522 58.6726" stroke="#07294A" stroke-width="0.539302" stroke-linecap="round" stroke-linejoin="round"/>
<path d="M327.23 33.2219C327.514 33.2219 330.57 34.6398 331.736 37.6173" stroke="#79C9E7" stroke-width="0.539302" stroke-linecap="round" stroke-linejoin="round"/>
<path d="M329.483 31.9459C329.483 31.9459 333.044 23.7223 340.488 27.9759C347.931 32.2294 347.01 44.2812 347.01 44.2812L336.092 46.7625C336.092 46.7625 336.028 34.2773 332.335 35.603" stroke="#07294A" stroke-width="0.539302" stroke-linecap="round" stroke-linejoin="round"/>
<path d="M295.153 101.8V151.071L364.951 168.226V113.352C364.951 93.895 351.668 76.9515 332.773 72.3075H332.773C323.712 70.0804 314.129 72.1422 306.786 77.8993C299.443 83.6563 295.153 92.4694 295.153 101.8V101.8Z" fill="#F0F8FF"/>
<path d="M323.583 359.043L306.091 150.027" stroke="#07294A" stroke-width="0.539302" stroke-linecap="round" stroke-linejoin="round"/>
<path d="M349.078 80.338C349.078 80.338 369.855 92.5141 383.467 118.886C383.467 118.886 375.937 90.2907 380.757 82.3507C385.578 74.4107 386.145 80.338 386.145 80.338C386.145 80.338 397.488 71.8585 399.473 76.1121C401.458 80.3657 394.085 87.4549 394.085 87.4549C394.085 87.4549 418.967 128.207 398.906 143.505C374.235 162.318 347.046 123.185 347.046 123.185" stroke="#07294A" stroke-width="0.539302" stroke-linecap="round" stroke-linejoin="round"/>
<path d="M304.775 79.6235C304.775 79.6235 290.298 98.4857 281.365 128.488C281.365 128.488 263.926 97.2383 254.993 96.8129C246.061 96.3876 252.035 100.641 252.035 100.641C252.035 100.641 238.404 94.2608 235.852 99.3651C233.3 104.469 252.035 111.769 252.035 111.769C252.035 111.769 252.866 147.856 266.478 159.766C276.955 168.934 286.422 166.154 294.107 157.637" stroke="#07294A" stroke-width="0.539302" stroke-linecap="round" stroke-linejoin="round"/>
<path d="M161.474 167.303C161.474 167.303 95.2274 226.804 111.257 265.276C127.287 303.748 167.683 309.519 167.683 309.519L174.095 325.427L188.215 290.283L161.474 253.094C161.474 253.094 187.781 243.476 190.556 221.675C193.331 199.874 192.896 151.911 192.896 151.911" fill="#79C9E7"/>
<path d="M190.556 221.675C188.594 237.083 174.88 246.404 167.005 250.546C163.586 243.437 161.474 233.644 161.474 222.83C161.474 201.109 169.996 183.501 180.509 183.501C185.031 183.501 189.184 186.762 192.45 192.204C192.11 203.114 191.531 214.011 190.556 221.675Z" fill="#07294A"/>
<path d="M172.881 152.866C172.881 152.866 164.251 293.717 188.625 360.405L183.534 367.885H226.885C226.885 367.885 231.621 188.731 231.621 150.062L172.881 152.866Z" fill="#79C9E7"/>
<path d="M186.667 43.8879V62.1928L209.343 67.7664V36.8758L186.667 31.3022V43.8879Z" fill="#F0F8FF"/>
<path d="M199.477 50.2212C199.142 50.2212 198.87 49.9497 198.87 49.6149C198.87 49.28 199.142 49.0085 199.477 49.0085C199.812 49.0085 200.083 49.28 200.083 49.6149C200.083 49.9497 199.812 50.2212 199.477 50.2212Z" fill="#07294A"/>
<path d="M190.164 50.2212C189.829 50.2212 189.558 49.9497 189.558 49.6149C189.558 49.28 189.829 49.0085 190.164 49.0085C190.499 49.0085 190.771 49.28 190.771 49.6149C190.771 49.9497 190.499 50.2212 190.164 50.2212Z" fill="#07294A"/>
<path d="M192.896 53.2319V43.8879H188.215" stroke="#07294A" stroke-width="0.539302" stroke-linecap="round" stroke-linejoin="round"/>
<path d="M200.618 43.8881H195.937" stroke="#07294A" stroke-width="0.539302" stroke-linecap="round" stroke-linejoin="round"/>
<path d="M207.849 48.6755V51.9203C208.69 51.9203 209.496 51.5864 210.09 50.992C210.685 50.3977 211.019 49.5916 211.019 48.7511C211.019 48.6538 211.014 48.5577 211.006 48.4626C210.828 46.4946 207.849 46.6995 207.849 48.6755Z" fill="#F0F8FF"/>
<path d="M207.849 51.9204C209.6 51.9204 211.019 50.5015 211.019 48.7512" stroke="#07294A" stroke-width="0.539302" stroke-linecap="round" stroke-linejoin="round"/>
<path d="M194.943 55.5352C196.714 55.5352 198.15 54.0991 198.15 52.3276" stroke="#79C9E7" stroke-width="0.539302" stroke-linecap="round" stroke-linejoin="round"/>
<path d="M186.667 62.1929L209.343 67.7663" stroke="#07294A" stroke-width="0.539302" stroke-linecap="round" stroke-linejoin="round"/>
<path d="M192.896 53.2393L194.943 53.7425" stroke="#07294A" stroke-width="0.539302" stroke-linecap="round" stroke-linejoin="round"/>
<path d="M207.168 46.777C207.168 46.777 203.606 43.4996 202.822 39.7234C202.822 39.7234 196.908 41.2196 193.631 40.5784V38.5835C193.631 38.5835 189.641 40.1509 185.651 39.4385V37.301" stroke="#07294A" stroke-width="0.539302" stroke-linecap="round" stroke-linejoin="round"/>
<path d="M185.651 35.5198H183.158C183.158 35.5198 188.002 24.4052 206.669 29.3213L205.316 26.7563C205.316 26.7563 210.873 27.6826 211.087 32.5987C211.087 32.5987 212.155 31.9574 214.008 33.7386L212.44 34.6648C212.44 34.6648 216.078 47.4894 209.343 54.4717" stroke="#07294A" stroke-width="0.539302" stroke-linecap="round" stroke-linejoin="round"/>
<path d="M231.621 100.545V150.062L161.474 167.303V112.155C161.474 92.6002 174.824 75.572 193.813 70.9047H193.813C202.92 68.6664 212.55 70.7386 219.93 76.5244C227.31 82.3103 231.621 91.1675 231.621 100.545V100.545Z" fill="#F0F8FF"/>
<path d="M172.88 152.866C172.88 152.866 164.25 293.717 188.624 360.405" stroke="#07294A" stroke-width="0.539302" stroke-linecap="round" stroke-linejoin="round"/>
<path d="M218.541 75.4983C218.541 75.4983 257.967 104.844 261.672 143.033C265.377 181.221 193.536 196.326 180.011 131.348C180.011 131.348 173.04 127.073 175.32 120.518C175.32 120.518 169.754 116.528 171.397 115.104C173.04 113.679 228.328 139.328 228.328 139.328L207.849 117.098" stroke="#07294A" stroke-width="0.539302" stroke-linecap="round" stroke-linejoin="round"/>
<path d="M169.569 87.212C169.569 87.212 150.598 104.927 145.754 125.732C145.754 125.732 142.261 91.5245 137.987 87.212C133.712 82.8995 131.717 87.212 131.717 87.212C131.717 87.212 116.897 80.5664 116.897 85.2953C116.897 90.0243 126.587 95.1541 126.587 95.1541C126.587 95.1541 107.158 188.061 161.473 163.837" stroke="#07294A" stroke-width="0.539302" stroke-linecap="round" stroke-linejoin="round"/>
<path d="M128.528 80.6196C117.481 80.6196 108.526 71.6641 108.526 60.6168C108.526 49.5696 117.481 40.614 128.528 40.614C139.576 40.614 148.531 49.5696 148.531 60.6168C148.531 71.6641 139.576 80.6196 128.528 80.6196Z" fill="#79C9E7"/>
<path d="M469.523 147.854C469.523 147.854 542.574 187.153 578.8 288.931L591.512 292.642L558.324 317.244L482.834 238.303L439.744 219.327L433.919 147.854" fill="#DFEFFF"/>
<path d="M458.016 150.683C458.016 150.683 466.722 292.778 442.133 360.056L447.269 367.602H403.535C403.535 367.602 398.757 186.864 398.757 147.854L458.016 150.683Z" fill="#F0F8FF"/>
<path d="M443.272 40.7415V59.2083L420.396 64.8307V33.6671L443.272 28.0447V40.7415Z" fill="#F0F8FF"/>
<path d="M430.349 47.1306C430.687 47.1306 430.961 46.8567 430.961 46.5189C430.961 46.1811 430.687 45.9072 430.349 45.9072C430.011 45.9072 429.737 46.1811 429.737 46.5189C429.737 46.8567 430.011 47.1306 430.349 47.1306Z" fill="#07294A"/>
<path d="M439.744 47.1306C440.082 47.1306 440.356 46.8567 440.356 46.5189C440.356 46.1811 440.082 45.9072 439.744 45.9072C439.407 45.9072 439.133 46.1811 439.133 46.5189C439.133 46.8567 439.407 47.1306 439.744 47.1306Z" fill="#07294A"/>
<path d="M436.988 50.1676V40.7415H441.711" stroke="#07294A" stroke-width="0.539302" stroke-linecap="round" stroke-linejoin="round"/>
<path d="M429.197 40.7415H433.92" stroke="#07294A" stroke-width="0.539302" stroke-linecap="round" stroke-linejoin="round"/>
<path d="M421.902 45.5714V48.8448C420.137 48.8448 418.705 47.4134 418.705 45.6476C418.705 45.5495 418.709 45.4525 418.718 45.3566C418.897 43.3713 421.902 43.578 421.902 45.5714Z" fill="#F0F8FF"/>
<path d="M421.902 48.8449C420.137 48.8449 418.705 47.4135 418.705 45.6477" stroke="#07294A" stroke-width="0.539302" stroke-linecap="round" stroke-linejoin="round"/>
<path d="M434.922 52.4916C434.064 52.4916 433.241 52.1506 432.634 51.5438C432.027 50.9369 431.687 50.1138 431.687 49.2556" stroke="#79C9E7" stroke-width="0.539302" stroke-linecap="round" stroke-linejoin="round"/>
<path d="M443.272 59.208L420.396 64.8307" stroke="#07294A" stroke-width="0.539302" stroke-linecap="round" stroke-linejoin="round"/>
<path d="M436.987 50.1753L434.922 50.6829" stroke="#07294A" stroke-width="0.539302" stroke-linecap="round" stroke-linejoin="round"/>
<path d="M420.395 53.6499C420.395 53.6499 414.252 41.5026 417.055 34.1711C419.858 26.8396 440.99 25.5458 444.584 27.7022C448.178 29.8585 444.979 37.9716 443.272 39.198" stroke="#07294A" stroke-width="0.539302" stroke-linecap="round" stroke-linejoin="round"/>
<path d="M421.453 44.4412C421.453 44.4412 423.452 41.9339 424.171 37.0463C424.171 37.0463 440.53 36.0153 443.272 34.6743" stroke="#07294A" stroke-width="0.539302" stroke-linecap="round" stroke-linejoin="round"/>
<path d="M469.524 97.8995V147.854L398.757 165.248V109.612C398.757 89.8843 412.225 72.7055 431.382 67.9969H431.382C440.569 65.7389 450.285 67.8294 457.73 73.6664C465.175 79.5034 469.524 88.4389 469.524 97.8995V97.8995Z" fill="#79C9E7"/>
<path d="M458.016 150.683C458.016 150.683 466.722 292.778 442.133 360.056" stroke="#07294A" stroke-width="0.539302" stroke-linecap="round" stroke-linejoin="round"/>
<path d="M416.322 75.0132C416.322 75.0132 373.285 97.7809 345.685 152.625C318.084 207.469 341.095 214.497 347.995 213.203C354.895 211.909 354.033 201.559 354.033 201.559C354.033 201.559 359.639 204.146 359.639 201.99C359.639 200.608 358.394 197.134 357.5 194.818C356.9 193.254 356.901 191.522 357.503 189.959C360.782 181.368 374.332 150.242 417.857 127.899" stroke="#07294A" stroke-width="0.539302" stroke-linecap="round" stroke-linejoin="round"/>
<path d="M459.329 75.0132C459.329 75.0132 474.776 85.6354 482.539 119.562C482.539 119.562 481.102 94.2607 479.664 93.6857C478.227 93.1107 474.201 83.6228 480.527 85.0604C480.527 85.0604 478.514 76.4351 486.564 79.0227C494.615 81.6103 512.728 120.424 506.69 139.687C500.652 158.95 488.255 160.602 488.255 160.602" stroke="#07294A" stroke-width="0.539302" stroke-linecap="round" stroke-linejoin="round"/>
<path d="M398.823 139.432L399.121 178.278L412.513 130.772C407.798 133.412 403.228 136.302 398.823 139.432Z" fill="#07294A"/>
<path d="M598.236 261.116C609.847 261.116 619.259 251.704 619.259 240.093C619.259 228.482 609.847 219.07 598.236 219.07C586.625 219.07 577.213 228.482 577.213 240.093C577.213 251.704 586.625 261.116 598.236 261.116Z" fill="#79C9E7"/>
</g>
<defs>
<linearGradient id="paint0_linear_345_9843" x1="310" y1="0" x2="310" y2="394.433" gradientUnits="userSpaceOnUse">
<stop stop-color="#FFF2C5" stop-opacity="0"/>
<stop offset="1" stop-color="#FFF2C5"/>
</linearGradient>
<clipPath id="clip0_345_9843">
<rect width="620" height="394.433" fill="white"/>
</clipPath>
</defs>
</svg>
