<svg width="201" height="200" viewBox="0 0 201 200" fill="none" xmlns="http://www.w3.org/2000/svg">
<rect x="0.5" width="200" height="200" rx="60" fill="#C9DFF1"/>
<g clip-path="url(#clip0_587_1340)">
<path d="M58 42H106C110.418 42 114 45.582 114 50V150C114 154.418 110.418 158 106 158H58C53.582 158 50 154.418 50 150V50C50 45.582 53.582 42 58 42Z" fill="#7494DD"/>
<path d="M50 108V150C50 154.418 53.582 158 58 158H92C68.7861 158 50 135.636 50 108Z" fill="#5578C6"/>
<path d="M68 50H96C98.209 50 100 48.209 100 46V42H64V46C64 48.209 65.791 50 68 50Z" fill="#58595B"/>
<path d="M78 70H166V98H78V70Z" fill="#47A9EF"/>
<path d="M86 148C86 150.209 84.209 152 82 152C79.791 152 78 150.209 78 148C78 145.791 79.791 144 82 144C84.209 144 86 145.791 86 148Z" fill="#58595B"/>
<path d="M56 136H108V140H56V136Z" fill="#143A5A"/>
<path d="M82 154C78.6865 154 76 151.313 76 148C76 144.687 78.6865 142 82 142C85.3135 142 88 144.687 88 148C88 151.313 85.3135 154 82 154ZM82 146C80.8955 146 80 146.896 80 148C80 149.104 80.8955 150 82 150C83.1045 150 84 149.104 84 148C84 146.896 83.1045 146 82 146Z" fill="#143A5A"/>
<path d="M112 150C112 153.313 109.313 156 106 156H58C54.6865 156 52 153.313 52 150V50C52 46.6865 54.6865 44 58 44H60C61.1046 44 62 44.8954 62 46C62 49.3135 64.6865 52 68 52H96C99.3135 52 102 49.3135 102 46C102 44.8954 102.895 44 104 44H106C109.313 44 112 46.6865 112 50V62C112 63.1046 112.895 64 114 64C115.105 64 116 63.1046 116 62V50C115.993 44.4795 111.521 40.0068 106 40H58C52.4795 40.0068 48.0068 44.4795 48 50V150C48.0068 155.521 52.4795 159.993 58 160H106C111.521 159.993 115.993 155.521 116 150V106C116 104.895 115.105 104 114 104C112.895 104 112 104.895 112 106V150ZM66 46C66 44.8954 66.8954 44 68 44H96C97.1046 44 98 44.8954 98 46C98 47.1045 97.1045 48 96 48H68C66.8955 48 66 47.1045 66 46Z" fill="#143A5A"/>
<path d="M80 68C77.7909 68 76 69.7909 76 72V96C76 98.2091 77.7909 100 80 100H164C166.209 100 168 98.2091 168 96V72C168 69.7909 166.209 68 164 68H80ZM164 92C164 94.2091 162.209 96 160 96H84C81.7909 96 80 94.2091 80 92V76C80 73.7909 81.7909 72 84 72H160C162.209 72 164 73.7909 164 76V92Z" fill="#143A5A"/>
<path d="M86.0723 89.7324L90 87.4639V92H94V87.4639L97.9277 89.7324L99.9277 86.2676L96 84L99.9277 81.7324L97.9277 78.2676L94 80.5361V76H90V80.5361L86.0723 78.2676L84.0723 81.7324L88 84L84.0723 86.2676L86.0723 89.7324Z" fill="#143A5A"/>
<path d="M106.072 89.7324L110 87.4639V92H114V87.4639L117.928 89.7324L119.928 86.2676L116 84L119.928 81.7324L117.928 78.2676L114 80.5361V76H110V80.5361L106.072 78.2676L104.072 81.7324L108 84L104.072 86.2676L106.072 89.7324Z" fill="#143A5A"/>
<path d="M126.072 89.7324L130 87.4639V92H134V87.4639L137.928 89.7324L139.928 86.2676L136 84L139.928 81.7324L137.928 78.2676L134 80.5361V76H130V80.5361L126.072 78.2676L124.072 81.7324L128 84L124.072 86.2676L126.072 89.7324Z" fill="#143A5A"/>
<path d="M146.072 89.7324L150 87.4639V92H154V87.4639L157.928 89.7324L159.928 86.2676L156 84L159.928 81.7324L157.928 78.2676L154 80.5361V76H150V80.5361L146.072 78.2676L144.072 81.7324L148 84L144.072 86.2676L146.072 89.7324Z" fill="#143A5A"/>
</g>
<defs>
<clipPath id="clip0_587_1340">
<rect width="120" height="120" fill="white" transform="translate(48 40)"/>
</clipPath>
</defs>
</svg>
