<svg width="201" height="200" viewBox="0 0 201 200" fill="none" xmlns="http://www.w3.org/2000/svg">
<rect x="0.5" width="200" height="200" rx="60" fill="#C9DFF1"/>
<path d="M123.931 129.306C125.728 124.686 127.041 119.891 127.85 115H101V126.25C108.748 126.214 116.464 127.242 123.931 129.306Z" fill="#7ED63E"/>
<path d="M101.881 150.606C110.975 150.1 119 141.813 123.931 129.306C128.709 130.609 133.302 132.511 137.6 134.969C132.983 139.817 127.447 143.696 121.314 146.381C115.181 149.066 108.575 150.502 101.881 150.606Z" fill="#4E901E"/>
<path d="M123.931 129.306C125.728 124.686 127.041 119.891 127.85 115H149.375C147.058 122.482 143.026 129.32 137.6 134.969C133.301 132.511 128.708 130.608 123.931 129.306Z" fill="#5EAC24"/>
<path d="M101.881 150.606C101.581 150.625 101.3 150.625 101 150.625V126.25C108.748 126.214 116.464 127.242 123.931 129.306C119 141.813 110.975 150.1 101.881 150.606Z" fill="#5EAC24"/>
<path d="M78.0687 70.6938C76.2718 75.3145 74.9586 80.1088 74.1499 85.0001H101V73.7501C93.2523 73.7863 85.5364 72.758 78.0687 70.6938Z" fill="#A4E276"/>
<path d="M101 73.7501V85.0001H127.85C127.041 80.1088 125.728 75.3145 123.931 70.6938C116.464 72.758 108.748 73.7863 101 73.7501Z" fill="#91DC5A"/>
<path d="M78.0687 129.306C76.2718 124.686 74.9586 119.891 74.1499 115H101V126.25C93.2523 126.214 85.5364 127.242 78.0687 129.306Z" fill="#91DC5A"/>
<path d="M64.4094 65.0352C58.9888 70.6882 54.9547 77.5227 52.625 85.0002H74.15C74.9587 80.1089 76.2719 75.3145 78.0688 70.6939C73.2947 69.3927 68.705 67.4913 64.4094 65.0352Z" fill="#B6EB92"/>
<path d="M99.8638 49.4219C90.8751 50.0688 82.9532 58.3056 78.0688 70.6938C85.5366 72.7579 93.2524 73.7863 101 73.75V49.375C100.625 49.375 100.25 49.4125 99.8638 49.4219Z" fill="#B6EB92"/>
<path d="M102.136 49.4219C101.75 49.4125 101.375 49.375 101 49.375V73.75C108.748 73.7863 116.464 72.7579 123.931 70.6938C119.047 58.3056 111.125 50.0688 102.136 49.4219Z" fill="#A4E276"/>
<path d="M123.931 70.6938C128.705 69.3925 133.295 67.4911 137.591 65.035C133.001 60.225 127.506 56.3695 121.422 53.69C115.337 51.0106 108.783 49.5601 102.136 49.4219C111.125 50.0688 119.047 58.3056 123.931 70.6938Z" fill="#91DC5A"/>
<path d="M123.931 70.6939C125.728 75.3145 127.041 80.1089 127.85 85.0002H149.375C147.045 77.5227 143.011 70.6882 137.591 65.0352C133.295 67.4913 128.705 69.3927 123.931 70.6939Z" fill="#7ED63E"/>
<path d="M101.881 49.3938C101.581 49.375 101.3 49.375 101 49.375C101.375 49.375 101.75 49.4125 102.136 49.4219C102.05 49.4163 101.968 49.3994 101.881 49.3938Z" fill="#9BC9FF"/>
<path d="M99.8636 49.4219C93.2167 49.5601 86.6626 51.0106 80.5782 53.69C74.4937 56.3695 68.9987 60.225 64.4092 65.035C68.7048 67.4911 73.2945 69.3925 78.0686 70.6938C82.9529 58.3056 90.8748 50.0688 99.8636 49.4219Z" fill="#DCF4CA"/>
<path d="M100.119 49.3938C100.033 49.3938 99.95 49.4163 99.8638 49.4219C100.25 49.4125 100.625 49.375 101 49.375C100.7 49.375 100.419 49.375 100.119 49.3938Z" fill="#9BC9FF"/>
<path d="M100.119 150.606C91.0249 150.1 82.9999 141.813 78.0687 129.306C73.2914 130.609 68.6985 132.511 64.3999 134.969C69.0169 139.817 74.5533 143.696 80.686 146.381C86.8187 149.066 93.4248 150.502 100.119 150.606Z" fill="#91DC5A"/>
<path d="M78.0688 129.306C76.2719 124.686 74.9587 119.891 74.15 115H52.625C54.9417 122.482 58.9737 129.32 64.4 134.969C68.6986 132.511 73.2915 130.608 78.0688 129.306Z" fill="#A4E276"/>
<path d="M100.119 150.606C100.419 150.625 100.7 150.625 101 150.625V126.25C93.2524 126.214 85.5366 127.242 78.0688 129.306C83.0001 141.813 91.0251 150.1 100.119 150.606Z" fill="#7ED63E"/>
<path d="M151.625 85H50.375C48.3039 85 46.625 86.6789 46.625 88.75V111.25C46.625 113.321 48.3039 115 50.375 115H151.625C153.696 115 155.375 113.321 155.375 111.25V88.75C155.375 86.6789 153.696 85 151.625 85Z" fill="#2488FF"/>
<path d="M151.625 85H147.875C148.87 85 149.823 85.3951 150.527 86.0984C151.23 86.8016 151.625 87.7554 151.625 88.75V111.25C151.625 112.245 151.23 113.198 150.527 113.902C149.823 114.605 148.87 115 147.875 115H151.625C152.62 115 153.573 114.605 154.277 113.902C154.98 113.198 155.375 112.245 155.375 111.25V88.75C155.375 87.7554 154.98 86.8016 154.277 86.0984C153.573 85.3951 152.62 85 151.625 85Z" fill="#006DF0"/>
<path d="M143.994 146.875L131 154.375L117.875 131.65L109.062 138.888L111.8 106.113L141.537 120.138L130.869 124.15L143.994 146.875Z" fill="#BDBDBD"/>
<path d="M151.625 83.1251H150.706C147.182 72.7378 140.493 63.7154 131.577 57.3255C122.662 50.9356 111.969 47.4993 101 47.4993C90.0312 47.4993 79.338 50.9356 70.4226 57.3255C61.5072 63.7154 54.8177 72.7378 51.2937 83.1251H50.375C48.8845 83.1296 47.4564 83.7236 46.4024 84.7776C45.3485 85.8315 44.7545 87.2596 44.75 88.7501V111.25C44.7545 112.741 45.3485 114.169 46.4024 115.223C47.4564 116.277 48.8845 116.871 50.375 116.875H51.2937C53.745 124.121 57.7584 130.739 63.05 136.263C63.0508 136.272 63.0551 136.281 63.0619 136.288C63.0688 136.295 63.0778 136.299 63.0875 136.3C63.0875 136.305 63.0895 136.31 63.093 136.313C63.0965 136.317 63.1013 136.319 63.1063 136.319C67.872 141.333 73.5906 145.345 79.9269 148.12C86.2631 150.895 93.0896 152.378 100.006 152.481C100.344 152.5 101.656 152.5 101.919 152.481C109.778 152.337 117.504 150.435 124.531 146.913L129.369 155.313C129.625 155.74 130.034 156.055 130.513 156.194C130.672 156.231 130.836 156.25 131 156.25C131.327 156.245 131.649 156.161 131.938 156.006L144.931 148.506C145.145 148.382 145.331 148.217 145.481 148.021C145.63 147.825 145.739 147.601 145.802 147.362C145.865 147.123 145.88 146.875 145.846 146.63C145.813 146.386 145.731 146.15 145.606 145.938L139.606 135.531C144.576 130.162 148.359 123.805 150.706 116.875H151.625C153.115 116.871 154.544 116.277 155.598 115.223C156.651 114.169 157.246 112.741 157.25 111.25V88.7501C157.246 87.2596 156.651 85.8315 155.598 84.7776C154.544 83.7236 153.115 83.1296 151.625 83.1251ZM146.731 83.1251H129.387C128.675 79.3084 127.666 75.5533 126.369 71.8939C130.134 70.7435 133.777 69.2236 137.244 67.3564C141.374 71.966 144.593 77.3166 146.731 83.1251ZM134.525 64.5626C131.471 66.1214 128.284 67.4016 125 68.3876C122.727 62.6592 119.241 57.4909 114.781 53.2376C122.167 55.3936 128.935 59.2754 134.525 64.5626ZM102.875 51.3814C110.019 52.3751 116.769 58.9564 121.363 69.4001C115.31 70.897 109.109 71.7084 102.875 71.8189V51.3814ZM102.875 75.5689C109.581 75.4553 116.251 74.5618 122.75 72.9064C123.943 76.2384 124.89 79.6539 125.581 83.1251H102.875V75.5689ZM99.125 51.3814V71.8189C92.8913 71.7084 86.6898 70.897 80.6375 69.4001C85.2312 58.9564 91.9813 52.3751 99.125 51.3814ZM99.125 75.5689V83.1251H76.4187C77.1102 79.6539 78.0565 76.2384 79.25 72.9064C85.7493 74.5618 92.4192 75.4553 99.125 75.5689ZM87.2188 53.2376C82.7589 57.4909 79.2728 62.6592 77 68.3876C73.7176 67.3983 70.53 66.1182 67.475 64.5626C73.0651 59.2754 79.8326 55.3936 87.2188 53.2376ZM64.7563 67.3564C68.2244 69.2203 71.8668 70.7401 75.6312 71.8939C74.334 75.5533 73.3246 79.3084 72.6125 83.1251H55.2688C57.4065 77.3166 60.6259 71.966 64.7563 67.3564ZM55.25 116.875H72.6125C73.3246 120.692 74.334 124.447 75.6312 128.106C71.8842 129.25 68.2601 130.764 64.8125 132.625C60.6483 128.034 57.4023 122.688 55.25 116.875ZM67.5125 135.419C70.5536 133.866 73.7291 132.592 77 131.613C79.2728 137.341 82.7589 142.509 87.2188 146.763C79.841 144.603 73.0851 140.714 67.5125 135.419ZM99.125 148.619C91.9813 147.625 85.2312 141.044 80.6375 130.6C86.6898 129.103 92.8913 128.292 99.125 128.181V148.619ZM99.125 124.431C92.4192 124.545 85.7493 125.438 79.25 127.094C78.0565 123.762 77.1102 120.346 76.4187 116.875H99.125V124.431ZM102.875 148.581V128.163C104.638 128.2 106.362 128.294 108.05 128.425L107.206 138.738C107.171 139.105 107.247 139.475 107.424 139.799C107.601 140.124 107.872 140.387 108.2 140.556C108.528 140.726 108.898 140.795 109.265 140.755C109.632 140.715 109.979 140.568 110.262 140.331L117.35 134.5L118.4 136.3C114.05 143.5 108.612 147.794 102.875 148.581ZM102.875 124.413V116.875H109.025L108.369 124.694C106.569 124.544 104.731 124.45 102.875 124.413ZM114.744 146.744C116.956 144.749 118.898 142.474 120.519 139.975L122.656 143.669C120.114 144.924 117.466 145.953 114.744 146.744ZM141.425 146.181L131.694 151.806L119.506 130.713C119.371 130.474 119.186 130.267 118.962 130.109C118.738 129.95 118.482 129.842 118.213 129.794C118.101 129.778 117.988 129.772 117.875 129.775C117.441 129.777 117.019 129.922 116.675 130.188L111.312 134.613L113.431 108.963L136.738 119.95L130.213 122.388C129.956 122.481 129.723 122.63 129.532 122.825C129.34 123.019 129.195 123.254 129.106 123.513C129.016 123.77 128.981 124.043 129.004 124.314C129.026 124.586 129.106 124.849 129.238 125.088L141.425 146.181ZM137.638 132.138L133.588 125.125L142.194 121.9C142.539 121.771 142.838 121.544 143.055 121.246C143.272 120.948 143.396 120.593 143.412 120.225C143.428 119.857 143.335 119.492 143.145 119.177C142.955 118.861 142.676 118.608 142.344 118.45L139.025 116.875H146.75C144.673 122.478 141.584 127.651 137.638 132.138ZM153.5 111.25C153.5 111.747 153.302 112.224 152.951 112.576C152.599 112.928 152.122 113.125 151.625 113.125H131.056L122.562 109.113C122.882 108.94 123.138 108.671 123.294 108.344L127.25 100.45L131.206 108.344C131.36 108.655 131.598 108.916 131.893 109.098C132.188 109.281 132.528 109.377 132.875 109.375C132.944 109.378 133.014 109.372 133.081 109.356C133.463 109.32 133.824 109.165 134.114 108.912C134.403 108.66 134.606 108.324 134.694 107.95L138.444 92.9501C138.542 92.4754 138.452 91.9812 138.194 91.5711C137.936 91.161 137.528 90.8669 137.058 90.7505C136.587 90.6341 136.09 90.7044 135.67 90.9467C135.25 91.189 134.941 91.5845 134.806 92.0501L132.294 102.119L128.919 95.4064C128.745 95.1187 128.501 94.8807 128.208 94.7155C127.916 94.5503 127.586 94.4635 127.25 94.4635C126.914 94.4635 126.584 94.5503 126.292 94.7155C125.999 94.8807 125.755 95.1187 125.581 95.4064L122.206 102.119L119.694 92.0501C119.559 91.5845 119.25 91.189 118.83 90.9467C118.41 90.7044 117.913 90.6341 117.442 90.7505C116.972 90.8669 116.564 91.161 116.306 91.5711C116.048 91.9812 115.958 92.4754 116.056 92.9501L119.769 107.8L112.588 104.406C112.315 104.28 112.016 104.22 111.716 104.233C111.416 104.247 111.123 104.332 110.862 104.481C110.599 104.635 110.376 104.849 110.212 105.107C110.049 105.365 109.951 105.659 109.925 105.963L109.325 113.125H50.375C49.8777 113.125 49.4008 112.928 49.0492 112.576C48.6975 112.224 48.5 111.747 48.5 111.25V88.7501C48.5 88.2528 48.6975 87.7759 49.0492 87.4243C49.4008 87.0727 49.8777 86.8751 50.375 86.8751H151.625C152.122 86.8751 152.599 87.0727 152.951 87.4243C153.302 87.7759 153.5 88.2528 153.5 88.7501V111.25Z" fill="#143A5A"/>
<path d="M110.829 90.6812C110.347 90.561 109.837 90.637 109.411 90.8926C108.985 91.1482 108.677 91.5624 108.556 92.0444L106.036 102.128L102.688 95.4119C102.514 95.1213 102.269 94.8807 101.975 94.7136C101.68 94.5465 101.348 94.4586 101.01 94.4586C100.671 94.4586 100.339 94.5465 100.045 94.7136C99.7504 94.8807 99.5047 95.1213 99.3314 95.4119L95.9733 102.128L93.4439 92.0444C93.3202 91.5651 93.012 91.1542 92.5866 90.9013C92.1611 90.6484 91.6529 90.5739 91.1728 90.6942C90.6927 90.8145 90.2796 91.1197 90.0236 91.5433C89.7676 91.967 89.6896 92.4746 89.8064 92.9556L93.5564 107.956C93.6503 108.327 93.8557 108.661 94.1449 108.912C94.4342 109.163 94.7934 109.32 95.1743 109.36C95.5552 109.401 95.9395 109.324 96.2754 109.14C96.6113 108.956 96.8828 108.674 97.0533 108.331L101 100.442L104.938 108.338C105.108 108.681 105.38 108.964 105.716 109.148C106.052 109.332 106.436 109.409 106.817 109.368C107.198 109.327 107.557 109.171 107.846 108.919C108.135 108.668 108.341 108.335 108.435 107.963L112.185 92.9631C112.246 92.7243 112.259 92.4757 112.224 92.2317C112.189 91.9877 112.106 91.753 111.98 91.541C111.854 91.3291 111.688 91.1441 111.49 90.9965C111.293 90.849 111.068 90.7419 110.829 90.6812Z" fill="#143A5A"/>
<path d="M84.5805 90.6813C84.0981 90.5605 83.5875 90.6362 83.161 90.8918C82.7344 91.1475 82.4269 91.5621 82.3061 92.0444L79.7861 102.128L76.4373 95.4119C76.2641 95.1213 76.0184 94.8807 75.7242 94.7136C75.43 94.5465 75.0975 94.4587 74.7592 94.4587C74.4209 94.4587 74.0884 94.5465 73.7942 94.7136C73.5001 94.8807 73.2543 95.1213 73.0811 95.4119L69.723 102.128L67.1936 92.0444C67.1352 91.8041 67.0298 91.5776 66.8835 91.3782C66.7372 91.1787 66.5529 91.0102 66.3412 90.8822C66.1295 90.7543 65.8946 90.6696 65.65 90.6328C65.4053 90.5961 65.1559 90.6082 64.9159 90.6683C64.676 90.7284 64.4503 90.8354 64.2519 90.9831C64.0535 91.1308 63.8863 91.3163 63.7599 91.5289C63.6335 91.7415 63.5504 91.9771 63.5154 92.2219C63.4804 92.4668 63.4943 92.7162 63.5561 92.9557L67.3061 107.956C67.4 108.327 67.6054 108.661 67.8946 108.912C68.1839 109.163 68.5431 109.32 68.924 109.36C69.3049 109.401 69.6891 109.325 70.0251 109.14C70.361 108.956 70.6325 108.674 70.803 108.331L74.7498 100.443L78.6967 108.338C78.8672 108.681 79.1387 108.964 79.4746 109.148C79.8105 109.332 80.1948 109.409 80.5757 109.368C80.9566 109.327 81.3158 109.171 81.6051 108.919C81.8943 108.668 82.0997 108.335 82.1936 107.963L85.9436 92.9632C86.0045 92.7238 86.0176 92.4748 85.982 92.2304C85.9464 91.986 85.8629 91.751 85.7362 91.539C85.6096 91.3269 85.4423 91.142 85.2439 90.9948C85.0456 90.8476 84.8201 90.7411 84.5805 90.6813Z" fill="#143A5A"/>
<path d="M66.5 42C62.6433 42 58.8731 43.1437 55.6664 45.2863C52.4596 47.429 49.9603 50.4745 48.4844 54.0377C47.0085 57.6008 46.6223 61.5216 47.3747 65.3043C48.1271 69.0869 49.9843 72.5614 52.7114 75.2886C55.4386 78.0157 58.9131 79.8729 62.6957 80.6253C66.4784 81.3777 70.3992 80.9916 73.9623 79.5156C77.5255 78.0397 80.571 75.5404 82.7137 72.3336C84.8563 69.1269 86 65.3567 86 61.5C86 56.3283 83.9455 51.3684 80.2886 47.7114C76.6316 44.0545 71.6717 42 66.5 42ZM66.5 75C64.0871 75.0001 61.7183 74.3536 59.64 73.1276C57.5618 71.9017 55.8501 70.1411 54.6831 68.0292C53.5161 65.9173 52.9365 63.5312 53.0045 61.1193C53.0726 58.7074 53.7858 56.3578 55.07 54.315L73.685 72.93C71.5327 74.2827 69.0421 75.0002 66.5 75ZM77.93 68.685L59.315 50.07C61.9047 48.4413 64.9708 47.7404 68.011 48.0823C71.0511 48.4242 73.8849 49.7886 76.0482 51.9518C78.2114 54.1151 79.5758 56.9489 79.9177 59.989C80.2596 63.0292 79.5587 66.0953 77.93 68.685Z" fill="#ED1C24"/>
<path d="M66 82C61.8466 82 57.7865 80.7684 54.333 78.4609C50.8796 76.1534 48.188 72.8736 46.5985 69.0364C45.0091 65.1991 44.5932 60.9767 45.4035 56.9031C46.2138 52.8295 48.2139 49.0877 51.1508 46.1508C54.0877 43.2139 57.8295 41.2138 61.9031 40.4035C65.9767 39.5932 70.1991 40.0091 74.0364 41.5985C77.8736 43.188 81.1534 45.8796 83.4609 49.333C85.7684 52.7865 87 56.8466 87 61C86.994 66.5677 84.7796 71.9057 80.8427 75.8427C76.9057 79.7796 71.5677 81.994 66 82ZM66 43C62.4399 43 58.9598 44.0557 55.9997 46.0336C53.0397 48.0114 50.7326 50.8226 49.3702 54.1117C48.0078 57.4008 47.6513 61.02 48.3459 64.5116C49.0404 68.0033 50.7547 71.2106 53.2721 73.7279C55.7894 76.2453 58.9967 77.9596 62.4884 78.6541C65.98 79.3487 69.5992 78.9922 72.8883 77.6298C76.1774 76.2675 78.9886 73.9604 80.9665 71.0003C82.9443 68.0402 84 64.5601 84 61C83.9948 56.2277 82.0968 51.6523 78.7222 48.2778C75.3477 44.9033 70.7723 43.0052 66 43ZM66 76C63.3194 76.0002 60.6877 75.2819 58.3787 73.9201C56.0698 72.5582 54.168 70.6025 52.8712 68.2564C51.5744 65.9103 50.93 63.2595 51.0051 60.5799C51.0801 57.9004 51.8719 55.2898 53.298 53.02C53.4176 52.8287 53.5788 52.6668 53.7697 52.5465C53.9605 52.4261 54.1761 52.3503 54.4002 52.3248C54.6244 52.2993 54.8515 52.3247 55.0645 52.3991C55.2775 52.4735 55.471 52.595 55.6305 52.7545L74.25 71.3695C74.4096 71.5289 74.5312 71.7223 74.6057 71.9353C74.6802 72.1482 74.7057 72.3752 74.6804 72.5994C74.655 72.8236 74.5794 73.0391 74.4592 73.23C74.3389 73.4209 74.1772 73.5823 73.986 73.702C71.5927 75.2029 68.825 75.9993 66 76ZM54.9525 56.3185C54.0209 58.5188 53.7674 60.947 54.2244 63.2923C54.6814 65.6375 55.8281 67.7929 57.5176 69.4824C59.2071 71.172 61.3625 72.3186 63.7078 72.7756C66.053 73.2326 68.4812 72.9791 70.6815 72.0475L54.9525 56.3185ZM77.43 69.685C77.0322 69.6849 76.6507 69.5268 76.3695 69.2455L57.75 50.6305C57.5904 50.4711 57.4688 50.2777 57.3943 50.0647C57.3198 49.8518 57.2943 49.6248 57.3196 49.4006C57.345 49.1764 57.4206 48.9609 57.5408 48.77C57.6611 48.5791 57.8228 48.4177 58.014 48.298C60.8913 46.4864 64.2987 45.706 67.6777 46.0849C71.0567 46.4638 74.2066 47.9795 76.6112 50.3834C79.0158 52.7873 80.5324 55.9368 80.9123 59.3157C81.2921 62.6945 80.5128 66.1022 78.702 68.98C78.5825 69.1715 78.4212 69.3335 78.2303 69.4541C78.0394 69.5746 77.8238 69.6504 77.5995 69.676C77.5432 69.682 77.4866 69.685 77.43 69.685ZM61.3185 49.9525L77.0475 65.6815C77.9791 63.4812 78.2326 61.053 77.7756 58.7078C77.3186 56.3625 76.172 54.2071 74.4824 52.5176C72.7929 50.8281 70.6375 49.6814 68.2923 49.2244C65.947 48.7674 63.5188 49.0209 61.3185 49.9525Z" fill="#143A5A"/>
</svg>
