<svg width="201" height="200" viewBox="0 0 201 200" fill="none" xmlns="http://www.w3.org/2000/svg">
<rect x="0.5" width="200" height="200" rx="60" fill="#C9DFF1"/>
<g clip-path="url(#clip0_587_1414)">
<path d="M103.812 101.743V112.954H110.552C130.906 112.954 147.406 129.454 147.406 149.809C147.406 154.143 143.893 157.656 139.558 157.656H105.109H43.3438V149.809C43.3438 129.454 59.844 112.954 80.1983 112.954H86.9375V101.743H103.812V101.743Z" fill="#8AA8BD"/>
<path d="M103.812 112.969C103.812 117.629 100.035 121.406 95.375 121.406C90.7152 121.406 86.9375 117.629 86.9375 112.969V102.996H103.812V112.969Z" fill="#FFD0C7"/>
<path d="M95.375 42.3438C83.9841 42.3438 74.75 51.5779 74.75 62.9688V63.865H116V62.9688C116 51.5779 106.766 42.3438 95.375 42.3438Z" fill="#8AA8BD"/>
<path d="M134.057 157.656C120.471 157.656 109.458 146.643 109.458 133.057C109.458 119.472 120.472 108.458 134.057 108.458C147.643 108.458 158.656 119.472 158.656 133.057C158.656 146.643 147.643 157.656 134.057 157.656Z" fill="#CCF5FC"/>
<path d="M143.172 128.254H124.942C123.634 128.254 122.573 129.314 122.573 130.623V136.797C122.573 143.14 127.714 148.281 134.057 148.281C140.4 148.281 145.542 143.14 145.542 136.797V130.623C145.541 129.314 144.481 128.254 143.172 128.254Z" fill="#FF7B79"/>
<path d="M74.75 72.3025V84.9491C74.75 96.34 83.9841 105.574 95.375 105.574C106.766 105.574 116 96.34 116 84.9491V72.3025H74.75Z" fill="#FFD0C7"/>
<path d="M95.375 76.3146L93.433 80.0304C91.9752 82.8197 89.0886 84.5681 85.9414 84.5681C83.0476 84.5681 80.3548 83.0878 78.8045 80.6444L74.75 74.2556H116L111.946 80.6444C110.395 83.0878 107.702 84.5681 104.809 84.5681C101.661 84.5681 98.7748 82.8197 97.317 80.0304L95.375 76.3146Z" fill="#8AA8BD"/>
<path d="M116.217 64.8806H74.5332C71.9443 64.8806 69.8457 66.9792 69.8457 69.5681C69.8457 72.157 71.9443 74.2556 74.5332 74.2556H116.217C118.806 74.2556 120.904 72.157 120.904 69.5681C120.904 66.9792 118.806 64.8806 116.217 64.8806Z" fill="#E2E9EE"/>
<path d="M134.057 106.114C128.101 106.114 122.591 108.058 118.125 111.344C115.643 110.858 113.1 110.61 110.551 110.61H106.156V105.225C113.401 101.357 118.344 93.7195 118.344 84.9487V76.2693C121.184 75.3658 123.248 72.7035 123.248 69.5678C123.248 66.4314 121.184 63.7689 118.343 62.8659C118.287 50.2483 108.006 40 95.375 40C82.7443 40 72.4632 50.2483 72.4077 62.8661C69.5666 63.7694 67.5022 66.4316 67.5022 69.568C67.5022 72.7038 69.5661 75.366 72.4065 76.2695V84.9489C72.4065 93.7197 77.3488 101.357 84.594 105.225V110.61H80.1985C58.5842 110.61 41 128.194 41 149.808V157.656C41 158.95 42.0493 160 43.3438 160H73.2973C74.5916 160 75.6411 158.95 75.6411 157.656C75.6411 156.362 74.5916 155.312 73.2973 155.312H45.6875V149.808C45.6875 130.779 61.1691 115.298 80.1983 115.298H84.8499C85.9177 120.126 90.23 123.75 95.375 123.75C100.52 123.75 104.832 120.126 105.9 115.298H110.552C111.6 115.298 112.646 115.348 113.686 115.441C109.593 120.168 107.114 126.328 107.114 133.057C107.114 142.292 111.785 150.456 118.888 155.312H94.3913C93.0971 155.312 92.0476 156.362 92.0476 157.656C92.0476 158.95 93.0971 160 94.3913 160H133.981C133.986 160 133.991 159.999 133.996 159.999C134.017 159.999 134.037 160 134.057 160C148.914 160 161 147.914 161 133.057C161 118.201 148.914 106.114 134.057 106.114ZM95.375 44.6875C105.311 44.6875 113.414 52.6558 113.645 62.5368H77.1048C77.3356 52.6558 85.4394 44.6875 95.375 44.6875ZM74.5332 67.2243H116.217C117.509 67.2243 118.561 68.2757 118.561 69.568C118.561 70.8604 117.509 71.9118 116.217 71.9118H74.5332C73.2409 71.9118 72.1895 70.8604 72.1895 69.568C72.1895 68.2759 73.2409 67.2243 74.5332 67.2243ZM111.737 76.5993L109.966 79.3884C108.839 81.164 106.911 82.2243 104.808 82.2243C102.526 82.2243 100.451 80.9676 99.3938 78.9447L98.168 76.5993H111.737ZM92.5815 76.5993L91.3559 78.9447C90.2987 80.9676 88.224 82.2243 85.9416 82.2243C83.8386 82.2243 81.9104 81.1642 80.7833 79.3884L79.013 76.5993H92.5815ZM77.0938 84.9489V82.2948C79.1145 85.1929 82.385 86.9118 85.9416 86.9118C89.8803 86.9118 93.4686 84.7947 95.375 81.367C97.2814 84.7947 100.87 86.9118 104.808 86.9118C108.365 86.9118 111.635 85.1929 113.656 82.2948V84.9489C113.656 95.0294 105.455 103.23 95.375 103.23C85.2945 103.23 77.0938 95.0294 77.0938 84.9489ZM95.375 119.062C92.0148 119.062 89.2812 116.329 89.2812 112.969C89.2812 112.966 89.281 112.964 89.281 112.961C89.281 112.959 89.2812 112.956 89.2812 112.954V107.095C91.2228 107.63 93.2659 107.918 95.375 107.918C97.4841 107.918 99.5272 107.63 101.469 107.095V112.954C101.469 112.956 101.469 112.959 101.469 112.961C101.469 112.964 101.469 112.966 101.469 112.969C101.469 116.329 98.7352 119.062 95.375 119.062ZM134.057 155.312C121.786 155.312 111.802 145.329 111.802 133.057C111.802 120.785 121.786 110.802 134.057 110.802C146.329 110.802 156.312 120.785 156.312 133.057C156.312 145.329 146.329 155.312 134.057 155.312Z" fill="#143A5A"/>
<path d="M143.172 125.91H129.604V124.63C129.604 122.174 131.602 120.177 134.057 120.177C134.809 120.177 135.553 120.368 136.207 120.731C137.338 121.359 138.765 120.951 139.393 119.818C140.021 118.687 139.613 117.26 138.48 116.632C137.133 115.884 135.603 115.489 134.057 115.489C129.017 115.489 124.917 119.589 124.917 124.63V125.911C122.33 125.925 120.229 128.032 120.229 130.622V136.797C120.229 144.422 126.432 150.625 134.057 150.625C141.682 150.625 147.885 144.422 147.885 136.797V130.623C147.885 128.024 145.771 125.91 143.172 125.91ZM143.198 136.797C143.198 141.837 139.098 145.938 134.057 145.938C129.017 145.938 124.917 141.837 124.917 136.797V130.623C124.917 130.609 124.928 130.597 124.942 130.597H143.172C143.187 130.597 143.198 130.609 143.198 130.623V136.797H143.198Z" fill="#143A5A"/>
<path d="M134.057 134.36C132.763 134.36 131.713 135.41 131.713 136.704V138.88C131.713 140.175 132.763 141.224 134.057 141.224C135.351 141.224 136.401 140.175 136.401 138.88V136.704C136.401 135.41 135.351 134.36 134.057 134.36Z" fill="#143A5A"/>
<path d="M83.8438 155.312C83.2273 155.312 82.6227 155.563 82.1867 155.999C81.751 156.435 81.5 157.04 81.5 157.656C81.5 158.273 81.7508 158.877 82.1867 159.313C82.6227 159.749 83.2273 160 83.8438 160C84.4625 160 85.0648 159.749 85.5008 159.313C85.9365 158.877 86.1875 158.273 86.1875 157.656C86.1875 157.04 85.9367 156.435 85.5008 155.999C85.0648 155.563 84.4623 155.312 83.8438 155.312Z" fill="#143A5A"/>
</g>
<defs>
<clipPath id="clip0_587_1414">
<rect width="120" height="120" fill="white" transform="translate(41 40)"/>
</clipPath>
</defs>
</svg>
