<svg width="201" height="200" viewBox="0 0 201 200" fill="none" xmlns="http://www.w3.org/2000/svg">
<rect x="0.5" width="200" height="200" rx="60" fill="#C9DFF1"/>
<path d="M151.625 68.125V139.375H50.375V68.125C50.375 66.1359 51.1652 64.2282 52.5717 62.8217C53.9782 61.4152 55.8859 60.625 57.875 60.625H144.125C146.114 60.625 148.022 61.4152 149.428 62.8217C150.835 64.2282 151.625 66.1359 151.625 68.125Z" fill="#3D9AE2"/>
<path d="M57.875 68.125H144.125V131.875H57.875V68.125Z" fill="#FFDAAA"/>
<path d="M101 105.625C109.284 105.625 116 98.9093 116 90.625C116 82.3407 109.284 75.625 101 75.625C92.7157 75.625 86 82.3407 86 90.625C86 98.9093 92.7157 105.625 101 105.625Z" fill="#FFCD00"/>
<path d="M50.375 139.375H46.625V146.875C46.625 148.864 47.4152 150.772 48.8217 152.178C50.2282 153.585 52.1359 154.375 54.125 154.375H147.875C149.864 154.375 151.772 153.585 153.178 152.178C154.585 150.772 155.375 148.864 155.375 146.875V139.375H50.375Z" fill="#58595B"/>
<path d="M61.625 60.625H57.875C55.8859 60.625 53.9782 61.4152 52.5717 62.8217C51.1652 64.2282 50.375 66.1359 50.375 68.125V139.375H54.125V68.125C54.125 66.1359 54.9152 64.2282 56.3217 62.8217C57.7282 61.4152 59.6359 60.625 61.625 60.625Z" fill="#1A6FB0"/>
<path d="M50.375 146.875V139.375H46.625V146.875C46.625 148.864 47.4152 150.772 48.8217 152.178C50.2282 153.585 52.1359 154.375 54.125 154.375H57.875C55.8859 154.375 53.9782 153.585 52.5717 152.178C51.1652 150.772 50.375 148.864 50.375 146.875Z" fill="#414042"/>
<path d="M89.75 143.125C89.75 144.12 90.1451 145.073 90.8484 145.777C91.5516 146.48 92.5054 146.875 93.5 146.875H108.5C109.495 146.875 110.448 146.48 111.152 145.777C111.855 145.073 112.25 144.12 112.25 143.125V139.375H89.75V143.125Z" fill="#D1D3D4"/>
<path d="M74.75 113.125H127.25V124.375H74.75V113.125Z" fill="#006DF0"/>
<path d="M104.75 96.25H97.25C96.2564 96.253 95.3042 96.649 94.6016 97.3516C93.899 98.0542 93.503 99.0064 93.5 100V103.602C95.7774 104.927 98.3652 105.625 101 105.625C103.635 105.625 106.223 104.927 108.5 103.602V100C108.497 99.0064 108.101 98.0542 107.398 97.3516C106.696 96.649 105.744 96.253 104.75 96.25Z" fill="#143A5A"/>
<path d="M101 90.625C103.071 90.625 104.75 88.9461 104.75 86.875C104.75 84.8039 103.071 83.125 101 83.125C98.9289 83.125 97.25 84.8039 97.25 86.875C97.25 88.9461 98.9289 90.625 101 90.625Z" fill="#143A5A"/>
<path d="M155.375 137.5H153.5V68.125C153.497 65.6395 152.508 63.2567 150.751 61.4992C148.993 59.7417 146.61 58.753 144.125 58.75H57.875C55.3895 58.753 53.0067 59.7417 51.2492 61.4992C49.4917 63.2567 48.503 65.6395 48.5 68.125V137.5H46.625C46.1277 137.5 45.6508 137.698 45.2992 138.049C44.9475 138.401 44.75 138.878 44.75 139.375V146.875C44.753 149.36 45.7417 151.743 47.4992 153.501C49.2567 155.258 51.6395 156.247 54.125 156.25H147.875C150.36 156.247 152.743 155.258 154.501 153.501C156.258 151.743 157.247 149.36 157.25 146.875V139.375C157.25 138.878 157.052 138.401 156.701 138.049C156.349 137.698 155.872 137.5 155.375 137.5ZM52.25 68.125C52.25 66.6332 52.8426 65.2024 53.8975 64.1475C54.9524 63.0926 56.3832 62.5 57.875 62.5H144.125C145.617 62.5 147.048 63.0926 148.102 64.1475C149.157 65.2024 149.75 66.6332 149.75 68.125V137.5H52.25V68.125ZM91.625 141.25H110.375V143.125C110.375 143.622 110.177 144.099 109.826 144.451C109.474 144.802 108.997 145 108.5 145H93.5C93.0027 145 92.5258 144.802 92.1742 144.451C91.8225 144.099 91.625 143.622 91.625 143.125V141.25ZM153.5 146.875C153.5 148.367 152.907 149.798 151.852 150.852C150.798 151.907 149.367 152.5 147.875 152.5H54.125C52.6332 152.5 51.2024 151.907 50.1475 150.852C49.0926 149.798 48.5 148.367 48.5 146.875V141.25H87.875V143.125C87.875 144.617 88.4676 146.048 89.5225 147.102C90.5774 148.157 92.0082 148.75 93.5 148.75H108.5C109.992 148.75 111.423 148.157 112.477 147.102C113.532 146.048 114.125 144.617 114.125 143.125V141.25H153.5V146.875Z" fill="#143A5A"/>
<path d="M144.125 133.75H57.875C57.3777 133.75 56.9008 133.552 56.5492 133.201C56.1975 132.849 56 132.372 56 131.875V68.125C56 67.6277 56.1975 67.1508 56.5492 66.7992C56.9008 66.4475 57.3777 66.25 57.875 66.25H144.125C144.622 66.25 145.099 66.4475 145.451 66.7992C145.802 67.1508 146 67.6277 146 68.125V131.875C146 132.372 145.802 132.849 145.451 133.201C145.099 133.552 144.622 133.75 144.125 133.75ZM59.75 130H142.25V70H59.75V130Z" fill="#143A5A"/>
<path d="M127.25 126.25H74.75C74.2527 126.25 73.7758 126.052 73.4242 125.701C73.0725 125.349 72.875 124.872 72.875 124.375V113.125C72.875 112.628 73.0725 112.151 73.4242 111.799C73.7758 111.448 74.2527 111.25 74.75 111.25H127.25C127.747 111.25 128.224 111.448 128.576 111.799C128.927 112.151 129.125 112.628 129.125 113.125V124.375C129.125 124.872 128.927 125.349 128.576 125.701C128.224 126.052 127.747 126.25 127.25 126.25ZM76.625 122.5H125.375V115H76.625V122.5Z" fill="#143A5A"/>
<path d="M101 92.5C99.8875 92.5 98.7999 92.1701 97.8749 91.552C96.9499 90.9339 96.2289 90.0554 95.8032 89.0276C95.3774 87.9998 95.266 86.8688 95.4831 85.7776C95.7001 84.6865 96.2359 83.6842 97.0225 82.8975C97.8092 82.1109 98.8115 81.5751 99.9026 81.3581C100.994 81.141 102.125 81.2524 103.153 81.6782C104.18 82.1039 105.059 82.8249 105.677 83.7499C106.295 84.6749 106.625 85.7625 106.625 86.875C106.625 88.3668 106.032 89.7976 104.977 90.8525C103.923 91.9074 102.492 92.5 101 92.5ZM101 85C100.629 85 100.267 85.11 99.9583 85.316C99.65 85.522 99.4096 85.8149 99.2677 86.1575C99.1258 86.5001 99.0887 86.8771 99.161 87.2408C99.2334 87.6045 99.412 87.9386 99.6742 88.2008C99.9364 88.4631 100.27 88.6416 100.634 88.714C100.998 88.7863 101.375 88.7492 101.718 88.6073C102.06 88.4654 102.353 88.225 102.559 87.9167C102.765 87.6084 102.875 87.2458 102.875 86.875C102.875 86.3777 102.677 85.9008 102.326 85.5492C101.974 85.1975 101.497 85 101 85Z" fill="#143A5A"/>
<path d="M101 73.75C97.6624 73.75 94.3998 74.7397 91.6248 76.5939C88.8497 78.4482 86.6868 81.0837 85.4095 84.1672C84.1323 87.2507 83.7981 90.6437 84.4493 93.9172C85.1004 97.1906 86.7076 100.197 89.0676 102.557C91.4276 104.917 94.4344 106.525 97.7079 107.176C100.981 107.827 104.374 107.493 107.458 106.215C110.541 104.938 113.177 102.775 115.031 100C116.885 97.2252 117.875 93.9626 117.875 90.625C117.87 86.1511 116.09 81.8621 112.926 78.6986C109.763 75.5351 105.474 73.7555 101 73.75ZM95.375 102.466V100C95.375 99.5027 95.5726 99.0258 95.9242 98.6742C96.2758 98.3225 96.7527 98.125 97.25 98.125H104.75C105.247 98.125 105.724 98.3225 106.076 98.6742C106.427 99.0258 106.625 99.5027 106.625 100V102.466C104.87 103.311 102.948 103.75 101 103.75C99.0523 103.75 97.1297 103.311 95.375 102.466ZM110.356 99.8125C110.308 98.3566 109.696 96.9764 108.651 95.9622C107.605 94.948 106.207 94.379 104.75 94.375H97.25C95.7933 94.379 94.395 94.948 93.3494 95.9622C92.3037 96.9764 91.6923 98.3566 91.6438 99.8125C89.8296 97.9685 88.6009 95.6296 88.1118 93.0895C87.6227 90.5494 87.895 87.9214 88.8947 85.5356C89.8944 83.1498 91.5767 81.1126 93.7304 79.6799C95.8842 78.2472 98.4133 77.4828 101 77.4828C103.587 77.4828 106.116 78.2472 108.27 79.6799C110.423 81.1126 112.106 83.1498 113.105 85.5356C114.105 87.9214 114.377 90.5494 113.888 93.0895C113.399 95.6296 112.17 97.9685 110.356 99.8125Z" fill="#143A5A"/>
<path d="M80.375 116.875H84.125V120.625H80.375V116.875Z" fill="#143A5A"/>
<path d="M87.875 116.875H91.625V120.625H87.875V116.875Z" fill="#143A5A"/>
<path d="M95.375 116.875H99.125V120.625H95.375V116.875Z" fill="#143A5A"/>
<path d="M102.875 116.875H106.625V120.625H102.875V116.875Z" fill="#143A5A"/>
<path d="M110.375 116.875H114.125V120.625H110.375V116.875Z" fill="#143A5A"/>
</svg>
