<svg width="620" height="395" viewBox="0 0 620 395" fill="none" xmlns="http://www.w3.org/2000/svg">
<g clip-path="url(#clip0_340_9584)">
<path fill-rule="evenodd" clip-rule="evenodd" d="M523.5 24C523.5 10.7452 512.755 0 499.5 0H385.992C372.737 0 361.992 10.7452 361.992 24V138.729C361.992 151.984 351.247 162.729 337.992 162.729H336.581C323.326 162.729 312.581 151.984 312.581 138.729V100.342C312.581 87.0871 301.836 76.342 288.581 76.342H120.5C107.245 76.342 96.5 87.0871 96.5 100.342V284.046C96.5 297.301 107.245 308.046 120.5 308.046H237.695C250.95 308.046 261.695 318.792 261.695 332.046V370.433C261.695 383.688 272.44 394.433 285.695 394.433H363.067C376.322 394.433 387.067 383.688 387.067 370.433V332.047C387.067 318.792 397.812 308.047 411.067 308.047H499.5C512.755 308.047 523.5 297.301 523.5 284.047V24Z" fill="url(#paint0_linear_340_9584)"/>
<path d="M164.863 164.84C164.863 164.84 4.48959 316.251 247.639 327.057L255.744 337.188L267.226 284.506L182.799 259.044L195.723 152.8" fill="#DFEFFF"/>
<path d="M169.828 302.389C169.828 283.639 175.027 266.853 183.221 255.579L182.799 259.044L242.559 277.067C246.968 293.348 247.051 310.497 242.801 326.819C212.805 325.22 189.167 321.414 170.764 315.987C170.138 311.481 169.825 306.938 169.828 302.389Z" fill="#07294A"/>
<path d="M176.879 149.633C176.879 149.633 167.789 298 193.463 368.246L188.1 376.126H233.765C233.765 376.126 238.753 187.411 238.753 146.679L176.879 149.633Z" fill="#F0F8FF"/>
<path d="M191.401 34.839V54.1208L215.287 59.9918V27.4528L191.401 21.5818V34.839Z" fill="#F0F8FF"/>
<path d="M204.894 41.5105C204.541 41.5105 204.255 41.2245 204.255 40.8718C204.255 40.5191 204.541 40.2332 204.894 40.2332C205.247 40.2332 205.533 40.5191 205.533 40.8718C205.533 41.2245 205.247 41.5105 204.894 41.5105Z" fill="#07294A"/>
<path d="M195.084 41.5105C194.732 41.5105 194.446 41.2245 194.446 40.8718C194.446 40.5191 194.732 40.2332 195.084 40.2332C195.437 40.2332 195.723 40.5191 195.723 40.8718C195.723 41.2245 195.437 41.5105 195.084 41.5105Z" fill="#07294A"/>
<path d="M197.962 44.6817V34.8391H193.032" stroke="#07294A" stroke-width="0.565948" stroke-linecap="round" stroke-linejoin="round"/>
<path d="M206.097 34.8394H201.166" stroke="#07294A" stroke-width="0.565948" stroke-linecap="round" stroke-linejoin="round"/>
<path d="M192.264 33.2276H192.264" stroke="#07294A" stroke-width="0.565948" stroke-linecap="round" stroke-linejoin="round"/>
<path d="M213.714 39.8824V43.3003C215.558 43.3003 217.052 41.8057 217.052 39.962C217.052 39.8596 217.048 39.7583 217.039 39.6581C216.852 37.5852 213.714 37.801 213.714 39.8824Z" fill="#F0F8FF"/>
<path d="M213.714 43.3002C215.558 43.3002 217.052 41.8056 217.052 39.9619" stroke="#07294A" stroke-width="0.565948" stroke-linecap="round" stroke-linejoin="round"/>
<path d="M200.119 47.108C201.015 47.108 201.874 46.7521 202.508 46.1184C203.142 45.4848 203.498 44.6254 203.498 43.7292" stroke="#79C9E7" stroke-width="0.565948" stroke-linecap="round" stroke-linejoin="round"/>
<path d="M210.297 58.7654L215.287 59.9918" stroke="#07294A" stroke-width="0.565948" stroke-linecap="round" stroke-linejoin="round"/>
<path d="M197.962 44.6895L200.119 45.2195" stroke="#07294A" stroke-width="0.565948" stroke-linecap="round" stroke-linejoin="round"/>
<path d="M238.753 94.5201V146.679L164.863 164.841V106.749C164.863 86.151 178.925 68.214 198.928 63.2977H198.928C208.521 60.94 218.665 63.1227 226.439 69.2173C234.213 75.3119 238.753 84.6418 238.753 94.52V94.5201Z" fill="#79C9E7"/>
<path d="M176.879 149.633C176.879 149.633 167.789 298 193.463 368.246" stroke="#07294A" stroke-width="0.565948" stroke-linecap="round" stroke-linejoin="round"/>
<path d="M210.776 34.8394C210.776 34.8394 213.552 44.9691 210.288 47.108C207.023 49.2469 202.749 42.8163 195.908 46.3015C187.639 50.5145 191.401 36.375 191.401 36.375" stroke="#07294A" stroke-width="0.565948" stroke-linecap="round" stroke-linejoin="round"/>
<path d="M213.713 44.2094C213.713 44.2094 217.711 56.4618 207.842 59.9918C197.974 63.5218 185.134 57.7865 189.273 43.7292" stroke="#07294A" stroke-width="0.565948" stroke-linecap="round" stroke-linejoin="round"/>
<path d="M212.239 34.8392C212.239 34.8392 204.894 37.5381 197.962 29.5078C197.962 29.5078 195.122 33.4951 190.547 33.2276" stroke="#07294A" stroke-width="0.565948" stroke-linecap="round" stroke-linejoin="round"/>
<path d="M189.829 37.0984C189.829 37.0984 184.698 19.996 197.962 18.5104C211.226 17.0249 216.888 25.3199 219.222 31.6866C221.557 38.0534 218.547 44.7465 215.383 47.5544" stroke="#07294A" stroke-width="0.565948" stroke-linecap="round" stroke-linejoin="round"/>
<path d="M226.695 69.4236C226.695 69.4236 264.69 104.483 262.289 148.011C259.887 191.54 172.829 155.516 170.128 141.107C167.426 126.697 184.39 135.403 184.39 135.403C184.39 135.403 182.739 128.649 184.39 129.849C186.041 131.05 190.101 135.553 190.101 135.553L227.766 136.003L220.052 114.689" stroke="#07294A" stroke-width="0.565948" stroke-linecap="round" stroke-linejoin="round"/>
<path d="M195.723 135.621C195.723 135.621 195.922 109.286 164.863 103.582C164.863 103.582 170.135 95.7397 167.054 92.9064C165.201 91.2023 162.263 93.3741 160.216 95.3758C159.095 96.4695 157.33 96.5412 156.124 95.5421C154.959 94.5884 153.144 93.9083 150.465 94.8013C148.438 95.4768 147.647 96.5955 147.449 97.73C147.202 99.4016 145.659 100.565 143.983 100.344C141.738 100.015 139.734 100.352 141.008 103.132C143.485 108.535 148.213 108.535 148.213 108.535C148.213 108.535 115.341 177.545 183.336 168.82" stroke="#07294A" stroke-width="0.565948" stroke-linecap="round" stroke-linejoin="round"/>
<path d="M142.057 152.8C142.057 152.8 140.333 175.18 151.815 182.384" stroke="#07294A" stroke-width="0.565948" stroke-linecap="round" stroke-linejoin="round"/>
<path d="M414.214 164.84C414.214 164.84 253.84 316.251 496.989 327.057L505.094 337.188L516.576 284.506L432.149 259.044L445.074 152.8" fill="#DFEFFF"/>
<path d="M419.178 302.389C419.178 283.639 424.377 266.853 432.571 255.579L432.15 259.044L491.91 277.067C496.318 293.348 496.402 310.497 492.152 326.819C462.155 325.22 438.518 321.414 420.115 315.987C419.488 311.481 419.175 306.938 419.178 302.389Z" fill="#07294A"/>
<path d="M426.229 149.633C426.229 149.633 417.139 298 442.813 368.246L437.451 376.126H483.115C483.115 376.126 488.104 187.411 488.104 146.679L426.229 149.633Z" fill="#F0F8FF"/>
<path d="M440.752 34.839V54.1208L464.638 59.9918V27.4528L440.752 21.5818V34.839Z" fill="#F0F8FF"/>
<path d="M454.244 41.5105C453.891 41.5105 453.605 41.2245 453.605 40.8718C453.605 40.5191 453.891 40.2332 454.244 40.2332C454.597 40.2332 454.883 40.5191 454.883 40.8718C454.883 41.2245 454.597 41.5105 454.244 41.5105Z" fill="#07294A"/>
<path d="M444.435 41.5105C444.082 41.5105 443.796 41.2245 443.796 40.8718C443.796 40.5191 444.082 40.2332 444.435 40.2332C444.788 40.2332 445.074 40.5191 445.074 40.8718C445.074 41.2245 444.788 41.5105 444.435 41.5105Z" fill="#07294A"/>
<path d="M447.313 44.6817V34.8391H442.382" stroke="#07294A" stroke-width="0.565948" stroke-linecap="round" stroke-linejoin="round"/>
<path d="M455.448 34.8394H450.517" stroke="#07294A" stroke-width="0.565948" stroke-linecap="round" stroke-linejoin="round"/>
<path d="M441.615 33.2276H441.615" stroke="#07294A" stroke-width="0.565948" stroke-linecap="round" stroke-linejoin="round"/>
<path d="M463.065 39.8824V43.3003C464.908 43.3003 466.403 41.8057 466.403 39.962C466.403 39.8596 466.398 39.7583 466.389 39.6581C466.202 37.5852 463.065 37.801 463.065 39.8824Z" fill="#F0F8FF"/>
<path d="M463.065 43.3002C464.908 43.3002 466.403 41.8056 466.403 39.9619" stroke="#07294A" stroke-width="0.565948" stroke-linecap="round" stroke-linejoin="round"/>
<path d="M449.47 47.108C450.366 47.108 451.225 46.7521 451.859 46.1184C452.493 45.4848 452.849 44.6254 452.849 43.7292" stroke="#79C9E7" stroke-width="0.565948" stroke-linecap="round" stroke-linejoin="round"/>
<path d="M459.648 58.7654L464.638 59.9918" stroke="#07294A" stroke-width="0.565948" stroke-linecap="round" stroke-linejoin="round"/>
<path d="M447.313 44.6895L449.469 45.2195" stroke="#07294A" stroke-width="0.565948" stroke-linecap="round" stroke-linejoin="round"/>
<path d="M488.104 94.5201V146.679L414.213 164.841V106.749C414.213 86.151 428.276 68.214 448.278 63.2977H448.279C457.871 60.94 468.015 63.1227 475.789 69.2173C483.563 75.3119 488.104 84.6418 488.104 94.52V94.5201Z" fill="#79C9E7"/>
<path d="M426.229 149.633C426.229 149.633 417.139 298 442.813 368.246" stroke="#07294A" stroke-width="0.565948" stroke-linecap="round" stroke-linejoin="round"/>
<path d="M460.127 34.8394C460.127 34.8394 462.903 44.9691 459.639 47.108C456.374 49.2469 452.1 42.8163 445.259 46.3015C436.99 50.5145 440.752 36.375 440.752 36.375" stroke="#07294A" stroke-width="0.565948" stroke-linecap="round" stroke-linejoin="round"/>
<path d="M463.064 44.2094C463.064 44.2094 467.061 56.4618 457.193 59.9918C447.325 63.5218 434.485 57.7865 438.623 43.7292" stroke="#07294A" stroke-width="0.565948" stroke-linecap="round" stroke-linejoin="round"/>
<path d="M461.59 34.8392C461.59 34.8392 454.244 37.5381 447.313 29.5078C447.313 29.5078 444.473 33.4951 439.898 33.2276" stroke="#07294A" stroke-width="0.565948" stroke-linecap="round" stroke-linejoin="round"/>
<path d="M439.18 37.0984C439.18 37.0984 434.049 19.996 447.313 18.5104C460.577 17.0249 466.238 25.3199 468.573 31.6866C470.907 38.0534 467.898 44.7465 464.734 47.5544" stroke="#07294A" stroke-width="0.565948" stroke-linecap="round" stroke-linejoin="round"/>
<path d="M476.045 69.4236C476.045 69.4236 514.041 104.483 511.639 148.011C509.238 191.54 422.18 155.516 419.478 141.107C416.776 126.697 433.74 135.403 433.74 135.403C433.74 135.403 432.089 128.649 433.74 129.849C435.392 131.05 439.451 135.553 439.451 135.553L477.116 136.003L469.403 114.689" stroke="#07294A" stroke-width="0.565948" stroke-linecap="round" stroke-linejoin="round"/>
<path d="M445.074 135.621C445.074 135.621 445.273 109.286 414.213 103.582C414.213 103.582 419.485 95.7397 416.405 92.9064C414.552 91.2023 411.614 93.3741 409.567 95.3758C408.446 96.4695 406.68 96.5412 405.475 95.5421C404.309 94.5884 402.494 93.9083 399.815 94.8013C397.789 95.4768 396.997 96.5955 396.799 97.73C396.552 99.4016 395.009 100.565 393.334 100.344C391.088 100.015 389.085 100.352 390.359 103.132C392.836 108.535 397.564 108.535 397.564 108.535C397.564 108.535 364.692 177.545 432.687 168.82" stroke="#07294A" stroke-width="0.565948" stroke-linecap="round" stroke-linejoin="round"/>
<path d="M391.408 152.8C391.408 152.8 389.683 175.18 401.166 182.384" stroke="#07294A" stroke-width="0.565948" stroke-linecap="round" stroke-linejoin="round"/>
<path d="M285.658 270.698L290.172 362.339L282.82 375.996H327.495L332.607 261.218" fill="#DFEFFF"/>
<path d="M294.001 144.863L346.859 141.242L356.471 145.156L360.988 375.996H311.892L317.083 366.693L294.001 144.863Z" fill="#F0F8FF"/>
<path d="M358.384 242.935L304.854 249.163L308.573 284.901C322.111 287.45 340.343 289.401 359.247 287.069L358.384 242.935Z" fill="#07294A"/>
<path d="M286.076 279.171C286.076 279.171 305.701 286.176 331.424 287.788L332.607 261.218L285.658 270.698L286.076 279.171Z" fill="#07294A"/>
<path d="M311.892 375.996L317.083 366.693L294.001 144.863" stroke="#07294A" stroke-width="0.565948" stroke-linecap="round" stroke-linejoin="round"/>
<path d="M305.125 33.8494V42.1928C305.125 48.6442 309.53 54.2621 315.795 55.8019L329.072 59.0652V26.4443L318.032 23.7309C314.923 22.9668 311.636 23.6742 309.116 25.6494C306.597 27.6245 305.125 30.6481 305.125 33.8494V33.8494Z" fill="#F0F8FF"/>
<path d="M305.125 42.1929C305.125 48.6443 309.53 54.2622 315.795 55.802L329.072 59.0653" stroke="#07294A" stroke-width="0.565948" stroke-linecap="round" stroke-linejoin="round"/>
<path d="M318.652 40.5374C319.006 40.5374 319.293 40.2507 319.293 39.8971C319.293 39.5435 319.006 39.2568 318.652 39.2568C318.299 39.2568 318.012 39.5435 318.012 39.8971C318.012 40.2507 318.299 40.5374 318.652 40.5374Z" fill="#07294A"/>
<path d="M308.818 40.5374C309.172 40.5374 309.459 40.2507 309.459 39.8971C309.459 39.5435 309.172 39.2568 308.818 39.2568C308.465 39.2568 308.178 39.5435 308.178 39.8971C308.178 40.2507 308.465 40.5374 308.818 40.5374Z" fill="#07294A"/>
<path d="M311.703 43.7166V33.8496H306.76" stroke="#07294A" stroke-width="0.565948" stroke-linecap="round" stroke-linejoin="round"/>
<path d="M319.859 33.8495H314.916" stroke="#07294A" stroke-width="0.565948" stroke-linecap="round" stroke-linejoin="round"/>
<path d="M327.494 38.9051V42.3317C329.342 42.3317 330.841 40.8333 330.841 38.985C330.841 38.8823 330.836 38.7807 330.827 38.6803C330.64 36.6021 327.494 36.8185 327.494 38.9051Z" fill="#F0F8FF"/>
<path d="M327.494 42.3316C329.342 42.3316 330.841 40.8332 330.841 38.9849" stroke="#07294A" stroke-width="0.565948" stroke-linecap="round" stroke-linejoin="round"/>
<path d="M314.406 44.8694C314.822 45.285 315.386 45.5185 315.973 45.5185C316.561 45.5185 317.125 45.285 317.54 44.8694" stroke="#79C9E7" stroke-width="0.565948" stroke-linecap="round" stroke-linejoin="round"/>
<path d="M311.704 43.7244L313.866 44.2557" stroke="#07294A" stroke-width="0.565948" stroke-linecap="round" stroke-linejoin="round"/>
<path d="M356.897 93.6804V145.971L282.82 164.178V105.94C282.82 85.2903 296.918 67.3081 316.971 62.3794H316.971C326.588 60.0157 336.758 62.204 344.551 68.3139C352.345 74.4239 356.897 83.7773 356.897 93.6804V93.6804Z" fill="#79C9E7"/>
<path d="M304.618 38.3233C312.293 38.2104 317.098 28.9561 317.098 28.9561C317.098 28.9561 320.501 38.6971 328.171 37.5509" stroke="#07294A" stroke-width="0.565948" stroke-linecap="round" stroke-linejoin="round"/>
<path d="M308.818 51.979L293.784 59.992C293.784 59.992 292.884 12.086 325.21 19.0991C325.312 19.1212 325.416 19.141 325.519 19.1583C326.842 19.3799 337.389 21.5381 336.331 33.8494C335.668 41.5709 329.072 45.5185 329.072 45.5185" stroke="#07294A" stroke-width="0.565948" stroke-linecap="round" stroke-linejoin="round"/>
<path d="M298.636 134.884C298.636 134.884 298.836 108.483 267.698 102.765C267.698 102.765 272.983 94.9032 269.895 92.0628C268.037 90.3543 265.092 92.5316 263.04 94.5383C261.916 95.6348 260.146 95.7067 258.937 94.705C257.769 93.7489 255.949 93.0672 253.264 93.9624C251.232 94.6396 250.439 95.7611 250.24 96.8985C249.993 98.5743 248.446 99.7409 246.766 99.5187C244.515 99.1894 242.506 99.5269 243.784 102.314C246.267 107.731 251.007 107.731 251.007 107.731C251.007 107.731 218.052 176.914 286.218 168.167" stroke="#07294A" stroke-width="0.565948" stroke-linecap="round" stroke-linejoin="round"/>
<path d="M356.897 145.971L304.618 148.36L282.82 164.178V279.275C282.82 279.275 384.973 277.018 414.316 249.481L356.897 145.971Z" fill="#79C9E7"/>
<path d="M346.835 70.2856C346.835 70.2856 371.501 91.8439 368.102 129.577C364.702 167.309 314.392 171.389 278.699 149.973C243.006 128.557 278.699 132.976 278.699 132.976C278.699 132.976 278.699 128.217 280.059 128.557C281.419 128.897 285.498 134.336 285.498 134.336L338.867 129.237L330.841 107.141" stroke="#07294A" stroke-width="0.565948" stroke-linecap="round" stroke-linejoin="round"/>
<path d="M275.962 104.996C275.962 104.996 285.935 83.8657 295.276 74.9197" stroke="#07294A" stroke-width="0.565948" stroke-linecap="round" stroke-linejoin="round"/>
</g>
<defs>
<linearGradient id="paint0_linear_340_9584" x1="310" y1="0" x2="310" y2="394.433" gradientUnits="userSpaceOnUse">
<stop stop-color="#FFF2C5" stop-opacity="0"/>
<stop offset="1" stop-color="#FFF2C5"/>
</linearGradient>
<clipPath id="clip0_340_9584">
<rect width="620" height="394.433" fill="white"/>
</clipPath>
</defs>
</svg>
