<svg width="517" height="518" viewBox="0 0 517 518" fill="none" xmlns="http://www.w3.org/2000/svg">
<path d="M274.433 419.131V408.188L264.332 417.447L260.966 388.407L234.45 407.346L231.083 394.72L221.823 403.979V388.828L210.46 402.295L200.359 371.992L187.732 403.158L169.213 379.989L155.325 411.555V396.403L147.328 411.134L141.856 391.353L126.705 414.922L103.556 385.881L96.4014 414.501L89.6672 406.505L84.6167 426.327H279.063L280.747 418.71L274.433 419.131V419.131Z" fill="#F6F6F6"/>
<path d="M73.6553 426.327H291.709" stroke="#07294A" stroke-width="0.7755"/>
<path d="M306.144 275.849L237.544 303.718V125.786L306.144 97.9175V275.849V275.849Z" fill="#F0F8FF"/>
<path d="M374.745 303.718L306.145 275.849V97.9175L374.745 125.786V303.718V303.718Z" fill="#DFEFFF"/>
<path d="M306.145 275.849L237.544 303.718" stroke="#07294A" stroke-width="0.7755"/>
<path d="M374.745 303.718L306.145 275.849" stroke="#07294A" stroke-width="0.7755"/>
<path d="M443.345 275.849L374.745 303.718V125.786L443.345 97.9175V275.849V275.849Z" fill="#79C9E7"/>
<path d="M232.175 416.931C232.175 416.931 224.641 265.474 217.232 224.432L168.351 231L193.827 424.642H237.007L232.175 416.931Z" fill="#DFEFFF"/>
<path d="M217.395 326.347C212.036 317.063 196.309 315.838 180.422 322.751L186.451 368.577C189.781 367.352 193 365.843 196.071 364.066C213.924 353.758 223.472 336.871 217.395 326.347Z" fill="#07294A"/>
<path d="M152.757 240.279C152.757 240.279 147.264 297.597 180.8 312.92L111.79 351.817L126.523 387.767L131.827 375.391C131.827 375.391 218.462 361.836 223.177 327.653C227.892 293.471 195.917 229.671 195.917 229.671" fill="#F0F8FF"/>
<path d="M131.827 375.391C131.827 375.391 218.462 361.836 223.176 327.653C227.891 293.471 195.917 229.671 195.917 229.671" stroke="#07294A" stroke-width="0.7755"/>
<path d="M175.075 126.843V143.668L195.917 148.79V120.397L175.075 115.275V126.843V126.843Z" fill="#F0F8FF"/>
<path d="M186.848 132.664C187.156 132.664 187.406 132.414 187.406 132.106C187.406 131.799 187.156 131.549 186.848 131.549C186.541 131.549 186.291 131.799 186.291 132.106C186.291 132.414 186.541 132.664 186.848 132.664Z" fill="#07294A"/>
<path d="M178.289 132.664C178.597 132.664 178.846 132.414 178.846 132.106C178.846 131.799 178.597 131.549 178.289 131.549C177.981 131.549 177.731 131.799 177.731 132.106C177.731 132.414 177.981 132.664 178.289 132.664Z" fill="#07294A"/>
<path d="M180.8 135.431V126.843H176.498" stroke="#07294A" stroke-width="0.7755"/>
<path d="M187.898 126.843H183.596" stroke="#07294A" stroke-width="0.7755"/>
<path d="M194.544 131.243V134.225C195.317 134.225 196.058 133.919 196.604 133.372C197.15 132.826 197.457 132.085 197.457 131.312C197.457 131.223 197.453 131.135 197.445 131.047C197.282 129.238 194.544 129.427 194.544 131.243Z" fill="#F0F8FF"/>
<path d="M194.544 134.225C195.317 134.225 196.058 133.919 196.604 133.372C197.15 132.826 197.457 132.085 197.457 131.312" stroke="#07294A" stroke-width="0.7755"/>
<path d="M182.682 137.548C184.31 137.548 185.63 136.228 185.63 134.6" stroke="#79C9E7" stroke-width="0.7755" stroke-linecap="round" stroke-linejoin="round"/>
<path d="M175.075 143.667L195.917 148.79" stroke="#07294A" stroke-width="0.7755"/>
<path d="M180.8 135.438L182.682 135.9" stroke="#07294A" stroke-width="0.7755" stroke-linecap="round"/>
<path d="M175.075 126.843L173.576 112.172L198.527 114.726L196.001 129.782" stroke="#07294A" stroke-width="0.7755"/>
<path d="M176.498 118.623C176.498 118.623 182.908 124.451 191.487 123.273C191.487 123.273 192.036 128.97 194.544 130.28" stroke="#07294A" stroke-width="0.7755"/>
<path d="M217.232 178.919V224.432L152.757 240.279V189.59C152.757 171.616 165.027 155.965 182.481 151.675H182.481C190.852 149.618 199.703 151.522 206.486 156.84C213.27 162.158 217.232 170.299 217.232 178.919L217.232 178.919Z" fill="#79C9E7"/>
<path d="M165.22 160.99C165.22 160.99 137.918 185.354 138.311 218.359C138.64 246.002 203.647 223.207 224.762 215.071C228.905 213.473 232.181 210.2 233.784 206.058L236.132 199.995L242.828 197.272V193.605L177.739 201.988L185.747 183.127" stroke="#07294A" stroke-width="0.7755"/>
<path d="M155.042 231.541C160.101 233.961 166.961 235.451 174.523 235.451C189.086 235.451 201.066 229.935 202.528 222.862C186.943 227.766 168.235 232.385 155.042 231.541Z" fill="#07294A"/>
<path d="M241.401 191.812C246.69 180.803 255.385 163.705 259.593 160.99C263.314 158.573 267.754 157.511 272.166 157.981V160.99L267.451 163.743C267.451 163.743 270.595 172.388 264.308 176.055C264.308 176.055 262.885 256.568 217.232 224.432" stroke="#07294A" stroke-width="0.7755"/>
<path d="M213.424 164.782L232.821 194.738" stroke="#07294A" stroke-width="0.7755"/>
<path d="M306.145 322.421C322.509 322.421 335.774 309.156 335.774 292.792C335.774 276.428 322.509 263.162 306.145 263.162C289.781 263.162 276.515 276.428 276.515 292.792C276.515 309.156 289.781 322.421 306.145 322.421Z" fill="#79C9E7"/>
<path d="M335.774 292.792C335.774 309.156 322.508 322.421 306.145 322.421" stroke="#07294A" stroke-width="0.7755"/>
<path d="M283.55 292.792C283.55 286.799 285.931 281.052 290.168 276.815C294.405 272.578 300.152 270.198 306.144 270.198" stroke="white" stroke-width="0.7755"/>
<path d="M306.145 322.421V426.327" stroke="#07294A" stroke-width="0.7755"/>
<path d="M272.933 426.327H339.357" stroke="#07294A" stroke-width="0.7755"/>
</svg>
