<svg width="746" height="447" viewBox="0 0 746 447" fill="none" xmlns="http://www.w3.org/2000/svg">
<g clip-path="url(#clip0_619_911)">
<path d="M538.628 90.032C560.841 90.032 578.848 108.05 578.848 130.276V183.68C578.848 201.93 593.643 216.725 611.893 216.725H693.552C715.765 216.725 733.773 234.743 733.773 256.969V344.909C733.773 367.135 715.765 385.153 693.552 385.153H465.634C455.045 385.153 445.412 381.059 438.23 374.366C424.878 361.924 410.619 344.909 392.368 344.909H154.296C132.082 344.909 114.075 326.891 114.075 304.665V130.276C114.075 108.05 132.082 90.032 154.296 90.032H538.628Z" fill="url(#paint0_linear_619_911)"/>
<path d="M185.784 182.017C165.981 182.017 149.928 198.067 149.928 217.865V261.827C149.928 280.077 135.133 294.872 116.883 294.872H47.6719C27.8693 294.872 11.8159 310.921 11.8159 330.72V409.054C11.8159 428.853 27.8693 444.902 47.6719 444.902H250.856C259 444.902 266.51 442.188 272.53 437.614C287.062 426.574 301.507 409.054 319.757 409.054H528.408C548.211 409.054 564.264 393.005 564.264 373.206V217.865C564.264 198.067 548.211 182.017 528.408 182.017H185.784Z" fill="url(#paint1_linear_619_911)"/>
<path d="M561.049 76.6233H561.049C584.425 76.6233 603.375 95.5732 603.375 118.949V167.755H518.723V118.949C518.723 95.5732 537.673 76.6233 561.049 76.6233Z" fill="url(#paint2_linear_619_911)"/>
<path d="M518.723 167.755V118.949C518.723 95.5732 537.673 76.6233 561.049 76.6233" stroke="#054D87" stroke-width="0.416762" stroke-linecap="round" stroke-linejoin="round"/>
<path d="M561.049 68.8438V175.535" stroke="#054D87" stroke-width="0.416762" stroke-linecap="round" stroke-linejoin="round"/>
<path d="M614.394 122.189H507.703" stroke="#054D87" stroke-width="0.416762" stroke-linecap="round" stroke-linejoin="round"/>
<rect width="4.62368" height="31.3848" transform="matrix(-1 0 0 1 225.122 55.4424)" fill="#C3E5F4"/>
<path d="M220.498 86.8274H225.122V55.4424" stroke="#054D87" stroke-width="0.416762" stroke-linecap="round" stroke-linejoin="round"/>
<path d="M223.911 61.3137H220.498" stroke="#054D87" stroke-width="0.416762" stroke-linecap="round" stroke-linejoin="round"/>
<path d="M223.911 62.5777H220.498" stroke="#054D87" stroke-width="0.416762" stroke-linecap="round" stroke-linejoin="round"/>
<path d="M223.911 63.8416H220.498" stroke="#054D87" stroke-width="0.416762" stroke-linecap="round" stroke-linejoin="round"/>
<rect width="4.62368" height="31.3848" transform="matrix(-1 0 0 1 219.431 55.4424)" fill="#F0F8FF"/>
<path d="M214.807 86.8274H219.431V55.4424" stroke="#054D87" stroke-width="0.416762" stroke-linecap="round" stroke-linejoin="round"/>
<path d="M218.22 61.3137H214.808" stroke="#054D87" stroke-width="0.416762" stroke-linecap="round" stroke-linejoin="round"/>
<path d="M218.22 62.5777H214.808" stroke="#054D87" stroke-width="0.416762" stroke-linecap="round" stroke-linejoin="round"/>
<path d="M218.22 63.8416H214.808" stroke="#054D87" stroke-width="0.416762" stroke-linecap="round" stroke-linejoin="round"/>
<rect width="4.62368" height="31.3848" transform="matrix(-1 0 0 1 213.741 55.4424)" fill="#C3E5F4"/>
<path d="M209.117 86.8274H213.741V55.4424" stroke="#054D87" stroke-width="0.416762" stroke-linecap="round" stroke-linejoin="round"/>
<path d="M212.53 61.3137H209.117" stroke="#054D87" stroke-width="0.416762" stroke-linecap="round" stroke-linejoin="round"/>
<path d="M212.53 62.5777H209.117" stroke="#054D87" stroke-width="0.416762" stroke-linecap="round" stroke-linejoin="round"/>
<path d="M212.53 63.8416H209.117" stroke="#054D87" stroke-width="0.416762" stroke-linecap="round" stroke-linejoin="round"/>
<rect width="4.62368" height="31.3848" transform="matrix(-1 0 0 1 208.051 55.4424)" fill="#F0F8FF"/>
<path d="M203.427 86.8274H208.051V55.4424" stroke="#054D87" stroke-width="0.416762" stroke-linecap="round" stroke-linejoin="round"/>
<path d="M206.84 61.3137H203.427" stroke="#054D87" stroke-width="0.416762" stroke-linecap="round" stroke-linejoin="round"/>
<path d="M206.84 62.5777H203.427" stroke="#054D87" stroke-width="0.416762" stroke-linecap="round" stroke-linejoin="round"/>
<path d="M206.84 63.8416H203.427" stroke="#054D87" stroke-width="0.416762" stroke-linecap="round" stroke-linejoin="round"/>
<rect width="4.62368" height="31.3848" transform="matrix(-1 0 0 1 202.361 55.4424)" fill="#C3E5F4"/>
<path d="M197.737 86.8274H202.361V55.4424" stroke="#054D87" stroke-width="0.416762" stroke-linecap="round" stroke-linejoin="round"/>
<path d="M201.15 61.3137H197.737" stroke="#054D87" stroke-width="0.416762" stroke-linecap="round" stroke-linejoin="round"/>
<path d="M201.15 62.5777H197.737" stroke="#054D87" stroke-width="0.416762" stroke-linecap="round" stroke-linejoin="round"/>
<path d="M201.15 63.8416H197.737" stroke="#054D87" stroke-width="0.416762" stroke-linecap="round" stroke-linejoin="round"/>
<rect width="4.62368" height="31.3848" transform="matrix(-1 0 0 1 196.67 55.4424)" fill="#F0F8FF"/>
<path d="M192.047 86.8274H196.67V55.4424" stroke="#054D87" stroke-width="0.416762" stroke-linecap="round" stroke-linejoin="round"/>
<path d="M195.459 61.3137H192.047" stroke="#054D87" stroke-width="0.416762" stroke-linecap="round" stroke-linejoin="round"/>
<path d="M195.459 62.5777H192.047" stroke="#054D87" stroke-width="0.416762" stroke-linecap="round" stroke-linejoin="round"/>
<path d="M195.459 63.8416H192.047" stroke="#054D87" stroke-width="0.416762" stroke-linecap="round" stroke-linejoin="round"/>
<rect width="4.62368" height="31.3848" transform="matrix(-1 0 0 1 190.98 55.4424)" fill="#C3E5F4"/>
<path d="M186.357 86.8274H190.98V55.4424" stroke="#054D87" stroke-width="0.416762" stroke-linecap="round" stroke-linejoin="round"/>
<path d="M189.769 61.3137H186.356" stroke="#054D87" stroke-width="0.416762" stroke-linecap="round" stroke-linejoin="round"/>
<path d="M189.769 62.5777H186.356" stroke="#054D87" stroke-width="0.416762" stroke-linecap="round" stroke-linejoin="round"/>
<path d="M189.769 63.8416H186.356" stroke="#054D87" stroke-width="0.416762" stroke-linecap="round" stroke-linejoin="round"/>
<rect width="4.62368" height="31.3848" transform="matrix(-1 0 0 1 185.29 55.4424)" fill="#F0F8FF"/>
<path d="M180.666 86.8274H185.29V55.4424" stroke="#054D87" stroke-width="0.416762" stroke-linecap="round" stroke-linejoin="round"/>
<path d="M184.079 61.3137H180.666" stroke="#054D87" stroke-width="0.416762" stroke-linecap="round" stroke-linejoin="round"/>
<path d="M184.079 62.5777H180.666" stroke="#054D87" stroke-width="0.416762" stroke-linecap="round" stroke-linejoin="round"/>
<path d="M184.079 63.8416H180.666" stroke="#054D87" stroke-width="0.416762" stroke-linecap="round" stroke-linejoin="round"/>
<rect width="4.6238" height="31.384" transform="matrix(-0.960507 -0.278256 -0.278081 0.960558 180.068 56.7051)" fill="#C3E5F4"/>
<path d="M166.9 85.5647L171.341 86.8513L180.068 56.7051" stroke="#054D87" stroke-width="0.416762" stroke-linecap="round" stroke-linejoin="round"/>
<path d="M177.273 62.0075L173.995 61.0579" stroke="#054D87" stroke-width="0.416762" stroke-linecap="round" stroke-linejoin="round"/>
<path d="M176.921 63.2219L173.643 62.2722" stroke="#054D87" stroke-width="0.416762" stroke-linecap="round" stroke-linejoin="round"/>
<path d="M176.57 64.4358L173.291 63.4861" stroke="#054D87" stroke-width="0.416762" stroke-linecap="round" stroke-linejoin="round"/>
<path d="M114.842 36.9583V197.286H235.865" stroke="#054D87" stroke-width="0.416762" stroke-linecap="round" stroke-linejoin="round"/>
<path d="M298.741 244.088H51.9657" stroke="#054D87" stroke-width="0.416762" stroke-linecap="round" stroke-linejoin="round"/>
<path d="M237.239 87.0088H113.468" stroke="#054D87" stroke-width="0.416762" stroke-linecap="round" stroke-linejoin="round"/>
<path d="M175.354 87.0088V197.286" stroke="#054D87" stroke-width="0.416762" stroke-linecap="round" stroke-linejoin="round"/>
<path d="M175.354 142.147H113.468" stroke="#054D87" stroke-width="0.416762" stroke-linecap="round" stroke-linejoin="round"/>
<path d="M100.187 383.48C111.033 313.435 174.536 283.05 174.536 283.05L200.988 296.715C201.919 296.715 196.03 321.807 196.03 321.807L156.845 339.164L120.561 395.279L92.9565 385.739L100.187 383.48Z" fill="#DFEFFF"/>
<path d="M154.64 295.769C169.653 288.481 187.518 290.469 200.561 300.881C199.267 308.014 196.03 321.807 196.03 321.807L156.845 339.164L141.181 363.389C128.249 348.799 126.671 327.363 137.327 311.037C142.719 305.533 148.505 300.431 154.64 295.769Z" fill="#054D87"/>
<path d="M134.341 323.875C135.615 288.054 178.334 282.319 178.334 282.319L227.772 270.168C227.772 270.168 235.925 324.176 173.561 325.08L203.053 383.48L175.947 395.279L178.334 387.095C178.334 387.095 133.581 345.266 134.341 323.875Z" fill="#F0F8FF"/>
<path d="M227.772 270.168C227.772 270.168 235.925 324.176 173.561 325.08L203.053 383.48" stroke="#054D87" stroke-width="0.416762" stroke-linecap="round" stroke-linejoin="round"/>
<path d="M227.772 235.269V270.168L178.334 282.319V243.452C178.334 229.67 187.743 217.669 201.126 214.379H201.126C207.544 212.802 214.331 214.262 219.533 218.34C224.734 222.418 227.772 228.66 227.772 235.269V235.269Z" fill="#79C9E7"/>
<path d="M213.192 195.339V200.907C213.192 205.213 210.253 208.962 206.072 209.99L197.211 212.168V190.397L204.578 188.586C206.653 188.076 208.847 188.548 210.529 189.866C212.21 191.185 213.192 193.203 213.192 195.339V195.339Z" fill="#F0F8FF"/>
<path d="M213.192 200.907C213.192 205.213 210.253 208.962 206.072 209.99L197.211 212.168" stroke="#054D87" stroke-width="0.416762" stroke-linecap="round" stroke-linejoin="round"/>
<path d="M204.164 199.802C203.928 199.802 203.737 199.611 203.737 199.375C203.737 199.139 203.928 198.948 204.164 198.948C204.4 198.948 204.592 199.139 204.592 199.375C204.592 199.611 204.4 199.802 204.164 199.802Z" fill="#054D87"/>
<path d="M210.728 199.802C210.492 199.802 210.3 199.611 210.3 199.375C210.3 199.139 210.492 198.948 210.728 198.948C210.964 198.948 211.155 199.139 211.155 199.375C211.155 199.611 210.964 199.802 210.728 199.802Z" fill="#054D87"/>
<path d="M208.802 201.924V195.339H212.101" stroke="#054D87" stroke-width="0.416762" stroke-linecap="round" stroke-linejoin="round"/>
<path d="M203.359 195.339H206.658" stroke="#054D87" stroke-width="0.416762" stroke-linecap="round" stroke-linejoin="round"/>
<path d="M198.263 198.713V201C197.03 201 196.03 200 196.03 198.766C196.03 198.698 196.033 198.63 196.039 198.563C196.164 197.176 198.263 197.321 198.263 198.713Z" fill="#F0F8FF"/>
<path d="M198.263 201C197.03 201 196.03 200 196.03 198.766" stroke="#054D87" stroke-width="0.416762" stroke-linecap="round" stroke-linejoin="round"/>
<path d="M206.998 202.694C206.721 202.971 206.345 203.127 205.952 203.127C205.56 203.127 205.184 202.971 204.907 202.694" stroke="#79C9E7" stroke-width="0.416762" stroke-linecap="round" stroke-linejoin="round"/>
<path d="M208.802 201.929L207.359 202.284" stroke="#054D87" stroke-width="0.416762" stroke-linecap="round" stroke-linejoin="round"/>
<path d="M213.531 197.839C213.531 197.839 209.556 195.769 208.883 192.269C208.875 192.215 208.83 192.175 208.776 192.17C208.722 192.166 208.672 192.2 208.656 192.252C208.168 193.769 206.147 197.759 198.263 198.713" stroke="#054D87" stroke-width="0.416762" stroke-linecap="round" stroke-linejoin="round"/>
<path d="M213.192 199.883C213.192 199.883 217.146 198.14 216.443 193.52C215.74 188.901 202.182 176.313 193.044 188.382C183.905 200.45 168.79 223.247 168.79 223.247L178.764 224.78C183.382 225.49 188.079 224.148 191.625 221.105C195.17 218.063 197.211 213.624 197.211 208.952V202.693" stroke="#054D87" stroke-width="0.416762" stroke-linecap="round" stroke-linejoin="round"/>
<path d="M83.9265 261.777H162.591L157.195 214.586H78.5308L83.9265 261.777Z" fill="#F0F8FF"/>
<path fill-rule="evenodd" clip-rule="evenodd" d="M87.05 257.752H165.714L160.319 210.561H81.6544L87.05 257.752Z" stroke="#054D87" stroke-width="0.416762" stroke-linecap="round" stroke-linejoin="round"/>
<path d="M121 275.643L118.954 257.752H131.535L133.581 275.643H121Z" fill="#054D87"/>
<path d="M188.165 275.643H80.5183" stroke="#054D87" stroke-width="0.416762" stroke-linecap="round" stroke-linejoin="round"/>
<path d="M221.098 219.6C221.098 219.6 241.476 236.336 246.598 263.384C251.72 290.433 211.108 283.933 191.765 275.971" stroke="#054D87" stroke-width="0.416762" stroke-linecap="round" stroke-linejoin="round"/>
<path d="M225.056 261.777C225.056 261.777 179.111 253.656 175.947 273.777" stroke="#054D87" stroke-width="0.416762" stroke-linecap="round" stroke-linejoin="round"/>
<path d="M190.277 219.6C190.277 219.6 175.858 234.479 172.056 261.777C172.056 261.777 157.43 262.28 156.845 273.777" stroke="#054D87" stroke-width="0.416762" stroke-linecap="round" stroke-linejoin="round"/>
<path d="M229.605 228.418C229.605 228.418 236.158 214.811 241.581 226.561C247.004 238.311 270.7 315.74 245.694 328.695C220.688 341.651 184.121 334.535 184.121 334.535" stroke="#054D87" stroke-width="0.416762" stroke-linecap="round" stroke-linejoin="round"/>
<path d="M211.755 336.485V423.684H241.581" stroke="#054D87" stroke-width="0.416762" stroke-linecap="round" stroke-linejoin="round"/>
<path d="M318.494 201.533C318.494 201.533 312.694 206.953 304.404 213.917" stroke="#054D87" stroke-width="0.416762" stroke-linecap="round" stroke-linejoin="round"/>
<path d="M309.018 267.433C309.018 267.433 277.554 358.31 309.018 411.529L305.666 420.979L332.697 409.539L329.313 333.939C329.313 333.939 350.653 286.618 348.552 277.452C346.451 268.286 345.96 254.893 345.96 254.893" fill="#DFEFFF"/>
<path d="M317.866 256.234C317.866 256.234 311.172 365.491 330.079 417.22L326.13 423.023H359.757C359.757 423.023 363.431 284.054 363.431 254.059L317.866 256.234Z" fill="#F0F8FF"/>
<path d="M327.071 171.701V185.899L344.66 190.223V166.261L327.071 161.938V171.701Z" fill="#F0F8FF"/>
<path d="M337.007 176.613C336.747 176.613 336.537 176.403 336.537 176.143C336.537 175.883 336.747 175.673 337.007 175.673C337.267 175.673 337.477 175.883 337.477 176.143C337.477 176.403 337.267 176.613 337.007 176.613Z" fill="#054D87"/>
<path d="M329.783 176.613C329.524 176.613 329.313 176.403 329.313 176.143C329.313 175.883 329.524 175.673 329.783 175.673C330.043 175.673 330.254 175.883 330.254 176.143C330.254 176.403 330.043 176.613 329.783 176.613Z" fill="#054D87"/>
<path d="M331.902 178.949V171.701H328.272" stroke="#054D87" stroke-width="0.416762" stroke-linecap="round" stroke-linejoin="round"/>
<path d="M337.893 171.701H334.262" stroke="#054D87" stroke-width="0.416762" stroke-linecap="round" stroke-linejoin="round"/>
<path d="M343.502 175.414V177.931C344.86 177.931 345.96 176.831 345.96 175.473C345.96 175.398 345.957 175.323 345.95 175.249C345.812 173.723 343.502 173.882 343.502 175.414Z" fill="#F0F8FF"/>
<path d="M343.502 177.931C344.86 177.931 345.96 176.831 345.96 175.473" stroke="#054D87" stroke-width="0.416762" stroke-linecap="round" stroke-linejoin="round"/>
<path d="M333.491 180.735C334.865 180.735 335.979 179.621 335.979 178.247" stroke="#79C9E7" stroke-width="0.416762" stroke-linecap="round" stroke-linejoin="round"/>
<path d="M327.071 185.9L344.66 190.223" stroke="#054D87" stroke-width="0.416762" stroke-linecap="round" stroke-linejoin="round"/>
<path d="M331.903 178.954L333.491 179.345" stroke="#054D87" stroke-width="0.416762" stroke-linecap="round" stroke-linejoin="round"/>
<path d="M343.502 175.064C343.502 175.064 341.26 170.975 341.15 169.151L340.542 171.701C340.542 171.701 336.397 170.422 333.854 167.272V170.514C333.854 170.514 328.964 169.482 327.707 166.222V169.261C327.707 169.261 326.172 168.211 325.786 166.609" stroke="#79C9E7" stroke-width="0.416762" stroke-linecap="round" stroke-linejoin="round"/>
<path d="M327.071 172.025C327.071 172.025 318.134 162.543 330.254 159.921C338.939 158.042 343.502 162.685 343.502 162.685C343.502 162.685 346.51 164.121 347.726 166.553C348.942 168.985 349.442 175.23 344.66 179.872" stroke="#79C9E7" stroke-width="0.416762" stroke-linecap="round" stroke-linejoin="round"/>
<path d="M363.431 215.649V254.059L309.018 267.433V224.655C309.018 209.486 319.373 196.278 334.103 192.657H334.103C341.167 190.921 348.637 192.528 354.362 197.016C360.087 201.505 363.431 208.375 363.431 215.649V215.649Z" fill="#79C9E7"/>
<path d="M327.071 244.651C327.071 244.651 327.04 213.016 309.018 212.814C290.996 212.612 297.267 191.962 297.267 191.962L267.729 198.652C267.729 198.652 262.874 226.976 287.759 235.469C300.475 239.809 295.034 269.404 295.034 269.404L327.707 265.619V261.256" fill="#F0F8FF"/>
<path d="M267.729 198.652C267.729 198.652 262.873 226.976 287.758 235.469C300.475 239.808 295.034 269.404 295.034 269.404" stroke="#054D87" stroke-width="0.416762" stroke-linecap="round" stroke-linejoin="round"/>
<path d="M358.77 201.533C358.77 201.533 375.863 223.92 375.642 250.226C375.421 276.533 334.745 274.101 319.27 253.1C319.27 253.1 309.101 246.026 310.649 244.479C312.196 242.931 318.97 244.411 318.97 244.411C318.97 244.411 317.723 240.831 319.602 241.715C321.481 242.6 323.999 244.447 323.999 244.447L348.697 246.088L343.066 223.035" stroke="#054D87" stroke-width="0.416762" stroke-linecap="round" stroke-linejoin="round"/>
<path d="M317.866 256.234C317.866 256.234 311.172 365.491 330.079 417.22" stroke="#054D87" stroke-width="0.416762" stroke-linecap="round" stroke-linejoin="round"/>
<path d="M358.77 201.533C358.77 201.533 375.863 223.92 375.642 250.226C375.421 276.533 334.745 274.101 319.27 253.1C319.27 253.1 309.101 246.026 310.649 244.479C312.196 242.931 318.97 244.411 318.97 244.411C318.97 244.411 317.723 240.831 319.602 241.715C321.481 242.6 323.999 244.447 323.999 244.447L348.697 246.088L343.066 223.035" stroke="#054D87" stroke-width="0.416762" stroke-linecap="round" stroke-linejoin="round"/>
<path d="M362.986 267.85V286.48C336.625 280.289 323.397 257.743 323.397 257.743L323.398 257.743C334.162 267.901 351.296 271.879 362.986 267.85Z" fill="#054D87"/>
<path d="M300.093 263.656C300.093 263.656 281.026 268.961 277.213 260.174C273.399 251.387 280.197 227.18 280.197 227.18C280.197 227.18 278.207 222.869 279.202 221.709C280.197 220.548 281.192 221.709 281.192 221.709C281.192 221.709 282.767 214.082 285.171 214.662C287.575 215.243 289.258 228.662 290.166 238.017" stroke="#054D87" stroke-width="0.416762" stroke-linecap="round" stroke-linejoin="round"/>
<path d="M238.286 162.869C241.442 162.869 244 160.311 244 157.155C244 154 241.442 151.442 238.286 151.442C235.131 151.442 232.573 154 232.573 157.155C232.573 160.311 235.131 162.869 238.286 162.869Z" fill="#79C9E7"/>
<path d="M275.127 155.698C254.683 135.588 221.889 135.588 201.445 155.698H275.127Z" fill="#F0F8FF"/>
<path d="M238.286 68.6309V140.824" stroke="#054D87" stroke-width="0.416762" stroke-linecap="round" stroke-linejoin="round"/>
<path d="M201.445 155.698H275.127C265.311 146.018 252.073 140.598 238.286 140.616" stroke="#054D87" stroke-width="0.416762" stroke-linecap="round" stroke-linejoin="round"/>
<path d="M268.228 420.216V409.697L258.518 418.598L255.281 390.68L229.791 408.887L226.555 396.749L217.653 405.65V391.085L206.729 404.032L197.018 374.901L184.88 404.861L167.078 382.588L153.726 412.933V398.368L146.038 412.529L140.779 393.512L126.213 416.17L103.96 388.253L97.0814 415.765L90.6077 408.078L85.7524 427.134H272.679L274.298 419.812L268.228 420.216Z" fill="#79C9E7"/>
<path d="M75.2148 427.135H284.835" stroke="#054D87" stroke-width="0.416762" stroke-linecap="round" stroke-linejoin="round"/>
<path d="M148.36 176.027L150.382 165.201H137.226L139.249 176.027C137.306 178.671 136.042 182.96 136.042 187.804C136.042 191.191 136.66 194.307 137.696 196.779H149.913C150.949 194.307 151.567 191.191 151.567 187.804C151.567 182.96 150.303 178.671 148.36 176.027Z" fill="#054D87"/>
<rect x="142.006" y="146.116" width="3.59711" height="9.6572" rx="1.79855" fill="#79C9E7"/>
<path d="M139.629 148.531C140.125 147.669 141.225 147.374 142.086 147.871L147.322 150.899C148.182 151.396 148.477 152.498 147.98 153.359C147.483 154.221 146.383 154.516 145.523 154.019L140.287 150.991C139.427 150.494 139.132 149.392 139.629 148.531Z" fill="#79C9E7"/>
<rect width="3.60099" height="9.64678" rx="1.8005" transform="matrix(-0.49946 -0.866337 0.865713 -0.50054 140.528 154.919)" fill="#79C9E7"/>
<rect width="2.44848" height="2.44848" rx="0.291634" transform="matrix(0.706597 -0.707616 0.706597 0.707616 142.074 150.945)" fill="white"/>
<rect x="134.93" y="154.823" width="3.20336" height="8.60011" rx="1.60168" fill="#79C9E7"/>
<rect width="3.20682" height="8.59083" rx="1.60341" transform="matrix(0.49946 -0.866337 0.865713 0.50054 132.013 158.362)" fill="#79C9E7"/>
<rect width="3.20682" height="8.59083" rx="1.60341" transform="matrix(-0.49946 -0.866337 0.865713 -0.50054 133.615 162.662)" fill="#79C9E7"/>
<rect width="2.18047" height="2.18047" rx="0.259712" transform="matrix(0.706598 -0.707616 0.706598 0.707616 134.992 159.123)" fill="white"/>
<rect x="149.475" y="154.823" width="3.20336" height="8.60011" rx="1.60168" fill="#79C9E7"/>
<path d="M147.358 156.973C147.57 156.604 147.92 156.335 148.331 156.225C148.741 156.115 149.178 156.173 149.546 156.386L154.209 159.082C154.975 159.525 155.237 160.506 154.795 161.273C154.583 161.641 154.233 161.91 153.823 162.02C153.412 162.13 152.975 162.073 152.607 161.86L147.944 159.164C147.178 158.721 146.916 157.74 147.358 156.973L147.358 156.973Z" fill="#79C9E7"/>
<rect width="3.20682" height="8.59083" rx="1.60341" transform="matrix(-0.49946 -0.866337 0.865713 -0.50054 148.159 162.662)" fill="#79C9E7"/>
<rect width="2.18046" height="2.18046" rx="0.259712" transform="matrix(0.706597 -0.707616 0.706597 0.707616 149.536 159.123)" fill="white"/>
<path d="M136.678 159.123C136.678 159.123 140.964 161.215 140.964 166.504" stroke="#054D87" stroke-width="0.348934" stroke-linecap="round" stroke-linejoin="round"/>
<path d="M150.93 159.123C150.93 159.123 146.645 161.215 146.645 166.504" stroke="#054D87" stroke-width="0.348934" stroke-linecap="round" stroke-linejoin="round"/>
<path d="M143.804 150.945V167.04" stroke="#054D87" stroke-width="0.348934" stroke-linecap="round" stroke-linejoin="round"/>
<path d="M114.933 196.779H172.675" stroke="#054D87" stroke-width="0.348934" stroke-linecap="round" stroke-linejoin="round"/>
<path d="M408.874 181.361C408.874 181.361 413.863 182.183 422.428 181.361C422.428 181.361 421.936 185.347 423.97 187.166" stroke="#79C9E7" stroke-width="0.416762" stroke-linecap="round" stroke-linejoin="round"/>
<path d="M425.074 193.469C425.074 193.469 431.142 186.444 428.088 179.941C425.035 173.439 415.275 173.962 410.287 176.578C405.299 179.194 407.532 181.859 409.208 184.264" stroke="#79C9E7" stroke-width="0.416762" stroke-linecap="round" stroke-linejoin="round"/>
<path d="M428.947 179.019C428.947 179.019 430.719 181.69 430.173 183.818" stroke="#054D87" stroke-width="0.416762" stroke-linecap="round" stroke-linejoin="round"/>
<path d="M430.278 179.019C430.278 179.019 429.519 172.765 436.227 174.099C437.048 174.258 437.886 174.301 438.719 174.227C440.229 174.101 442.563 174.26 442.462 176.466C442.377 178.324 441.051 179.657 439.931 180.458C439.09 181.053 438.335 181.763 437.688 182.566C436.817 183.657 434.985 184.846 431.514 183.08" stroke="#79C9E7" stroke-width="0.416762" stroke-linecap="round" stroke-linejoin="round"/>
<path d="M445.16 270.13C445.16 270.13 469.185 304.159 467.696 332.675C466.206 361.191 453.986 390.302 453.986 390.302L461.142 397.004H430.16L437.554 325.015C437.554 325.015 414.67 310.665 412.286 296.912C409.903 283.16 420.718 264.101 420.718 264.101" fill="#DFEFFF"/>
<path d="M436.41 324.268C438.563 318.561 439.853 311.304 439.853 303.403C439.853 285.027 432.882 270.13 424.282 270.13C420.929 270.13 417.823 272.396 415.281 276.25C413.017 282.581 411.149 290.35 412.286 296.912C414.348 308.812 431.755 321.156 436.41 324.268Z" fill="#054D87"/>
<path d="M437.554 257.338L402.673 254.94L396.33 257.533L393.349 410.409H425.748L422.322 404.249L437.554 257.338Z" fill="#F0F8FF"/>
<path d="M409.208 183.818V189.344C409.208 193.616 412.115 197.337 416.249 198.356L425.01 200.518V178.914L417.725 177.117C415.674 176.611 413.504 177.079 411.842 178.387C410.179 179.695 409.208 181.698 409.208 183.818V183.818Z" fill="#F0F8FF"/>
<path d="M409.208 189.343C409.208 193.616 412.115 197.336 416.249 198.356L425.01 200.517" stroke="#054D87" stroke-width="0.416762" stroke-linecap="round" stroke-linejoin="round"/>
<path d="M418.135 188.247C418.368 188.247 418.557 188.057 418.557 187.823C418.557 187.589 418.368 187.399 418.135 187.399C417.901 187.399 417.712 187.589 417.712 187.823C417.712 188.057 417.901 188.247 418.135 188.247Z" fill="#054D87"/>
<path d="M411.645 188.247C411.878 188.247 412.067 188.057 412.067 187.823C412.067 187.589 411.878 187.399 411.645 187.399C411.412 187.399 411.222 187.589 411.222 187.823C411.222 188.057 411.412 188.247 411.645 188.247Z" fill="#054D87"/>
<path d="M413.549 190.353V183.818H410.287" stroke="#054D87" stroke-width="0.416762" stroke-linecap="round" stroke-linejoin="round"/>
<path d="M418.931 183.818H415.669" stroke="#054D87" stroke-width="0.416762" stroke-linecap="round" stroke-linejoin="round"/>
<path d="M423.969 187.166V189.435C425.189 189.435 426.178 188.443 426.178 187.219C426.178 187.151 426.175 187.084 426.169 187.017C426.045 185.641 423.969 185.784 423.969 187.166Z" fill="#F0F8FF"/>
<path d="M423.969 189.435C425.189 189.435 426.178 188.443 426.178 187.219" stroke="#054D87" stroke-width="0.416762" stroke-linecap="round" stroke-linejoin="round"/>
<path d="M415.333 191.116C415.607 191.391 415.979 191.546 416.367 191.546C416.754 191.546 417.126 191.391 417.401 191.116" stroke="#79C9E7" stroke-width="0.416762" stroke-linecap="round" stroke-linejoin="round"/>
<path d="M413.549 190.358L414.976 190.71" stroke="#054D87" stroke-width="0.416762" stroke-linecap="round" stroke-linejoin="round"/>
<path d="M396.276 223.442V258.072L445.16 270.13V231.561C445.16 217.885 435.857 205.976 422.623 202.712H422.623C416.277 201.147 409.566 202.596 404.423 206.642C399.28 210.689 396.276 216.883 396.276 223.442V223.442Z" fill="#79C9E7"/>
<path d="M437.554 410.409V397.004H473.367" stroke="#054D87" stroke-width="0.416762" stroke-linecap="round" stroke-linejoin="round"/>
<path d="M453.986 397.004V383.6H489.799" stroke="#054D87" stroke-width="0.416762" stroke-linecap="round" stroke-linejoin="round"/>
<path d="M470.419 383.6V370.195H506.232" stroke="#054D87" stroke-width="0.416762" stroke-linecap="round" stroke-linejoin="round"/>
<path d="M486.852 370.195V356.79H522.665" stroke="#054D87" stroke-width="0.416762" stroke-linecap="round" stroke-linejoin="round"/>
<path d="M422.322 404.249L437.553 257.338" stroke="#054D87" stroke-width="0.416762" stroke-linecap="round" stroke-linejoin="round"/>
<path d="M404.166 206.851C404.166 206.851 382.893 226.755 387.461 251.27C392.029 275.785 450.616 257.449 453.992 245.291L455.581 239.71C455.581 239.71 462.532 238.285 459.752 236.108C456.971 233.93 411.223 240.906 411.223 240.906L414.976 226.555" stroke="#054D87" stroke-width="0.416762" stroke-linecap="round" stroke-linejoin="round"/>
<path d="M440.648 215.797C440.648 215.797 446.452 226.335 450.12 236.108" stroke="#054D87" stroke-width="0.416762" stroke-linecap="round" stroke-linejoin="round"/>
<path d="M456.525 235.112C456.525 235.112 464.419 221.423 469.036 224.562C473.654 227.701 476.335 228.216 474.845 229.603C473.356 230.99 469.483 229.603 469.483 229.603C469.483 229.603 471.639 233.766 468.882 234.868C468.523 235.004 468.145 235.087 467.762 235.112C467.762 235.112 465.976 275.377 446.728 272.467" stroke="#054D87" stroke-width="0.416762" stroke-linecap="round" stroke-linejoin="round"/>
<path d="M560.521 212.468C560.521 212.468 498.059 271.836 484.611 308.818L475.633 311.337L495.554 328.292L543.875 284.465C543.875 284.465 576.913 269.374 583.707 249.452C590.501 229.53 591.581 218.086 591.581 218.086" fill="#79C9E7"/>
<path d="M583.707 249.452C580.078 260.094 568.96 269.357 559.389 275.678C557.852 269.423 557.091 263.003 557.125 256.562C557.125 234.386 565.547 216.408 575.935 216.408C581.32 216.408 586.175 221.24 589.604 228.981C587.993 235.902 586.024 242.735 583.707 249.452Z" fill="#054D87"/>
<path d="M568.062 214.322C568.062 214.322 562.357 307.432 578.47 351.516L575.104 356.461H603.762C603.762 356.461 606.893 238.03 606.893 212.468L568.062 214.322Z" fill="#79C9E7"/>
<path d="M577.578 142.281V154.382L592.569 158.066V137.645L577.578 133.961V142.281Z" fill="#F0F8FF"/>
<path d="M586.046 146.467C585.825 146.467 585.645 146.288 585.645 146.067C585.645 145.845 585.825 145.666 586.046 145.666C586.268 145.666 586.447 145.845 586.447 146.067C586.447 146.288 586.268 146.467 586.046 146.467Z" fill="#054D87"/>
<path d="M579.89 146.467C579.669 146.467 579.489 146.288 579.489 146.067C579.489 145.845 579.669 145.666 579.89 145.666C580.112 145.666 580.291 145.845 580.291 146.067C580.291 146.288 580.112 146.467 579.89 146.467Z" fill="#054D87"/>
<path d="M581.696 148.458V142.281H578.602" stroke="#054D87" stroke-width="0.416762" stroke-linecap="round" stroke-linejoin="round"/>
<path d="M586.801 142.281H583.707" stroke="#054D87" stroke-width="0.416762" stroke-linecap="round" stroke-linejoin="round"/>
<path d="M591.581 145.446V147.591C592.738 147.591 593.676 146.653 593.676 145.496C593.676 145.431 593.673 145.368 593.668 145.305C593.55 144.004 591.581 144.14 591.581 145.446Z" fill="#F0F8FF"/>
<path d="M591.581 147.591C592.738 147.591 593.676 146.653 593.676 145.496" stroke="#054D87" stroke-width="0.416762" stroke-linecap="round" stroke-linejoin="round"/>
<path d="M583.05 149.981C584.221 149.981 585.17 149.031 585.17 147.86" stroke="#79C9E7" stroke-width="0.416762" stroke-linecap="round" stroke-linejoin="round"/>
<path d="M577.578 154.382L592.569 158.066" stroke="#054D87" stroke-width="0.416762" stroke-linecap="round" stroke-linejoin="round"/>
<path d="M581.696 148.463L583.05 148.795" stroke="#054D87" stroke-width="0.416762" stroke-linecap="round" stroke-linejoin="round"/>
<path d="M560.521 179.735V212.468L606.893 223.865V187.409C606.893 174.482 598.068 163.226 585.514 160.14H585.514C579.494 158.661 573.128 160.031 568.25 163.855C563.371 167.68 560.521 173.535 560.521 179.735V179.735Z" fill="#F0F8FF"/>
<path d="M568.062 214.322C568.062 214.322 562.357 307.432 578.47 351.516" stroke="#054D87" stroke-width="0.416762" stroke-linecap="round" stroke-linejoin="round"/>
<path d="M591.581 145.446C591.581 145.446 589.839 142.008 590.686 139.464L588.92 141.655C588.92 141.655 580.585 139.818 579.489 136.003L577.578 138.051L577.193 137.062" stroke="#054D87" stroke-width="0.416762" stroke-linecap="round" stroke-linejoin="round"/>
<path d="M592.947 144.395C592.947 144.395 597.468 137.698 592.17 133.318C586.871 128.938 575.285 135.084 575.285 135.084C575.285 135.084 577.036 141.27 577.578 141.27" stroke="#054D87" stroke-width="0.416762" stroke-linecap="round" stroke-linejoin="round"/>
<path d="M594.745 164.285C594.745 164.285 629.048 185.598 652.221 216.965C675.393 248.333 658.155 233.921 658.155 233.921C658.155 233.921 648.547 235.051 647.699 228.269C647.699 228.269 601.307 195.771 591.581 196.619" stroke="#054D87" stroke-width="0.416762" stroke-linecap="round" stroke-linejoin="round"/>
<path d="M578.602 159.548C578.602 159.548 525.779 157.018 504.622 161.954C482.014 167.229 499.535 169.585 499.535 169.585C499.535 169.585 501.419 175.425 507.825 171.554C507.825 171.554 546.539 177.657 560.521 183.808" stroke="#054D87" stroke-width="0.416762" stroke-linecap="round" stroke-linejoin="round"/>
<path d="M521.016 356.905H646.09" stroke="#054D87" stroke-width="0.416837" stroke-linecap="round" stroke-linejoin="round"/>
<path d="M658.075 258.67L683.874 254.66C683.874 254.66 702.884 345.36 692.682 413.024L695.692 419.699H661.51L651.804 316.488L658.075 258.67Z" fill="#DFEFFF"/>
<path d="M675.231 256.784C675.231 256.784 681.77 363.504 663.302 414.031L667.16 419.699H634.314C634.314 419.699 630.725 283.958 630.725 254.66L675.231 256.784Z" fill="#F0F8FF"/>
<path d="M675.231 256.784C675.231 256.784 681.77 363.504 663.302 414.031L667.16 419.699" stroke="#054D87" stroke-width="0.416762" stroke-linecap="round" stroke-linejoin="round"/>
<path d="M651.804 174.214V188.084L668.986 192.307V168.902L651.804 164.679V174.214Z" fill="#F0F8FF"/>
<path d="M661.51 179.013C661.256 179.013 661.051 178.807 661.051 178.554C661.051 178.3 661.256 178.094 661.51 178.094C661.764 178.094 661.969 178.3 661.969 178.554C661.969 178.807 661.764 179.013 661.51 179.013Z" fill="#054D87"/>
<path d="M654.454 179.013C654.2 179.013 653.995 178.807 653.995 178.554C653.995 178.3 654.2 178.094 654.454 178.094C654.708 178.094 654.914 178.3 654.914 178.554C654.914 178.807 654.708 179.013 654.454 179.013Z" fill="#054D87"/>
<path d="M656.524 181.294V174.214H652.978" stroke="#054D87" stroke-width="0.416762" stroke-linecap="round" stroke-linejoin="round"/>
<path d="M662.375 174.214H658.829" stroke="#054D87" stroke-width="0.416762" stroke-linecap="round" stroke-linejoin="round"/>
<path d="M667.854 177.842V180.3C669.18 180.3 670.255 179.225 670.255 177.899C670.255 177.825 670.252 177.753 670.246 177.681C670.111 176.189 667.854 176.345 667.854 177.842Z" fill="#F0F8FF"/>
<path d="M667.854 180.3C669.18 180.3 670.255 179.225 670.255 177.899" stroke="#054D87" stroke-width="0.416762" stroke-linecap="round" stroke-linejoin="round"/>
<path d="M658.075 183.039C658.72 183.039 659.338 182.783 659.794 182.327C660.25 181.872 660.506 181.253 660.506 180.609" stroke="#79C9E7" stroke-width="0.416762" stroke-linecap="round" stroke-linejoin="round"/>
<path d="M651.804 188.084L668.986 192.307" stroke="#054D87" stroke-width="0.416762" stroke-linecap="round" stroke-linejoin="round"/>
<path d="M656.524 181.3L658.075 181.681" stroke="#054D87" stroke-width="0.416762" stroke-linecap="round" stroke-linejoin="round"/>
<path d="M683.874 217.142V254.66L630.725 267.723V225.939C630.725 211.123 640.84 198.221 655.228 194.684H655.228C662.128 192.988 669.424 194.558 675.016 198.942C680.608 203.326 683.874 210.037 683.874 217.142Z" fill="#79C9E7"/>
<path d="M651.804 173.055C651.804 172.471 645.462 162.106 661.051 161.89C676.639 161.674 669.055 176.638 669.055 176.638" stroke="#054D87" stroke-width="0.416762" stroke-linecap="round" stroke-linejoin="round"/>
<path d="M667.854 174.873C667.854 174.873 665.573 171.472 665.411 170.096C665.411 170.096 654.258 170.258 652.426 167.666" stroke="#054D87" stroke-width="0.416762" stroke-linecap="round" stroke-linejoin="round"/>
<path d="M670.096 205.218L677.719 244.915L674.912 252.257L667.854 246.211L668.326 205.508L665.843 201.945H671.781L670.096 205.218Z" fill="#054D87"/>
<path d="M641.459 201.945C641.459 201.945 578.607 263.054 646.301 301.597L653.54 290.261L638.851 252.257L652.977 232.607" stroke="#054D87" stroke-width="0.416762" stroke-linecap="round" stroke-linejoin="round"/>
<path d="M646.301 301.597L660.365 279.572" stroke="#054D87" stroke-width="0.416762" stroke-linecap="round" stroke-linejoin="round"/>
<path d="M679.752 203.95C679.752 203.95 710.598 251.786 689.516 288.082" stroke="#054D87" stroke-width="0.416762" stroke-linecap="round" stroke-linejoin="round"/>
<path d="M543.56 323.145H543.56C540.098 317.883 534.73 314.169 528.586 312.786L528.219 312.704C528.219 312.704 530.429 328.204 546.589 330.194L547.164 372.148V335.179C547.164 330.901 545.911 326.718 543.56 323.145Z" fill="#79C9E7"/>
<path d="M566.109 317.678L565.741 317.761C559.597 319.144 554.229 322.857 550.767 328.119L550.767 328.119C548.416 331.692 547.164 335.876 547.164 340.153V377.122L548.083 333.876C564.242 331.886 566.109 317.678 566.109 317.678Z" fill="#79C9E7"/>
<rect x="534.731" y="367.193" width="24.8649" height="60.0332" fill="#79C9E7"/>
<path d="M547.164 372.148V335.179C547.164 330.901 545.911 326.718 543.56 323.145V323.145C540.098 317.883 534.73 314.169 528.586 312.787L528.218 312.704C528.218 312.704 527.224 327.627 543.384 329.617" stroke="#054D87" stroke-width="0.416762" stroke-linecap="round" stroke-linejoin="round"/>
<path d="M547.164 377.122V340.153C547.164 335.876 548.416 331.692 550.767 328.119V328.119C554.229 322.857 559.597 319.144 565.741 317.761L566.109 317.678C566.109 317.678 567.103 332.601 550.943 334.591" stroke="#054D87" stroke-width="0.416762" stroke-linecap="round" stroke-linejoin="round"/>
<path d="M547.164 369.576V348.103C547.164 345.618 546.436 343.188 545.071 341.113V341.113C543.06 338.056 539.942 335.9 536.373 335.096L536.16 335.048C536.16 335.048 535.582 343.716 544.968 344.872" stroke="#054D87" stroke-width="0.416762" stroke-linecap="round" stroke-linejoin="round"/>
<path d="M484.638 427.226H609.689" stroke="#054D87" stroke-width="0.416762" stroke-linecap="round" stroke-linejoin="round"/>
</g>
<defs>
<linearGradient id="paint0_linear_619_911" x1="423.924" y1="90.032" x2="423.924" y2="385.153" gradientUnits="userSpaceOnUse">
<stop stop-color="#FDFFAA" stop-opacity="0"/>
<stop offset="1" stop-color="#FDFFAA"/>
</linearGradient>
<linearGradient id="paint1_linear_619_911" x1="288.04" y1="182.017" x2="288.04" y2="444.902" gradientUnits="userSpaceOnUse">
<stop stop-color="#FDFFAA" stop-opacity="0"/>
<stop offset="1" stop-color="#FDFFAA"/>
</linearGradient>
<linearGradient id="paint2_linear_619_911" x1="561.049" y1="76.6233" x2="561.049" y2="167.755" gradientUnits="userSpaceOnUse">
<stop stop-color="#FDFFAA" stop-opacity="0"/>
<stop offset="1" stop-color="#FDFFAA"/>
</linearGradient>
<clipPath id="clip0_619_911">
<rect width="745.192" height="446.047" fill="white" transform="translate(0.807617 0.0791016)"/>
</clipPath>
</defs>
</svg>
