<svg width="620" height="395" viewBox="0 0 620 395" fill="none" xmlns="http://www.w3.org/2000/svg">
<g clip-path="url(#clip0_708_12339)">
<path fill-rule="evenodd" clip-rule="evenodd" d="M523.5 24.1025C523.5 10.8477 512.755 0.102539 499.5 0.102539H385.992C372.737 0.102539 361.992 10.8477 361.992 24.1025V138.831C361.992 152.086 351.247 162.831 337.992 162.831H336.581C323.326 162.831 312.581 152.086 312.581 138.831V100.444C312.581 87.1897 301.836 76.4445 288.581 76.4445H120.5C107.245 76.4445 96.5 87.1897 96.5 100.444V284.149C96.5 297.404 107.245 308.149 120.5 308.149H237.695C250.95 308.149 261.695 318.894 261.695 332.149V370.536C261.695 383.791 272.44 394.536 285.695 394.536H363.067C376.321 394.536 387.067 383.791 387.067 370.536V332.149C387.067 318.894 397.812 308.149 411.067 308.149H499.5C512.755 308.149 523.5 297.404 523.5 284.149V24.1025Z" fill="url(#paint0_linear_708_12339)"/>
<rect x="133.029" y="262.608" width="54.497" height="11.7338" fill="#07294A"/>
<rect x="133.029" y="340.442" width="54.497" height="11.7338" fill="#07294A"/>
<path d="M171.486 392.158V235.949L160.278 229.478L149.069 235.949V392.158" fill="#F0F8FF"/>
<path d="M171.486 392.158V235.949L160.278 229.478L149.069 235.949" stroke="#07294A" stroke-width="0.7755"/>
<path d="M160.278 269.55C160.872 269.55 161.353 269.069 161.353 268.475C161.353 267.881 160.872 267.399 160.278 267.399C159.684 267.399 159.202 267.881 159.202 268.475C159.202 269.069 159.684 269.55 160.278 269.55Z" fill="#07294A"/>
<path d="M160.278 347.385C160.872 347.385 161.353 346.903 161.353 346.309C161.353 345.715 160.872 345.233 160.278 345.233C159.684 345.233 159.202 345.715 159.202 346.309C159.202 346.903 159.684 347.385 160.278 347.385Z" fill="#07294A"/>
<rect x="171.486" y="262.608" width="54.497" height="11.7338" fill="#07294A"/>
<rect x="171.486" y="340.442" width="54.497" height="11.7338" fill="#07294A"/>
<path d="M209.943 392.158V235.949L198.735 229.478L187.526 235.949V392.158" fill="#F0F8FF"/>
<path d="M209.943 392.158V235.949L198.735 229.478L187.526 235.949" stroke="#07294A" stroke-width="0.7755"/>
<path d="M198.735 269.55C199.329 269.55 199.81 269.069 199.81 268.475C199.81 267.881 199.329 267.399 198.735 267.399C198.141 267.399 197.659 267.881 197.659 268.475C197.659 269.069 198.141 269.55 198.735 269.55Z" fill="#07294A"/>
<path d="M198.735 347.385C199.329 347.385 199.81 346.903 199.81 346.309C199.81 345.715 199.329 345.233 198.735 345.233C198.141 345.233 197.659 345.715 197.659 346.309C197.659 346.903 198.141 347.385 198.735 347.385Z" fill="#07294A"/>
<rect x="209.943" y="262.608" width="54.497" height="11.7338" fill="#07294A"/>
<rect x="209.943" y="340.442" width="54.497" height="11.7338" fill="#07294A"/>
<path d="M248.4 392.158V235.949L237.192 229.478L225.983 235.949V392.158" fill="#F0F8FF"/>
<path d="M248.4 392.158V235.949L237.192 229.478L225.983 235.949" stroke="#07294A" stroke-width="0.7755"/>
<path d="M237.192 269.55C237.786 269.55 238.267 269.069 238.267 268.475C238.267 267.881 237.786 267.399 237.192 267.399C236.598 267.399 236.116 267.881 236.116 268.475C236.116 269.069 236.598 269.55 237.192 269.55Z" fill="#07294A"/>
<path d="M237.192 347.385C237.786 347.385 238.267 346.903 238.267 346.309C238.267 345.715 237.786 345.233 237.192 345.233C236.598 345.233 236.116 345.715 236.116 346.309C236.116 346.903 236.598 347.385 237.192 347.385Z" fill="#07294A"/>
<rect x="248.4" y="262.608" width="54.497" height="11.7338" fill="#07294A"/>
<rect x="248.4" y="340.442" width="54.497" height="11.7338" fill="#07294A"/>
<path d="M286.857 392.158V235.949L275.648 229.478L264.44 235.949V392.158" fill="#F0F8FF"/>
<path d="M286.857 392.158V235.949L275.648 229.478L264.44 235.949" stroke="#07294A" stroke-width="0.7755"/>
<path d="M275.649 269.55C276.243 269.55 276.724 269.069 276.724 268.475C276.724 267.881 276.243 267.399 275.649 267.399C275.055 267.399 274.573 267.881 274.573 268.475C274.573 269.069 275.055 269.55 275.649 269.55Z" fill="#07294A"/>
<path d="M275.649 347.385C276.243 347.385 276.724 346.903 276.724 346.309C276.724 345.715 276.243 345.233 275.649 345.233C275.055 345.233 274.573 345.715 274.573 346.309C274.573 346.903 275.055 347.385 275.649 347.385Z" fill="#07294A"/>
<rect x="286.857" y="262.608" width="54.497" height="11.7338" fill="#07294A"/>
<rect x="286.857" y="340.442" width="54.497" height="11.7338" fill="#07294A"/>
<path d="M325.314 392.158V235.949L314.106 229.478L302.897 235.949V392.158" fill="#F0F8FF"/>
<path d="M325.314 392.158V235.949L314.106 229.478L302.897 235.949" stroke="#07294A" stroke-width="0.7755"/>
<path d="M314.106 269.55C314.7 269.55 315.181 269.069 315.181 268.475C315.181 267.881 314.7 267.399 314.106 267.399C313.512 267.399 313.03 267.881 313.03 268.475C313.03 269.069 313.512 269.55 314.106 269.55Z" fill="#07294A"/>
<path d="M314.106 347.385C314.7 347.385 315.181 346.903 315.181 346.309C315.181 345.715 314.7 345.233 314.106 345.233C313.512 345.233 313.03 345.715 313.03 346.309C313.03 346.903 313.512 347.385 314.106 347.385Z" fill="#07294A"/>
<rect x="325.314" y="262.608" width="54.497" height="11.7338" fill="#07294A"/>
<rect x="325.314" y="340.442" width="54.497" height="11.7338" fill="#07294A"/>
<path d="M363.771 392.158V235.949L352.563 229.478L341.354 235.949V392.158" fill="#F0F8FF"/>
<path d="M363.771 392.158V235.949L352.563 229.478L341.354 235.949" stroke="#07294A" stroke-width="0.7755"/>
<path d="M352.562 269.55C353.156 269.55 353.638 269.069 353.638 268.475C353.638 267.881 353.156 267.399 352.562 267.399C351.968 267.399 351.487 267.881 351.487 268.475C351.487 269.069 351.968 269.55 352.562 269.55Z" fill="#07294A"/>
<path d="M352.562 347.385C353.156 347.385 353.638 346.903 353.638 346.309C353.638 345.715 353.156 345.233 352.562 345.233C351.968 345.233 351.487 345.715 351.487 346.309C351.487 346.903 351.968 347.385 352.562 347.385Z" fill="#07294A"/>
<rect x="363.771" y="262.608" width="54.497" height="11.7338" fill="#07294A"/>
<rect x="363.771" y="340.442" width="54.497" height="11.7338" fill="#07294A"/>
<path d="M402.228 392.158V235.949L391.02 229.478L379.811 235.949V392.158" fill="#F0F8FF"/>
<path d="M402.228 392.158V235.949L391.02 229.478L379.811 235.949" stroke="#07294A" stroke-width="0.7755"/>
<path d="M391.019 269.55C391.613 269.55 392.095 269.069 392.095 268.475C392.095 267.881 391.613 267.399 391.019 267.399C390.425 267.399 389.944 267.881 389.944 268.475C389.944 269.069 390.425 269.55 391.019 269.55Z" fill="#07294A"/>
<path d="M391.019 347.385C391.613 347.385 392.095 346.903 392.095 346.309C392.095 345.715 391.613 345.233 391.019 345.233C390.425 345.233 389.944 345.715 389.944 346.309C389.944 346.903 390.425 347.385 391.019 347.385Z" fill="#07294A"/>
<path d="M128.104 392.159H423.194" stroke="#07294A" stroke-width="0.7755"/>
<path d="M470.91 362.317L411.591 264.485L405.296 201.731L363.499 191.458C363.499 191.458 332.779 283.344 372.966 320.473C413.154 357.602 443.211 380.892 443.211 380.892V391.668L470.91 362.317Z" fill="#79C9E7"/>
<path d="M440.853 321.357C440.853 318.249 440.742 315.194 440.519 312.195L411.59 264.485L410.664 255.248C408.888 254.731 407.047 254.468 405.198 254.466C386.273 254.466 370.795 282.126 369.617 317.071C370.675 318.249 371.791 319.383 372.966 320.473C396.831 342.522 417.124 359.691 429.671 369.999C436.556 357.804 440.853 340.523 440.853 321.357Z" fill="#07294A"/>
<path d="M372.966 190.493L418.973 187.342L427.338 190.749L431.27 391.667H388.538L393.056 383.571L372.966 190.493V190.493Z" fill="#79C9E7"/>
<path d="M382.913 93.869V101.131C382.913 106.746 386.747 111.636 392.199 112.976L403.756 115.816V87.4237L394.147 85.062C391.441 84.397 388.58 85.0126 386.387 86.7318C384.194 88.4509 382.913 91.0826 382.913 93.869L382.913 93.869Z" fill="#F0F8FF"/>
<path d="M382.913 101.131C382.913 106.746 386.747 111.636 392.199 112.976L403.756 115.816" stroke="#07294A" stroke-width="0.7755"/>
<path d="M394.687 99.69C394.995 99.69 395.244 99.4405 395.244 99.1327C395.244 98.8249 394.995 98.5754 394.687 98.5754C394.379 98.5754 394.13 98.8249 394.13 99.1327C394.13 99.4405 394.379 99.69 394.687 99.69Z" fill="#07294A"/>
<path d="M386.128 99.69C386.435 99.69 386.685 99.4405 386.685 99.1327C386.685 98.8249 386.435 98.5754 386.128 98.5754C385.82 98.5754 385.57 98.8249 385.57 99.1327C385.57 99.4405 385.82 99.69 386.128 99.69Z" fill="#07294A"/>
<path d="M388.639 102.457V93.8689H384.336" stroke="#07294A" stroke-width="0.7755"/>
<path d="M395.737 93.8689H391.435" stroke="#07294A" stroke-width="0.7755"/>
<path d="M402.383 98.2694V101.252C403.992 101.252 405.296 99.9476 405.296 98.3388C405.296 98.2494 405.292 98.1611 405.284 98.0737C405.121 96.2649 402.383 96.4532 402.383 98.2694Z" fill="#F0F8FF"/>
<path d="M402.383 101.252C403.992 101.252 405.296 99.9476 405.296 98.3389" stroke="#07294A" stroke-width="0.7755"/>
<path d="M390.991 103.46C391.744 104.214 392.966 104.214 393.719 103.46" stroke="#79C9E7" stroke-width="0.7755" stroke-linecap="round" stroke-linejoin="round"/>
<path d="M388.639 102.464L390.52 102.926" stroke="#07294A" stroke-width="0.7755" stroke-linecap="round"/>
<path d="M363.499 145.945V191.458L427.974 207.305V156.616C427.974 138.642 415.704 122.991 398.25 118.701H398.25C389.879 116.644 381.028 118.548 374.245 123.866C367.461 129.184 363.499 137.325 363.499 145.945L363.499 145.945Z" fill="#F0F8FF"/>
<path d="M388.538 391.667L393.056 383.571L372.966 190.493" stroke="#07294A" stroke-width="0.7755"/>
<path d="M382.913 99.1327C382.913 99.1327 376.971 94.0602 379.46 87.5115C381.792 81.3742 394.135 77.2458 401.067 81.5746C402.044 82.1798 403.076 82.6923 404.149 83.1055C408.592 84.8372 419.841 91.6214 419.21 115.816C418.424 145.926 400.022 130.864 401.725 124.053C403.428 117.242 404.608 111.545 403.756 105.651" stroke="#07294A" stroke-width="0.7755"/>
<path d="M402.773 131.863C402.773 131.863 404.934 135.53 410.173 135.923" stroke="#79C9E7" stroke-width="0.7755" stroke-linecap="round" stroke-linejoin="round"/>
<path d="M402.707 135.474C402.707 135.474 389.271 138.549 388.457 153.11C388.256 156.558 387.33 159.925 385.741 162.992C383.516 167.304 381.206 173.901 383.565 179.933C387.496 189.987 411.372 160.92 408.69 140.102" stroke="#07294A" stroke-width="0.7755"/>
<path d="M422.039 135.923C422.039 135.923 445.732 173.299 433.944 196.874C422.157 220.449 358.242 195.826 367.672 173.037C367.672 173.037 361.909 168.06 365.052 167.012C368.196 165.964 382.868 171.184 382.868 171.184" stroke="#07294A" stroke-width="0.7755"/>
<path d="M396.759 174.044L423.99 181.985" stroke="#07294A" stroke-width="0.7755"/>
<path d="M374.636 123.568C374.636 123.568 359.136 132.06 360.075 165.965C360.075 165.965 357.456 136.627 347.502 128.768C337.548 120.91 329.595 125.42 330.381 126.468C331.167 127.516 337.548 129.554 337.548 129.554C337.548 129.554 332.833 133.483 337.81 138.984C337.81 138.984 331.774 207.457 360.295 202.569" stroke="#07294A" stroke-width="0.7755"/>
<path d="M212.248 98.3987C229.06 98.3987 242.689 84.7696 242.689 67.9574C242.689 51.1451 229.06 37.5161 212.248 37.5161C195.436 37.5161 181.807 51.1451 181.807 67.9574C181.807 84.7696 195.436 98.3987 212.248 98.3987Z" fill="#F0F8FF"/>
<rect x="202.746" y="37.5161" width="8.63487" height="60.8826" fill="#F0F8FF"/>
<path d="M202.746 98.3987C219.558 98.3987 233.187 84.7696 233.187 67.9574C233.187 51.1451 219.558 37.5161 202.746 37.5161C185.934 37.5161 172.305 51.1451 172.305 67.9574C172.305 84.7696 185.934 98.3987 202.746 98.3987Z" fill="#79C9E7"/>
<path d="M202.746 67.9573C199.253 67.9573 196.105 65.8534 194.768 62.6268C193.432 59.4002 194.171 55.6862 196.64 53.2166C199.11 50.747 202.824 50.0083 206.05 51.3448C209.277 52.6813 211.381 55.8299 211.381 59.3224" stroke="white" stroke-width="0.7755"/>
<path d="M202.746 67.9573C206.238 67.9573 209.387 70.0611 210.723 73.2877C212.06 76.5144 211.321 80.2284 208.851 82.6979C206.382 85.1675 202.668 85.9062 199.441 84.5697C196.215 83.2332 194.111 80.0846 194.111 76.5921" stroke="white" stroke-width="0.7755"/>
<path d="M202.746 45.729V90.1854" stroke="white" stroke-width="0.7755"/>
<rect x="262.266" y="194.833" width="59.7277" height="12.4223" fill="#79C9E7"/>
<path d="M321.993 194.833V207.255H262.265" stroke="#07294A" stroke-width="0.7755"/>
<rect x="262.266" y="179.222" width="59.7277" height="12.4223" fill="#79C9E7"/>
<path d="M321.993 179.222V191.645H262.265" stroke="#07294A" stroke-width="0.7755"/>
<rect x="262.266" y="163.612" width="59.7277" height="12.4223" fill="#79C9E7"/>
<path d="M321.993 163.612V176.034H262.265" stroke="#07294A" stroke-width="0.7755"/>
<rect x="262.266" y="148.001" width="59.7277" height="12.4223" fill="#79C9E7"/>
<path d="M321.993 148.001V160.423H262.265" stroke="#07294A" stroke-width="0.7755"/>
<rect x="262.266" y="132.39" width="59.7277" height="12.4223" fill="#79C9E7"/>
<path d="M321.993 132.39V144.812H262.265" stroke="#07294A" stroke-width="0.7755"/>
<rect x="262.266" y="116.78" width="59.7277" height="12.4223" fill="#79C9E7"/>
<path d="M321.993 116.78V129.202H262.265" stroke="#07294A" stroke-width="0.7755"/>
<rect x="262.266" y="101.169" width="59.7277" height="12.4223" fill="#79C9E7"/>
<path d="M321.993 101.169V113.591H262.265" stroke="#07294A" stroke-width="0.7755"/>
<rect x="262.266" y="85.5583" width="59.7277" height="12.4223" fill="#79C9E7"/>
<path d="M321.993 85.5581V97.9808H262.265" stroke="#07294A" stroke-width="0.7755"/>
<rect x="262.266" y="69.9478" width="59.7277" height="12.4223" fill="#79C9E7"/>
<path d="M321.993 69.948V82.3702H262.265" stroke="#07294A" stroke-width="0.7755"/>
<rect x="195.754" y="194.833" width="59.7277" height="12.4223" fill="#79C9E7"/>
<path d="M255.481 194.833V207.255H195.753" stroke="#07294A" stroke-width="0.7755"/>
<rect x="195.754" y="179.222" width="59.7277" height="12.4223" fill="#79C9E7"/>
<path d="M255.481 179.222V191.645H195.753" stroke="#07294A" stroke-width="0.7755"/>
<rect x="195.754" y="163.612" width="59.7277" height="12.4223" fill="#79C9E7"/>
<path d="M255.481 163.612V176.034H195.753" stroke="#07294A" stroke-width="0.7755"/>
<rect x="195.754" y="148.001" width="59.7277" height="12.4223" fill="#79C9E7"/>
<path d="M255.481 148.001V160.423H195.753" stroke="#07294A" stroke-width="0.7755"/>
<rect x="195.754" y="132.39" width="59.7277" height="12.4223" fill="#79C9E7"/>
<path d="M255.481 132.39V144.812H195.753" stroke="#07294A" stroke-width="0.7755"/>
<rect x="195.754" y="116.78" width="59.7277" height="12.4223" fill="#79C9E7"/>
<path d="M255.481 116.78V129.202H195.753" stroke="#07294A" stroke-width="0.7755"/>
</g>
<defs>
<linearGradient id="paint0_linear_708_12339" x1="310" y1="0.102539" x2="310" y2="394.536" gradientUnits="userSpaceOnUse">
<stop stop-color="#FDFFAA" stop-opacity="0"/>
<stop offset="1" stop-color="#FDFFAA"/>
</linearGradient>
<clipPath id="clip0_708_12339">
<rect width="620" height="394.433" fill="white" transform="translate(0 0.102539)"/>
</clipPath>
</defs>
</svg>
