<svg width="48" height="49" viewBox="0 0 48 49" fill="none" xmlns="http://www.w3.org/2000/svg">
<circle cx="24" cy="24.0732" r="12" fill="#79C9E7"/>
<path d="M21.4142 26.1025H30.1428C29.0709 29.2489 34.1982 33.7144 40 25.1025C34.1982 16.4907 29.0709 20.9561 30.1428 24.1025H21.4142L17.7071 20.3954C17.3166 20.0049 16.6834 20.0049 16.2929 20.3954C15.9024 20.786 15.9024 21.4191 16.2929 21.8096L18.5858 24.1025H17.4142L13.7071 20.3954C13.3166 20.0049 12.6834 20.0049 12.2929 20.3954C11.9024 20.786 11.9024 21.4191 12.2929 21.8096L14.5858 24.1025H13.4142L9.70711 20.3954C9.31658 20.0049 8.68342 20.0049 8.29289 20.3954C7.90237 20.786 7.90237 21.4191 8.29289 21.8096L11.5858 25.1025L8.29289 28.3954C7.90237 28.786 7.90237 29.4191 8.29289 29.8096C8.68342 30.2002 9.31658 30.2002 9.70711 29.8096L13.4142 26.1025H14.5858L12.2929 28.3954C11.9024 28.786 11.9024 29.4191 12.2929 29.8096C12.6834 30.2002 13.3166 30.2002 13.7071 29.8096L17.4142 26.1025H18.5858L16.2929 28.3954C15.9024 28.786 15.9024 29.4191 16.2929 29.8096C16.6834 30.2002 17.3166 30.2002 17.7071 29.8096L21.4142 26.1025Z" fill="#0071CB"/>
</svg>
