<svg width="48" height="49" viewBox="0 0 48 49" fill="none" xmlns="http://www.w3.org/2000/svg">
<circle cx="24" cy="24.0732" r="12" fill="#79C9E7"/>
<path d="M30 12.1025C30 10.998 30.8954 10.1025 32 10.1025H36C37.1046 10.1025 38 10.998 38 12.1025V36.1025H39C39.5523 36.1025 40 36.5503 40 37.1025C40 37.6548 39.5523 38.1025 39 38.1025H9C8.44772 38.1025 8 37.6548 8 37.1025C8 36.5503 8.44772 36.1025 9 36.1025H10V30.1025C10 28.998 10.8954 28.1025 12 28.1025H16C17.1046 28.1025 18 28.998 18 30.1025V36.1025H20V22.1025C20 20.998 20.8954 20.1025 22 20.1025H26C27.1046 20.1025 28 20.998 28 22.1025V36.1025H30V12.1025ZM32 36.1025H36V12.1025H32V36.1025ZM26 36.1025V22.1025H22V36.1025H26ZM16 36.1025V30.1025H12V36.1025H16Z" fill="#0071CB"/>
</svg>
