<svg width="48" height="49" viewBox="0 0 48 49" fill="none" xmlns="http://www.w3.org/2000/svg">
<circle cx="12" cy="36.0732" r="12" fill="#79C9E7"/>
<path d="M31.0674 22.1025H38.9323C39.3562 22.1025 39.5878 22.597 39.3164 22.9226L35.384 27.6416C35.1841 27.8815 34.8156 27.8815 34.6157 27.6416L30.6833 22.9226C30.4119 22.597 30.6434 22.1025 31.0674 22.1025Z" fill="#0071CB"/>
<path d="M9.06736 26.1025H16.9323C17.3562 26.1025 17.5878 25.6081 17.3164 25.2824L13.384 20.5635C13.1841 20.3236 12.8156 20.3236 12.6157 20.5635L8.68325 25.2824C8.41186 25.6081 8.64344 26.1025 9.06736 26.1025Z" fill="#0071CB"/>
<path fill-rule="evenodd" clip-rule="evenodd" d="M23.9998 14.1025C20.8949 14.1025 18.121 15.5165 16.2852 17.7393C15.9335 18.1652 15.3032 18.2253 14.8774 17.8736C14.4516 17.5219 14.3914 16.8916 14.7431 16.4658C16.9425 13.8026 20.2731 12.1025 23.9998 12.1025C29.8833 12.1025 34.7759 16.3355 35.802 21.9219C35.813 21.9819 35.8236 22.0422 35.8338 22.1025H33.8C32.874 17.5381 28.8371 14.1025 23.9998 14.1025ZM14.1997 26.1025C15.1257 30.667 19.1626 34.1025 23.9998 34.1025C27.1048 34.1025 29.8787 32.6886 31.7145 30.4658C32.0662 30.0399 32.6965 29.9798 33.1223 30.3315C33.5481 30.6832 33.6082 31.3135 33.2566 31.7393C31.0572 34.4025 27.7266 36.1025 23.9998 36.1025C18.1164 36.1025 13.2238 31.8695 12.1977 26.2832C12.1866 26.2231 12.1761 26.1629 12.1659 26.1025H14.1997Z" fill="#0071CB"/>
</svg>
