<svg width="48" height="49" viewBox="0 0 48 49" fill="none" xmlns="http://www.w3.org/2000/svg">
<circle cx="24" cy="24.0732" r="12" fill="#79C9E7"/>
<path fill-rule="evenodd" clip-rule="evenodd" d="M15 10.1025C16.1046 10.1025 17 9.20711 17 8.10254H19C19 9.20711 19.8954 10.1025 21 10.1025C22.1046 10.1025 23 9.20711 23 8.10254H25C25 9.20711 25.8954 10.1025 27 10.1025C28.1046 10.1025 29 9.20711 29 8.10254H31C31 9.20711 31.8954 10.1025 33 10.1025C34.1046 10.1025 35 9.20711 35 8.10254H38V10.1025C36.8954 10.1025 36 10.998 36 12.1025C36 13.2071 36.8954 14.1025 38 14.1025V16.1025C36.8954 16.1025 36 16.998 36 18.1025C36 19.2071 36.8954 20.1025 38 20.1025V22.1025C36.8954 22.1025 36 22.998 36 24.1025C36 25.2071 36.8954 26.1025 38 26.1025V28.1025C36.8954 28.1025 36 28.998 36 30.1025C36 31.2071 36.8954 32.1025 38 32.1025V34.1025C36.8954 34.1025 36 34.998 36 36.1025C36 37.2071 36.8954 38.1025 38 38.1025V40.1025H35C35 38.998 34.1046 38.1025 33 38.1025C31.8954 38.1025 31 38.998 31 40.1025H29C29 38.998 28.1046 38.1025 27 38.1025C25.8954 38.1025 25 38.998 25 40.1025H23C23 38.998 22.1046 38.1025 21 38.1025C19.8954 38.1025 19 38.998 19 40.1025H17C17 38.998 16.1046 38.1025 15 38.1025C13.8954 38.1025 13 38.998 13 40.1025H10V38.1025C11.1046 38.1025 12 37.2071 12 36.1025C12 34.998 11.1046 34.1025 10 34.1025V32.1025C11.1046 32.1025 12 31.2071 12 30.1025C12 28.998 11.1046 28.1025 10 28.1025V26.1025C11.1046 26.1025 12 25.2071 12 24.1025C12 22.998 11.1046 22.1025 10 22.1025V20.1025C11.1046 20.1025 12 19.2071 12 18.1025C12 16.998 11.1046 16.1025 10 16.1025V14.1025C11.1046 14.1025 12 13.2071 12 12.1025C12 10.998 11.1046 10.1025 10 10.1025V8.10254H13C13 9.20711 13.8954 10.1025 15 10.1025ZM14 14.1025C14 12.998 14.8954 12.1025 16 12.1025H32C33.1046 12.1025 34 12.998 34 14.1025V34.1025C34 35.2071 33.1046 36.1025 32 36.1025H16C14.8954 36.1025 14 35.2071 14 34.1025V14.1025ZM24 20.0661C27.3288 16.7207 35.6507 22.5752 24 30.1025C12.3493 22.5752 20.6712 16.7207 24 20.0661Z" fill="#0071CB"/>
</svg>
