<svg width="48" height="49" viewBox="0 0 48 49" fill="none" xmlns="http://www.w3.org/2000/svg">
<circle cx="37" cy="37.0732" r="11" fill="#79C9E7"/>
<path fill-rule="evenodd" clip-rule="evenodd" d="M20 10.1025H32V24.1025C32 24.4628 31.8062 24.7952 31.4927 24.9727C31.1792 25.1502 30.7944 25.1454 30.4855 24.96L26 22.2687L21.5145 24.96C21.2056 25.1454 20.8208 25.1502 20.5073 24.9727C20.1938 24.7952 20 24.4628 20 24.1025V10.1025Z" fill="#0071CB"/>
<path d="M14 8.10254H34C36.2091 8.10254 38 9.8934 38 12.1025V36.1025C38 38.3117 36.2091 40.1025 34 40.1025H14C11.7909 40.1025 10 38.3117 10 36.1025V34.1025H12V36.1025C12 37.2071 12.8954 38.1025 14 38.1025H34C35.1046 38.1025 36 37.2071 36 36.1025V12.1025C36 10.998 35.1046 10.1025 34 10.1025H14C12.8954 10.1025 12 10.998 12 12.1025V14.1025H10V12.1025C10 9.8934 11.7909 8.10254 14 8.10254Z" fill="#0071CB"/>
<path d="M10 18.1025V17.1025C10 16.5503 10.4477 16.1025 11 16.1025C11.5523 16.1025 12 16.5503 12 17.1025V18.1025H13C13.5523 18.1025 14 18.5503 14 19.1025C14 19.6548 13.5523 20.1025 13 20.1025H9C8.44772 20.1025 8 19.6548 8 19.1025C8 18.5503 8.44772 18.1025 9 18.1025H10Z" fill="#0071CB"/>
<path d="M10 24.1025V23.1025C10 22.5503 10.4477 22.1025 11 22.1025C11.5523 22.1025 12 22.5503 12 23.1025V24.1025H13C13.5523 24.1025 14 24.5503 14 25.1025C14 25.6548 13.5523 26.1025 13 26.1025H9C8.44772 26.1025 8 25.6548 8 25.1025C8 24.5503 8.44772 24.1025 9 24.1025H10Z" fill="#0071CB"/>
<path d="M10 30.1025V29.1025C10 28.5503 10.4477 28.1025 11 28.1025C11.5523 28.1025 12 28.5503 12 29.1025V30.1025H13C13.5523 30.1025 14 30.5503 14 31.1025C14 31.6548 13.5523 32.1025 13 32.1025H9C8.44772 32.1025 8 31.6548 8 31.1025C8 30.5503 8.44772 30.1025 9 30.1025H10Z" fill="#0071CB"/>
</svg>
