<svg width="48" height="49" viewBox="0 0 48 49" fill="none" xmlns="http://www.w3.org/2000/svg">
<circle cx="24" cy="24.0732" r="12" fill="#79C9E7"/>
<path d="M9 8.10254C9.55228 8.10254 10 8.55025 10 9.10254V39.1025C10 39.6548 9.55228 40.1025 9 40.1025C8.44772 40.1025 8 39.6548 8 39.1025V9.10254C8 8.55025 8.44772 8.10254 9 8.10254Z" fill="#0071CB"/>
<path d="M12 11.1025C12 10.5503 12.4477 10.1025 13 10.1025H21C21.5523 10.1025 22 10.5503 22 11.1025V13.1025C22 13.6548 21.5523 14.1025 21 14.1025H13C12.4477 14.1025 12 13.6548 12 13.1025V11.1025Z" fill="#0071CB"/>
<path d="M16 19.1025C16 18.5503 16.4477 18.1025 17 18.1025H31C31.5523 18.1025 32 18.5503 32 19.1025V21.1025C32 21.6548 31.5523 22.1025 31 22.1025H17C16.4477 22.1025 16 21.6548 16 21.1025V19.1025Z" fill="#0071CB"/>
<path d="M20 27.1025C20 26.5503 20.4477 26.1025 21 26.1025H33C33.5523 26.1025 34 26.5503 34 27.1025V29.1025C34 29.6548 33.5523 30.1025 33 30.1025H21C20.4477 30.1025 20 29.6548 20 29.1025V27.1025Z" fill="#0071CB"/>
<path d="M24 35.1025C24 34.5503 24.4477 34.1025 25 34.1025H39C39.5523 34.1025 40 34.5503 40 35.1025V37.1025C40 37.6548 39.5523 38.1025 39 38.1025H25C24.4477 38.1025 24 37.6548 24 37.1025V35.1025Z" fill="#0071CB"/>
</svg>
