<svg width="48" height="49" viewBox="0 0 48 49" fill="none" xmlns="http://www.w3.org/2000/svg">
<circle cx="10" cy="10.0732" r="10" fill="#79C9E7"/>
<path d="M32 10.1025C33.1046 10.1025 34 10.998 34 12.1025V36.1025C34 37.2071 33.1046 38.1025 32 38.1025H16C14.8954 38.1025 14 37.2071 14 36.1025V12.1025C14 10.998 14.8954 10.1025 16 10.1025H32ZM16 8.10254C13.7909 8.10254 12 9.8934 12 12.1025V36.1025C12 38.3117 13.7909 40.1025 16 40.1025H32C34.2091 40.1025 36 38.3117 36 36.1025V12.1025C36 9.8934 34.2091 8.10254 32 8.10254H16Z" fill="#0071CB"/>
<path d="M16 13.1025C16 12.5503 16.4477 12.1025 17 12.1025H31C31.5523 12.1025 32 12.5503 32 13.1025V17.1025C32 17.6548 31.5523 18.1025 31 18.1025H17C16.4477 18.1025 16 17.6548 16 17.1025V13.1025Z" fill="#0071CB"/>
<path d="M16 21.1025C16 20.5503 16.4477 20.1025 17 20.1025H19C19.5523 20.1025 20 20.5503 20 21.1025V23.1025C20 23.6548 19.5523 24.1025 19 24.1025H17C16.4477 24.1025 16 23.6548 16 23.1025V21.1025Z" fill="#0071CB"/>
<path d="M16 27.1025C16 26.5503 16.4477 26.1025 17 26.1025H19C19.5523 26.1025 20 26.5503 20 27.1025V29.1025C20 29.6548 19.5523 30.1025 19 30.1025H17C16.4477 30.1025 16 29.6548 16 29.1025V27.1025Z" fill="#0071CB"/>
<path d="M16 33.1025C16 32.5503 16.4477 32.1025 17 32.1025H19C19.5523 32.1025 20 32.5503 20 33.1025V35.1025C20 35.6548 19.5523 36.1025 19 36.1025H17C16.4477 36.1025 16 35.6548 16 35.1025V33.1025Z" fill="#0071CB"/>
<path d="M22 21.1025C22 20.5503 22.4477 20.1025 23 20.1025H25C25.5523 20.1025 26 20.5503 26 21.1025V23.1025C26 23.6548 25.5523 24.1025 25 24.1025H23C22.4477 24.1025 22 23.6548 22 23.1025V21.1025Z" fill="#0071CB"/>
<path d="M22 27.1025C22 26.5503 22.4477 26.1025 23 26.1025H25C25.5523 26.1025 26 26.5503 26 27.1025V29.1025C26 29.6548 25.5523 30.1025 25 30.1025H23C22.4477 30.1025 22 29.6548 22 29.1025V27.1025Z" fill="#0071CB"/>
<path d="M22 33.1025C22 32.5503 22.4477 32.1025 23 32.1025H25C25.5523 32.1025 26 32.5503 26 33.1025V35.1025C26 35.6548 25.5523 36.1025 25 36.1025H23C22.4477 36.1025 22 35.6548 22 35.1025V33.1025Z" fill="#0071CB"/>
<path d="M28 21.1025C28 20.5503 28.4477 20.1025 29 20.1025H31C31.5523 20.1025 32 20.5503 32 21.1025V23.1025C32 23.6548 31.5523 24.1025 31 24.1025H29C28.4477 24.1025 28 23.6548 28 23.1025V21.1025Z" fill="#0071CB"/>
<path d="M28 27.1025C28 26.5503 28.4477 26.1025 29 26.1025H31C31.5523 26.1025 32 26.5503 32 27.1025V35.1025C32 35.6548 31.5523 36.1025 31 36.1025H29C28.4477 36.1025 28 35.6548 28 35.1025V27.1025Z" fill="#0071CB"/>
</svg>
