<svg width="1200" height="200" viewBox="0 0 1200 200" fill="none" xmlns="http://www.w3.org/2000/svg">
<g clip-path="url(#clip0_762_51010)">
<path fill-rule="evenodd" clip-rule="evenodd" d="M315.793 12.6912C302.538 12.6912 291.793 23.4363 291.793 36.6912V36.6912C291.793 43.3086 286.429 48.6731 279.811 48.6731H111.064C97.8096 48.6731 87.0645 59.4183 87.0645 72.6731V141.085C87.0645 154.34 97.8096 165.085 111.064 165.085H339.003C352.258 165.085 363.003 154.34 363.003 141.085V141.085C363.003 134.468 368.368 129.103 374.985 129.103H464.944C473.781 129.103 480.944 136.266 480.944 145.103V163.309C480.944 176.564 491.689 187.309 504.944 187.309H841.926C855.181 187.309 865.926 176.564 865.926 163.309V157.802C865.926 148.966 873.089 141.802 881.926 141.802H1088.94C1102.19 141.802 1112.94 131.057 1112.94 117.802V59.9734C1112.94 46.7186 1102.19 35.9734 1088.94 35.9734H751.954C738.699 35.9734 727.954 46.7186 727.954 59.9734V59.9734C727.954 66.0063 723.063 70.897 717.03 70.897H583.732C574.895 70.897 567.732 63.7335 567.732 54.897V36.6912C567.732 23.4363 556.987 12.6912 543.732 12.6912H315.793Z" fill="url(#paint0_linear_762_51010)"/>
<path d="M982.76 100.519L957.571 92.5034L956.771 252.322H985.889L982.76 245.329C996.841 194.834 982.76 100.519 982.76 100.519Z" fill="#79C9E7"/>
<path d="M975.489 198.77C975.489 161.338 967.89 130.994 958.515 130.994C958.131 130.996 957.749 131.048 957.378 131.149L956.771 252.322H968.919C972.917 239.922 975.489 220.547 975.489 198.77Z" fill="#07294A"/>
<path d="M974.455 102.473C974.455 102.473 980.469 200.633 963.483 247.109L967.031 252.322H936.819C936.819 252.322 933.873 132.122 933.873 105.174L974.455 102.473Z" fill="#79C9E7"/>
<path d="M968.039 26.5248V39.2817L952.236 43.1659V21.6378L968.039 17.7537V26.5248V26.5248Z" fill="#F0F8FF"/>
<path d="M957.57 33.2013C957.57 33.2013 961.418 31.9351 962.685 33.8716C962.685 33.8716 964.29 32.0701 966.359 33.5241" stroke="#79C9E7" stroke-width="0.588" stroke-linecap="round" stroke-linejoin="round"/>
<path d="M959.112 30.9386C959.345 30.9386 959.535 30.7494 959.535 30.516C959.535 30.2827 959.345 30.0935 959.112 30.0935C958.879 30.0935 958.689 30.2827 958.689 30.516C958.689 30.7494 958.879 30.9386 959.112 30.9386Z" fill="#07294A"/>
<path d="M965.602 30.9386C965.836 30.9386 966.025 30.7494 966.025 30.516C966.025 30.2827 965.836 30.0935 965.602 30.0935C965.369 30.0935 965.18 30.2827 965.18 30.516C965.18 30.7494 965.369 30.9386 965.602 30.9386Z" fill="#07294A"/>
<path d="M963.699 33.0367V26.5249H966.961" stroke="#07294A" stroke-width="0.588"/>
<path d="M958.316 26.5248H961.579" stroke="#07294A" stroke-width="0.588"/>
<path d="M953.277 29.8614V32.1228C952.057 32.1228 951.068 31.1339 951.068 29.9141C951.068 29.8463 951.071 29.7793 951.077 29.7131C951.201 28.3416 953.277 28.4844 953.277 29.8614Z" fill="#F0F8FF"/>
<path d="M953.277 32.1227C952.057 32.1227 951.068 31.1339 951.068 29.9141" stroke="#07294A" stroke-width="0.588"/>
<path d="M961.779 34.642C961.089 34.642 960.529 34.0826 960.529 33.3926" stroke="#79C9E7" stroke-width="0.588" stroke-linecap="round" stroke-linejoin="round"/>
<path d="M956.771 42.0513L952.236 43.1659" stroke="#07294A" stroke-width="0.588"/>
<path d="M963.698 33.0419L962.271 33.3925" stroke="#07294A" stroke-width="0.588" stroke-linecap="round"/>
<path d="M982.759 66.0099V100.519L933.873 112.534V74.1008C933.873 60.4729 943.177 48.6057 956.411 45.353H956.411C962.757 43.7931 969.469 45.2373 974.612 49.2695C979.755 53.3017 982.76 59.4744 982.76 66.0099L982.759 66.0099Z" fill="#F0F8FF"/>
<path d="M954.055 30.516C954.055 30.516 951.671 38.3405 957.232 42.4121C962.41 46.2029 970.572 43.9835 968.64 35.1164C968.24 33.2659 968.038 31.3778 968.04 29.4844V28.9561" stroke="#79C9E7" stroke-width="0.588" stroke-linecap="round" stroke-linejoin="round"/>
<path d="M952.172 28.7549C952.172 28.7549 946.915 19.1272 955.01 17.3926C955.01 17.3926 958.302 13.2807 962.985 15.2724C967.667 17.2641 969.916 15.866 969.98 17.7536C970.044 19.6412 970.274 22.7893 968.039 24.3955" stroke="#79C9E7" stroke-width="0.588" stroke-linecap="round" stroke-linejoin="round"/>
<path d="M955.443 28.7536L956.77 23.3452C956.77 23.3452 966.433 23.4942 968.039 20.8625" stroke="#79C9E7" stroke-width="0.588" stroke-linecap="round" stroke-linejoin="round"/>
<path d="M974.455 102.473C974.455 102.473 980.469 200.633 963.482 247.109L967.031 252.322" stroke="#07294A" stroke-width="0.588"/>
<path d="M943.891 51.9004C943.891 51.9004 935.681 84.3195 945.612 96.4349C955.543 108.55 1002.02 101.4 1015.52 88.2918C1015.52 88.2918 1020.29 87.1001 1021.28 84.7167C1021.28 84.7167 1025.85 88.0932 1025.65 85.9084C1025.45 83.7237 1023.87 76.9153 1015.72 78.6313C1007.58 80.3472 968.038 81.1417 968.038 81.1417L968.929 64.061" stroke="#07294A" stroke-width="0.588"/>
<path d="M980.506 56.4531C980.506 56.4531 986.479 68.03 985.709 80.6436" stroke="#07294A" stroke-width="0.588"/>
<path d="M983.77 108.002C983.77 108.002 999.683 114.322 1006.41 94.2561" stroke="#07294A" stroke-width="0.588"/>
<path d="M991.107 80.4409C991.107 80.4409 1007.97 71.7322 1010.56 75.382L1013.15 79.0317" stroke="#07294A" stroke-width="0.588"/>
<path d="M1148.69 14.728H1040.18V84.013L1005.29 118.903V252.322H991.107" stroke="#07294A" stroke-width="0.588"/>
<rect x="1044.89" y="132.246" width="119.191" height="69.6042" fill="#07294A"/>
<rect x="1029.5" y="116.854" width="119.191" height="69.6042" fill="#F0F8FF"/>
<path d="M1148.69 116.891V186.496L1029.5 186.42" stroke="#07294A" stroke-width="0.588"/>
<path d="M1089.09 173.564C1101.19 173.564 1111 163.755 1111 151.656C1111 139.556 1101.19 129.747 1089.09 129.747C1076.99 129.747 1067.18 139.556 1067.18 151.656C1067.18 163.755 1076.99 173.564 1089.09 173.564Z" fill="#79C9E7"/>
<path d="M1042.93 177.544C1045.4 177.544 1047.4 175.543 1047.4 173.074C1047.4 170.606 1045.4 168.604 1042.93 168.604C1040.46 168.604 1038.46 170.606 1038.46 173.074C1038.46 175.543 1040.46 177.544 1042.93 177.544Z" fill="#D1D1D1"/>
<path d="M1135.25 134.707C1137.72 134.707 1139.72 132.706 1139.72 130.237C1139.72 127.768 1137.72 125.767 1135.25 125.767C1132.78 125.767 1130.78 127.768 1130.78 130.237C1130.78 132.706 1132.78 134.707 1135.25 134.707Z" fill="#D1D1D1"/>
<path d="M1135.25 177.544C1137.72 177.544 1139.72 175.543 1139.72 173.074C1139.72 170.606 1137.72 168.604 1135.25 168.604C1132.78 168.604 1130.78 170.606 1130.78 173.074C1130.78 175.543 1132.78 177.544 1135.25 177.544Z" fill="#D1D1D1"/>
<path d="M1042.93 134.707C1045.4 134.707 1047.4 132.706 1047.4 130.237C1047.4 127.768 1045.4 125.767 1042.93 125.767C1040.46 125.767 1038.46 127.768 1038.46 130.237C1038.46 132.706 1040.46 134.707 1042.93 134.707Z" fill="#D1D1D1"/>
<path d="M1089.09 151.656C1085.66 151.656 1082.88 148.873 1082.88 145.441C1082.88 142.009 1085.66 139.227 1089.09 139.227C1092.53 139.227 1095.31 142.009 1095.31 145.441" stroke="white" stroke-width="0.588"/>
<path d="M1089.09 151.656C1091.61 151.656 1093.87 153.17 1094.83 155.492C1095.8 157.814 1095.27 160.487 1093.49 162.264C1091.71 164.042 1089.04 164.573 1086.72 163.611C1084.39 162.65 1082.88 160.384 1082.88 157.87" stroke="white" stroke-width="0.588"/>
<path d="M1089.09 135.658V167.653" stroke="white" stroke-width="0.588"/>
<path d="M855.968 117.602C855.968 117.602 963.083 218.73 800.682 225.948L795.269 232.714L787.6 197.528L843.989 180.521L835.357 109.561" fill="#DFEFFF"/>
<path d="M852.652 209.471C852.652 196.948 849.18 185.737 843.707 178.207L843.989 180.521L804.074 192.559C801.13 203.433 801.074 214.887 803.913 225.789C823.948 224.72 839.735 222.178 852.027 218.554C852.445 215.544 852.654 212.51 852.652 209.471V209.471Z" fill="#07294A"/>
<path d="M847.944 107.445C847.944 107.445 854.015 206.54 836.867 253.458L840.449 258.721H809.949C809.949 258.721 806.617 132.677 806.617 105.472L847.944 107.445Z" fill="#F0F8FF"/>
<path d="M838.243 30.7735V43.6519L822.289 47.5732V25.8402L838.243 21.9189V30.7735Z" fill="#F0F8FF"/>
<path d="M829.231 35.2294C829.467 35.2294 829.658 35.0384 829.658 34.8028C829.658 34.5672 829.467 34.3762 829.231 34.3762C828.996 34.3762 828.805 34.5672 828.805 34.8028C828.805 35.0384 828.996 35.2294 829.231 35.2294Z" fill="#07294A"/>
<path d="M835.784 35.2294C836.02 35.2294 836.211 35.0384 836.211 34.8028C836.211 34.5672 836.02 34.3762 835.784 34.3762C835.548 34.3762 835.357 34.5672 835.357 34.8028C835.357 35.0384 835.548 35.2294 835.784 35.2294Z" fill="#07294A"/>
<path d="M833.861 37.3474V30.7734H837.155" stroke="#07294A" stroke-width="0.378" stroke-linecap="round" stroke-linejoin="round"/>
<path d="M828.428 30.7737H831.721" stroke="#07294A" stroke-width="0.378" stroke-linecap="round" stroke-linejoin="round"/>
<path d="M837.666 29.6973H837.666" stroke="#07294A" stroke-width="0.378" stroke-linecap="round" stroke-linejoin="round"/>
<path d="M823.341 34.1418V36.4246C822.11 36.4246 821.111 35.4264 821.111 34.1949C821.111 34.1265 821.114 34.0589 821.12 33.992C821.245 32.6074 823.341 32.7516 823.341 34.1418Z" fill="#F0F8FF"/>
<path d="M823.341 36.4247C822.11 36.4247 821.111 35.4265 821.111 34.1951" stroke="#07294A" stroke-width="0.378" stroke-linecap="round" stroke-linejoin="round"/>
<path d="M832.421 38.9679C831.822 38.9679 831.248 38.7301 830.825 38.3069C830.402 37.8837 830.164 37.3097 830.164 36.7112" stroke="#79C9E7" stroke-width="0.378" stroke-linecap="round" stroke-linejoin="round"/>
<path d="M825.622 46.7539L822.289 47.5731" stroke="#07294A" stroke-width="0.378" stroke-linecap="round" stroke-linejoin="round"/>
<path d="M833.86 37.3525L832.42 37.7066" stroke="#07294A" stroke-width="0.378" stroke-linecap="round" stroke-linejoin="round"/>
<path d="M806.617 70.6346V105.472L855.969 117.602V78.8025C855.969 65.0449 846.577 53.0647 833.217 49.781H833.217C826.81 48.2063 820.035 49.6641 814.842 53.7348C809.65 57.8054 806.617 64.0369 806.617 70.6346V70.6346Z" fill="#79C9E7"/>
<path d="M847.942 107.445C847.942 107.445 854.013 206.54 836.865 253.458" stroke="#07294A" stroke-width="0.378" stroke-linecap="round" stroke-linejoin="round"/>
<path d="M825.302 30.7737C825.302 30.7737 823.447 37.5394 825.628 38.968C827.808 40.3966 830.663 36.1015 835.232 38.4293C840.755 41.2432 838.243 31.7994 838.243 31.7994" stroke="#07294A" stroke-width="0.378" stroke-linecap="round" stroke-linejoin="round"/>
<path d="M823.341 37.0319C823.341 37.0319 820.672 45.2153 827.263 47.573C833.854 49.9308 842.43 46.1001 839.666 36.7112" stroke="#07294A" stroke-width="0.378" stroke-linecap="round" stroke-linejoin="round"/>
<path d="M824.324 30.7735C824.324 30.7735 829.23 32.5761 833.86 27.2126C833.86 27.2126 835.757 29.8758 838.813 29.6971" stroke="#07294A" stroke-width="0.378" stroke-linecap="round" stroke-linejoin="round"/>
<path d="M839.294 32.2824C839.294 32.2824 842.72 20.8597 833.861 19.8674C825.002 18.8752 821.221 24.4155 819.662 28.6679C818.103 32.9203 820.113 37.3906 822.226 39.2661" stroke="#07294A" stroke-width="0.378" stroke-linecap="round" stroke-linejoin="round"/>
<path d="M814.671 53.8726C814.671 53.8726 789.293 77.2887 790.897 106.362C792.501 135.435 850.648 111.374 852.452 101.75C854.257 92.126 842.926 97.9406 842.926 97.9406C842.926 97.9406 844.029 93.4293 842.926 94.2313C841.824 95.0333 839.112 98.0409 839.112 98.0409L813.955 98.3417L819.107 84.1058" stroke="#07294A" stroke-width="0.378" stroke-linecap="round" stroke-linejoin="round"/>
<path d="M835.357 98.086C835.357 98.086 835.224 80.497 855.969 76.6874C855.969 76.6874 852.448 71.4494 854.506 69.557C855.743 68.4188 857.705 69.8694 859.073 71.2063C859.821 71.9368 861.001 71.9847 861.806 71.3174C862.584 70.6804 863.797 70.2262 865.586 70.8226C866.939 71.2738 867.468 72.021 867.6 72.7787C867.765 73.8952 868.796 74.6724 869.915 74.5244C871.415 74.305 872.753 74.5299 871.902 76.3866C870.248 79.9957 867.09 79.9957 867.09 79.9957C867.09 79.9957 889.045 126.088 843.631 120.26" stroke="#07294A" stroke-width="0.378" stroke-linecap="round" stroke-linejoin="round"/>
<path d="M871.199 109.561C871.199 109.561 872.351 124.508 864.682 129.32" stroke="#07294A" stroke-width="0.378" stroke-linecap="round" stroke-linejoin="round"/>
<path d="M725.944 55.4749C725.944 55.4749 736.024 63.4347 739.732 75.1472" stroke="#07294A" stroke-width="0.378" stroke-linecap="round" stroke-linejoin="round"/>
<path d="M736.164 115.35L705.304 101.685V147.032V258.875H735.148L731.672 252.646L736.164 115.35Z" fill="#DFEFFF"/>
<path d="M728.391 104.11L686.562 101.685V147.032V258.875H716.406L712.93 252.646L728.391 104.11Z" fill="#F0F8FF"/>
<path d="M733.664 191.751L686.563 190.415L686.733 176.51" fill="#07294A"/>
<path d="M686.563 69.8385V104.852L736.164 117.043V78.0477C736.164 64.2205 726.724 52.1798 713.297 48.8796H713.297C706.857 47.2969 700.048 48.7621 694.829 52.8533C689.611 56.9445 686.563 63.2075 686.563 69.8385V69.8385Z" fill="#79C9E7"/>
<path d="M721.229 29.7763V35.363C721.229 39.6828 718.279 43.4445 714.084 44.4755L705.194 46.6606V24.8179L712.586 23.001C714.668 22.4894 716.869 22.9631 718.556 24.2856C720.243 25.6081 721.229 27.6327 721.229 29.7763V29.7763Z" fill="#F0F8FF"/>
<path d="M721.229 35.3628C721.229 39.6826 718.279 43.4443 714.084 44.4754L705.194 46.6604" stroke="#07294A" stroke-width="0.378" stroke-linecap="round" stroke-linejoin="round"/>
<path d="M712.171 34.2544C711.934 34.2544 711.742 34.0625 711.742 33.8257C711.742 33.5889 711.934 33.397 712.171 33.397C712.408 33.397 712.6 33.5889 712.6 33.8257C712.6 34.0625 712.408 34.2544 712.171 34.2544Z" fill="#07294A"/>
<path d="M718.755 34.2544C718.518 34.2544 718.326 34.0625 718.326 33.8257C718.326 33.5889 718.518 33.397 718.755 33.397C718.992 33.397 719.184 33.5889 719.184 33.8257C719.184 34.0625 718.992 34.2544 718.755 34.2544Z" fill="#07294A"/>
<path d="M716.823 36.3833V29.7761H720.133" stroke="#07294A" stroke-width="0.378" stroke-linecap="round" stroke-linejoin="round"/>
<path d="M711.362 29.7761H714.672" stroke="#07294A" stroke-width="0.378" stroke-linecap="round" stroke-linejoin="round"/>
<path d="M706.25 33.1613V35.4557C705.012 35.4557 704.009 34.4524 704.009 33.2148C704.009 33.146 704.012 33.078 704.018 33.0108C704.144 31.6192 706.25 31.7641 706.25 33.1613Z" fill="#F0F8FF"/>
<path d="M706.25 35.4558C705.012 35.4558 704.009 34.4525 704.009 33.2148" stroke="#07294A" stroke-width="0.378" stroke-linecap="round" stroke-linejoin="round"/>
<path d="M715.014 37.155C714.735 37.4333 714.358 37.5896 713.964 37.5896C713.571 37.5896 713.193 37.4333 712.915 37.155" stroke="#79C9E7" stroke-width="0.378" stroke-linecap="round" stroke-linejoin="round"/>
<path d="M716.824 36.3884L715.377 36.7442" stroke="#07294A" stroke-width="0.378" stroke-linecap="round" stroke-linejoin="round"/>
<path d="M721.229 30.9141C721.229 30.9141 716.578 29.2382 715.674 26.0273C713.815 29.4782 710.632 32.0242 706.857 33.0796" stroke="#07294A" stroke-width="0.378" stroke-linecap="round" stroke-linejoin="round"/>
<path d="M721.228 34.3353C721.228 34.3353 726.959 26.2793 721.769 22.2489C716.58 18.2186 710.888 20.133 710.182 20.7376C710.182 20.7376 701.542 19.8748 697.915 28.6943C694.288 37.5139 682.841 35.4233 679.703 37.9563C679.551 38.0783 679.414 38.218 679.295 38.3724C677.744 40.3154 675.633 41.7337 673.248 42.4343C668.823 43.8193 663.736 46.6097 665.345 51.9727C668.065 61.041 706.588 55.3283 705.614 35.3628" stroke="#07294A" stroke-width="0.378" stroke-linecap="round" stroke-linejoin="round"/>
<path d="M736.164 117.043V192.281L661.529 176.44L686.563 104.852" fill="#79C9E7"/>
<path d="M740.402 88.6111L748.6 70.1094L726.836 72.5276L734.292 90.4625L728.392 117.043L748.6 107.995L740.402 88.6111Z" fill="#F0F8FF"/>
<path d="M716.406 258.875L712.93 252.646L722.994 155.958" stroke="#07294A" stroke-width="0.378" stroke-linecap="round" stroke-linejoin="round"/>
<path d="M692.034 55.4749C692.034 55.4749 671.015 78.535 677.665 104.852C684.315 131.169 743.36 95.0974 743.561 88.2458C743.763 81.3942 734.09 85.8276 734.09 85.8276C734.09 85.8276 735.098 81.4762 733.082 82.6443C731.067 83.8124 730.06 86.2306 730.06 86.2306L700.437 90.0595L705.304 75.7517" stroke="#07294A" stroke-width="0.378" stroke-linecap="round" stroke-linejoin="round"/>
<path d="M747.032 73.6446C747.032 73.6446 748.8 67.4895 750.009 71.5199C751.218 75.5502 756.256 94.0898 745.173 103.158" stroke="#07294A" stroke-width="0.378" stroke-linecap="round" stroke-linejoin="round"/>
<path fill-rule="evenodd" clip-rule="evenodd" d="M743.987 53.0056C742.823 51.8994 742.255 50.8162 742.627 50.1717C742.999 49.5275 744.222 49.4798 745.761 49.9343C746.137 48.3725 746.791 47.3379 747.535 47.3379C748.279 47.3379 748.933 48.3725 749.309 49.9343C750.849 49.4798 752.071 49.5275 752.443 50.1717C752.816 50.8162 752.247 51.8994 751.083 53.0056C752.247 54.1118 752.816 55.195 752.443 55.8394C752.071 56.4836 750.849 56.5314 749.309 56.0769C748.933 57.6387 748.279 58.6732 747.535 58.6732C746.791 58.6732 746.137 57.6387 745.761 56.0769C744.222 56.5314 742.999 56.4836 742.627 55.8394C742.255 55.195 742.823 54.1118 743.987 53.0056Z" stroke="#07294A" stroke-width="0.378" stroke-linecap="round" stroke-linejoin="round"/>
<path fill-rule="evenodd" clip-rule="evenodd" d="M740.017 64.341C738.853 63.2348 738.284 62.1516 738.656 61.5072C739.028 60.863 740.251 60.8152 741.79 61.2697C742.166 59.7079 742.82 58.6733 743.564 58.6733C744.309 58.6733 744.963 59.7079 745.339 61.2697C746.878 60.8152 748.101 60.863 748.473 61.5072C748.845 62.1516 748.276 63.2348 747.112 64.341C748.276 65.4472 748.845 66.5304 748.473 67.1748C748.101 67.8191 746.878 67.8668 745.339 67.4123C744.963 68.9741 744.309 70.0087 743.564 70.0087C742.82 70.0087 742.166 68.9741 741.79 67.4123C740.251 67.8668 739.028 67.8191 738.656 67.1748C738.284 66.5304 738.853 65.4472 740.017 64.341Z" stroke="#07294A" stroke-width="0.378" stroke-linecap="round" stroke-linejoin="round"/>
<path fill-rule="evenodd" clip-rule="evenodd" d="M731.435 52.5532C730.784 51.0854 730.674 49.8669 731.264 49.4143C731.855 48.9619 733.002 49.3865 734.25 50.3964C735.196 49.098 736.196 48.3931 736.884 48.6784C737.571 48.9637 737.779 50.1699 737.527 51.7565C739.123 51.9268 740.234 52.4396 740.331 53.1772C740.428 53.915 739.487 54.6975 737.988 55.2731C738.639 56.7409 738.749 57.9594 738.159 58.412C737.568 58.8644 736.42 58.4398 735.173 57.4299C734.227 58.7283 733.226 59.4332 732.539 59.1479C731.851 58.8626 731.644 57.6564 731.895 56.0698C730.299 55.8995 729.188 55.3867 729.092 54.6491C728.995 53.9113 729.936 53.1288 731.435 52.5532Z" stroke="#07294A" stroke-width="0.378" stroke-linecap="round" stroke-linejoin="round"/>
<path d="M571.396 117.046C571.396 117.046 615.693 178.63 572.773 245.562L571.734 258.858L545.804 245.041L560.277 190.768L540.075 155.565L554.639 108.531" fill="#DFEFFF"/>
<path d="M565.404 104.483L523.296 105.224L523.681 147.298V258.858H556.472L553.005 252.645L565.404 104.483Z" fill="#F0F8FF"/>
<path d="M540.037 30.3369V43.2477L556.031 47.1785V25.3908L540.037 21.46V30.3369Z" fill="#F0F8FF"/>
<path d="M549.072 34.8038C548.836 34.8038 548.645 34.6123 548.645 34.3761C548.645 34.1399 548.836 33.9485 549.072 33.9485C549.309 33.9485 549.5 34.1399 549.5 34.3761C549.5 34.6123 549.309 34.8038 549.072 34.8038Z" fill="#07294A"/>
<path d="M542.504 34.8038C542.268 34.8038 542.076 34.6123 542.076 34.3761C542.076 34.1399 542.268 33.9485 542.504 33.9485C542.74 33.9485 542.932 34.1399 542.932 34.3761C542.932 34.6123 542.74 34.8038 542.504 34.8038Z" fill="#07294A"/>
<path d="M544.432 36.9269V30.3367H541.13" stroke="#07294A" stroke-width="0.378" stroke-linecap="round" stroke-linejoin="round"/>
<path d="M549.879 30.3368H546.577" stroke="#07294A" stroke-width="0.378" stroke-linecap="round" stroke-linejoin="round"/>
<path d="M554.978 33.7134V36.002C556.212 36.002 557.213 35.0013 557.213 33.7667C557.213 33.6982 557.21 33.6303 557.204 33.5633C557.079 32.1752 554.978 32.3197 554.978 33.7134Z" fill="#F0F8FF"/>
<path d="M554.978 36.0021C556.212 36.0021 557.213 35.0014 557.213 33.7668" stroke="#07294A" stroke-width="0.378" stroke-linecap="round" stroke-linejoin="round"/>
<path d="M545.876 38.5517C547.126 38.5517 548.139 37.5388 548.139 36.2893" stroke="#79C9E7" stroke-width="0.378" stroke-linecap="round" stroke-linejoin="round"/>
<path d="M540.037 43.2476L556.031 47.1786" stroke="#07294A" stroke-width="0.378" stroke-linecap="round" stroke-linejoin="round"/>
<path d="M544.431 36.9324L545.875 37.2873" stroke="#07294A" stroke-width="0.378" stroke-linecap="round" stroke-linejoin="round"/>
<path d="M554.749 33.1768C554.749 33.1768 551.634 30.2621 551.584 27.448C551.584 27.448 539.824 29.2068 538.066 28.7043L539.322 26.2922C537.909 25.7419 536.547 25.0693 535.251 24.2821C535.251 24.2821 550.377 13.7291 557.262 24.8349C557.262 24.8349 561.87 27.046 557.103 33.1768" stroke="#07294A" stroke-width="0.378" stroke-linecap="round" stroke-linejoin="round"/>
<path d="M523.297 70.2983V105.224L572.773 117.384V78.4868C572.773 64.6945 563.358 52.6841 549.964 49.3922H549.964C543.541 47.8135 536.748 49.275 531.543 53.3559C526.338 57.4368 523.297 63.684 523.297 70.2983V70.2983Z" fill="#79C9E7"/>
<path d="M531.18 93.53C538.002 101.374 552.816 100.515 567.23 96.0782C564.441 101.574 556.902 105.514 548.035 105.514C536.794 105.514 527.682 99.1858 527.682 91.3799C527.682 90.6502 527.763 89.9227 527.921 89.2104C528.904 90.7258 529.993 92.1693 531.18 93.53V93.53Z" fill="#07294A"/>
<path d="M553.005 252.645L565.404 104.483" stroke="#07294A" stroke-width="0.378" stroke-linecap="round" stroke-linejoin="round"/>
<path d="M526.383 59.1729C526.383 59.1729 516.103 76.1928 531.181 93.5299C546.258 110.867 600.378 85.6906 602.941 73.3285C605.504 60.9664 603.544 62.0217 600.68 64.5845C597.815 67.1474 596.308 66.5444 596.308 66.5444C596.308 66.5444 595.855 61.7201 594.348 63.077C592.84 64.4338 592.388 66.9967 592.388 66.9967L556.032 76.6451L547.006 61.7201" stroke="#07294A" stroke-width="0.378" stroke-linecap="round" stroke-linejoin="round"/>
<path d="M558.146 52.7441C558.146 52.7441 571.571 61.1017 577.08 71.0594" stroke="#07294A" stroke-width="0.378" stroke-linecap="round" stroke-linejoin="round"/>
<path d="M594.298 83.0718C594.298 83.0718 613.545 84.8363 623.193 86.4444C632.842 88.0524 621.987 90.0625 621.987 90.0625C621.987 90.0625 616.962 97.2989 608.318 94.4848C608.318 94.4848 590.697 102.927 572.773 98.3039" stroke="#07294A" stroke-width="0.378" stroke-linecap="round" stroke-linejoin="round"/>
<path d="M439.341 122.191C439.341 122.191 487.124 158.324 480.572 175.798C474.019 193.271 441.256 210.745 441.256 210.745L439.341 220.793L420.672 200.261L439.341 167.498C439.341 167.498 423.241 163.129 420.672 155.266C418.103 147.403 412.064 111.424 412.064 111.424" fill="#79C9E7"/>
<path d="M420.974 46.3543C423.602 46.3543 425.731 44.2243 425.731 41.5969C425.731 38.9695 423.602 36.8396 420.974 36.8396C418.347 36.8396 416.217 38.9695 416.217 41.5969C416.217 44.2243 418.347 46.3543 420.974 46.3543Z" fill="#79C9E7"/>
<path d="M431.57 112.354C431.57 112.354 437.449 208.315 420.844 253.749L424.312 258.846H394.777C394.777 258.846 391.551 136.789 391.551 110.444L431.57 112.354Z" fill="#79C9E7"/>
<path d="M423.357 38.1082V50.5793L407.908 54.3765V33.3309L423.357 29.5337V38.1082Z" fill="#F0F8FF"/>
<path d="M414.63 42.4231C414.858 42.4231 415.043 42.2381 415.043 42.01C415.043 41.7819 414.858 41.5969 414.63 41.5969C414.402 41.5969 414.217 41.7819 414.217 42.01C414.217 42.2381 414.402 42.4231 414.63 42.4231Z" fill="#07294A"/>
<path d="M420.974 42.4231C421.202 42.4231 421.387 42.2381 421.387 42.01C421.387 41.7819 421.202 41.5969 420.974 41.5969C420.745 41.5969 420.561 41.7819 420.561 42.01C420.561 42.2381 420.745 42.4231 420.974 42.4231Z" fill="#07294A"/>
<path d="M419.113 44.4742V38.1082H422.302" stroke="#07294A" stroke-width="0.378" stroke-linecap="round" stroke-linejoin="round"/>
<path d="M413.852 38.1085H417.041" stroke="#07294A" stroke-width="0.378" stroke-linecap="round" stroke-linejoin="round"/>
<path d="M408.925 41.3701V43.5807C407.732 43.5807 406.766 42.614 406.766 41.4216C406.766 41.3553 406.769 41.2898 406.774 41.225C406.895 39.8843 408.925 40.0239 408.925 41.3701Z" fill="#F0F8FF"/>
<path d="M408.925 43.5808C407.732 43.5808 406.766 42.6141 406.766 41.4216" stroke="#07294A" stroke-width="0.378" stroke-linecap="round" stroke-linejoin="round"/>
<path d="M417.719 46.0435C417.139 46.0435 416.583 45.8132 416.173 45.4034C415.763 44.9936 415.533 44.4377 415.533 43.8582" stroke="#79C9E7" stroke-width="0.378" stroke-linecap="round" stroke-linejoin="round"/>
<path d="M423.357 50.5793L407.908 54.3765" stroke="#07294A" stroke-width="0.378" stroke-linecap="round" stroke-linejoin="round"/>
<path d="M419.114 44.4792L417.719 44.8221" stroke="#07294A" stroke-width="0.378" stroke-linecap="round" stroke-linejoin="round"/>
<path d="M409.244 40.8199C409.244 40.8199 410.943 39.6226 410.652 37.0661C410.361 34.5096 410.648 32.1488 414.63 31.6789C417.529 31.3815 420.443 31.2408 423.357 31.2574" stroke="#07294A" stroke-width="0.378" stroke-linecap="round" stroke-linejoin="round"/>
<path d="M423.357 37.0661C423.357 37.0661 431.051 23.1996 416.3 20.2872C401.55 17.3747 396.752 26.7796 397.691 34.0484C398.711 41.9339 403.729 44.242 407.846 45.5526" stroke="#07294A" stroke-width="0.378" stroke-linecap="round" stroke-linejoin="round"/>
<path d="M391.551 76.7088V110.444L439.342 122.191V84.6183C439.342 71.2958 430.247 59.6946 417.309 56.5148H417.309C411.105 54.9898 404.544 56.4016 399.516 60.3435C394.488 64.2853 391.551 70.3197 391.551 76.7087V76.7088Z" fill="#F0F8FF"/>
<path d="M406.017 46.3543C408.645 46.3543 410.774 44.2243 410.774 41.5969C410.774 38.9695 408.645 36.8396 406.017 36.8396C403.39 36.8396 401.26 38.9695 401.26 41.5969C401.26 44.2243 403.39 46.3543 406.017 46.3543Z" fill="#79C9E7"/>
<path d="M410.774 41.5969C410.772 44.2229 408.643 46.3505 406.017 46.3505C403.391 46.3505 401.262 44.2229 401.26 41.5969" stroke="#07294A" stroke-width="0.378" stroke-linecap="round" stroke-linejoin="round"/>
<path d="M431.57 112.354C431.57 112.354 437.449 208.315 420.844 253.749" stroke="#07294A" stroke-width="0.378" stroke-linecap="round" stroke-linejoin="round"/>
<path d="M398.53 61.168C398.53 61.168 385.75 70.0899 383.42 93.3894C381.09 116.689 410.214 137.076 441.086 103.292C441.086 103.292 450.115 96.5931 450.406 91.0595C450.697 85.5258 439.341 92.2714 439.341 92.2714C439.341 92.2714 442.548 90.477 439.341 90.1857C436.135 89.8945 435.553 93.1953 435.553 93.1953L407.908 97.9037L412.065 80.4291" stroke="#07294A" stroke-width="0.378" stroke-linecap="round" stroke-linejoin="round"/>
<path d="M391.842 115.111V133.579C413.661 138.673 426.133 115.789 426.133 115.789V115.789C412.162 124.012 399.68 121.969 391.842 115.111Z" fill="#07294A"/>
<path d="M439.341 90.1858C440.781 90.3165 440.926 90.7502 440.651 91.1885L441.091 91.3146C442.688 90.4905 445.094 89.3776 447.062 89.0061L448.076 79.8945H438.954L437.779 90.3641V90.3641C438.28 90.1893 438.814 90.1284 439.341 90.1858Z" fill="#07294A"/>
<path d="M405.555 46.3542C405.555 46.3542 401.478 70.3811 413.321 68.6336C425.165 66.8861 442.637 62.7116 440.99 80.2834" stroke="#07294A" stroke-width="0.378" stroke-linecap="round" stroke-linejoin="round"/>
<path d="M422.799 58.4668C422.799 58.4668 448.562 67.2745 452.251 68.8278C452.251 68.8278 452.068 47.7628 450.412 46.3543C448.756 44.9458 445.65 39.62 448.951 38.1084C448.951 38.1084 446.232 31.1574 448.077 31.2559C449.921 31.3544 450.31 34.2669 453.028 34.8494C455.746 35.4318 484.482 76.7885 469.532 89.0471C458.983 97.6968 448.077 96.4015 448.077 96.4015" stroke="#07294A" stroke-width="0.378" stroke-linecap="round" stroke-linejoin="round"/>
<path d="M301.613 106.48C301.613 106.48 337.286 186.297 329.665 242.334L335.73 246.532L310.626 254.153L276.636 162.7L286.375 99.0422" fill="#DFEFFF"/>
<path d="M301.614 106.48C301.614 106.48 313.743 133.621 322.346 167.36C309.789 170.409 295.796 172.115 281.04 172.115C280.737 172.115 280.436 172.11 280.134 172.109L276.637 162.7L286.376 99.0422L301.614 106.48Z" fill="#79C9E7"/>
<path d="M280.499 137.462C293.537 138.358 303.963 158.739 303.963 183.754C303.963 196.654 301.189 208.322 296.716 216.721L276.638 162.7L280.499 137.462Z" fill="#07294A"/>
<path d="M293.639 108.44C293.639 108.44 299.672 206.917 282.631 253.542L286.191 258.772H255.882C255.882 258.772 252.57 133.515 252.57 106.48L293.639 108.44Z" fill="#F0F8FF"/>
<path d="M293.639 108.44C293.639 108.44 299.672 206.917 282.631 253.542" stroke="#07294A" stroke-width="0.378" stroke-linecap="round" stroke-linejoin="round"/>
<path d="M294.31 171.646C289.97 171.953 285.546 172.109 281.04 172.115C271.889 172.126 262.749 171.451 253.698 170.095C253.08 142.771 252.571 117.078 252.571 106.48L293.639 108.44C293.639 108.44 295.424 137.571 294.31 171.646Z" fill="#79C9E7"/>
<path d="M271.566 32.2478V45.0458L287.42 48.9426V27.3453L271.566 23.4485V32.2478Z" fill="#F0F8FF"/>
<path d="M280.521 36.6757C280.287 36.6757 280.098 36.4859 280.098 36.2518C280.098 36.0177 280.287 35.8279 280.521 35.8279C280.756 35.8279 280.945 36.0177 280.945 36.2518C280.945 36.4859 280.756 36.6757 280.521 36.6757Z" fill="#07294A"/>
<path d="M274.012 36.6757C273.778 36.6757 273.588 36.4859 273.588 36.2518C273.588 36.0177 273.778 35.8279 274.012 35.8279C274.246 35.8279 274.436 36.0177 274.436 36.2518C274.436 36.4859 274.246 36.6757 274.012 36.6757Z" fill="#07294A"/>
<path d="M275.922 38.7804V32.2478H272.649" stroke="#07294A" stroke-width="0.378" stroke-linecap="round" stroke-linejoin="round"/>
<path d="M281.32 32.2478H278.048" stroke="#07294A" stroke-width="0.378" stroke-linecap="round" stroke-linejoin="round"/>
<path d="M286.376 35.595V37.8636C287.6 37.8636 288.592 36.8716 288.592 35.6478C288.592 35.5798 288.589 35.5126 288.583 35.4462C288.459 34.0702 286.376 34.2135 286.376 35.595Z" fill="#F0F8FF"/>
<path d="M286.376 37.8637C287.6 37.8637 288.592 36.8717 288.592 35.6479" stroke="#07294A" stroke-width="0.378" stroke-linecap="round" stroke-linejoin="round"/>
<path d="M277.353 40.3911C278.592 40.3911 279.596 39.387 279.596 38.1484" stroke="#79C9E7" stroke-width="0.378" stroke-linecap="round" stroke-linejoin="round"/>
<path d="M271.566 45.0457L287.42 48.9423" stroke="#07294A" stroke-width="0.378" stroke-linecap="round" stroke-linejoin="round"/>
<path d="M275.92 38.7856L277.352 39.1375" stroke="#07294A" stroke-width="0.378" stroke-linecap="round" stroke-linejoin="round"/>
<path d="M301.613 71.8602V106.48L252.569 118.534V79.9771C252.569 66.3053 261.903 54.3999 275.18 51.1367H275.18C281.547 49.5718 288.28 51.0206 293.44 55.0658C298.599 59.111 301.613 65.3036 301.613 71.8601V71.8602Z" fill="#F0F8FF"/>
<path d="M287.42 40.391C288.392 38.9325 289.236 37.3933 289.945 35.7902C292.155 30.679 289.803 24.7442 284.692 22.5334C279.277 20.1606 271.045 17.5823 269.146 22.7575C266.257 30.628 284.389 29.7448 284.389 29.7448C284.389 29.7448 283.468 34.1718 285.883 34.4837" stroke="#07294A" stroke-width="0.378" stroke-linecap="round" stroke-linejoin="round"/>
<path d="M261.573 58.678C261.573 58.678 233.327 82.2345 234.921 113.517C236.515 144.8 267.499 144.601 267.499 144.601C267.499 144.601 270.254 138.922 271.566 130.852" stroke="#07294A" stroke-width="0.378" stroke-linecap="round" stroke-linejoin="round"/>
<path d="M267.498 84.522L257.336 108.735L271.143 133.145" stroke="#07294A" stroke-width="0.378" stroke-linecap="round" stroke-linejoin="round"/>
<path d="M294.675 57.5271C294.675 57.5271 308.844 66.8474 312.829 101.639C312.829 101.639 325.581 71.6741 331.558 66.2942C337.536 60.9144 343.514 58.678 343.514 58.678V62.9069L339.529 66.6927C339.529 66.6927 344.709 76.932 336.54 79.5832C336.54 79.5832 333.538 138.017 311.328 131.346" stroke="#07294A" stroke-width="0.378" stroke-linecap="round" stroke-linejoin="round"/>
<path d="M179.148 79.7443L164.422 65.7145L177.556 32.5754L201.636 54.57L180.523 69.0975L181.462 76.4607L179.148 79.7443Z" fill="#79C9E7"/>
<path d="M158.246 118.755L165.633 252.599L170.012 258.818H140.46L124.938 144.844L133.755 105.008" fill="#DFEFFF"/>
<path d="M150.571 105.982L109.264 103.588V148.37V258.817H141.728L138.295 252.666L150.571 105.982Z" fill="#F0F8FF"/>
<path d="M120.98 32.5755V38.0925C120.98 42.3585 123.893 46.0733 128.035 47.0915L136.815 49.2493V27.679L129.515 25.8847C127.459 25.3795 125.285 25.8472 123.619 27.1533C121.954 28.4593 120.98 30.4587 120.98 32.5755V32.5755Z" fill="#F0F8FF"/>
<path d="M120.98 38.0928C120.98 42.3587 123.893 46.0735 128.035 47.0917L136.815 49.2495" stroke="#07294A" stroke-width="0.378" stroke-linecap="round" stroke-linejoin="round"/>
<path d="M129.925 36.9979C130.159 36.9979 130.349 36.8083 130.349 36.5745C130.349 36.3407 130.159 36.1511 129.925 36.1511C129.692 36.1511 129.502 36.3407 129.502 36.5745C129.502 36.8083 129.692 36.9979 129.925 36.9979Z" fill="#07294A"/>
<path d="M123.423 36.9979C123.657 36.9979 123.847 36.8083 123.847 36.5745C123.847 36.3407 123.657 36.1511 123.423 36.1511C123.19 36.1511 123 36.3407 123 36.5745C123 36.8083 123.19 36.9979 123.423 36.9979Z" fill="#07294A"/>
<path d="M125.331 39.0999V32.5754H122.062" stroke="#07294A" stroke-width="0.378" stroke-linecap="round" stroke-linejoin="round"/>
<path d="M130.724 32.5758H127.455" stroke="#07294A" stroke-width="0.378" stroke-linecap="round" stroke-linejoin="round"/>
<path d="M135.773 35.9188V38.1846C136.996 38.1846 137.986 37.1938 137.986 35.9716C137.986 35.9037 137.983 35.8365 137.977 35.7701C137.853 34.3959 135.773 34.539 135.773 35.9188Z" fill="#F0F8FF"/>
<path d="M135.773 38.1844C136.996 38.1844 137.986 37.1936 137.986 35.9714" stroke="#07294A" stroke-width="0.378" stroke-linecap="round" stroke-linejoin="round"/>
<path d="M127.117 39.8625C127.392 40.1374 127.765 40.2918 128.153 40.2918C128.542 40.2918 128.915 40.1374 129.19 39.8625" stroke="#79C9E7" stroke-width="0.378" stroke-linecap="round" stroke-linejoin="round"/>
<path d="M125.33 39.1055L126.76 39.4568" stroke="#07294A" stroke-width="0.378" stroke-linecap="round" stroke-linejoin="round"/>
<path d="M120.234 37.8124C117.997 33.5481 116.315 25.0228 123.846 21.7095C123.846 21.7095 132.287 16.7095 141.093 22.6796C149.899 28.6497 149.153 49.2494 149.153 49.2494L136.815 47.2318" stroke="#07294A" stroke-width="0.378" stroke-linecap="round" stroke-linejoin="round"/>
<path d="M120.98 30.6646C120.98 30.6646 124.339 30.0303 125.869 28.4258C125.869 28.4258 130.899 35.8847 136.239 35.0097" stroke="#07294A" stroke-width="0.378" stroke-linecap="round" stroke-linejoin="round"/>
<path d="M109.264 72.1385V106.715L158.246 118.755V80.2453C158.246 66.5906 148.924 54.7 135.664 51.4409H135.664C129.305 49.8779 122.581 51.3249 117.427 55.3651C112.274 59.4053 109.264 65.5901 109.264 72.1385V72.1385Z" fill="#79C9E7"/>
<path d="M141.727 258.818L138.295 252.666L150.571 105.983" stroke="#07294A" stroke-width="0.378" stroke-linecap="round" stroke-linejoin="round"/>
<path d="M115.339 57.2358C115.339 57.2358 94.8878 77.978 91.1067 106.834C87.3256 135.689 118.34 146.635 118.34 146.635L120.981 130.814L111.375 112.95L124.938 86.6347" stroke="#07294A" stroke-width="0.378" stroke-linecap="round" stroke-linejoin="round"/>
<path d="M118.34 146.635L122.284 123.008" stroke="#07294A" stroke-width="0.378" stroke-linecap="round" stroke-linejoin="round"/>
<path d="M121.541 93.2253L111.375 112.95L118.015 125.298L121.541 93.2253Z" fill="#07294A"/>
<path d="M109.264 141.996V151.858L115.788 145.565V145.565C113.534 144.526 111.354 143.334 109.264 141.996V141.996Z" fill="#07294A"/>
<path d="M153.629 64.3528C153.629 64.3528 164.937 77.7333 166.729 101.935L170.012 78.376C170.012 78.376 165.933 71.8089 171.107 71.6099C176.281 71.4109 171.903 74.595 171.903 74.595C171.903 74.595 176.48 76.983 176.679 80.1671" stroke="#07294A" stroke-width="0.378" stroke-linecap="round" stroke-linejoin="round"/>
<path d="M158.879 130.222C158.879 130.222 191.206 138.459 181.057 83.144" stroke="#07294A" stroke-width="0.378" stroke-linecap="round" stroke-linejoin="round"/>
<path d="M179.564 84.7845C179.564 84.7845 187.539 80.9482 183.029 67.3735" stroke="#07294A" stroke-width="0.378" stroke-linecap="round" stroke-linejoin="round"/>
</g>
<defs>
<linearGradient id="paint0_linear_762_51010" x1="600" y1="12.6912" x2="600" y2="187.309" gradientUnits="userSpaceOnUse">
<stop stop-color="#FDFFAA" stop-opacity="0"/>
<stop offset="1" stop-color="#FDFFAA"/>
</linearGradient>
<clipPath id="clip0_762_51010">
<rect width="1200" height="200" fill="white"/>
</clipPath>
</defs>
</svg>
