<svg width="252" height="215" viewBox="0 0 252 215" fill="none" xmlns="http://www.w3.org/2000/svg">
<g clip-path="url(#clip0_551_58204)">
<path d="M81.5752 104.491L102.808 82.8156L113.334 245.609H81.5752L86.2663 239.209C85.9656 214.246 81.5752 104.491 81.5752 104.491Z" fill="#DFEFFF"/>
<path d="M89.1766 91.6223L124.392 89.21L130.795 91.8178L133.805 245.609H101.096L104.554 239.412L89.1766 91.6223Z" fill="#F0F8FF"/>
<path d="M101.096 245.609L104.554 239.412L89.1765 91.6223" stroke="#07294A" stroke-width="0.378" stroke-linecap="round" stroke-linejoin="round"/>
<path d="M117.353 17.6623V23.2208C117.353 27.5189 114.418 31.2618 110.244 32.2876L101.399 34.4617V12.7288L108.754 10.921C110.825 10.412 113.015 10.8833 114.694 12.1991C116.372 13.515 117.353 15.5294 117.353 17.6622V17.6623Z" fill="#F0F8FF"/>
<path d="M117.353 23.2208C117.353 27.5189 114.418 31.2617 110.244 32.2876L101.399 34.4617" stroke="#07294A" stroke-width="0.378" stroke-linecap="round" stroke-linejoin="round"/>
<path d="M108.341 22.1179C108.105 22.1179 107.914 21.9269 107.914 21.6913C107.914 21.4558 108.105 21.2648 108.341 21.2648C108.576 21.2648 108.767 21.4558 108.767 21.6913C108.767 21.9269 108.576 22.1179 108.341 22.1179Z" fill="#07294A"/>
<path d="M114.892 22.1179C114.657 22.1179 114.466 21.9269 114.466 21.6913C114.466 21.4558 114.657 21.2648 114.892 21.2648C115.128 21.2648 115.319 21.4558 115.319 21.6913C115.319 21.9269 115.128 22.1179 114.892 22.1179Z" fill="#07294A"/>
<path d="M112.97 24.236V17.6624H116.263" stroke="#07294A" stroke-width="0.378" stroke-linecap="round" stroke-linejoin="round"/>
<path d="M107.537 17.6622H110.83" stroke="#07294A" stroke-width="0.378" stroke-linecap="round" stroke-linejoin="round"/>
<path d="M102.45 21.0304V23.3133C101.218 23.3133 100.22 22.315 100.22 21.0836C100.22 21.0152 100.223 20.9476 100.229 20.8807C100.354 19.4961 102.45 19.6403 102.45 21.0304Z" fill="#F0F8FF"/>
<path d="M102.45 23.3133C101.218 23.3133 100.22 22.315 100.22 21.0836" stroke="#07294A" stroke-width="0.378" stroke-linecap="round" stroke-linejoin="round"/>
<path d="M111.169 25.004C110.893 25.2809 110.517 25.4365 110.125 25.4365C109.734 25.4365 109.358 25.2809 109.081 25.004" stroke="#79C9E7" stroke-width="0.378" stroke-linecap="round" stroke-linejoin="round"/>
<path d="M112.97 24.2412L111.53 24.5952" stroke="#07294A" stroke-width="0.378" stroke-linecap="round" stroke-linejoin="round"/>
<path d="M130.927 57.5233V92.3608L81.5753 104.491V65.6912C81.5753 51.9335 90.9675 39.9533 104.328 36.6697H104.328C110.735 35.0949 117.51 36.5528 122.702 40.6234C127.894 44.6941 130.927 50.9256 130.927 57.5232V57.5233Z" fill="#79C9E7"/>
<path d="M101.335 29.6818C101.335 29.6818 103.372 35.1455 98.3967 38.4037C93.7063 41.4756 89.8385 30.8247 92.248 23.2555C92.3886 22.8163 92.4581 22.3575 92.4539 21.8964C92.4239 18.929 93.2562 7.4093 107.914 6.62375C117.705 6.09899 125.756 13.2487 117.69 21.2647" stroke="#07294A" stroke-width="0.378" stroke-linecap="round" stroke-linejoin="round"/>
<path d="M117.353 17.6622C117.353 17.6622 114.237 18.2029 112.733 13.9923C112.733 13.9923 108.006 20.5588 102.45 19.5563L102.054 20.1688" stroke="#07294A" stroke-width="0.378" stroke-linecap="round" stroke-linejoin="round"/>
<path d="M92.5811 38.5814C92.5811 38.5814 92.4213 41.3783 98.0151 40.3395" stroke="#79C9E7" stroke-width="0.378" stroke-linecap="round" stroke-linejoin="round"/>
<path d="M91.5096 41.311C91.5096 41.311 88.3712 53.7924 94.3863 52.1383C100.401 50.4841 96.4916 42.9652 96.4916 42.9652" stroke="#07294A" stroke-width="0.378" stroke-linecap="round" stroke-linejoin="round"/>
<path d="M153.646 26.4718L142.09 24.2411L178.783 6.57373L163.294 34.4617L159.685 30.5404L156.998 35.296L155.298 29.2785" fill="#79C9E7"/>
<path d="M115.962 37.0995C115.962 37.0995 130.773 41.6119 140.246 66.0156C140.246 66.0156 148.654 31.0315 150.662 28.9801C153.77 25.8054 158.131 23.5664 156.727 26.7745C155.324 29.9826 153.92 30.5406 153.92 30.5406C153.92 30.5406 157.73 33.6737 155.123 36.0388" stroke="#07294A" stroke-width="0.378" stroke-linecap="round" stroke-linejoin="round"/>
<path d="M159.149 24.236C159.534 23.8672 164.848 35.697 158.131 42.4139C158.131 42.4139 170.161 135.649 111.53 79.5072" stroke="#07294A" stroke-width="0.378" stroke-linecap="round" stroke-linejoin="round"/>
<path d="M114.767 82.521C114.767 82.521 119.101 110.782 130.927 119.356V94.3334C130.927 94.3334 115.818 83.4904 114.767 82.521Z" fill="#07294A"/>
<path d="M86.3838 49.4363C86.3838 49.4363 60.3425 85.2216 81.5752 122.515" stroke="#07294A" stroke-width="0.378" stroke-linecap="round" stroke-linejoin="round"/>
</g>
<defs>
<clipPath id="clip0_551_58204">
<rect width="252" height="214" fill="white" transform="translate(0 0.0361328)"/>
</clipPath>
</defs>
</svg>
