<svg width="170" height="262" viewBox="0 0 170 262" fill="none" xmlns="http://www.w3.org/2000/svg">
<g clip-path="url(#clip0_380_7491)">
<path fill-rule="evenodd" clip-rule="evenodd" d="M-40.2374 303.348C-88.056 218.803 -58.8099 111.308 25.5589 62.5974C70.46 36.6737 104.567 32.7772 139.301 35.7848C199.242 85.1847 216.501 172.066 176.377 241.563C132.539 317.492 36.4855 344.477 -40.2374 303.348Z" fill="url(#paint0_linear_380_7491)"/>
<path d="M-10.6412 68.5198H38.7002L34.6593 59.4456H-14.6821L-10.6412 68.5198Z" fill="#79C9E7"/>
<path d="M135.115 87.5192H184.456L180.415 78.4446H131.074L135.115 87.5192Z" fill="#79C9E7"/>
<path d="M89.6358 116.075L112.324 138.658C112.324 138.658 152.484 270.851 146.103 335.928L155.442 344.48L109.506 355.395L79.2875 197.739L89.6358 116.075Z" fill="#79C9E7"/>
<path d="M103.57 282.098C103.583 291.612 102.703 301.106 100.944 310.455L80.788 205.296C94.778 224.236 103.57 251.628 103.57 282.098Z" fill="#07294A"/>
<path d="M101.386 137.613L42.5258 134.202V198.013V355.395H88.785L83.8939 346.63L101.386 137.613Z" fill="#79C9E7"/>
<path d="M103.518 33.0124V40.8739C103.518 46.9527 99.3677 52.246 93.4646 53.6969L80.9544 56.7717V26.0351L91.3565 23.4784C94.2857 22.7585 97.3833 23.425 99.7571 25.286C102.131 27.1471 103.518 29.996 103.518 33.0124V33.0124Z" fill="#F0F8FF"/>
<path d="M103.518 40.8739C103.518 46.9527 99.3677 52.2461 93.4646 53.6969L80.9544 56.7717" stroke="#07294A" stroke-width="0.539302" stroke-linecap="round" stroke-linejoin="round"/>
<path d="M90.7722 39.314C90.439 39.314 90.1689 39.0439 90.1689 38.7107C90.1689 38.3775 90.439 38.1074 90.7722 38.1074C91.1054 38.1074 91.3755 38.3775 91.3755 38.7107C91.3755 39.0439 91.1054 39.314 90.7722 39.314Z" fill="#07294A"/>
<path d="M100.038 39.314C99.7051 39.314 99.435 39.0439 99.435 38.7107C99.435 38.3775 99.7051 38.1074 100.038 38.1074C100.372 38.1074 100.642 38.3775 100.642 38.7107C100.642 39.0439 100.372 39.314 100.038 39.314Z" fill="#07294A"/>
<path d="M97.3199 42.3097V33.0122H101.978" stroke="#07294A" stroke-width="0.539302" stroke-linecap="round" stroke-linejoin="round"/>
<path d="M89.6354 33.0124H94.293" stroke="#07294A" stroke-width="0.539302" stroke-linecap="round" stroke-linejoin="round"/>
<path d="M82.4409 37.7761V41.0047C80.6993 41.0047 79.2875 39.5929 79.2875 37.8513C79.2875 37.7545 79.2918 37.6589 79.3004 37.5643C79.4771 35.6061 82.4409 35.81 82.4409 37.7761Z" fill="#F0F8FF"/>
<path d="M82.4409 41.0047C80.6993 41.0047 79.2875 39.5928 79.2875 37.8513" stroke="#07294A" stroke-width="0.539302" stroke-linecap="round" stroke-linejoin="round"/>
<path d="M94.7729 43.3959C94.3814 43.7875 93.8502 44.0075 93.2965 44.0075C92.7427 44.0075 92.2115 43.7875 91.82 43.3959" stroke="#79C9E7" stroke-width="0.539302" stroke-linecap="round" stroke-linejoin="round"/>
<path d="M97.3198 42.317L95.2827 42.8177" stroke="#07294A" stroke-width="0.539302" stroke-linecap="round" stroke-linejoin="round"/>
<path d="M103.996 31.8682C103.996 31.8682 98.2533 35.5546 87.2649 27.7564C87.2649 27.7564 87.5485 36.2227 82.8695 37.661" stroke="#07294A" stroke-width="0.539302" stroke-linecap="round" stroke-linejoin="round"/>
<path d="M103.518 34.5621C103.518 34.5621 106.902 32.7898 106.973 28.8907C106.973 28.8907 97.119 12.3726 83.8621 21.3051C83.8621 21.3051 76.3474 23.1484 75.7803 32.2935C75.2132 41.4387 80.9547 46.2594 80.9547 46.2594" stroke="#07294A" stroke-width="0.539302" stroke-linecap="round" stroke-linejoin="round"/>
<path d="M80.2466 20.8089C79.963 20.8089 76.9067 22.2268 75.7409 25.2043" stroke="#79C9E7" stroke-width="0.539302" stroke-linecap="round" stroke-linejoin="round"/>
<path d="M77.9937 19.5328C77.9937 19.5328 74.4333 11.3093 66.9895 15.5628C59.5458 19.8164 60.4674 31.8682 60.4674 31.8682L71.3849 34.3495C71.3849 34.3495 71.4492 21.8643 75.1422 23.19" stroke="#07294A" stroke-width="0.539302" stroke-linecap="round" stroke-linejoin="round"/>
<path d="M112.324 89.3874V138.658L42.5258 155.813V100.939C42.5258 81.482 55.8091 64.5385 74.7041 59.8945H74.7041C83.7655 57.6673 93.3477 59.7292 100.691 65.4862C108.034 71.2433 112.324 80.0564 112.324 89.3874V89.3874Z" fill="#F0F8FF"/>
<path d="M83.8938 346.63L101.386 137.614" stroke="#07294A" stroke-width="0.539302" stroke-linecap="round" stroke-linejoin="round"/>
<path d="M58.3993 67.925C58.3993 67.925 37.6216 80.1011 24.0102 106.473C24.0102 106.473 31.5405 77.8777 26.7198 69.9376C21.8991 61.9976 21.3319 67.925 21.3319 67.925C21.3319 67.925 9.98908 59.4455 8.00408 63.6991C6.01909 67.9526 13.3919 75.0419 13.3919 75.0419C13.3919 75.0419 -11.4899 115.794 8.57123 131.092C33.2419 149.905 60.4312 110.772 60.4312 110.772" stroke="#07294A" stroke-width="0.539302" stroke-linecap="round" stroke-linejoin="round"/>
<path d="M102.702 67.2104C102.702 67.2104 117.179 86.0725 126.112 116.075C126.112 116.075 143.551 84.8251 152.484 84.3998C161.416 83.9744 155.442 88.228 155.442 88.228C155.442 88.228 169.073 81.8476 171.625 86.9519C174.177 92.0562 155.442 99.3563 155.442 99.3563C155.442 99.3563 154.611 135.443 140.999 147.353C130.522 156.52 121.055 153.741 113.37 145.224" stroke="#07294A" stroke-width="0.539302" stroke-linecap="round" stroke-linejoin="round"/>
</g>
<defs>
<linearGradient id="paint0_linear_380_7491" x1="127.691" y1="294.748" x2="1.63364" y2="76.4105" gradientUnits="userSpaceOnUse">
<stop stop-color="#FDFFAA" stop-opacity="0"/>
<stop offset="1" stop-color="#FDFFAA"/>
</linearGradient>
<clipPath id="clip0_380_7491">
<rect width="169.42" height="261" fill="white" transform="translate(0 0.0360107)"/>
</clipPath>
</defs>
</svg>
