<svg width="252" height="211" viewBox="0 0 252 211" fill="none" xmlns="http://www.w3.org/2000/svg">
<g clip-path="url(#clip0_551_58169)">
<rect width="252" height="210" transform="translate(0 0.0361328)" fill="white"/>
<path d="M110.386 98.5154L85.7412 100.096L114.165 150.56L92.8378 209.434L120.198 226.865L119.931 218.145C119.931 218.145 138.495 198.02 152.613 152.662C166.731 107.305 110.386 98.5154 110.386 98.5154Z" fill="#DFEFFF"/>
<path d="M131.187 144.552L114.365 141.548L110.121 143.379L114.165 150.56L109.771 162.69C109.771 162.69 127.752 169.998 137.843 189.841C138.676 188.173 139.518 186.427 140.37 184.604C137.653 169.816 131.187 144.552 131.187 144.552Z" fill="#07294A"/>
<path d="M209.665 90.1499H131.236L136.616 43.1H215.045L209.665 90.1499Z" fill="#F0F8FF"/>
<path fill-rule="evenodd" clip-rule="evenodd" d="M206.551 86.1365H128.122L133.502 39.0865H211.93L206.551 86.1365Z" stroke="#07294A" stroke-width="0.378" stroke-linecap="round" stroke-linejoin="round"/>
<path d="M172.702 103.974L174.742 86.1366H162.199L160.159 103.974H172.702Z" fill="#07294A"/>
<path d="M174.241 208.233C174.241 208.233 168.742 101.773 95.7441 102.113L61.0964 110.63C61.0964 110.63 52.4825 157.873 124.57 155.169L150.702 222.751L179.086 212.839L174.241 208.233Z" fill="#F0F8FF"/>
<path d="M174.241 208.233C174.241 208.233 168.742 101.773 95.7441 102.113" stroke="#07294A" stroke-width="0.378" stroke-linecap="round" stroke-linejoin="round"/>
<path d="M61.0964 110.63C61.0964 110.63 52.4825 157.873 124.57 155.169L150.702 222.751" stroke="#07294A" stroke-width="0.378" stroke-linecap="round" stroke-linejoin="round"/>
<path d="M93.708 23.9102V36.7725L77.7744 40.6889V18.9831L93.708 15.0668V23.9102Z" fill="#F0F8FF"/>
<path d="M84.7073 28.3605C84.9426 28.3605 85.1333 28.1697 85.1333 27.9345C85.1333 27.6992 84.9426 27.5084 84.7073 27.5084C84.472 27.5084 84.2812 27.6992 84.2812 27.9345C84.2812 28.1697 84.472 28.3605 84.7073 28.3605Z" fill="#07294A"/>
<path d="M91.2512 28.3605C91.4865 28.3605 91.6773 28.1697 91.6773 27.9345C91.6773 27.6992 91.4865 27.5084 91.2512 27.5084C91.0159 27.5084 90.8252 27.6992 90.8252 27.9345C90.8252 28.1697 91.0159 28.3605 91.2512 28.3605Z" fill="#07294A"/>
<path d="M89.3311 30.4759V23.9102H92.6202" stroke="#07294A" stroke-width="0.378" stroke-linecap="round" stroke-linejoin="round"/>
<path d="M83.9048 23.9103H87.1939" stroke="#07294A" stroke-width="0.378" stroke-linecap="round" stroke-linejoin="round"/>
<path d="M78.824 27.2744V29.5544C77.5942 29.5544 76.5972 28.5574 76.5972 27.3275C76.5972 27.2592 76.6002 27.1916 76.6063 27.1248C76.731 25.742 78.824 25.886 78.824 27.2744Z" fill="#F0F8FF"/>
<path d="M78.824 29.5544C77.5942 29.5544 76.5972 28.5574 76.5972 27.3275" stroke="#07294A" stroke-width="0.378" stroke-linecap="round" stroke-linejoin="round"/>
<path d="M87.8925 32.0945C86.6478 32.0945 85.6387 31.0854 85.6387 29.8406" stroke="#79C9E7" stroke-width="0.378" stroke-linecap="round" stroke-linejoin="round"/>
<path d="M93.7081 36.7725L77.7744 40.6887" stroke="#07294A" stroke-width="0.378" stroke-linecap="round" stroke-linejoin="round"/>
<path d="M89.3312 30.4811L87.8926 30.8347" stroke="#07294A" stroke-width="0.378" stroke-linecap="round" stroke-linejoin="round"/>
<path d="M110.386 63.7214V98.5153L61.0962 110.63V71.8791C61.0962 58.1387 70.4766 46.1735 83.8199 42.894H83.82C90.2189 41.3212 96.9857 42.7773 102.171 46.8428C107.357 50.9083 110.386 57.132 110.386 63.7214V63.7214Z" fill="#79C9E7"/>
<path d="M78.8241 26.1574C80.0463 24.657 80.917 22.9019 81.3722 21.021C81.3722 21.021 90.8251 24.1375 94.7015 18.9184C96.4585 16.5528 95.6411 14.2444 94.8166 12.8808C94.6922 12.6645 94.4635 12.5293 94.2141 12.5243C93.9646 12.5196 93.7308 12.6458 93.5981 12.8571C93.2143 13.5286 92.311 14.0794 90.1958 13.2862C86.6311 11.9495 79.2126 12.3851 78.0304 16.8908C78.0304 16.8908 72.7738 18.3551 77.2892 26.2217" stroke="#07294A" stroke-width="0.378" stroke-linecap="round" stroke-linejoin="round"/>
<path d="M105.739 103.974H213.063" stroke="#07294A" stroke-width="0.378" stroke-linecap="round" stroke-linejoin="round"/>
<path d="M72.9042 48.099C72.9042 48.099 52.5869 64.7842 47.4805 91.7519C42.374 118.72 82.864 112.239 102.15 104.301" stroke="#07294A" stroke-width="0.378" stroke-linecap="round" stroke-linejoin="round"/>
<path d="M68.958 90.1499C68.958 90.1499 114.766 82.0527 117.92 102.113" stroke="#07294A" stroke-width="0.378" stroke-linecap="round" stroke-linejoin="round"/>
<path d="M103.633 48.099C103.633 48.099 118.009 62.9333 121.8 90.1498C121.8 90.1498 136.381 90.6514 136.965 102.113" stroke="#07294A" stroke-width="0.378" stroke-linecap="round" stroke-linejoin="round"/>
<path d="M64.4229 56.8902C64.4229 56.8902 57.8893 43.3243 52.4824 55.0391C47.0756 66.7539 23.4501 143.951 48.3816 156.868C73.3131 169.784 109.771 162.69 109.771 162.69" stroke="#07294A" stroke-width="0.378" stroke-linecap="round" stroke-linejoin="round"/>
<path d="M82.219 164.634V251.571H52.4829" stroke="#07294A" stroke-width="0.378" stroke-linecap="round" stroke-linejoin="round"/>
</g>
<defs>
<clipPath id="clip0_551_58169">
<rect width="252" height="210" fill="white" transform="translate(0 0.0361328)"/>
</clipPath>
</defs>
</svg>
