<svg width="170" height="262" viewBox="0 0 170 262" fill="none" xmlns="http://www.w3.org/2000/svg">
<g clip-path="url(#clip0_380_7480)">
<path fill-rule="evenodd" clip-rule="evenodd" d="M-40.2375 303.348C-88.056 218.803 -58.8099 111.308 25.5589 62.5974C70.46 36.6738 104.567 32.7773 139.301 35.7848C199.242 85.1847 216.501 172.066 176.377 241.563C132.539 317.492 36.4854 344.477 -40.2375 303.348Z" fill="url(#paint0_linear_380_7480)"/>
<path d="M109.847 158.809C109.847 158.809 270.22 310.219 27.0714 321.026L18.9664 331.157L7.48438 278.475L91.9111 253.012L78.9868 146.769" fill="#DFEFFF"/>
<path d="M104.883 296.357C104.883 277.608 99.6839 260.822 91.4898 249.547L91.9114 253.012L32.1511 271.036C27.7428 287.316 27.6594 304.465 31.9093 320.788C61.9059 319.188 85.5431 315.383 103.947 309.955C104.573 305.45 104.886 300.906 104.883 296.357Z" fill="#07294A"/>
<path d="M97.8311 143.601C97.8311 143.601 106.921 291.968 81.247 362.215L86.61 370.094H40.9453C40.9453 370.094 35.9565 181.38 35.9565 140.648L97.8311 143.601Z" fill="#F0F8FF"/>
<path d="M83.3094 28.8078V48.0896L59.4233 53.9605V21.4215L83.3094 15.5505V28.8078Z" fill="#F0F8FF"/>
<path d="M69.8159 35.479C70.1686 35.479 70.4546 35.1931 70.4546 34.8404C70.4546 34.4877 70.1686 34.2017 69.8159 34.2017C69.4632 34.2017 69.1772 34.4877 69.1772 34.8404C69.1772 35.1931 69.4632 35.479 69.8159 35.479Z" fill="#07294A"/>
<path d="M79.6255 35.479C79.9782 35.479 80.2641 35.1931 80.2641 34.8404C80.2641 34.4877 79.9782 34.2017 79.6255 34.2017C79.2728 34.2017 78.9868 34.4877 78.9868 34.8404C78.9868 35.1931 79.2728 35.479 79.6255 35.479Z" fill="#07294A"/>
<path d="M76.7476 38.6504V28.8077H81.6783" stroke="#07294A" stroke-width="0.565948" stroke-linecap="round" stroke-linejoin="round"/>
<path d="M68.6128 28.8079H73.5435" stroke="#07294A" stroke-width="0.565948" stroke-linecap="round" stroke-linejoin="round"/>
<path d="M82.4459 27.1963H82.4459" stroke="#07294A" stroke-width="0.565948" stroke-linecap="round" stroke-linejoin="round"/>
<path d="M60.9965 33.8509V37.2688C59.1528 37.2688 57.6582 35.7742 57.6582 33.9305C57.6582 33.8281 57.6628 33.7268 57.6718 33.6267C57.8589 31.5537 60.9965 31.7695 60.9965 33.8509Z" fill="#F0F8FF"/>
<path d="M60.9965 37.2689C59.1528 37.2689 57.6582 35.7742 57.6582 33.9305" stroke="#07294A" stroke-width="0.565948" stroke-linecap="round" stroke-linejoin="round"/>
<path d="M74.5912 41.0766C73.6951 41.0766 72.8357 40.7206 72.202 40.087C71.5684 39.4533 71.2124 38.5939 71.2124 37.6978" stroke="#79C9E7" stroke-width="0.565948" stroke-linecap="round" stroke-linejoin="round"/>
<path d="M64.4128 52.7339L59.4229 53.9603" stroke="#07294A" stroke-width="0.565948" stroke-linecap="round" stroke-linejoin="round"/>
<path d="M76.7479 38.6581L74.5913 39.1881" stroke="#07294A" stroke-width="0.565948" stroke-linecap="round" stroke-linejoin="round"/>
<path d="M35.9561 88.4886V140.648L109.847 158.809V100.718C109.847 80.1195 95.7845 62.1826 75.7816 57.2662H75.7815C66.1889 54.9085 56.0448 57.0912 48.2709 63.1858C40.4969 69.2805 35.9561 78.6104 35.9561 88.4885V88.4886Z" fill="#79C9E7"/>
<path d="M97.8312 143.601C97.8312 143.601 106.921 291.968 81.2471 362.215" stroke="#07294A" stroke-width="0.565948" stroke-linecap="round" stroke-linejoin="round"/>
<path d="M63.9339 28.8079C63.9339 28.8079 61.1571 38.9376 64.4217 41.0766C67.6864 43.2155 71.9604 36.7849 78.8012 40.2701C87.0705 44.4831 83.3089 30.3436 83.3089 30.3436" stroke="#07294A" stroke-width="0.565948" stroke-linecap="round" stroke-linejoin="round"/>
<path d="M60.996 38.1779C60.996 38.1779 56.9987 50.4304 66.8671 53.9604C76.7356 57.4904 89.5752 51.7551 85.4368 37.6978" stroke="#07294A" stroke-width="0.565948" stroke-linecap="round" stroke-linejoin="round"/>
<path d="M62.4707 28.8079C62.4707 28.8079 69.8161 31.5068 76.7477 23.4765C76.7477 23.4765 79.5875 27.4638 84.1628 27.1963" stroke="#07294A" stroke-width="0.565948" stroke-linecap="round" stroke-linejoin="round"/>
<path d="M84.8808 31.067C84.8808 31.067 90.0115 13.9647 76.7475 12.4791C63.4835 10.9935 57.8222 19.2885 55.4877 25.6553C53.1532 32.022 56.1627 38.7151 59.3269 41.5231" stroke="#07294A" stroke-width="0.565948" stroke-linecap="round" stroke-linejoin="round"/>
<path d="M48.0152 63.3922C48.0152 63.3922 10.0196 98.4512 12.4212 141.98C14.8228 185.509 101.881 149.485 104.582 135.075C107.284 120.666 90.3201 129.372 90.3201 129.372C90.3201 129.372 91.9712 122.617 90.3201 123.818C88.669 125.019 84.6093 129.522 84.6093 129.522L46.9441 129.972L54.6579 108.658" stroke="#07294A" stroke-width="0.565948" stroke-linecap="round" stroke-linejoin="round"/>
<path d="M78.9868 129.589C78.9868 129.589 78.7877 103.254 109.847 97.5506C109.847 97.5506 104.575 89.7082 107.656 86.875C109.509 85.1708 112.447 87.3426 114.494 89.3443C115.615 90.438 117.38 90.5097 118.586 89.5106C119.751 88.5569 121.566 87.8768 124.245 88.7698C126.272 89.4453 127.063 90.564 127.261 91.6985C127.508 93.3701 129.051 94.5338 130.726 94.3121C132.972 93.9837 134.976 94.3203 133.702 97.1003C131.225 102.504 126.497 102.504 126.497 102.504C126.497 102.504 159.369 171.513 91.3736 162.788" stroke="#07294A" stroke-width="0.565948" stroke-linecap="round" stroke-linejoin="round"/>
<path d="M132.652 146.769C132.652 146.769 134.377 169.148 122.895 176.353" stroke="#07294A" stroke-width="0.565948" stroke-linecap="round" stroke-linejoin="round"/>
</g>
<defs>
<linearGradient id="paint0_linear_380_7480" x1="127.691" y1="294.748" x2="1.63364" y2="76.4105" gradientUnits="userSpaceOnUse">
<stop stop-color="#FDFFAA" stop-opacity="0"/>
<stop offset="1" stop-color="#FDFFAA"/>
</linearGradient>
<clipPath id="clip0_380_7480">
<rect width="169.42" height="261" fill="white" transform="translate(0 0.0360107)"/>
</clipPath>
</defs>
</svg>
