<svg width="620" height="395" viewBox="0 0 620 395" fill="none" xmlns="http://www.w3.org/2000/svg">
<g clip-path="url(#clip0_590_11913)">
<path fill-rule="evenodd" clip-rule="evenodd" d="M523.5 24C523.5 10.7452 512.755 0 499.5 0H385.992C372.737 0 361.992 10.7452 361.992 24V138.729C361.992 151.984 351.247 162.729 337.992 162.729H336.581C323.326 162.729 312.581 151.984 312.581 138.729V100.342C312.581 87.0871 301.836 76.342 288.581 76.342H120.5C107.245 76.342 96.5 87.0871 96.5 100.342V284.046C96.5 297.301 107.245 308.046 120.5 308.046H237.695C250.95 308.046 261.695 318.792 261.695 332.046V370.433C261.695 383.688 272.44 394.433 285.695 394.433H363.067C376.322 394.433 387.067 383.688 387.067 370.433V332.047C387.067 318.792 397.812 308.047 411.067 308.047H499.5C512.755 308.047 523.5 297.301 523.5 284.047V24Z" fill="url(#paint0_linear_590_11913)"/>
<path d="M501.181 357.005V167.099L464.965 136.433L456.259 367.681H507.262L501.181 357.005Z" fill="#79C9E7"/>
<path d="M456.259 367.681H480.073C483.483 351.291 485.461 331.78 485.461 310.839C485.461 264.309 475.694 224.843 462.158 210.987L456.259 367.681Z" fill="#07294A"/>
<path d="M491.125 148.809L441.071 145.38L431.97 149.086L427.692 367.681H474.184L469.268 358.872L491.125 148.809Z" fill="#79C9E7"/>
<path d="M474.183 367.681L469.268 358.872L491.125 148.808" stroke="#07294A" stroke-width="0.539302" stroke-linecap="round" stroke-linejoin="round"/>
<path d="M452.156 43.6839V51.5847C452.156 57.6939 456.327 63.0138 462.26 64.472L474.832 67.5621V36.6716L464.378 34.1022C461.434 33.3786 458.321 34.0485 455.936 35.9188C453.55 37.7892 452.156 40.6524 452.156 43.6839V43.6839Z" fill="#F0F8FF"/>
<path d="M452.156 51.5847C452.156 57.6939 456.327 63.0138 462.26 64.472L474.832 67.5621" stroke="#07294A" stroke-width="0.539302" stroke-linecap="round" stroke-linejoin="round"/>
<path d="M464.966 50.0171C465.301 50.0171 465.572 49.7456 465.572 49.4108C465.572 49.0759 465.301 48.8044 464.966 48.8044C464.631 48.8044 464.359 49.0759 464.359 49.4108C464.359 49.7456 464.631 50.0171 464.966 50.0171Z" fill="#07294A"/>
<path d="M455.653 50.0171C455.988 50.0171 456.259 49.7456 456.259 49.4108C456.259 49.0759 455.988 48.8044 455.653 48.8044C455.318 48.8044 455.047 49.0759 455.047 49.4108C455.047 49.7456 455.318 50.0171 455.653 50.0171Z" fill="#07294A"/>
<path d="M458.385 53.0275V43.6838" stroke="#07294A" stroke-width="0.539302" stroke-linecap="round" stroke-linejoin="round"/>
<path d="M466.108 43.684H461.427" stroke="#07294A" stroke-width="0.539302" stroke-linecap="round" stroke-linejoin="round"/>
<path d="M473.339 48.4714V51.7162C475.089 51.7162 476.508 50.2973 476.508 48.547C476.508 48.4497 476.504 48.3536 476.495 48.2585C476.318 46.2905 473.339 46.4954 473.339 48.4714Z" fill="#F0F8FF"/>
<path d="M473.339 51.7161C475.089 51.7161 476.508 50.2972 476.508 48.5469" stroke="#07294A" stroke-width="0.539302" stroke-linecap="round" stroke-linejoin="round"/>
<path d="M460.944 54.1194C461.338 54.5129 461.872 54.734 462.428 54.734C462.985 54.734 463.519 54.5129 463.912 54.1194" stroke="#79C9E7" stroke-width="0.539302" stroke-linecap="round" stroke-linejoin="round"/>
<path d="M458.385 53.0349L460.432 53.5381" stroke="#07294A" stroke-width="0.539302" stroke-linecap="round" stroke-linejoin="round"/>
<path d="M431.034 100.341V149.858L501.182 167.099V111.951C501.182 92.3961 487.832 75.3679 468.842 70.7005H468.842C459.735 68.4623 450.105 70.5345 442.725 76.3203C435.345 82.1062 431.034 90.9634 431.034 100.341V100.341Z" fill="#F0F8FF"/>
<path d="M475.372 46.93C475.372 46.93 480.367 40.9717 475.372 33.8124C470.378 26.6531 452.744 29.5364 441.737 33.8124C431.374 37.8379 411.255 37.0048 409.29 50.3707C409.039 52.0276 407.985 53.4531 406.474 54.1778C402.864 55.9213 396.666 59.6714 394.878 65.5051C393.783 69.0047 391.755 72.1393 389.011 74.5714C386.14 77.1459 384.131 81.041 388.835 85.86C397.67 94.9098 441.785 90.3486 460.944 65.7681" stroke="#79C9E7" stroke-width="0.539302" stroke-linecap="round" stroke-linejoin="round"/>
<path d="M451.676 48.8045C451.676 48.8045 461.605 46.7599 463.618 39.5308C463.656 39.4001 463.777 39.3112 463.914 39.3138C464.05 39.3164 464.168 39.4098 464.201 39.5419C464.779 41.8604 466.437 46.0446 470.961 46.882" stroke="#79C9E7" stroke-width="0.539302" stroke-linecap="round" stroke-linejoin="round"/>
<path d="M617.434 26.7563H577.68V126.174L527.616 176.237V367.681H507.263" stroke="#07294A" stroke-width="0.539302" stroke-linecap="round" stroke-linejoin="round"/>
<path d="M440.419 86.9998C440.419 86.9998 427.101 148.843 459.409 163.377C491.717 177.912 517.936 143.143 517.936 143.143C517.936 143.143 525.346 141.433 527.056 137.728C527.056 137.728 535.321 140.578 534.751 138.868C534.181 137.158 534.181 126.613 520.501 128.323C506.822 130.033 471.101 134.379 471.101 134.379L470.962 100.964" stroke="#07294A" stroke-width="0.539302" stroke-linecap="round" stroke-linejoin="round"/>
<path d="M496.124 91.8511L511.206 129.475" stroke="#07294A" stroke-width="0.539302" stroke-linecap="round" stroke-linejoin="round"/>
<path d="M531.701 131.251C531.701 131.251 549.625 119.226 555.101 131.251C560.577 143.276 552.75 134.807 552.75 134.807C552.75 134.807 550.185 141.861 545.482 140.578C545.482 140.578 517.155 185.305 501.181 158.453" stroke="#07294A" stroke-width="0.539302" stroke-linecap="round" stroke-linejoin="round"/>
<path d="M204.751 148.171C204.751 148.171 332.71 310.609 104.366 304.787L95.3103 312.549V258.045L173.549 240.747L164.361 140.483" fill="#79C9E7"/>
<path d="M170.811 210.879C194.436 212.118 213.354 243.625 213.354 282.315C213.354 283.163 213.341 284.006 213.323 284.847C195.905 296.05 168.657 303.6 127.599 304.778C126.11 297.383 125.367 289.858 125.38 282.315C125.33 271.497 126.89 260.732 130.009 250.373L173.548 240.747L170.811 210.879Z" fill="#07294A"/>
<path d="M193.243 150.999C193.243 150.999 201.949 293.095 177.36 360.372L182.496 367.919H138.762C138.762 367.919 133.984 187.181 133.984 148.171L193.243 150.999Z" fill="#79C9E7"/>
<path d="M160.014 41.0579V59.5247L182.891 65.1471V33.9839L160.014 28.3611V41.0579Z" fill="#F0F8FF"/>
<path d="M172.937 47.4472C172.599 47.4472 172.325 47.1734 172.325 46.8355C172.325 46.4977 172.599 46.2239 172.937 46.2239C173.275 46.2239 173.549 46.4977 173.549 46.8355C173.549 47.1734 173.275 47.4472 172.937 47.4472Z" fill="#07294A"/>
<path d="M163.543 47.4472C163.205 47.4472 162.931 47.1734 162.931 46.8355C162.931 46.4977 163.205 46.2239 163.543 46.2239C163.88 46.2239 164.154 46.4977 164.154 46.8355C164.154 47.1734 163.88 47.4472 163.543 47.4472Z" fill="#07294A"/>
<path d="M166.299 50.4843V41.0581H161.576" stroke="#07294A" stroke-width="0.539302" stroke-linecap="round" stroke-linejoin="round"/>
<path d="M174.09 41.0582H169.368" stroke="#07294A" stroke-width="0.539302" stroke-linecap="round" stroke-linejoin="round"/>
<path d="M181.384 45.888V49.1615C183.15 49.1615 184.581 47.73 184.581 45.9643C184.581 45.8662 184.577 45.7692 184.568 45.6733C184.389 43.6879 181.384 43.8946 181.384 45.888Z" fill="#F0F8FF"/>
<path d="M181.384 49.1613C183.15 49.1613 184.581 47.7299 184.581 45.9641" stroke="#07294A" stroke-width="0.539302" stroke-linecap="round" stroke-linejoin="round"/>
<path d="M168.365 52.8082C169.223 52.8082 170.046 52.4673 170.653 51.8604C171.26 51.2536 171.601 50.4305 171.601 49.5723" stroke="#79C9E7" stroke-width="0.539302" stroke-linecap="round" stroke-linejoin="round"/>
<path d="M160.014 59.5247L182.891 65.1473" stroke="#07294A" stroke-width="0.539302" stroke-linecap="round" stroke-linejoin="round"/>
<path d="M166.299 50.4919L168.364 50.9996" stroke="#07294A" stroke-width="0.539302" stroke-linecap="round" stroke-linejoin="round"/>
<path d="M204.751 98.2162V148.171L133.984 165.564V109.928C133.984 90.2009 147.451 73.0221 166.609 68.3136H166.609C175.796 66.0555 185.511 68.146 192.957 73.983C200.402 79.82 204.751 88.7555 204.751 98.2162V98.2162Z" fill="#F0F8FF"/>
<path d="M193.243 150.999C193.243 150.999 201.949 293.095 177.36 360.372" stroke="#07294A" stroke-width="0.539302" stroke-linecap="round" stroke-linejoin="round"/>
<path d="M183.653 44.401C183.653 44.401 186.728 34.2144 181.877 30.0096C177.025 25.8048 155.57 26.8829 155.57 26.8829C155.57 26.8829 154.06 41.7616 176.162 38.2036C176.162 38.2036 176.484 42.3266 180.152 43.0554" stroke="#07294A" stroke-width="0.539302" stroke-linecap="round" stroke-linejoin="round"/>
<path d="M153.158 74.2087C153.158 74.2087 120.889 94.9188 126.927 150.999C132.965 207.08 215.48 136.065 217.78 130.89C220.08 125.714 211.455 121.402 200.817 127.439C200.817 127.439 205.13 123.819 203.117 123.329C201.104 122.839 197 124.277 194.739 128.877L144.753 138.077" stroke="#07294A" stroke-width="0.539302" stroke-linecap="round" stroke-linejoin="round"/>
<path d="M203.313 124.349H253.143L274.994 73.8325" stroke="#07294A" stroke-width="0.539302" stroke-linecap="round" stroke-linejoin="round"/>
<path d="M271.936 79.2817L194.739 37.449" stroke="#79C9E7" stroke-width="0.539302" stroke-linecap="round" stroke-linejoin="round"/>
<path d="M195.234 75.9575C195.234 75.9575 212.922 92.6509 218.154 124.349" stroke="#07294A" stroke-width="0.539302" stroke-linecap="round" stroke-linejoin="round"/>
<path d="M242.793 124.349C242.793 124.349 230.131 160.215 215.438 163.737" stroke="#07294A" stroke-width="0.539302" stroke-linecap="round" stroke-linejoin="round"/>
<path d="M222.955 124.349C222.955 124.349 229.201 115.652 233.337 113.639C237.474 111.626 249.981 116.227 248.4 118.383C246.818 120.539 243.943 119.389 243.943 119.389C243.943 119.389 244.662 121.546 243.368 122.121" stroke="#07294A" stroke-width="0.539302" stroke-linecap="round" stroke-linejoin="round"/>
<path d="M373.149 166.426L342.855 135.501L327.837 367.763H373.149L366.456 358.632C366.885 323.017 373.149 166.426 373.149 166.426Z" fill="#DFEFFF"/>
<path d="M362.304 148.066L312.061 144.624L302.925 148.345L298.632 367.763H345.298L340.364 358.921L362.304 148.066Z" fill="#F0F8FF"/>
<path d="M345.297 367.763L340.363 358.921L362.303 148.066" stroke="#07294A" stroke-width="0.539302" stroke-linecap="round" stroke-linejoin="round"/>
<path d="M322.104 42.5453V50.4759C322.104 56.6081 326.291 61.9481 332.246 63.4117L344.866 66.5135V35.5066L334.372 32.9274C331.418 32.2012 328.293 32.8736 325.898 34.751C323.503 36.6284 322.104 39.5024 322.104 42.5453V42.5453Z" fill="#F0F8FF"/>
<path d="M322.104 50.4758C322.104 56.6081 326.291 61.948 332.246 63.4116L344.866 66.5135" stroke="#07294A" stroke-width="0.539302" stroke-linecap="round" stroke-linejoin="round"/>
<path d="M334.962 48.9022C335.298 48.9022 335.571 48.6298 335.571 48.2937C335.571 47.9575 335.298 47.6851 334.962 47.6851C334.626 47.6851 334.354 47.9575 334.354 48.2937C334.354 48.6298 334.626 48.9022 334.962 48.9022Z" fill="#07294A"/>
<path d="M325.614 48.9022C325.951 48.9022 326.223 48.6298 326.223 48.2937C326.223 47.9575 325.951 47.6851 325.614 47.6851C325.278 47.6851 325.006 47.9575 325.006 48.2937C325.006 48.6298 325.278 48.9022 325.614 48.9022Z" fill="#07294A"/>
<path d="M328.357 51.9242V42.5454H323.658" stroke="#07294A" stroke-width="0.539302" stroke-linecap="round" stroke-linejoin="round"/>
<path d="M336.109 42.5454H331.41" stroke="#07294A" stroke-width="0.539302" stroke-linecap="round" stroke-linejoin="round"/>
<path d="M343.367 47.3509V50.6079C345.124 50.6079 346.548 49.1837 346.548 47.4268C346.548 47.3292 346.544 47.2327 346.535 47.1372C346.357 45.1618 343.367 45.3675 343.367 47.3509Z" fill="#F0F8FF"/>
<path d="M343.367 50.6079C345.124 50.6079 346.548 49.1837 346.548 47.4268" stroke="#07294A" stroke-width="0.539302" stroke-linecap="round" stroke-linejoin="round"/>
<path d="M330.926 53.02C331.321 53.4151 331.857 53.637 332.415 53.637C332.974 53.637 333.51 53.4151 333.905 53.02" stroke="#79C9E7" stroke-width="0.539302" stroke-linecap="round" stroke-linejoin="round"/>
<path d="M328.356 51.9319L330.411 52.437" stroke="#07294A" stroke-width="0.539302" stroke-linecap="round" stroke-linejoin="round"/>
<path d="M302.737 99.4162V149.12L373.149 166.426V111.07C373.149 91.4412 359.749 74.3487 340.688 69.6638H340.688C331.547 67.4171 321.88 69.4971 314.472 75.3048C307.064 81.1124 302.737 90.0031 302.737 99.4162V99.4162Z" fill="#79C9E7"/>
<path d="M344.957 59.6941C344.957 59.6941 342.051 67.4893 349.149 72.1379C355.841 76.5206 361.359 61.3248 357.921 50.5256C357.721 49.899 357.621 49.2443 357.627 48.5864C357.67 44.3528 356.483 27.9174 335.57 26.7966C321.601 26.0479 310.115 36.2485 321.622 47.6852" stroke="#07294A" stroke-width="0.539302" stroke-linecap="round" stroke-linejoin="round"/>
<path d="M322.104 42.5453C322.104 42.5453 326.55 43.3167 328.696 37.3093C328.696 37.3093 335.439 46.678 343.367 45.2476L343.932 46.1215" stroke="#07294A" stroke-width="0.539302" stroke-linecap="round" stroke-linejoin="round"/>
<path d="M357.446 72.3914C357.446 72.3914 357.674 76.3818 349.693 74.8996" stroke="#79C9E7" stroke-width="0.539302" stroke-linecap="round" stroke-linejoin="round"/>
<path d="M358.974 76.2856C358.974 76.2856 363.452 94.0932 354.87 91.7332C346.288 89.3731 351.866 78.6457 351.866 78.6457" stroke="#07294A" stroke-width="0.539302" stroke-linecap="round" stroke-linejoin="round"/>
<path d="M270.323 55.1142L286.81 51.9316L234.46 26.7251L256.558 66.5136L261.708 60.919L265.541 67.7039L267.966 59.1185" fill="#79C9E7"/>
<path d="M324.088 70.2769C324.088 70.2769 302.958 76.7148 289.442 111.532C289.442 111.532 277.446 61.6195 274.581 58.6927C270.147 54.1633 263.925 50.9689 265.927 55.5459C267.93 60.123 269.932 60.9191 269.932 60.9191C269.932 60.9191 264.497 65.3892 268.216 68.7635" stroke="#07294A" stroke-width="0.539302" stroke-linecap="round" stroke-linejoin="round"/>
<path d="M262.471 51.9241C261.922 51.398 254.341 68.2758 263.925 77.859C263.925 77.859 246.761 210.879 330.412 130.781" stroke="#07294A" stroke-width="0.539302" stroke-linecap="round" stroke-linejoin="round"/>
<path d="M325.793 135.081C325.793 135.081 319.61 175.402 302.737 187.634V151.934C302.737 151.934 324.294 136.464 325.793 135.081Z" fill="#07294A"/>
<path d="M366.288 87.8782C366.288 87.8782 403.442 138.934 373.149 192.142" stroke="#07294A" stroke-width="0.539302" stroke-linecap="round" stroke-linejoin="round"/>
</g>
<defs>
<linearGradient id="paint0_linear_590_11913" x1="310" y1="0" x2="310" y2="394.433" gradientUnits="userSpaceOnUse">
<stop stop-color="#FFF2C5" stop-opacity="0"/>
<stop offset="1" stop-color="#FFF2C5"/>
</linearGradient>
<clipPath id="clip0_590_11913">
<rect width="620" height="394.433" fill="white"/>
</clipPath>
</defs>
</svg>
