<svg width="185" height="57" viewBox="0 0 185 57" fill="none" xmlns="http://www.w3.org/2000/svg">
<mask id="path-1-inside-1_608_1616" fill="white">
<path fill-rule="evenodd" clip-rule="evenodd" d="M28.8458 8.01524C29.8819 6.22055 32.1782 5.60642 33.9745 6.64356C35.7709 7.68069 36.3871 9.97634 35.351 11.771L32.1031 17.3965L32.0925 17.3904L25.5038 28.8022C25.3716 29.0313 25.45 29.3243 25.6792 29.4566C25.9083 29.5888 26.2012 29.5103 26.3335 29.2812L32.5172 18.5707C32.9794 18.6364 33.437 18.7899 33.8661 19.0377C35.1827 19.7978 35.8653 21.2339 35.7282 22.6534L30.4127 31.8601C30.2804 32.0892 30.3589 32.3822 30.588 32.5145C30.8171 32.6467 31.1101 32.5682 31.2423 32.3391L36.6788 22.9229C36.9252 23.003 37.167 23.1098 37.4004 23.2446C38.7454 24.0211 39.4288 25.5032 39.2524 26.9522C39.2551 26.9524 39.2579 26.9525 39.2606 26.9527L34.8974 34.51C34.7651 34.7391 34.8436 35.0321 35.0727 35.1643C35.3018 35.2966 35.5948 35.2181 35.7271 34.989L40.2563 27.1442C40.4877 27.2225 40.7149 27.3246 40.9346 27.4515C42.731 28.4886 43.3472 30.7842 42.3111 32.5789L39.0278 38.2657L36.4481 42.7339L34.9238 45.3741C31.621 51.0947 24.3018 53.0522 18.5759 49.7464C14.8345 47.5863 13.6105 45.2548 12.5157 42.4564C11.4209 39.6579 8.45335 25.8437 8.45335 25.8437C7.85898 23.8537 8.8018 21.7285 10.6758 20.8342C12.6628 19.8859 15.0465 20.6254 16.149 22.5322L17.8933 25.5489C18.0778 25.868 18.5386 25.8679 18.7229 25.5486L28.8458 8.01524Z"/>
</mask>
<path fill-rule="evenodd" clip-rule="evenodd" d="M28.8458 8.01524C29.8819 6.22055 32.1782 5.60642 33.9745 6.64356C35.7709 7.68069 36.3871 9.97634 35.351 11.771L32.1031 17.3965L32.0925 17.3904L25.5038 28.8022C25.3716 29.0313 25.45 29.3243 25.6792 29.4566C25.9083 29.5888 26.2012 29.5103 26.3335 29.2812L32.5172 18.5707C32.9794 18.6364 33.437 18.7899 33.8661 19.0377C35.1827 19.7978 35.8653 21.2339 35.7282 22.6534L30.4127 31.8601C30.2804 32.0892 30.3589 32.3822 30.588 32.5145C30.8171 32.6467 31.1101 32.5682 31.2423 32.3391L36.6788 22.9229C36.9252 23.003 37.167 23.1098 37.4004 23.2446C38.7454 24.0211 39.4288 25.5032 39.2524 26.9522C39.2551 26.9524 39.2579 26.9525 39.2606 26.9527L34.8974 34.51C34.7651 34.7391 34.8436 35.0321 35.0727 35.1643C35.3018 35.2966 35.5948 35.2181 35.7271 34.989L40.2563 27.1442C40.4877 27.2225 40.7149 27.3246 40.9346 27.4515C42.731 28.4886 43.3472 30.7842 42.3111 32.5789L39.0278 38.2657L36.4481 42.7339L34.9238 45.3741C31.621 51.0947 24.3018 53.0522 18.5759 49.7464C14.8345 47.5863 13.6105 45.2548 12.5157 42.4564C11.4209 39.6579 8.45335 25.8437 8.45335 25.8437C7.85898 23.8537 8.8018 21.7285 10.6758 20.8342C12.6628 19.8859 15.0465 20.6254 16.149 22.5322L17.8933 25.5489C18.0778 25.868 18.5386 25.8679 18.7229 25.5486L28.8458 8.01524Z" fill="#0071CB"/>
<path d="M28.8458 8.01524L29.6754 8.49426L28.8458 8.01524ZM35.351 11.771L34.5213 11.292L35.351 11.771ZM32.1031 17.3965L31.6241 18.2262L32.4538 18.7052L32.9328 17.8755L32.1031 17.3965ZM32.0925 17.3904L32.5715 16.5607L31.7418 16.0817L31.2628 16.9114L32.0925 17.3904ZM26.3335 29.2812L25.5038 28.8022L26.3335 29.2812ZM32.5172 18.5707L32.6521 17.6222L32.0112 17.5311L31.6876 18.0917L32.5172 18.5707ZM35.7282 22.6534L36.5578 23.1324L36.6618 22.9524L36.6818 22.7455L35.7282 22.6534ZM31.2423 32.3391L30.4127 31.8601L31.2423 32.3391ZM36.6788 22.9229L36.9748 22.0118L36.237 21.7721L35.8491 22.4439L36.6788 22.9229ZM39.2524 26.9522L38.3014 26.8365L38.1773 27.8557L39.2027 27.909L39.2524 26.9522ZM39.2606 26.9527L40.0903 27.4317L40.8708 26.0799L39.3121 25.996L39.2606 26.9527ZM40.2563 27.1442L40.5633 26.2367L39.8193 25.9849L39.4266 26.6651L40.2563 27.1442ZM42.3111 32.5789L43.1408 33.0579L42.3111 32.5789ZM39.0278 38.2657L38.1981 37.7867L39.0278 38.2657ZM36.4481 42.7339L37.2778 43.2129L37.2778 43.2129L36.4481 42.7339ZM34.9238 45.3741L34.0941 44.8951L34.9238 45.3741ZM8.45335 25.8437L9.39002 25.6425L9.3821 25.6057L9.37131 25.5695L8.45335 25.8437ZM10.6758 20.8342L10.2631 19.9696L10.2631 19.9696L10.6758 20.8342ZM16.149 22.5322L15.3197 23.0117L15.3197 23.0117L16.149 22.5322ZM17.8933 25.5489L17.064 26.0284L17.064 26.0284L17.8933 25.5489ZM18.7229 25.5486L17.8932 25.0696L18.7229 25.5486ZM34.4535 5.81388C32.1997 4.51261 29.3172 5.28258 28.0161 7.53622L29.6754 8.49426C30.4466 7.15851 32.1566 6.70024 33.4955 7.47324L34.4535 5.81388ZM36.1807 12.25C37.4818 9.9964 36.7074 7.11514 34.4535 5.81388L33.4955 7.47324C34.8344 8.24624 35.2925 9.95627 34.5213 11.292L36.1807 12.25ZM32.9328 17.8755L36.1807 12.25L34.5213 11.292L31.2734 16.9175L32.9328 17.8755ZM31.6134 18.2201L31.6241 18.2262L32.5821 16.5668L32.5715 16.5607L31.6134 18.2201ZM26.3335 29.2812L32.9221 17.8694L31.2628 16.9114L24.6741 28.3232L26.3335 29.2812ZM26.1582 28.6269C26.3873 28.7592 26.4658 29.0521 26.3335 29.2812L24.6741 28.3232C24.2773 29.0105 24.5128 29.8894 25.2001 30.2862L26.1582 28.6269ZM25.5038 28.8022C25.6361 28.5731 25.9291 28.4946 26.1582 28.6269L25.2001 30.2862C25.8875 30.6831 26.7664 30.4476 27.1632 29.7602L25.5038 28.8022ZM31.6876 18.0917L25.5038 28.8022L27.1632 29.7602L33.3469 19.0497L31.6876 18.0917ZM34.3451 18.208C33.8082 17.898 33.2335 17.7049 32.6521 17.6222L32.3824 19.5192C32.7253 19.568 33.0658 19.6819 33.3871 19.8674L34.3451 18.208ZM36.6818 22.7455C36.8537 20.9658 35.9983 19.1625 34.3451 18.208L33.3871 19.8674C34.367 20.4331 34.8769 21.5021 34.7746 22.5613L36.6818 22.7455ZM31.2423 32.3391L36.5578 23.1324L34.8985 22.1744L29.583 31.3811L31.2423 32.3391ZM31.067 31.6848C31.2961 31.8171 31.3746 32.11 31.2423 32.3391L29.583 31.3811C29.1862 32.0684 29.4217 32.9473 30.109 33.3441L31.067 31.6848ZM30.4127 31.8601C30.5449 31.631 30.8379 31.5525 31.067 31.6848L30.109 33.3441C30.7963 33.741 31.6752 33.5055 32.072 32.8181L30.4127 31.8601ZM35.8491 22.4439L30.4127 31.8601L32.072 32.8181L37.5085 23.4019L35.8491 22.4439ZM37.8794 22.4149C37.5876 22.2465 37.2845 22.1124 36.9748 22.0118L36.3828 23.8341C36.5659 23.8936 36.7463 23.9732 36.9213 24.0742L37.8794 22.4149ZM40.2034 27.068C40.4246 25.2508 39.5683 23.39 37.8794 22.4149L36.9213 24.0742C37.9224 24.6522 38.433 25.7555 38.3014 26.8365L40.2034 27.068ZM39.3121 25.996C39.3086 25.9958 39.3052 25.9957 39.3021 25.9955L39.2027 27.909C39.2051 27.9091 39.2072 27.9092 39.2092 27.9093L39.3121 25.996ZM35.7271 34.989L40.0903 27.4317L38.4309 26.4737L34.0677 34.031L35.7271 34.989ZM35.5517 34.3347C35.7809 34.4669 35.8593 34.7599 35.7271 34.989L34.0677 34.031C33.6709 34.7183 33.9064 35.5972 34.5937 35.994L35.5517 34.3347ZM34.8974 34.51C35.0297 34.2809 35.3226 34.2024 35.5517 34.3347L34.5937 35.994C35.281 36.3909 36.1599 36.1554 36.5568 35.468L34.8974 34.51ZM39.4266 26.6651L34.8974 34.51L36.5568 35.468L41.086 27.6232L39.4266 26.6651ZM41.4136 26.6218C41.139 26.4632 40.8542 26.3351 40.5633 26.2367L39.9492 28.0517C40.1213 28.1099 40.2908 28.186 40.4556 28.2811L41.4136 26.6218ZM43.1408 33.0579C44.4419 30.8043 43.6675 27.923 41.4136 26.6218L40.4556 28.2811C41.7945 29.0541 42.2526 30.7642 41.4814 32.0999L43.1408 33.0579ZM39.8575 38.7447L43.1408 33.0579L41.4814 32.0999L38.1981 37.7867L39.8575 38.7447ZM37.2778 43.2129L39.8575 38.7447L38.1981 37.7867L35.6184 42.2549L37.2778 43.2129ZM35.7534 45.8532L37.2778 43.2129L35.6185 42.2548L34.0941 44.8951L35.7534 45.8532ZM18.0968 50.5761C24.2803 54.1461 32.1857 52.0327 35.7534 45.8532L34.0941 44.8951C31.0563 50.1568 24.3233 51.9584 19.0549 48.9167L18.0968 50.5761ZM11.6235 42.8054C12.1805 44.2292 12.7983 45.6099 13.7895 46.919C14.7869 48.2365 16.1302 49.4406 18.0968 50.5761L19.0549 48.9167C17.2801 47.892 16.1407 46.8504 15.3171 45.7625C14.4872 44.6663 13.9457 43.482 13.4079 42.1073L11.6235 42.8054ZM8.45335 25.8437C7.51669 26.0449 7.5167 26.045 7.51673 26.0451C7.51675 26.0452 7.51679 26.0454 7.51684 26.0456C7.51693 26.0461 7.51707 26.0467 7.51726 26.0476C7.51763 26.0493 7.51817 26.0518 7.5189 26.0552C7.52035 26.0619 7.5225 26.072 7.52535 26.0852C7.53103 26.1116 7.53947 26.1507 7.55051 26.2018C7.57259 26.304 7.60509 26.4542 7.64682 26.6462C7.73029 27.0303 7.85069 27.5818 7.99859 28.2523C8.29434 29.593 8.70022 31.4105 9.14052 33.3163C10.0107 37.0825 11.0439 41.3238 11.6235 42.8054L13.4079 42.1073C12.8927 40.7905 11.8947 36.7254 11.0074 32.885C10.569 30.9873 10.1646 29.1764 9.86968 27.8395C9.72226 27.1712 9.60228 26.6217 9.51918 26.2393C9.47763 26.0481 9.4453 25.8988 9.42338 25.7973C9.41242 25.7465 9.40406 25.7078 9.39845 25.6817C9.39565 25.6687 9.39353 25.6588 9.39212 25.6523C9.39141 25.649 9.39088 25.6465 9.39053 25.6449C9.39036 25.6441 9.39022 25.6435 9.39014 25.6431C9.3901 25.6429 9.39007 25.6427 9.39004 25.6426C9.39002 25.6425 9.39002 25.6425 8.45335 25.8437ZM10.2631 19.9696C7.96307 21.0673 6.80599 23.6758 7.53539 26.1179L9.37131 25.5695C8.91198 24.0317 9.64053 22.3898 11.0884 21.6988L10.2631 19.9696ZM16.9784 22.0526C15.6259 19.7134 12.7015 18.8058 10.2631 19.9696L11.0884 21.6988C12.6241 20.9659 14.4672 21.5373 15.3197 23.0117L16.9784 22.0526ZM18.7227 25.0694L16.9784 22.0526L15.3197 23.0117L17.064 26.0284L18.7227 25.0694ZM17.8932 25.0696C18.0775 24.7504 18.5382 24.7502 18.7227 25.0693L17.064 26.0284C17.6175 26.9858 18.9996 26.9853 19.5525 26.0276L17.8932 25.0696ZM28.0161 7.53622L17.8932 25.0696L19.5525 26.0276L29.6754 8.49426L28.0161 7.53622Z" fill="#0071CB" mask="url(#path-1-inside-1_608_1616)"/>
<path fill-rule="evenodd" clip-rule="evenodd" d="M34.8697 45.4663C31.5416 51.1152 24.2708 53.0337 18.5759 49.7458C15.5454 47.9961 14.1666 46.1341 13.1702 44.0025C14.0347 38.8312 18.5309 34.8899 23.9477 34.8899C29.8653 34.8899 34.6843 39.5937 34.8697 45.4663Z" fill="#52BADE"/>
<path d="M54.5727 44.25C53.5066 44.25 52.5421 44.0977 51.679 43.7931C50.816 43.4885 50.0799 43.1332 49.4707 42.727C48.8869 42.3209 48.43 41.9655 48.1 41.6609C47.7954 41.3563 47.6431 41.204 47.6431 41.204C47.3131 40.8487 47.0085 40.4933 46.7293 40.1379C46.4501 39.7572 46.3105 39.3257 46.3105 38.8434C46.3105 38.4373 46.412 38.0311 46.6151 37.625C46.8435 37.1935 47.1862 36.7366 47.6431 36.2543C48.0746 35.7974 48.4934 35.4547 48.8996 35.2263C49.3057 34.9978 49.7118 34.8836 50.118 34.8836C50.6256 34.8836 51.0825 35.0359 51.4887 35.3405C51.9202 35.6451 52.3009 35.9751 52.6309 36.3304C52.7324 36.4066 52.8721 36.5208 53.0497 36.6731C53.2274 36.8 53.4559 36.9269 53.7351 37.0539C54.0143 37.1554 54.357 37.2062 54.7631 37.2062C55.1693 37.2062 55.5373 37.1427 55.8673 37.0158C56.2227 36.8635 56.5146 36.6604 56.743 36.4066C56.9969 36.1274 57.1872 35.8101 57.3141 35.4547C57.4411 35.074 57.5045 34.6551 57.5045 34.1982V20.9862C57.5045 20.4024 57.5553 19.8186 57.6568 19.2348C57.7837 18.6509 58.0883 18.1687 58.5706 17.7879C59.0783 17.4072 59.9159 17.2168 61.0836 17.2168C62.2004 17.2168 62.9873 17.3945 63.4442 17.7498C63.9265 18.1052 64.2184 18.5621 64.3199 19.1205C64.4469 19.6536 64.5103 20.1993 64.5103 20.7578V34.4648C64.5103 35.8101 64.2565 37.0792 63.7488 38.2723C63.2412 39.4399 62.5304 40.4806 61.6166 41.3944C60.7028 42.2828 59.6367 42.9809 58.4183 43.4885C57.2253 43.9962 55.9434 44.25 54.5727 44.25ZM82.1866 43.7931C81.0444 43.7931 80.1941 43.6028 79.6356 43.222C79.1026 42.8413 78.8487 42.4097 78.8741 41.9275H79.4072C79.2803 42.1051 79.0264 42.3463 78.6457 42.6509C78.2903 42.9301 77.808 43.1966 77.1988 43.4505C76.5896 43.6789 75.8408 43.7931 74.9524 43.7931C73.8101 43.7931 72.706 43.5393 71.6399 43.0316C70.5991 42.4986 69.66 41.7752 68.8223 40.8614C68.01 39.9476 67.3628 38.9195 66.8805 37.7773C66.3982 36.6097 66.1571 35.3912 66.1571 34.1221C66.1571 32.8783 66.3982 31.6853 66.8805 30.543C67.3628 29.4008 68.0227 28.3854 68.8604 27.497C69.698 26.5832 70.6372 25.8725 71.6779 25.3648C72.7187 24.8318 73.8101 24.5653 74.9524 24.5653C75.8154 24.5653 76.5388 24.6922 77.1227 24.946C77.7319 25.1998 78.2142 25.4791 78.5695 25.7837C78.9503 26.0883 79.2041 26.3421 79.331 26.5452H78.9122C78.8868 25.9106 79.1406 25.4156 79.6737 25.0602C80.2321 24.7049 81.0825 24.5272 82.2247 24.5272C83.367 24.5272 84.1665 24.7049 84.6234 25.0602C85.1057 25.3902 85.3976 25.8217 85.4992 26.3548C85.6007 26.8878 85.6515 27.4336 85.6515 27.992V40.3664C85.6515 40.9248 85.6007 41.4706 85.4992 42.0036C85.3976 42.5367 85.1057 42.9682 84.6234 43.2982C84.1665 43.6281 83.3543 43.7931 82.1866 43.7931ZM75.9043 36.9016C76.3866 36.9016 76.8181 36.7746 77.1988 36.5208C77.605 36.267 77.9222 35.937 78.1507 35.5309C78.4045 35.0993 78.5314 34.6424 78.5314 34.1602C78.5314 33.6525 78.4045 33.1956 78.1507 32.7895C77.9222 32.3833 77.605 32.0533 77.1988 31.7995C76.7927 31.5457 76.3358 31.4188 75.8281 31.4188C75.3204 31.4188 74.8509 31.5457 74.4193 31.7995C74.0132 32.0533 73.6832 32.396 73.4294 32.8275C73.1756 33.2337 73.0486 33.6906 73.0486 34.1982C73.0486 34.6805 73.1756 35.1247 73.4294 35.5309C73.7086 35.937 74.064 36.267 74.4955 36.5208C74.927 36.7746 75.3966 36.9016 75.9043 36.9016ZM90.9683 43.8693C89.826 43.8693 89.0138 43.7043 88.5315 43.3743C88.0492 43.0189 87.7573 42.5747 87.6558 42.0417C87.5796 41.4833 87.5415 40.9248 87.5415 40.3664V27.9539C87.5415 27.3701 87.5923 26.8244 87.6938 26.3167C87.7954 25.7837 88.0873 25.3521 88.5696 25.0222C89.0518 24.6922 89.8641 24.5272 91.0064 24.5272C92.1232 24.5272 92.9101 24.6795 93.367 24.9841C93.8493 25.2887 94.1412 25.6314 94.2427 26.0121C94.3443 26.3675 94.395 26.6467 94.395 26.8498L93.7858 26.6213C93.7858 26.6213 93.8874 26.5071 94.0904 26.2786C94.2935 26.0502 94.5854 25.7837 94.9662 25.4791C95.3723 25.1745 95.8419 24.9079 96.3749 24.6795C96.9334 24.451 97.5553 24.3368 98.2406 24.3368C98.4691 24.3368 98.7483 24.3622 99.0783 24.413C99.4336 24.4383 99.8017 24.5018 100.182 24.6033C100.589 24.7049 100.957 24.8572 101.287 25.0602C101.642 25.2633 101.921 25.5298 102.124 25.8598C102.353 26.1898 102.467 26.5959 102.467 27.0782C102.467 28.3474 102.188 29.4262 101.629 30.3146C101.096 31.203 100.386 31.6472 99.4971 31.6472C99.0148 31.6472 98.6721 31.6218 98.4691 31.5711C98.266 31.4949 98.1137 31.4314 98.0122 31.3807C97.936 31.3045 97.8345 31.2411 97.7076 31.1903C97.606 31.1142 97.403 31.0761 97.0984 31.0761C96.7176 31.0761 96.3623 31.1268 96.0323 31.2284C95.7277 31.3045 95.4484 31.4314 95.1946 31.6091C94.9662 31.7868 94.7885 32.0026 94.6616 32.2564C94.5346 32.4849 94.4712 32.7387 94.4712 33.0179V40.4425C94.4712 41.001 94.4204 41.5467 94.3189 42.0798C94.2174 42.6128 93.9254 43.0443 93.4432 43.3743C92.9609 43.7043 92.1359 43.8693 90.9683 43.8693ZM107.213 43.8693C106.07 43.8693 105.258 43.7043 104.776 43.3743C104.294 43.0189 104.002 42.5747 103.9 42.0417C103.824 41.5086 103.786 40.9629 103.786 40.4045V27.992C103.786 27.4336 103.837 26.9005 103.938 26.3929C104.04 25.8598 104.332 25.4283 104.814 25.0983C105.296 24.7429 106.108 24.5653 107.251 24.5653C108.393 24.5653 109.193 24.7429 109.649 25.0983C110.132 25.4283 110.424 25.8598 110.525 26.3929C110.627 26.9259 110.677 27.4843 110.677 28.0682V40.4425C110.677 41.001 110.627 41.5467 110.525 42.0798C110.424 42.6128 110.132 43.0443 109.649 43.3743C109.193 43.7043 108.38 43.8693 107.213 43.8693ZM107.213 22.6996C106.07 22.6996 105.258 22.5346 104.776 22.2046C104.294 21.8492 104.002 21.405 103.9 20.872C103.824 20.3389 103.786 19.7932 103.786 19.2348C103.786 18.6509 103.837 18.1052 103.938 17.5975C104.04 17.0645 104.332 16.633 104.814 16.303C105.296 15.973 106.108 15.808 107.251 15.808C108.393 15.808 109.193 15.9857 109.649 16.3411C110.132 16.671 110.424 17.1026 110.525 17.6356C110.627 18.1687 110.677 18.7144 110.677 19.2728C110.677 19.8313 110.627 20.377 110.525 20.9101C110.424 21.4431 110.132 21.8746 109.649 22.2046C109.193 22.5346 108.38 22.6996 107.213 22.6996Z" fill="#0071CB"/>
<path d="M117.401 43.8312C116.259 43.8312 115.447 43.6662 114.964 43.3362C114.482 42.9809 114.19 42.5367 114.089 42.0036C113.987 41.4452 113.936 40.8867 113.936 40.3283V20.6816C113.936 20.1232 113.987 19.5774 114.089 19.0444C114.19 18.5113 114.482 18.0798 114.964 17.7498C115.447 17.3945 116.272 17.2168 117.439 17.2168H125.016C125.981 17.2168 127.021 17.4198 128.138 17.826C129.255 18.2067 130.309 18.8032 131.299 19.6155C132.314 20.4278 133.139 21.4431 133.773 22.6615C134.408 23.8799 134.725 25.3268 134.725 27.0021C134.725 28.652 134.408 30.0861 133.773 31.3045C133.139 32.5229 132.314 33.5383 131.299 34.3505C130.309 35.1374 129.255 35.7339 128.138 36.1401C127.021 36.5208 125.968 36.7112 124.978 36.7112H120.904V40.3664C120.904 40.9248 120.853 41.4706 120.752 42.0036C120.65 42.5367 120.358 42.9809 119.876 43.3362C119.394 43.6662 118.569 43.8312 117.401 43.8312ZM120.904 29.7435H125.016C125.346 29.7435 125.727 29.6673 126.158 29.515C126.59 29.3373 126.971 29.0454 127.301 28.6393C127.631 28.2331 127.796 27.6747 127.796 26.964C127.796 26.4309 127.669 25.9613 127.415 25.5552C127.161 25.1237 126.818 24.7937 126.387 24.5653C125.981 24.3114 125.511 24.1845 124.978 24.1845H120.904V29.7435ZM139.741 43.8312C138.624 43.8312 137.824 43.6662 137.342 43.3362C136.86 43.0063 136.568 42.5747 136.466 42.0417C136.365 41.5086 136.314 40.9375 136.314 40.3283V20.6816C136.314 20.1232 136.365 19.5901 136.466 19.0825C136.568 18.5494 136.86 18.1179 137.342 17.7879C137.824 17.4325 138.649 17.2549 139.817 17.2549C140.604 17.2549 141.175 17.3056 141.53 17.4072C141.911 17.5087 142.178 17.6356 142.33 17.7879C142.508 17.9402 142.685 18.1179 142.863 18.321L150.744 28.4489H150.516L158.359 18.359C158.613 18.0798 158.842 17.8641 159.045 17.7118C159.273 17.5595 159.565 17.4452 159.921 17.3691C160.301 17.2929 160.834 17.2549 161.52 17.2549C162.662 17.2549 163.474 17.4325 163.956 17.7879C164.439 18.1179 164.731 18.5494 164.832 19.0825C164.934 19.6155 164.984 20.1739 164.984 20.7578V40.4045C164.984 40.9629 164.934 41.5086 164.832 42.0417C164.731 42.5747 164.439 43.0063 163.956 43.3362C163.474 43.6662 162.649 43.8312 161.482 43.8312C160.339 43.8312 159.527 43.6662 159.045 43.3362C158.562 42.9809 158.271 42.5367 158.169 42.0036C158.068 41.4452 158.017 40.8867 158.017 40.3283V29.515L153.562 35.5689C153.46 35.6959 153.308 35.8862 153.105 36.1401C152.902 36.3939 152.61 36.6223 152.229 36.8254C151.849 37.0285 151.316 37.13 150.63 37.13C149.945 37.13 149.399 37.0285 148.993 36.8254C148.612 36.6223 148.32 36.4066 148.117 36.1781C147.914 35.9243 147.762 35.7212 147.66 35.5689L143.244 29.5531V40.4045C143.244 40.9629 143.193 41.5086 143.091 42.0417C142.99 42.5747 142.698 43.0063 142.216 43.3362C141.733 43.6662 140.908 43.8312 139.741 43.8312ZM170.566 43.8693C169.424 43.8693 168.612 43.7043 168.129 43.3743C167.647 43.0189 167.355 42.5747 167.254 42.0417C167.152 41.4833 167.101 40.9248 167.101 40.3664V20.6816C167.101 20.1232 167.152 19.5774 167.254 19.0444C167.355 18.5113 167.647 18.0798 168.129 17.7498C168.612 17.3945 169.436 17.2168 170.604 17.2168C171.772 17.2168 172.584 17.3945 173.041 17.7498C173.523 18.0798 173.815 18.5113 173.917 19.0444C174.018 19.5774 174.069 20.1359 174.069 20.7197V40.4045C174.069 40.9629 174.018 41.5086 173.917 42.0417C173.815 42.5747 173.523 43.0189 173.041 43.3743C172.559 43.7043 171.734 43.8693 170.566 43.8693Z" fill="#52BADE"/>
</svg>
