<svg width="410" height="410" viewBox="0 0 410 410" fill="none" xmlns="http://www.w3.org/2000/svg">
<path d="M240.441 218.076C273.31 218.076 299.956 191.43 299.956 158.561C299.956 125.692 273.31 99.0461 240.441 99.0461C207.572 99.0461 180.926 125.692 180.926 158.561C180.926 191.43 207.572 218.076 240.441 218.076Z" fill="#F0F8FF"/>
<path fill-rule="evenodd" clip-rule="evenodd" d="M240.441 218.076C273.31 218.076 299.956 191.43 299.956 158.561C299.956 125.692 273.31 99.0461 240.441 99.0461C207.572 99.0461 180.926 125.692 180.926 158.561C180.926 191.43 207.572 218.076 240.441 218.076Z" stroke="#07294A" stroke-width="0.613527"/>
<rect x="218.805" y="84.0225" width="43.2705" height="149.077" fill="#F0F8FF"/>
<path d="M165.07 140.029L186.706 102.555L315.81 177.094L294.175 214.567L165.07 140.029Z" fill="#F0F8FF"/>
<path d="M186.707 214.567L165.072 177.094L294.177 102.555L315.812 140.028L186.707 214.567Z" fill="#F0F8FF"/>
<path d="M240.441 173.44C248.659 173.44 255.32 166.778 255.32 158.561C255.32 150.344 248.659 143.682 240.441 143.682C232.224 143.682 225.562 150.344 225.562 158.561C225.562 166.778 232.224 173.44 240.441 173.44Z" fill="#79C9E7"/>
<path d="M225.562 158.561C225.562 150.344 232.224 143.682 240.441 143.682" stroke="#07294A" stroke-width="0.613527"/>
<path d="M192.795 325.159C187.666 271.54 155.821 192.205 155.821 192.205L127.984 175.025L131.061 217.92L135.209 258.865L170.414 338.062L202.586 327.957L192.795 325.159Z" fill="#DFEFFF"/>
<path d="M147.526 181.707C147.526 181.707 153.801 284.129 136.078 332.622L139.78 338.061H108.256C108.256 338.061 104.812 207.786 104.812 179.668L147.526 181.707Z" fill="#F0F8FF"/>
<path d="M136.337 102.462V115.773L119.848 119.825V97.3628L136.337 93.3101V102.462Z" fill="#F0F8FF"/>
<path d="M127.023 107.067C127.266 107.067 127.464 106.87 127.464 106.626C127.464 106.383 127.266 106.185 127.023 106.185C126.779 106.185 126.582 106.383 126.582 106.626C126.582 106.87 126.779 107.067 127.023 107.067Z" fill="#07294A"/>
<path d="M133.796 107.067C134.04 107.067 134.237 106.87 134.237 106.626C134.237 106.383 134.04 106.185 133.796 106.185C133.553 106.185 133.355 106.383 133.355 106.626C133.355 106.87 133.553 107.067 133.796 107.067Z" fill="#07294A"/>
<path d="M131.809 109.256V102.462H135.212" stroke="#07294A" stroke-width="0.613527"/>
<path d="M126.191 102.462H129.595" stroke="#07294A" stroke-width="0.613527"/>
<path d="M120.933 105.943V108.303C119.661 108.303 118.629 107.271 118.629 105.998C118.629 105.927 118.632 105.858 118.638 105.788C118.767 104.357 120.933 104.506 120.933 105.943Z" fill="#F0F8FF"/>
<path d="M120.933 108.303C119.661 108.303 118.629 107.271 118.629 105.998" stroke="#07294A" stroke-width="0.613527"/>
<path d="M130.317 110.931C129.029 110.931 127.984 109.887 127.984 108.599" stroke="#79C9E7" stroke-width="0.613527" stroke-linecap="round" stroke-linejoin="round"/>
<path d="M136.337 115.772L119.848 119.825" stroke="#07294A" stroke-width="0.613527"/>
<path d="M131.809 109.262L130.32 109.628" stroke="#07294A" stroke-width="0.613527" stroke-linecap="round"/>
<path d="M136.897 96.6843C136.897 96.6843 132.79 99.7411 124.604 98.8085C124.604 98.8085 124.604 104.206 121.703 105.859" stroke="#07294A" stroke-width="0.613527"/>
<path d="M136.896 103.627C136.896 103.627 143.583 94.9227 133.912 92.4877C124.241 90.0527 119.785 94.8191 119.785 94.8191C119.785 94.8191 110.637 96.3215 120.34 113.056" stroke="#07294A" stroke-width="0.613527"/>
<path d="M104.813 143.661V179.668L155.821 192.205V152.103C155.821 137.884 146.114 125.501 132.305 122.107H132.305C125.683 120.48 118.68 121.987 113.314 126.194C107.947 130.401 104.813 136.842 104.812 143.661L104.813 143.661Z" fill="#79C9E7"/>
<path d="M147.527 181.707C147.527 181.707 153.802 284.129 136.078 332.622" stroke="#07294A" stroke-width="0.613527"/>
<path d="M110.17 129.198C110.17 129.198 82.3799 166.069 93.8014 187.816C105.223 209.564 160.324 176.833 160.946 171.03C161.567 165.227 148.608 168.336 148.608 168.336C148.608 168.336 150.169 157.767 143.538 168.129L118.63 170.823L126.712 151.343" stroke="#07294A" stroke-width="0.613527"/>
<path d="M121.34 164.288L118.629 170.823L137.3 168.803C132.96 166.528 127.459 164.924 121.34 164.288Z" fill="#07294A"/>
<path d="M104.969 194.958C105.011 197.74 105.061 200.741 105.118 203.925C118.277 203.817 135.387 196.701 143.11 189.08L143.113 189.081C143.212 188.984 143.306 188.887 143.401 188.79C143.427 188.764 143.453 188.738 143.478 188.712C143.608 188.578 143.734 188.444 143.858 188.311C143.88 188.286 143.903 188.262 143.925 188.238C144.05 188.102 144.171 187.966 144.289 187.83C144.308 187.808 144.328 187.786 144.347 187.764C144.467 187.625 144.582 187.487 144.695 187.348C144.711 187.329 144.727 187.309 144.743 187.29C144.857 187.148 144.968 187.006 145.074 186.865C145.086 186.848 145.099 186.832 145.111 186.816C145.22 186.671 145.325 186.526 145.425 186.382C145.434 186.369 145.443 186.356 145.452 186.343C145.555 186.195 145.653 186.048 145.746 185.9C145.753 185.89 145.759 185.88 145.766 185.87C145.861 185.72 145.952 185.569 146.039 185.419L146.05 185.399C146.138 185.246 146.221 185.093 146.299 184.941L146.306 184.929C146.385 184.773 146.459 184.619 146.529 184.464L146.531 184.46C146.893 183.682 147.118 182.847 147.196 181.991C134.925 189.142 117.077 196.592 104.969 194.958Z" fill="#07294A"/>
<path d="M140.988 168.404L141.4 167.147C142.396 164.101 145 161.86 148.16 161.329L165.273 158.451C168.038 157.986 170.771 159.436 171.938 161.985V161.985C171.994 162.108 172.125 162.179 172.258 162.159L207.988 156.83L208.439 155.299C208.627 154.662 209.25 154.256 209.909 154.342L217.142 155.291C217.774 155.374 218.246 155.912 218.246 156.549V157.421C218.246 157.942 217.927 158.411 217.442 158.602L211.346 161.002C210.52 161.327 209.578 161.076 209.024 160.383L208.299 159.477L172.542 165.668C172.449 165.684 172.37 165.742 172.326 165.825L172.191 166.078C169.865 170.45 165.671 173.522 160.8 174.419L157.513 175.024" stroke="#07294A" stroke-width="0.613527"/>
<path d="M139.148 124.677C139.148 124.677 153.742 130.878 175.191 161.307" stroke="#07294A" stroke-width="0.613527"/>
<path d="M155.824 182.843C155.824 182.843 180.633 191.546 187.472 185.122C194.311 178.698 196.383 161.307 196.383 161.307" stroke="#07294A" stroke-width="0.613527"/>
<path d="M196.385 158.561C196.385 158.561 197.887 143.623 197.732 139.271C197.732 139.271 200.3 140.67 202.591 139.893C202.591 139.893 204.104 142.38 205.192 142.224C206.28 142.069 205.814 136.94 201.617 131.655C197.421 126.371 178.727 126.405 173.23 158.561" stroke="#07294A" stroke-width="0.613527"/>
<path d="M112.741 302.704C111.384 298.904 107.407 303.923 107.407 303.923C107.407 303.923 112.198 293.746 107.407 291.438C105.044 290.3 103.801 291.639 103.147 293.288C105.598 278.49 106.127 249.949 96.2331 248.955C85.426 247.869 89.1237 275.287 89.1237 275.287C89.1237 275.287 86.1377 267.414 82.3374 270.943C78.5371 274.472 85.8662 297.546 85.8662 297.546C85.0518 295.103 80.7084 293.203 79.0797 297.546C77.4509 301.89 83.6945 311.119 83.6945 311.119L105.14 314.648C105.14 314.648 114.098 306.505 112.741 302.704Z" fill="#07294A"/>
<path d="M111.147 337.452H80.439L73.6484 310.011H117.938L111.147 337.452Z" fill="#79C9E7"/>
<path d="M46.2031 337.452H148.607" stroke="#07294A" stroke-width="0.613527"/>
<path d="M73.6484 310.011H117.938" stroke="#07294A" stroke-width="0.613527"/>
<path d="M359.44 337.452H246.781L289.974 241.305H359.44V337.452Z" fill="#07294A"/>
<rect x="200.18" y="323.717" width="73.473" height="13.7354" fill="#F0F8FF"/>
<rect x="212.449" y="309.982" width="73.473" height="13.7354" fill="#F0F8FF"/>
<rect x="224.719" y="296.246" width="73.473" height="13.7354" fill="#F0F8FF"/>
<rect x="236.984" y="282.511" width="73.473" height="13.7354" fill="#F0F8FF"/>
<rect x="249.254" y="268.775" width="73.473" height="13.7354" fill="#F0F8FF"/>
<rect x="261.523" y="255.04" width="73.473" height="13.7354" fill="#F0F8FF"/>
<rect x="273.789" y="241.305" width="73.473" height="13.7354" fill="#F0F8FF"/>
<path d="M200.18 323.717H273.653V337.452H200.18" stroke="#07294A" stroke-width="0.613527"/>
<path d="M212.449 309.982H285.922V323.717H212.449" stroke="#07294A" stroke-width="0.613527"/>
<path d="M224.719 296.246H298.192V309.982H224.719" stroke="#07294A" stroke-width="0.613527"/>
<path d="M236.984 282.511H310.458V296.246H236.984" stroke="#07294A" stroke-width="0.613527"/>
<path d="M249.254 268.776H322.727V282.511H249.254" stroke="#07294A" stroke-width="0.613527"/>
<path d="M261.523 255.04H334.996V268.775" stroke="#07294A" stroke-width="0.613527"/>
<path d="M273.793 241.305H347.266V255.04H273.793" stroke="#07294A" stroke-width="0.613527"/>
<path d="M195.82 337.452H363.798" stroke="#07294A" stroke-width="0.613527"/>
</svg>
