<svg width="318" height="254" viewBox="0 0 318 254" fill="none" xmlns="http://www.w3.org/2000/svg">
<g clip-path="url(#clip0_560_54717)">
<path d="M194.441 134.076C227.31 134.076 253.956 107.43 253.956 74.5612C253.956 41.6919 227.31 15.0461 194.441 15.0461C161.572 15.0461 134.926 41.6919 134.926 74.5612C134.926 107.43 161.572 134.076 194.441 134.076Z" fill="#F0F8FF"/>
<path fill-rule="evenodd" clip-rule="evenodd" d="M194.441 134.076C227.31 134.076 253.956 107.43 253.956 74.5612C253.956 41.6919 227.31 15.0461 194.441 15.0461C161.572 15.0461 134.926 41.6919 134.926 74.5612C134.926 107.43 161.572 134.076 194.441 134.076Z" stroke="#07294A" stroke-width="0.613527"/>
<rect x="172.805" y="0.0224609" width="43.2705" height="149.077" fill="#F0F8FF"/>
<path d="M119.07 56.0286L140.706 18.5553L269.81 93.0939L248.175 130.567L119.07 56.0286Z" fill="#F0F8FF"/>
<path d="M140.707 130.567L119.072 93.0938L248.177 18.5552L269.812 56.0285L140.707 130.567Z" fill="#F0F8FF"/>
<path d="M194.441 89.4399C202.659 89.4399 209.32 82.7784 209.32 74.5611C209.32 66.3438 202.659 59.6824 194.441 59.6824C186.224 59.6824 179.562 66.3438 179.562 74.5611C179.562 82.7784 186.224 89.4399 194.441 89.4399Z" fill="#79C9E7"/>
<path d="M179.562 74.5611C179.562 66.3438 186.224 59.6824 194.441 59.6824" stroke="#07294A" stroke-width="0.613527"/>
<path d="M146.795 241.159C141.666 187.54 109.821 108.205 109.821 108.205L81.9844 91.0247L85.0612 133.92L89.2094 174.865L124.414 254.062L156.586 243.957L146.795 241.159Z" fill="#DFEFFF"/>
<path d="M101.526 97.707C101.526 97.707 107.801 200.129 90.0778 248.622L93.7799 254.061H62.2564C62.2564 254.061 58.8125 123.786 58.8125 95.6682L101.526 97.707Z" fill="#F0F8FF"/>
<path d="M90.3369 18.462V31.7727L73.8477 35.8255V13.3628L90.3369 9.31006V18.462Z" fill="#F0F8FF"/>
<path d="M81.0229 23.0671C81.2664 23.0671 81.4638 22.8697 81.4638 22.6262C81.4638 22.3827 81.2664 22.1853 81.0229 22.1853C80.7794 22.1853 80.582 22.3827 80.582 22.6262C80.582 22.8697 80.7794 23.0671 81.0229 23.0671Z" fill="#07294A"/>
<path d="M87.7964 23.0671C88.0399 23.0671 88.2372 22.8697 88.2372 22.6262C88.2372 22.3827 88.0399 22.1853 87.7964 22.1853C87.5529 22.1853 87.3555 22.3827 87.3555 22.6262C87.3555 22.8697 87.5529 23.0671 87.7964 23.0671Z" fill="#07294A"/>
<path d="M85.8086 25.2564V18.4619H89.2124" stroke="#07294A" stroke-width="0.613527"/>
<path d="M80.1914 18.4619H83.5952" stroke="#07294A" stroke-width="0.613527"/>
<path d="M74.9334 21.9432V24.3027C73.6607 24.3027 72.6289 23.2709 72.6289 21.9982C72.6289 21.9275 72.632 21.8575 72.6383 21.7884C72.7674 20.3574 74.9334 20.5064 74.9334 21.9432Z" fill="#F0F8FF"/>
<path d="M74.9334 24.3026C73.6607 24.3026 72.6289 23.2708 72.6289 21.998" stroke="#07294A" stroke-width="0.613527"/>
<path d="M84.3168 26.9313C83.0287 26.9313 81.9844 25.8871 81.9844 24.5989" stroke="#79C9E7" stroke-width="0.613527" stroke-linecap="round" stroke-linejoin="round"/>
<path d="M90.3369 31.7725L73.8477 35.8253" stroke="#07294A" stroke-width="0.613527"/>
<path d="M85.809 25.2618L84.3203 25.6277" stroke="#07294A" stroke-width="0.613527" stroke-linecap="round"/>
<path d="M90.8966 12.6843C90.8966 12.6843 86.7902 15.7411 78.6044 14.8085C78.6044 14.8085 78.6044 20.2059 75.7031 21.8591" stroke="#07294A" stroke-width="0.613527"/>
<path d="M90.8957 19.6266C90.8957 19.6266 97.5829 10.9227 87.9119 8.48768C78.2408 6.05266 73.7853 10.8191 73.7853 10.8191C73.7853 10.8191 64.6369 12.3215 74.3402 29.0558" stroke="#07294A" stroke-width="0.613527"/>
<path d="M58.8125 59.6611V95.6682L109.821 108.205V68.1033C109.821 53.8838 100.114 41.5014 86.3052 38.1075H86.3051C79.683 36.4799 72.6803 37.9867 67.3137 42.194C61.9472 46.4013 58.8125 52.8419 58.8125 59.6611L58.8125 59.6611Z" fill="#79C9E7"/>
<path d="M101.527 97.707C101.527 97.707 107.802 200.129 90.0781 248.622" stroke="#07294A" stroke-width="0.613527"/>
<path d="M64.1702 45.1982C64.1702 45.1982 36.3799 82.0686 47.8014 103.816C59.2229 125.564 114.324 92.8326 114.946 87.03C115.567 81.2274 102.608 84.3359 102.608 84.3359C102.608 84.3359 104.169 73.7669 97.5379 84.1287L72.6305 86.8227L80.7117 67.3426" stroke="#07294A" stroke-width="0.613527"/>
<path d="M75.3397 80.2883L72.6289 86.8228L91.3003 84.8032C86.9604 82.5284 81.4594 80.9242 75.3397 80.2883Z" fill="#07294A"/>
<path d="M58.9688 110.958C59.0111 113.74 59.0612 116.741 59.118 119.925C72.2767 119.817 89.3871 112.701 97.1102 105.08L97.1135 105.081C97.2119 104.984 97.3059 104.887 97.4013 104.79C97.4267 104.764 97.4527 104.738 97.4779 104.712C97.6078 104.578 97.7338 104.444 97.8578 104.311C97.8801 104.286 97.9032 104.262 97.9253 104.238C98.0501 104.102 98.1709 103.966 98.2894 103.83C98.3085 103.808 98.3282 103.786 98.3472 103.764C98.4666 103.625 98.5819 103.487 98.6946 103.348C98.7105 103.329 98.727 103.309 98.7428 103.29C98.8571 103.148 98.9676 103.006 99.0743 102.865C99.0864 102.848 99.0991 102.832 99.1111 102.816C99.2199 102.671 99.3246 102.526 99.4252 102.382C99.4341 102.369 99.4435 102.356 99.4524 102.343C99.5547 102.195 99.6527 102.048 99.7465 101.9C99.7528 101.89 99.7595 101.88 99.7657 101.87C99.8612 101.72 99.9522 101.569 100.039 101.419L100.05 101.399C100.138 101.246 100.221 101.093 100.299 100.941L100.306 100.929C100.385 100.773 100.459 100.619 100.529 100.464L100.531 100.46C100.893 99.6817 101.118 98.8465 101.196 97.9915C88.9246 105.142 71.0768 112.592 58.9688 110.958Z" fill="#07294A"/>
<path d="M94.9883 84.4044L95.3995 83.1469C96.3955 80.1012 98.9996 77.86 102.16 77.3287L119.273 74.4513C122.038 73.9864 124.771 75.4356 125.938 77.9854V77.9854C125.994 78.1083 126.125 78.1791 126.258 78.1592L161.988 72.8302L162.439 71.2988C162.627 70.6616 163.25 70.2557 163.909 70.3421L171.142 71.2907C171.774 71.3735 172.246 71.912 172.246 72.5492V73.4207C172.246 73.9422 171.927 74.4106 171.442 74.6017L165.346 77.0018C164.52 77.3271 163.578 77.0761 163.024 76.3829L162.299 75.4766L126.542 81.6683C126.449 81.6843 126.37 81.7421 126.326 81.8248L126.191 82.078C123.865 86.4503 119.671 89.5217 114.8 90.4188L111.513 91.0244" stroke="#07294A" stroke-width="0.613527"/>
<path d="M93.1484 40.677C93.1484 40.677 107.742 46.8781 129.191 77.307" stroke="#07294A" stroke-width="0.613527"/>
<path d="M109.824 98.8425C109.824 98.8425 134.633 107.546 141.472 101.122C148.311 94.6978 150.383 77.3071 150.383 77.3071" stroke="#07294A" stroke-width="0.613527"/>
<path d="M150.385 74.5612C150.385 74.5612 151.887 59.6232 151.732 55.2712C151.732 55.2712 154.3 56.6701 156.591 55.8929C156.591 55.8929 158.104 58.3798 159.192 58.2243C160.28 58.0689 159.814 52.9398 155.617 47.6553C151.421 42.3708 132.727 42.4049 127.23 74.5612" stroke="#07294A" stroke-width="0.613527"/>
<path d="M66.7409 218.704C65.3836 214.904 61.4073 219.923 61.4073 219.923C61.4073 219.923 66.198 209.746 61.4073 207.438C59.0441 206.3 57.8006 207.639 57.1466 209.288C59.5979 194.49 60.1268 165.949 50.2331 164.955C39.426 163.869 43.1237 191.287 43.1237 191.287C43.1237 191.287 40.1377 183.414 36.3374 186.943C32.5371 190.472 39.8662 213.546 39.8662 213.546C39.0518 211.103 34.7084 209.203 33.0797 213.546C31.4509 217.89 37.6945 227.119 37.6945 227.119L59.14 230.648C59.14 230.648 68.0982 222.505 66.7409 218.704Z" fill="#07294A"/>
<path d="M65.1471 253.452H34.439L27.6484 226.011H71.9377L65.1471 253.452Z" fill="#79C9E7"/>
<path d="M0.203125 253.452H102.607" stroke="#07294A" stroke-width="0.613527"/>
<path d="M27.6484 226.011H71.9377" stroke="#07294A" stroke-width="0.613527"/>
<path d="M313.44 253.452H200.781L243.974 157.305H313.44V253.452Z" fill="#07294A"/>
<rect x="154.18" y="239.717" width="73.473" height="13.7354" fill="#F0F8FF"/>
<rect x="166.449" y="225.982" width="73.473" height="13.7354" fill="#F0F8FF"/>
<rect x="178.719" y="212.246" width="73.473" height="13.7354" fill="#F0F8FF"/>
<rect x="190.984" y="198.511" width="73.473" height="13.7354" fill="#F0F8FF"/>
<rect x="203.254" y="184.775" width="73.473" height="13.7354" fill="#F0F8FF"/>
<rect x="215.523" y="171.04" width="73.473" height="13.7354" fill="#F0F8FF"/>
<rect x="227.789" y="157.305" width="73.473" height="13.7354" fill="#F0F8FF"/>
<path d="M154.18 239.717H227.653V253.452H154.18" stroke="#07294A" stroke-width="0.613527"/>
<path d="M166.449 225.982H239.922V239.717H166.449" stroke="#07294A" stroke-width="0.613527"/>
<path d="M178.719 212.246H252.192V225.982H178.719" stroke="#07294A" stroke-width="0.613527"/>
<path d="M190.984 198.511H264.458V212.246H190.984" stroke="#07294A" stroke-width="0.613527"/>
<path d="M203.254 184.776H276.727V198.511H203.254" stroke="#07294A" stroke-width="0.613527"/>
<path d="M215.523 171.04H288.996V184.775" stroke="#07294A" stroke-width="0.613527"/>
<path d="M227.793 157.305H301.266V171.04H227.793" stroke="#07294A" stroke-width="0.613527"/>
<path d="M149.82 253.452H317.798" stroke="#07294A" stroke-width="0.613527"/>
</g>
<defs>
<clipPath id="clip0_560_54717">
<rect width="317.398" height="254" fill="white" transform="translate(0.300781)"/>
</clipPath>
</defs>
</svg>
