<svg width="200" height="201" viewBox="0 0 200 201" fill="none" xmlns="http://www.w3.org/2000/svg">
<g clip-path="url(#clip0_721_12545)">
<path d="M139.11 239.632C140.464 192.716 119.484 104.657 119.484 104.657L90.8301 84.9003V176.927L117.827 245.775H143.089L139.11 239.632Z" fill="#79C9E7"/>
<path d="M119.484 177.128C119.484 142.122 109.072 113.744 96.2285 113.744C94.2994 113.777 92.4224 114.375 90.8301 115.464V176.927L110.518 227.136C115.975 215.537 119.484 197.45 119.484 177.128Z" fill="#07294A"/>
<path d="M110.973 94.4994C110.973 94.4994 117.044 193.595 99.8963 240.513L103.478 245.775H72.9785C72.9785 245.775 69.6465 119.732 69.6465 92.5269L110.973 94.4994Z" fill="#79C9E7"/>
<path d="M102.786 17.8282V30.7066L86.832 34.6276V12.8946L102.786 8.97363V17.8282Z" fill="#F0F8FF"/>
<path d="M93.7742 22.2839C94.0098 22.2839 94.2008 22.0929 94.2008 21.8574C94.2008 21.6218 94.0098 21.4308 93.7742 21.4308C93.5386 21.4308 93.3477 21.6218 93.3477 21.8574C93.3477 22.0929 93.5386 22.2839 93.7742 22.2839Z" fill="#07294A"/>
<path d="M100.325 22.2839C100.561 22.2839 100.752 22.0929 100.752 21.8574C100.752 21.6218 100.561 21.4308 100.325 21.4308C100.089 21.4308 99.8984 21.6218 99.8984 21.8574C99.8984 22.0929 100.089 22.2839 100.325 22.2839Z" fill="#07294A"/>
<path d="M98.4043 24.4019V17.8282H101.698" stroke="#07294A" stroke-width="0.378" stroke-linecap="round" stroke-linejoin="round"/>
<path d="M92.9707 17.8282H96.264" stroke="#07294A" stroke-width="0.378" stroke-linecap="round" stroke-linejoin="round"/>
<path d="M87.884 21.1965V23.4793C86.6526 23.4793 85.6543 22.481 85.6543 21.2496C85.6543 21.1812 85.6573 21.1136 85.6634 21.0467C85.7883 19.6621 87.884 19.8063 87.884 21.1965Z" fill="#F0F8FF"/>
<path d="M87.884 23.4793C86.6526 23.4793 85.6543 22.481 85.6543 21.2496" stroke="#07294A" stroke-width="0.378" stroke-linecap="round" stroke-linejoin="round"/>
<path d="M96.9637 26.0225C96.3652 26.0225 95.7912 25.7847 95.368 25.3615C94.9448 24.9383 94.707 24.3643 94.707 23.7657" stroke="#79C9E7" stroke-width="0.378" stroke-linecap="round" stroke-linejoin="round"/>
<path d="M90.8308 33.6448L86.832 34.6276" stroke="#07294A" stroke-width="0.378" stroke-linecap="round" stroke-linejoin="round"/>
<path d="M98.4033 24.4072L96.9629 24.7612" stroke="#07294A" stroke-width="0.378" stroke-linecap="round" stroke-linejoin="round"/>
<path d="M88.5123 23.4793C88.5123 23.4793 87.1589 34.1989 95.2794 34.3994C103.4 34.5999 104.076 29.1361 102.785 22.5696" stroke="#07294A" stroke-width="0.378" stroke-linecap="round" stroke-linejoin="round"/>
<path d="M86.0411 20.3069C86.0411 20.3069 83.0479 11.7423 87.3086 8.2335C91.5693 4.72467 104.853 7.73224 104.352 11.1909C103.85 14.6496 91.8701 14.9003 91.8701 14.9003C91.8701 14.9003 91.6195 18.2086 89.9152 18.76C89.9152 18.76 89.7147 22.0046 90.4164 23.7658" stroke="#07294A" stroke-width="0.378" stroke-linecap="round" stroke-linejoin="round"/>
<path d="M70.1328 57.6893V92.5269L119.485 104.657V65.8572C119.485 52.0995 110.093 40.1193 96.7325 36.8357H96.7325C90.3255 35.2609 83.5502 36.7188 78.3579 40.7894C73.1657 44.8601 70.1328 51.0916 70.1328 57.6893V57.6893Z" fill="#F0F8FF"/>
<path d="M108.426 77.822L112.016 64.7758L125.456 66.4299L119.485 86.5806L106.959 84.9003" fill="#79C9E7"/>
<path d="M110.973 94.4994C110.973 94.4994 117.045 193.595 99.8965 240.513" stroke="#07294A" stroke-width="0.378" stroke-linecap="round" stroke-linejoin="round"/>
<path d="M77.2711 41.703C77.2711 41.703 52.4218 69.5502 57.6349 92.5268C62.848 115.503 115.733 94.5984 116.96 84.9002C118.187 75.202 108.764 81.4177 108.764 81.4177C108.764 81.4177 109.359 76.2297 107.555 78.2347C105.751 80.2398 104.384 81.8514 104.384 81.8514L83.099 79.4126L88.428 67.5828" stroke="#07294A" stroke-width="0.378" stroke-linecap="round" stroke-linejoin="round"/>
<path d="M125.456 63.4702C120.493 65.9241 119.485 61.9187 119.485 61.9187C118.627 62.2194 115.902 65.2542 116.207 61.9187C116.344 60.0134 117.651 58.3941 119.485 57.8584C119.485 57.8584 132.523 54.5815 133.576 70.4308C134.629 86.28 127.102 96.4005 119.485 93.6485" stroke="#07294A" stroke-width="0.378" stroke-linecap="round" stroke-linejoin="round"/>
<path d="M107.848 42.1888C113.477 46.2684 118.149 51.5253 121.541 57.5939" stroke="#07294A" stroke-width="0.378" stroke-linecap="round" stroke-linejoin="round"/>
</g>
<defs>
<clipPath id="clip0_721_12545">
<rect width="200" height="200" fill="white" transform="translate(0 0.102539)"/>
</clipPath>
</defs>
</svg>
