<svg width="200" height="201" viewBox="0 0 200 201" fill="none" xmlns="http://www.w3.org/2000/svg">
<g clip-path="url(#clip0_721_12428)">
<rect width="200" height="200" transform="translate(0 0.102539)" fill="none"/>
<path d="M65.2533 105.74C65.2533 105.74 42.7646 163.001 49.0329 185.387C55.3012 207.774 121.566 161.657 121.566 161.657L130.521 166.135L119.328 136.136L80.6574 145.986L87.9196 85.5419" fill="#79C9E7"/>
<path d="M97.6624 19.5613V32.3434L81.8281 36.2353V14.6649L97.6624 10.7729V19.5613Z" fill="#F0F8FF"/>
<path d="M88.7183 23.9837C88.9521 23.9837 89.1417 23.7942 89.1417 23.5603C89.1417 23.3265 88.9521 23.137 88.7183 23.137C88.4845 23.137 88.2949 23.3265 88.2949 23.5603C88.2949 23.7942 88.4845 23.9837 88.7183 23.9837Z" fill="#07294A"/>
<path d="M95.2203 23.9837C95.4541 23.9837 95.6436 23.7942 95.6436 23.5603C95.6436 23.3265 95.4541 23.137 95.2203 23.137C94.9864 23.137 94.7969 23.3265 94.7969 23.5603C94.7969 23.7942 94.9864 23.9837 95.2203 23.9837Z" fill="#07294A"/>
<path d="M93.3125 26.0857V19.5613H96.5812" stroke="#07294A" stroke-width="0.378" stroke-linecap="round" stroke-linejoin="round"/>
<path d="M87.9199 19.5614H91.1885" stroke="#07294A" stroke-width="0.378" stroke-linecap="round" stroke-linejoin="round"/>
<path d="M82.8712 22.9044V25.1702C81.649 25.1702 80.6582 24.1794 80.6582 22.9572C80.6582 22.8893 80.6612 22.8221 80.6672 22.7557C80.7912 21.3815 82.8712 21.5246 82.8712 22.9044Z" fill="#F0F8FF"/>
<path d="M82.8712 25.1701C81.649 25.1701 80.6582 24.1794 80.6582 22.9572" stroke="#07294A" stroke-width="0.378" stroke-linecap="round" stroke-linejoin="round"/>
<path d="M91.8824 27.6943C90.6454 27.6943 89.6426 26.6915 89.6426 25.4545" stroke="#79C9E7" stroke-width="0.378" stroke-linecap="round" stroke-linejoin="round"/>
<path d="M97.6625 32.3433L81.8281 36.2351" stroke="#07294A" stroke-width="0.378" stroke-linecap="round" stroke-linejoin="round"/>
<path d="M93.3124 26.0911L91.8828 26.4424" stroke="#07294A" stroke-width="0.378" stroke-linecap="round" stroke-linejoin="round"/>
<path d="M83.2422 19.5613C83.2422 19.5613 90.4479 18.5654 91.8823 15.8042L92.5971 18.043C92.5971 18.043 95.4995 17.1475 96.5806 15.1326L97.6616 18.1923" stroke="#07294A" stroke-width="0.378" stroke-linecap="round" stroke-linejoin="round"/>
<path d="M97.6613 21.0281C97.6613 21.0281 106.65 6.62512 90.4516 8.88699L92.5969 6.62512C92.5969 6.62512 87.5703 7.44602 84.8837 10.3565C84.8837 10.3565 74.2686 12.4242 80.9941 22.0619" stroke="#07294A" stroke-width="0.378" stroke-linecap="round" stroke-linejoin="round"/>
<path d="M114.237 59.1242V93.7011L65.2539 105.74V67.231C65.2539 53.5763 74.5759 41.6857 87.836 38.4266H87.836C94.1951 36.8637 100.92 38.3106 106.073 42.3508C111.227 46.391 114.237 52.5759 114.237 59.1242V59.1242Z" fill="#F0F8FF"/>
<path d="M75.0114 103.342C75.0114 103.342 67.1928 194.013 84.2125 240.58L80.6574 245.803H110.929C110.929 245.803 114.236 120.703 114.236 93.7012" fill="#79C9E7"/>
<path d="M75.0114 103.342C75.0114 103.342 67.1928 194.013 84.2125 240.58" stroke="#07294A" stroke-width="0.378" stroke-linecap="round" stroke-linejoin="round"/>
<path d="M106.133 42.3989C106.133 42.3989 111.786 45.8406 123.41 63.3042C123.41 63.3042 145.756 38.5527 150.93 37.8003C156.104 37.048 161.278 37.8003 161.278 37.8003V40.63L157.497 42.0231C157.497 42.0231 160.283 47.9932 154.114 50.3813C154.114 50.3813 134.372 122.6 104.322 89.3659" stroke="#07294A" stroke-width="0.378" stroke-linecap="round" stroke-linejoin="round"/>
<path d="M74.3657 45.8407C74.3657 45.8407 44.8599 66.3017 39.2878 86.7991C33.7156 107.297 87.1992 95.3563 87.9201 94.5603C88.6409 93.7643 91.8831 85.5418 91.8831 85.5418L95.6438 83.4161V79.834L61.4768 80.232" stroke="#07294A" stroke-width="0.378" stroke-linecap="round" stroke-linejoin="round"/>
<path d="M65.2539 100.804C68.2036 102.018 71.365 102.636 74.555 102.62C85.144 102.62 93.728 96.1605 93.728 88.1922C93.726 87.0413 93.5447 85.8978 93.1908 84.8027L91.8832 85.5419C91.8832 85.5419 88.641 93.7643 87.9202 94.5603C87.5974 94.9168 76.6956 97.507 65.2539 98.4195V100.804Z" fill="#07294A"/>
</g>
<defs>
<clipPath id="clip0_721_12428">
<rect width="200" height="200" fill="white" transform="translate(0 0.102539)"/>
</clipPath>
</defs>
</svg>
