<svg width="200" height="201" viewBox="0 0 200 201" fill="none" xmlns="http://www.w3.org/2000/svg">
<g clip-path="url(#clip0_721_12487)">
<rect width="200" height="200" transform="translate(0 0.102539)" fill="none"/>
<path d="M84.3872 92.6178L59.7422 94.1985L88.1657 144.662L66.8387 203.537L94.1986 220.967L93.9319 212.248C93.9319 212.248 112.496 192.122 126.614 146.765C140.732 101.408 84.3872 92.6178 84.3872 92.6178Z" fill="#DFEFFF"/>
<path d="M105.187 138.655L88.3658 135.651L84.1212 137.482L88.1656 144.662L83.7715 156.792V156.792C83.7715 156.792 101.753 164.101 111.844 183.944C112.677 182.275 113.519 180.53 114.37 178.706C111.653 163.919 105.187 138.655 105.187 138.655Z" fill="#07294A"/>
<path d="M183.667 84.2525H105.238L110.618 37.2025H189.047L183.667 84.2525Z" fill="#F0F8FF"/>
<path fill-rule="evenodd" clip-rule="evenodd" d="M180.552 80.239H102.123L107.503 33.1891H185.931L180.552 80.239Z" stroke="#07294A" stroke-width="0.378" stroke-linecap="round" stroke-linejoin="round"/>
<path d="M146.703 98.0768L148.743 80.239H136.2L134.16 98.0768H146.703Z" fill="#07294A"/>
<path d="M148.242 202.335C148.242 202.335 142.743 95.8753 69.7456 96.2158L35.0978 104.732C35.0978 104.732 26.484 151.975 98.5715 149.272L124.703 216.854L153.088 206.942L148.242 202.335Z" fill="#F0F8FF"/>
<path d="M148.243 202.335C148.243 202.335 142.744 95.8753 69.7461 96.2158" stroke="#07294A" stroke-width="0.378" stroke-linecap="round" stroke-linejoin="round"/>
<path d="M35.0978 104.732C35.0978 104.732 26.484 151.975 98.5715 149.272L124.703 216.854" stroke="#07294A" stroke-width="0.378" stroke-linecap="round" stroke-linejoin="round"/>
<path d="M67.709 18.0128V30.875L51.7754 34.7914V13.0857L67.709 9.16931V18.0128Z" fill="#F0F8FF"/>
<path d="M58.7092 22.4629C58.9445 22.4629 59.1353 22.2722 59.1353 22.0369C59.1353 21.8016 58.9445 21.6108 58.7092 21.6108C58.4739 21.6108 58.2832 21.8016 58.2832 22.0369C58.2832 22.2722 58.4739 22.4629 58.7092 22.4629Z" fill="#07294A"/>
<path d="M65.2522 22.4629C65.4875 22.4629 65.6782 22.2722 65.6782 22.0369C65.6782 21.8016 65.4875 21.6108 65.2522 21.6108C65.0169 21.6108 64.8262 21.8016 64.8262 22.0369C64.8262 22.2722 65.0169 22.4629 65.2522 22.4629Z" fill="#07294A"/>
<path d="M63.332 24.5784V18.0127H66.6212" stroke="#07294A" stroke-width="0.378" stroke-linecap="round" stroke-linejoin="round"/>
<path d="M57.9062 18.0129H61.1954" stroke="#07294A" stroke-width="0.378" stroke-linecap="round" stroke-linejoin="round"/>
<path d="M52.8245 21.3769V23.6569C51.5947 23.6569 50.5977 22.6599 50.5977 21.43C50.5977 21.3617 50.6007 21.2941 50.6068 21.2273C50.7315 19.8445 52.8245 19.9885 52.8245 21.3769Z" fill="#F0F8FF"/>
<path d="M52.8245 23.6568C51.5947 23.6568 50.5977 22.6598 50.5977 21.4299" stroke="#07294A" stroke-width="0.378" stroke-linecap="round" stroke-linejoin="round"/>
<path d="M61.8945 26.1969C60.6497 26.1969 59.6406 25.1878 59.6406 23.943" stroke="#79C9E7" stroke-width="0.378" stroke-linecap="round" stroke-linejoin="round"/>
<path d="M67.7091 30.875L51.7754 34.7912" stroke="#07294A" stroke-width="0.378" stroke-linecap="round" stroke-linejoin="round"/>
<path d="M63.3331 24.5836L61.8945 24.9372" stroke="#07294A" stroke-width="0.378" stroke-linecap="round" stroke-linejoin="round"/>
<path d="M84.3877 57.8239V92.6178L35.0977 104.732V65.9816C35.0977 52.2412 44.4781 40.2761 57.8214 36.9965H57.8214C64.2204 35.4238 70.9872 36.8798 76.1729 40.9453C81.3587 45.0108 84.3877 51.2345 84.3877 57.8239V57.8239Z" fill="#79C9E7"/>
<path d="M52.8251 20.26C54.0473 18.7595 54.918 17.0045 55.3731 15.1236C55.3731 15.1236 64.8261 18.24 68.7025 13.0209C70.4595 10.6553 69.6421 8.34693 68.8176 6.9833C68.6932 6.76704 68.4645 6.63182 68.215 6.62684C67.9656 6.62212 67.7318 6.74835 67.5991 6.9596C67.2153 7.63115 66.312 8.18197 64.1968 7.38878C60.6321 6.05203 53.2136 6.48764 52.0314 10.9933C52.0314 10.9933 46.7748 12.4577 51.2902 20.3242" stroke="#07294A" stroke-width="0.378" stroke-linecap="round" stroke-linejoin="round"/>
<path d="M79.7402 98.0767H187.064" stroke="#07294A" stroke-width="0.378" stroke-linecap="round" stroke-linejoin="round"/>
<path d="M46.9061 42.2015C46.9061 42.2015 26.5889 58.8867 21.4824 85.8544C16.376 112.822 56.8659 106.342 76.1515 98.4038" stroke="#07294A" stroke-width="0.378" stroke-linecap="round" stroke-linejoin="round"/>
<path d="M42.959 84.2523C42.959 84.2523 88.7669 76.1551 91.9209 96.2157" stroke="#07294A" stroke-width="0.378" stroke-linecap="round" stroke-linejoin="round"/>
<path d="M77.6348 42.2015C77.6348 42.2015 92.0106 57.0358 95.8018 84.2524C95.8018 84.2524 110.383 84.7539 110.967 96.2158" stroke="#07294A" stroke-width="0.378" stroke-linecap="round" stroke-linejoin="round"/>
<path d="M38.4243 50.9926C38.4243 50.9926 31.8907 37.4267 26.4839 49.1415C21.0771 60.8563 -2.54842 138.054 22.3831 150.97C47.3146 163.886 83.7721 156.792 83.7721 156.792" stroke="#07294A" stroke-width="0.378" stroke-linecap="round" stroke-linejoin="round"/>
<path d="M56.2205 158.736V245.674H26.4844" stroke="#07294A" stroke-width="0.378" stroke-linecap="round" stroke-linejoin="round"/>
</g>
<defs>
<clipPath id="clip0_721_12487">
<rect width="200" height="200" fill="white" transform="translate(0 0.102539)"/>
</clipPath>
</defs>
</svg>
