<svg width="200" height="201" viewBox="0 0 200 201" fill="none" xmlns="http://www.w3.org/2000/svg">
<g clip-path="url(#clip0_288_3415)">
<rect width="200" height="200" transform="translate(0 0.102539)" fill="none"/>
<path d="M157.348 45.8965L136.068 44.4912C134.462 53.726 141.455 81.5632 141.455 81.5632L158.151 67.3775C150.121 52.923 157.348 45.8965 157.348 45.8965Z" fill="#79C9E7"/>
<path d="M128.357 92.2043C128.357 92.2043 173.333 183.76 116.989 187.951C60.6457 192.142 44.8137 143.714 44.8137 143.714L37.3633 140.206L60.6457 124.622L92.2419 140.206L102.623 93.3346" fill="#79C9E7"/>
<path d="M104.484 128.709C100.511 128.709 96.766 130.86 93.4706 134.66L92.2423 140.206L90.2049 139.201C84.3812 148.838 80.6113 164.224 80.6113 181.558C80.6113 181.783 80.6139 182.006 80.6152 182.23C90.2574 186.536 102.233 189.048 116.99 187.951C121.339 187.627 125.082 186.782 128.291 185.5C128.335 184.198 128.357 182.884 128.357 181.558C128.357 152.37 117.669 128.709 104.484 128.709Z" fill="#07294A"/>
<path d="M120.322 94.1794C120.322 94.1794 126.401 193.399 109.231 240.376L112.818 245.646H82.2796C82.2796 245.646 78.9434 119.444 78.9434 92.2043L120.322 94.1794Z" fill="#79C9E7"/>
<path d="M110.61 17.4117V30.3064L94.6367 34.2323V12.4719L110.61 8.54602V17.4117Z" fill="#F0F8FF"/>
<path d="M101.585 21.873C101.821 21.873 102.012 21.6818 102.012 21.4459C102.012 21.21 101.821 21.0188 101.585 21.0188C101.349 21.0188 101.158 21.21 101.158 21.4459C101.158 21.6818 101.349 21.873 101.585 21.873Z" fill="#07294A"/>
<path d="M108.146 21.873C108.382 21.873 108.573 21.6818 108.573 21.4459C108.573 21.21 108.382 21.0188 108.146 21.0188C107.91 21.0188 107.719 21.21 107.719 21.4459C107.719 21.6818 107.91 21.873 108.146 21.873Z" fill="#07294A"/>
<path d="M106.223 23.9937V17.4117H109.52" stroke="#07294A" stroke-width="0.378" stroke-linecap="round" stroke-linejoin="round"/>
<path d="M100.781 17.4117H104.079" stroke="#07294A" stroke-width="0.378" stroke-linecap="round" stroke-linejoin="round"/>
<path d="M95.6876 20.7842V23.0699C94.4546 23.0699 93.4551 22.0704 93.4551 20.8374C93.4551 20.7689 93.4581 20.7012 93.4642 20.6342C93.5893 19.2479 95.6876 19.3922 95.6876 20.7842Z" fill="#F0F8FF"/>
<path d="M95.6876 23.0699C94.4546 23.0699 93.4551 22.0704 93.4551 20.8374" stroke="#07294A" stroke-width="0.378" stroke-linecap="round" stroke-linejoin="round"/>
<path d="M104.779 25.6164C104.18 25.6164 103.605 25.3783 103.181 24.9546C102.758 24.5308 102.52 23.9561 102.52 23.3568" stroke="#79C9E7" stroke-width="0.378" stroke-linecap="round" stroke-linejoin="round"/>
<path d="M110.611 30.3063L94.6367 34.2324" stroke="#07294A" stroke-width="0.378" stroke-linecap="round" stroke-linejoin="round"/>
<path d="M106.221 23.999L104.779 24.3535" stroke="#07294A" stroke-width="0.378" stroke-linecap="round" stroke-linejoin="round"/>
<path d="M96.2676 20.1494C96.2676 20.1494 103.796 16.7365 106.004 13.8255V15.8331C106.004 15.8331 110.07 14.3274 111.073 12.5708" stroke="#07294A" stroke-width="0.378" stroke-linecap="round" stroke-linejoin="round"/>
<path d="M110.609 16.0841C110.609 16.0841 114.135 14.5784 113.182 11.3161C112.228 8.05383 104.779 5.54437 99.229 7.10023C99.229 7.10023 82.9149 10.2872 94.6354 27.3014" stroke="#07294A" stroke-width="0.378" stroke-linecap="round" stroke-linejoin="round"/>
<path d="M128.357 57.3229V92.2043L78.9434 104.349V65.501C78.9434 51.7261 88.3474 39.7308 101.724 36.443H101.724C108.139 34.8663 114.923 36.326 120.122 40.4018C125.321 44.4775 128.357 50.7168 128.357 57.3228V57.3229Z" fill="#F0F8FF"/>
<path d="M82.2796 245.646C82.2796 245.646 78.9434 119.444 78.9434 92.2043" stroke="#07294A" stroke-width="0.378" stroke-linecap="round" stroke-linejoin="round"/>
<path d="M120.321 94.1793C120.321 94.1793 126.4 193.399 109.23 240.376L112.817 245.646" stroke="#07294A" stroke-width="0.378" stroke-linecap="round" stroke-linejoin="round"/>
<path d="M91.3609 41.23C91.3609 41.23 69.617 53.726 73.4314 80.6274C77.2458 107.529 128.64 97.491 141.287 82.635L142.291 76.2108C142.291 76.2108 149.432 67.4698 145.359 69.3308C141.287 71.1918 100.153 74.2032 100.153 74.2032L100.781 64.7676" stroke="#07294A" stroke-width="0.378" stroke-linecap="round" stroke-linejoin="round"/>
<path d="M122.322 42.3838C122.322 42.3838 135.21 52.5127 138.852 70.5852" stroke="#07294A" stroke-width="0.378" stroke-linecap="round" stroke-linejoin="round"/>
<path d="M130.586 97.4316C130.586 97.4316 150.321 102.209 158.954 79.8244C166.19 61.0615 160.56 52.1199 157.95 51.5177C155.34 50.9154 154.537 54.529 154.537 54.529" stroke="#07294A" stroke-width="0.378" stroke-linecap="round" stroke-linejoin="round"/>
</g>
<defs>
<clipPath id="clip0_288_3415">
<rect width="200" height="200" fill="white" transform="translate(0 0.102539)"/>
</clipPath>
</defs>
</svg>
