<svg width="398" height="229" viewBox="0 0 398 229" fill="none" xmlns="http://www.w3.org/2000/svg">
<g clip-path="url(#clip0_587_1207)">
<rect width="397" height="229" transform="translate(0.5)" fill="#258DD8"/>
<circle opacity="0.2" cx="199.5" cy="114.5" r="134.5" fill="url(#paint0_linear_587_1207)"/>
<circle opacity="0.2" cx="199.5" cy="114.5" r="102.5" fill="url(#paint1_linear_587_1207)"/>
<circle opacity="0.2" cx="199.47" cy="114.47" r="69.4697" fill="url(#paint2_linear_587_1207)"/>
<path d="M152.806 32.7603L106.811 112.421C105.98 113.859 105.543 115.491 105.542 117.152C105.542 118.814 105.98 120.446 106.81 121.884C107.641 123.323 108.835 124.518 110.274 125.348C111.713 126.179 113.345 126.616 115.006 126.616H206.989C208.65 126.616 210.282 126.179 211.721 125.348C213.16 124.518 214.354 123.323 215.185 121.884C216.016 120.446 216.453 118.814 216.453 117.152C216.452 115.491 216.015 113.859 215.184 112.421L169.194 32.7603C168.363 31.3221 167.169 30.1277 165.731 29.2973C164.292 28.4669 162.661 28.0298 161 28.0298C159.339 28.0298 157.708 28.4669 156.269 29.2973C154.831 30.1277 153.637 31.3221 152.806 32.7603Z" fill="#FFB400"/>
<path d="M161.6 57.3293H160.4C157.446 57.3293 155.052 59.724 155.052 62.6779V88.243C155.052 91.197 157.446 93.5916 160.4 93.5916H161.6C164.554 93.5916 166.949 91.197 166.949 88.243V62.6779C166.949 59.724 164.554 57.3293 161.6 57.3293Z" fill="#FCF4D9"/>
<path d="M161 113.867C164.285 113.867 166.949 111.204 166.949 107.919C166.949 104.634 164.285 101.97 161 101.97C157.715 101.97 155.052 104.634 155.052 107.919C155.052 111.204 157.715 113.867 161 113.867Z" fill="#FCF4D9"/>
<path d="M221.893 100.768V166.452C221.893 179.263 211.658 189.646 198.846 189.646L198.85 243H175.058L175.055 124.194C175.055 111.255 185.544 100.768 198.481 100.768H221.893Z" fill="#EDB48A"/>
<path d="M199 101H222V243H199V101Z" fill="#E29C6D"/>
<path d="M276.415 202.697H216.322C210.782 202.697 206.291 198.206 206.291 192.665V74.1265C206.291 68.5864 210.782 64.0947 216.322 64.0947H276.415C281.955 64.0947 286.447 68.5853 286.447 74.1265V192.665C286.447 198.205 281.955 202.697 276.415 202.697Z" fill="#618BAA"/>
<path d="M286.446 74.1254V192.666C286.446 198.207 281.956 202.697 276.415 202.697H267.767C273.308 202.697 277.798 198.207 277.798 192.666V74.1254C277.798 68.5842 273.308 64.0947 267.767 64.0947H276.415C281.956 64.0947 286.446 68.5842 286.446 74.1254Z" fill="#4E7693"/>
<path d="M269.681 78.8397L268.246 82.6189C267.835 83.7012 266.798 84.418 265.639 84.418H227.098C225.939 84.418 224.902 83.7012 224.491 82.6179L223.057 78.8386C222.646 77.7563 221.607 77.0396 220.45 77.0396H206.291V188.357H286.447V77.0406H272.288C271.13 77.0406 270.092 77.7563 269.681 78.8397Z" fill="#4C60E1"/>
<path d="M277.798 77.0405H286.446V188.357H277.798V77.0405Z" fill="#364EC6"/>
<path d="M198.85 129.088C198.85 122.724 204.009 117.566 210.373 117.566C216.737 117.566 221.895 122.724 221.895 129.088V166.453C221.895 176.615 215.453 185.252 206.394 188.387C201.884 189.947 198.85 194.182 198.85 198.954V129.088Z" fill="#EDB48A"/>
<path d="M221.896 129.088V166.453C221.896 176.193 215.975 184.532 207.506 187.967C212.239 183.718 215.203 177.526 215.203 170.635V129.088C215.203 125.907 213.914 123.025 211.828 120.939C210.506 119.618 208.864 118.613 207.026 118.059C208.086 117.738 209.21 117.565 210.373 117.565C213.554 117.565 216.436 118.853 218.522 120.939C220.608 123.025 221.896 125.907 221.896 129.088Z" fill="#E29C6D"/>
<path d="M257.146 125.078C255.218 125.078 253.654 123.515 253.654 121.587V110.57C253.654 106.913 250.679 103.937 247.021 103.937C243.364 103.937 240.388 106.913 240.388 110.57V121.587C240.388 123.515 238.825 125.078 236.896 125.078C234.969 125.078 233.405 123.515 233.405 121.587V110.57C233.405 103.063 239.514 96.9546 247.021 96.9546C254.529 96.9546 260.637 103.063 260.637 110.57V121.587C260.637 123.515 259.074 125.078 257.146 125.078Z" fill="#E3F4FF"/>
<path d="M261.084 148.53H233.279C231.977 148.53 230.922 147.475 230.922 146.173V122.374C230.922 121.074 231.977 120.019 233.279 120.019H261.084C262.385 120.019 263.44 121.074 263.44 122.374V146.173C263.44 147.475 262.385 148.53 261.084 148.53Z" fill="#FDB659"/>
<path d="M263.439 122.374V146.173C263.439 147.474 262.383 148.53 261.083 148.53H255.428C256.729 148.53 257.785 147.474 257.785 146.173V122.374C257.785 121.074 256.729 120.019 255.428 120.019H261.083C262.384 120.019 263.439 121.074 263.439 122.374Z" fill="#FD9E28"/>
<path d="M251.383 131.748C251.383 129.27 249.239 127.293 246.705 127.572C244.712 127.791 243.13 129.445 242.99 131.445C242.892 132.835 243.473 134.089 244.432 134.922V139.013C244.432 140.314 245.487 141.369 246.789 141.369H247.574C248.875 141.369 249.93 140.314 249.93 139.013V134.922C250.819 134.15 251.383 133.016 251.383 131.748Z" fill="#F96E21"/>
<path d="M286.447 173.68C285.289 173.68 284.352 174.617 284.352 175.774V186.262H214.507C220.379 181.56 223.99 174.324 223.99 166.453V129.088C223.99 121.58 217.881 115.471 210.373 115.471C209.698 115.471 209.035 115.523 208.385 115.617V94.5022C208.385 93.3457 207.448 92.4075 206.291 92.4075C205.134 92.4075 204.196 93.3457 204.196 94.5022V98.672H198.486C184.413 98.672 172.965 110.121 172.965 124.193L172.965 244C172.965 245.156 173.903 246.095 175.06 246.095C176.216 246.095 177.154 245.156 177.154 244V124.193C177.154 112.431 186.723 102.861 198.486 102.861H204.196V116.958C199.785 119.215 196.755 123.802 196.755 129.088V148.748C193.058 149.684 190.313 153.039 190.313 157.024C190.313 158.181 191.251 159.119 192.408 159.119C193.564 159.119 194.502 158.181 194.502 157.024C194.502 155.386 195.414 153.958 196.755 153.217V159.101C196.755 160.257 197.694 161.195 198.85 161.195C200.008 161.195 200.945 160.257 200.945 159.101V129.088C200.945 123.889 205.175 119.661 210.373 119.661C215.572 119.661 219.801 123.891 219.801 129.088V166.453C219.801 175.471 214.137 183.49 205.708 186.407C201.787 187.764 198.778 190.791 197.452 194.711C197.081 195.807 197.67 196.997 198.766 197.366C198.987 197.442 199.214 197.478 199.437 197.478C200.31 197.478 201.125 196.927 201.42 196.053C201.966 194.44 202.931 193.05 204.196 191.994V192.665C204.196 199.351 209.636 204.792 216.322 204.792H232.659C233.817 204.792 234.754 203.853 234.754 202.697C234.754 201.539 233.817 200.602 232.659 200.602H216.322C211.946 200.602 208.385 197.041 208.385 192.665V190.452H208.393H284.352V192.665C284.352 197.041 280.791 200.601 276.415 200.601H242.301C241.145 200.601 240.207 201.539 240.207 202.696C240.207 203.853 241.145 204.791 242.301 204.791H276.415C283.102 204.791 288.541 199.351 288.541 192.665V175.773C288.541 174.617 287.603 173.68 286.447 173.68Z" fill="#143A5A"/>
<path d="M276.415 62H216.322C209.637 62 204.196 67.4397 204.196 74.1265V84.8609C204.196 86.0173 205.134 86.9556 206.291 86.9556C207.448 86.9556 208.385 86.0173 208.385 84.8609V79.1353H220.45C220.735 79.1353 220.996 79.3142 221.099 79.5826L222.532 83.3618C223.248 85.246 225.083 86.5127 227.098 86.5127H265.639C267.655 86.5127 269.489 85.246 270.205 83.3618L271.639 79.5826C271.741 79.3142 272.002 79.1342 272.289 79.1342H284.352V166.132C284.352 167.288 285.289 168.227 286.447 168.227C287.603 168.227 288.541 167.288 288.541 166.132V74.1265C288.541 67.4397 283.102 62 276.415 62ZM272.289 74.9458C270.272 74.9458 268.438 76.2114 267.723 78.0956L266.288 81.8748C266.187 82.1432 265.926 82.3232 265.639 82.3232H227.098C226.812 82.3232 226.552 82.1432 226.449 81.8748L225.015 78.0967C224.3 76.2114 222.465 74.9458 220.45 74.9458H208.385V74.1265C208.385 69.7494 211.946 66.1895 216.322 66.1895H276.415C280.792 66.1895 284.352 69.7494 284.352 74.1265V74.9458H272.289Z" fill="#143A5A"/>
<path d="M247.021 94.8599C238.359 94.8599 231.311 101.908 231.311 110.57V118.388C229.842 119.116 228.828 120.627 228.828 122.374V146.173C228.828 148.628 230.824 150.624 233.279 150.624H261.084C263.538 150.624 265.534 148.628 265.534 146.173V122.374C265.534 120.503 264.373 118.9 262.733 118.243V110.57C262.732 101.908 255.685 94.8599 247.021 94.8599ZM247.021 99.0493C253.374 99.0493 258.542 104.217 258.542 110.57V117.924H255.749V110.57C255.749 105.758 251.835 101.842 247.021 101.842C242.209 101.842 238.293 105.758 238.293 110.57V117.924H235.5V110.57C235.5 104.218 240.669 99.0493 247.021 99.0493ZM251.56 117.924H242.483V110.57C242.483 108.068 244.52 106.032 247.021 106.032C249.524 106.032 251.56 108.068 251.56 110.57V117.924ZM261.345 146.173C261.345 146.318 261.228 146.435 261.083 146.435H233.279C233.135 146.435 233.017 146.318 233.017 146.173V122.374C233.017 122.23 233.135 122.113 233.279 122.113H261.083C261.228 122.113 261.345 122.23 261.345 122.374V146.173Z" fill="#143A5A"/>
<path d="M251.382 127.058C250.051 125.864 248.264 125.294 246.476 125.49C243.459 125.822 241.114 128.264 240.9 131.297C240.784 132.947 241.301 134.529 242.337 135.768V139.013C242.337 141.468 244.334 143.464 246.789 143.464H247.574C250.029 143.464 252.025 141.468 252.025 139.013V135.766C252.958 134.643 253.479 133.225 253.479 131.748C253.478 129.96 252.714 128.25 251.382 127.058ZM248.558 133.339C248.099 133.737 247.835 134.314 247.835 134.922V139.013C247.835 139.158 247.718 139.275 247.574 139.275H246.789C246.644 139.275 246.527 139.158 246.527 139.013V134.922C246.527 134.314 246.263 133.737 245.805 133.339C245.296 132.898 245.031 132.261 245.079 131.592C245.149 130.596 245.946 129.762 246.934 129.654C247.016 129.644 247.097 129.64 247.179 129.64C247.703 129.64 248.195 129.827 248.587 130.177C249.039 130.583 249.288 131.14 249.288 131.748C249.288 132.356 249.022 132.936 248.558 133.339Z" fill="#143A5A"/>
<path d="M245.439 172.09C246.596 172.09 247.534 171.152 247.534 169.995V165.726H250.457C251.353 168.631 254.063 170.749 257.26 170.749C261.184 170.749 264.378 167.556 264.378 163.631C264.378 159.706 261.184 156.512 257.26 156.512C254.063 156.512 251.353 158.63 250.457 161.537H232.079C230.922 161.537 229.984 162.474 229.984 163.631V170.926C229.984 172.082 230.922 173.02 232.079 173.02C233.236 173.02 234.173 172.082 234.173 170.926V165.726H237.013V167.347C237.013 168.504 237.951 169.442 239.108 169.442C240.266 169.442 241.203 168.504 241.203 167.347V165.726H243.344V169.994C243.344 171.152 244.281 172.09 245.439 172.09ZM257.26 160.702C258.875 160.702 260.188 162.017 260.188 163.631C260.188 165.246 258.875 166.56 257.26 166.56C255.644 166.56 254.331 165.246 254.331 163.631C254.331 162.017 255.644 160.702 257.26 160.702Z" fill="#143A5A"/>
</g>
<defs>
<linearGradient id="paint0_linear_587_1207" x1="358.813" y1="151.562" x2="79.1854" y2="48.9493" gradientUnits="userSpaceOnUse">
<stop stop-color="#47A9EF"/>
<stop offset="1" stop-color="#C6D5E0"/>
</linearGradient>
<linearGradient id="paint1_linear_587_1207" x1="320.91" y1="142.745" x2="107.81" y2="64.545" gradientUnits="userSpaceOnUse">
<stop stop-color="#47A9EF"/>
<stop offset="1" stop-color="#C6D5E0"/>
</linearGradient>
<linearGradient id="paint2_linear_587_1207" x1="281.755" y1="133.613" x2="137.327" y2="80.6125" gradientUnits="userSpaceOnUse">
<stop stop-color="#47A9EF"/>
<stop offset="1" stop-color="#C6D5E0"/>
</linearGradient>
<clipPath id="clip0_587_1207">
<rect width="397" height="229" fill="white" transform="translate(0.5)"/>
</clipPath>
</defs>
</svg>
