<svg width="398" height="229" viewBox="0 0 398 229" fill="none" xmlns="http://www.w3.org/2000/svg">
<g clip-path="url(#clip0_587_1240)">
<rect width="397" height="229" transform="translate(0.5)" fill="#258DD8"/>
<circle opacity="0.2" cx="199.5" cy="114.5" r="134.5" fill="url(#paint0_linear_587_1240)"/>
<circle opacity="0.2" cx="199.5" cy="114.5" r="102.5" fill="url(#paint1_linear_587_1240)"/>
<circle opacity="0.2" cx="199.47" cy="114.47" r="69.4697" fill="url(#paint2_linear_587_1240)"/>
<path d="M290.776 141.583L207.725 77.1392L242.011 32.9536L325.062 97.3969L290.776 141.583Z" fill="#B3E59F"/>
<path d="M236.109 40.5315L241.996 32.945L325.047 97.3883L319.16 104.975L236.109 40.5315Z" fill="#95D6A4"/>
<path d="M257.148 44.6874C250.659 53.0506 238.619 54.5698 230.255 48.0804L242.005 32.9373L257.148 44.6874Z" fill="#78C2A4"/>
<path d="M219.467 61.9834C227.831 68.4727 229.35 80.513 222.86 88.8767L207.717 77.1266L219.467 61.9834Z" fill="#78C2A4"/>
<path d="M275.631 129.823C282.121 121.46 294.161 119.941 302.525 126.43L290.775 141.573L275.631 129.823Z" fill="#78C2A4"/>
<path d="M313.312 112.527C304.949 106.038 303.43 93.9975 309.919 85.6338L325.063 97.3839L313.312 112.527Z" fill="#78C2A4"/>
<path d="M266.389 104.508C275.918 104.508 283.642 96.7838 283.642 87.2553C283.642 77.7268 275.918 70.0024 266.389 70.0024C256.861 70.0024 249.136 77.7268 249.136 87.2553C249.136 96.7838 256.861 104.508 266.389 104.508Z" fill="#78C2A4"/>
<path d="M101.939 76.8118L108.133 76.9589C108.602 76.9699 109.036 77.2113 109.293 77.6046L112.684 82.7907C113.331 83.7805 114.832 83.5984 115.224 82.4831L117.278 76.6377C117.433 76.1947 117.797 75.8569 118.25 75.7338L124.23 74.1118C125.372 73.8024 125.662 72.3186 124.723 71.6011L119.798 67.8413C119.424 67.5565 119.215 67.1059 119.238 66.6372L119.543 60.449C119.602 59.268 118.281 58.5329 117.308 59.2048L112.21 62.7265C111.824 62.9934 111.331 63.0531 110.892 62.8863L105.101 60.6837C103.996 60.2635 102.889 61.2927 103.227 62.4256L105.002 68.3622C105.136 68.8121 105.041 69.2993 104.746 69.665L100.862 74.4922C100.12 75.4122 100.757 76.7835 101.939 76.8118Z" fill="#FFC250"/>
<path d="M171.195 51.606C165.491 48.5099 158.357 50.6245 155.261 56.329C152.164 62.0336 154.279 69.1679 159.984 72.2639C165.688 75.36 172.822 73.2454 175.918 67.5409C179.015 61.8364 176.9 54.7021 171.195 51.606Z" fill="#FFC250"/>
<path d="M250.475 107.768C253.208 101.881 250.65 94.8927 244.763 92.16C238.876 89.4274 231.888 91.9847 229.155 97.8719C226.423 103.759 228.98 110.747 234.867 113.48C240.755 116.212 247.742 113.655 250.475 107.768Z" fill="#FFC250"/>
<path d="M138.976 99.0223C133.272 95.9262 126.137 98.0408 123.041 103.745C119.945 109.45 122.06 116.584 127.764 119.68C133.469 122.776 140.603 120.662 143.699 114.957C146.795 109.253 144.681 102.118 138.976 99.0223Z" fill="#FFC250"/>
<path d="M251.938 82.0312V187.719C251.942 187.886 251.933 188.054 251.91 188.219C251.785 192.555 249.974 196.67 246.864 199.693C243.753 202.715 239.587 204.406 235.25 204.406H174.063C170.213 204.402 166.482 203.068 163.502 200.631C160.523 198.193 158.476 194.801 157.709 191.028C157.484 189.94 157.372 188.831 157.375 187.719V82.0312C157.375 77.6054 159.133 73.3609 162.263 70.2314C165.392 67.1019 169.637 65.3438 174.063 65.3438H235.25C239.676 65.3438 243.92 67.1019 247.05 70.2314C250.179 73.3609 251.938 77.6054 251.938 82.0312Z" fill="#ACCEE9"/>
<path d="M216.894 201.736C218.039 201.731 219.173 201.965 220.222 202.425C221.271 202.885 222.213 203.56 222.985 204.406H210.803C211.352 203.784 212 203.258 212.722 202.849C213.991 202.12 215.43 201.736 216.894 201.736Z" fill="#3D9AE2"/>
<path d="M251.91 188.219C251.784 192.555 249.974 196.67 246.864 199.693C243.753 202.715 239.587 204.406 235.25 204.406H229.688V168.25C229.688 166.037 230.567 163.915 232.131 162.35C233.696 160.785 235.818 159.906 238.031 159.906C240.244 159.906 242.366 160.785 243.931 162.35C245.496 163.915 246.375 166.037 246.375 168.25V196.062C246.375 194.344 246.906 192.667 247.897 191.262C248.888 189.858 250.29 188.795 251.91 188.219Z" fill="#3D9AE2"/>
<path d="M192.141 179.959L179.625 201.625L181.294 204.406H174.062C171.127 204.407 168.246 203.619 165.719 202.126V192.336L177.678 171.615C178.785 169.697 180.608 168.298 182.746 167.724C184.885 167.15 187.163 167.449 189.081 168.556C190.999 169.662 192.399 171.485 192.973 173.624C193.546 175.762 193.247 178.041 192.141 179.959Z" fill="#3D9AE2"/>
<path d="M210.219 182.156C211.693 182.161 213.105 182.748 214.147 183.79C215.189 184.833 215.777 186.245 215.781 187.719C215.77 189.191 215.181 190.599 214.14 191.64C213.099 192.681 211.691 193.27 210.219 193.281H199.094C197.62 193.277 196.208 192.689 195.165 191.647C194.123 190.605 193.536 189.193 193.531 187.719C193.542 186.247 194.132 184.838 195.173 183.798C196.213 182.757 197.622 182.167 199.094 182.156H210.219Z" fill="#E6E7E8"/>
<path d="M187.691 170.225C187.693 168.386 187.088 166.599 185.969 165.14C184.851 163.68 183.282 162.632 181.506 162.156C179.73 161.68 177.847 161.804 176.149 162.509C174.451 163.214 173.033 164.46 172.116 166.053L157.709 191.029C157.484 189.94 157.372 188.831 157.375 187.719V134.986C155.536 135.246 153.79 135.963 152.299 137.071C150.808 138.178 149.617 139.642 148.837 141.328L137.684 165.497C135.991 169.148 135.118 173.125 135.125 177.15V229.438L182.406 229.41V214.558C182.4 211.53 181.574 208.56 180.014 205.964L179.069 204.406L174.063 196.063L186.578 174.397C187.307 173.127 187.691 171.689 187.691 170.225Z" fill="#EDB48A"/>
<path d="M218.562 118.188H190.75V151.562C190.754 153.036 191.342 154.449 192.384 155.491C193.426 156.533 194.839 157.121 196.312 157.125H224.125C225.599 157.121 227.011 156.533 228.053 155.491C229.096 154.449 229.683 153.036 229.688 151.562V118.188H218.562Z" fill="#3D9AE2"/>
<path d="M224.125 140.438V146C224.121 147.474 223.533 148.886 222.491 149.928C221.449 150.971 220.036 151.558 218.562 151.562H190.75C189.276 151.558 187.864 150.971 186.822 149.928C185.779 148.886 185.192 147.474 185.188 146V140.438H224.125Z" fill="#E6E7E8"/>
<path d="M213 112.625H224.125V140.438H185.188V112.625H196.312H213Z" fill="#00CCB3"/>
<path d="M288.428 190.166C287.261 189.001 285.775 188.207 284.157 187.886C282.54 187.565 280.863 187.73 279.34 188.361C277.816 188.992 276.513 190.06 275.596 191.431C274.679 192.802 274.189 194.413 274.188 196.062V193.281C274.188 191.068 273.309 188.946 271.744 187.381C270.179 185.817 268.057 184.938 265.844 184.938C263.631 184.938 261.509 185.817 259.944 187.381C258.379 188.946 257.5 191.068 257.5 193.281V190.5C257.5 189.404 257.284 188.32 256.864 187.308C256.444 186.296 255.829 185.377 255.053 184.604C254.182 183.719 253.115 183.052 251.938 182.657C251.05 182.32 250.107 182.15 249.157 182.156C246.944 182.156 244.821 183.035 243.257 184.6C241.692 186.165 240.813 188.287 240.813 190.5V162.688C240.813 160.475 239.934 158.352 238.369 156.788C236.804 155.223 234.682 154.344 232.469 154.344C230.256 154.344 228.134 155.223 226.569 156.788C225.004 158.352 224.125 160.475 224.125 162.688V209.969L220.899 204.406L218.563 200.346C217.454 198.43 215.631 197.033 213.494 196.459C211.356 195.886 209.078 196.183 207.16 197.286C205.914 198.017 204.876 199.056 204.145 200.302C203.415 201.549 203.017 202.962 202.988 204.406C202.964 205.908 203.348 207.389 204.1 208.689L216.088 229.438H290.875V196.062C290.875 194.967 290.659 193.882 290.239 192.87C289.819 191.859 289.204 190.94 288.428 190.166Z" fill="#EDB48A"/>
<path d="M182.406 73.6875H187.969V79.25H182.406V73.6875Z" fill="#143A5A"/>
<path d="M193.531 73.6875H215.781V79.25H193.531V73.6875Z" fill="#143A5A"/>
<path d="M282.531 184.938C279.913 184.927 277.377 185.854 275.384 187.552C274.392 185.908 272.993 184.547 271.322 183.602C269.651 182.657 267.764 182.159 265.844 182.156C263.226 182.146 260.69 183.073 258.696 184.771C257.722 183.157 256.353 181.817 254.719 180.877V82.0312C254.713 76.8696 252.66 71.9211 249.01 68.2713C245.36 64.6214 240.412 62.5684 235.25 62.5625H174.063C168.901 62.5684 163.953 64.6214 160.303 68.2713C156.653 71.9211 154.6 76.8696 154.594 82.0312V132.817C152.782 133.405 151.111 134.361 149.685 135.624C148.259 136.888 147.108 138.432 146.306 140.159L135.153 164.328C133.287 168.344 132.328 172.722 132.344 177.15V229.438H137.906V177.15C137.896 173.528 138.684 169.948 140.215 166.665L151.368 142.496C152.063 141.02 153.187 139.789 154.594 138.963V187.719C154.598 188.641 154.672 189.561 154.816 190.472L153.036 193.559L157.848 196.341L174.536 167.443C174.897 166.808 175.38 166.25 175.958 165.801C176.535 165.353 177.196 165.022 177.901 164.829C179.329 164.464 180.843 164.663 182.128 165.385C183.404 166.13 184.334 167.35 184.714 168.777C185.094 170.205 184.895 171.725 184.159 173.006L171.643 194.672C171.401 195.107 171.277 195.597 171.282 196.094C171.286 196.591 171.421 197.079 171.671 197.509L177.651 207.41C178.934 209.574 179.616 212.042 179.625 214.558V229.41H185.188V214.558C185.174 212.029 184.674 209.527 183.714 207.188H200.596C200.839 208.196 201.213 209.168 201.708 210.08L213.696 230.828L218.507 228.047L206.52 207.299C206.117 206.666 205.847 205.958 205.725 205.217C205.604 204.477 205.633 203.72 205.811 202.991C205.99 202.263 206.314 201.578 206.764 200.977C207.214 200.377 207.781 199.874 208.43 199.499C209.08 199.123 209.799 198.883 210.543 198.793C211.288 198.702 212.044 198.763 212.764 198.972C213.485 199.181 214.155 199.534 214.736 200.009C215.317 200.484 215.795 201.072 216.143 201.736L221.706 211.359C222.018 211.887 222.493 212.3 223.06 212.535C223.626 212.771 224.254 212.817 224.848 212.667C225.441 212.507 225.964 212.156 226.336 211.668C226.709 211.18 226.909 210.583 226.906 209.969V162.688C226.906 161.212 227.492 159.797 228.536 158.754C229.579 157.711 230.994 157.125 232.469 157.125C233.944 157.125 235.359 157.711 236.402 158.754C237.445 159.797 238.031 161.212 238.031 162.688V201.625C238.031 202.363 238.324 203.07 238.846 203.592C239.368 204.113 240.075 204.406 240.813 204.406C241.55 204.406 242.258 204.113 242.779 203.592C243.301 203.07 243.594 202.363 243.594 201.625V190.5C243.594 189.025 244.18 187.61 245.223 186.567C246.266 185.524 247.681 184.938 249.156 184.938C250.632 184.938 252.047 185.524 253.09 186.567C254.133 187.61 254.719 189.025 254.719 190.5V201.625C254.719 202.363 255.012 203.07 255.534 203.592C256.055 204.113 256.763 204.406 257.5 204.406C258.238 204.406 258.945 204.113 259.467 203.592C259.988 203.07 260.281 202.363 260.281 201.625V193.281C260.281 191.806 260.867 190.391 261.911 189.348C262.954 188.305 264.369 187.719 265.844 187.719C267.319 187.719 268.734 188.305 269.777 189.348C270.82 190.391 271.406 191.806 271.406 193.281V201.625C271.406 202.363 271.699 203.07 272.221 203.592C272.743 204.113 273.45 204.406 274.188 204.406C274.925 204.406 275.633 204.113 276.154 203.592C276.676 203.07 276.969 202.363 276.969 201.625V196.062C276.969 194.587 277.555 193.172 278.598 192.129C279.641 191.086 281.056 190.5 282.531 190.5C284.007 190.5 285.422 191.086 286.465 192.129C287.508 193.172 288.094 194.587 288.094 196.062V229.438H293.656V196.062C293.656 193.112 292.484 190.282 290.398 188.196C288.312 186.11 285.482 184.938 282.531 184.938ZM210.219 190.5H199.094C198.356 190.5 197.649 190.207 197.127 189.685C196.606 189.164 196.313 188.456 196.313 187.719C196.313 186.981 196.606 186.274 197.127 185.752C197.649 185.231 198.356 184.938 199.094 184.938H210.219C210.957 184.938 211.664 185.231 212.186 185.752C212.707 186.274 213 186.981 213 187.719C213 188.456 212.707 189.164 212.186 189.685C211.664 190.207 210.957 190.5 210.219 190.5ZM249.156 179.375C247.202 179.377 245.284 179.895 243.594 180.877V162.688C243.594 159.737 242.422 156.907 240.336 154.821C238.249 152.735 235.419 151.562 232.469 151.562C229.518 151.562 226.689 152.735 224.602 154.821C222.516 156.907 221.344 159.737 221.344 162.688V199.595L220.982 198.955C219.722 196.773 217.748 195.093 215.392 194.199C216.377 193.429 217.174 192.446 217.723 191.324C218.272 190.201 218.559 188.968 218.563 187.719C218.556 185.508 217.675 183.389 216.112 181.826C214.548 180.263 212.43 179.382 210.219 179.375H199.094C196.881 179.375 194.759 180.254 193.194 181.819C191.629 183.384 190.75 185.506 190.75 187.719C190.75 189.932 191.629 192.054 193.194 193.619C194.759 195.183 196.881 196.062 199.094 196.062H204.128C202.411 197.513 201.178 199.454 200.596 201.625H180.654L177.289 196.035L188.998 175.787C190.473 173.231 190.873 170.194 190.109 167.344C189.345 164.493 187.479 162.063 184.923 160.588C182.368 159.112 179.33 158.713 176.48 159.477C173.629 160.241 171.199 162.106 169.724 164.662L160.156 181.211V82.0312C160.156 78.3431 161.622 74.806 164.23 72.198C166.837 69.5901 170.375 68.125 174.063 68.125H235.25C238.938 68.125 242.475 69.5901 245.083 72.198C247.691 74.806 249.156 78.3431 249.156 82.0312V179.375Z" fill="#143A5A"/>
<path d="M224.125 109.844H215.781V107.062C215.781 104.112 214.609 101.282 212.523 99.1959C210.436 97.1096 207.607 95.9375 204.656 95.9375C201.706 95.9375 198.876 97.1096 196.79 99.1959C194.703 101.282 193.531 104.112 193.531 107.062V109.844H185.188C184.45 109.844 183.742 110.137 183.221 110.658C182.699 111.18 182.406 111.887 182.406 112.625V146C182.413 148.211 183.294 150.329 184.857 151.893C186.421 153.456 188.539 154.337 190.75 154.344H218.562C220.773 154.337 222.892 153.456 224.455 151.893C226.018 150.329 226.9 148.211 226.906 146V112.625C226.906 111.887 226.613 111.18 226.092 110.658C225.57 110.137 224.863 109.844 224.125 109.844ZM199.094 107.062C199.094 105.587 199.68 104.172 200.723 103.129C201.766 102.086 203.181 101.5 204.656 101.5C206.132 101.5 207.546 102.086 208.59 103.129C209.633 104.172 210.219 105.587 210.219 107.062V109.844H199.094V107.062ZM221.344 146C221.344 146.738 221.051 147.445 220.529 147.967C220.008 148.488 219.3 148.781 218.562 148.781H190.75C190.012 148.781 189.305 148.488 188.783 147.967C188.262 147.445 187.969 146.738 187.969 146V143.219H221.344V146ZM221.344 137.656H187.969V115.406H193.531V120.969H199.094V115.406H210.219V120.969H215.781V115.406H221.344V137.656Z" fill="#143A5A"/>
</g>
<defs>
<linearGradient id="paint0_linear_587_1240" x1="358.813" y1="151.562" x2="79.1854" y2="48.9493" gradientUnits="userSpaceOnUse">
<stop stop-color="#47A9EF"/>
<stop offset="1" stop-color="#C6D5E0"/>
</linearGradient>
<linearGradient id="paint1_linear_587_1240" x1="320.91" y1="142.745" x2="107.81" y2="64.545" gradientUnits="userSpaceOnUse">
<stop stop-color="#47A9EF"/>
<stop offset="1" stop-color="#C6D5E0"/>
</linearGradient>
<linearGradient id="paint2_linear_587_1240" x1="281.755" y1="133.613" x2="137.327" y2="80.6125" gradientUnits="userSpaceOnUse">
<stop stop-color="#47A9EF"/>
<stop offset="1" stop-color="#C6D5E0"/>
</linearGradient>
<clipPath id="clip0_587_1240">
<rect width="397" height="229" fill="white" transform="translate(0.5)"/>
</clipPath>
</defs>
</svg>
