<svg width="398" height="229" viewBox="0 0 398 229" fill="none" xmlns="http://www.w3.org/2000/svg">
<g clip-path="url(#clip0_587_1278)">
<rect width="397" height="229" transform="translate(0.5)" fill="#258DD8"/>
<circle opacity="0.2" cx="199.5" cy="114.5" r="134.5" fill="url(#paint0_linear_587_1278)"/>
<circle opacity="0.2" cx="199.5" cy="114.5" r="102.5" fill="url(#paint1_linear_587_1278)"/>
<circle opacity="0.2" cx="199.47" cy="114.47" r="69.4697" fill="url(#paint2_linear_587_1278)"/>
<path d="M202 65.25H147C144.683 65.2631 142.465 66.1892 140.827 67.8273C139.189 69.4654 138.263 71.6834 138.25 74V114C138.263 116.317 139.189 118.535 140.827 120.173C142.465 121.811 144.683 122.737 147 122.75H165.25C165.52 122.75 165.784 122.838 166 123L181.55 135.45C183.101 136.678 185.021 137.347 187 137.35C188.312 137.332 189.606 137.043 190.8 136.5C192.295 135.791 193.559 134.672 194.444 133.274C195.329 131.875 195.799 130.255 195.8 128.6V124C195.8 123.668 195.932 123.351 196.166 123.116C196.401 122.882 196.718 122.75 197.05 122.75H202.05C204.358 122.724 206.563 121.792 208.19 120.155C209.818 118.519 210.737 116.308 210.75 114V74C210.737 71.6834 209.811 69.4654 208.173 67.8273C206.535 66.1892 204.317 65.2631 202 65.25Z" fill="#145638"/>
<path d="M177 30.25H112C109.683 30.2631 107.465 31.1892 105.827 32.8273C104.189 34.4654 103.263 36.6834 103.25 39V89C103.263 91.3166 104.189 93.5346 105.827 95.1727C107.465 96.8108 109.683 97.7369 112 97.75H117C117.332 97.75 117.649 97.8817 117.884 98.1161C118.118 98.3505 118.25 98.6685 118.25 99V103.6C118.251 105.255 118.721 106.875 119.606 108.274C120.491 109.672 121.755 110.791 123.25 111.5C124.444 112.043 125.738 112.332 127.05 112.35C129.029 112.347 130.949 111.678 132.5 110.45L148 98C148.216 97.8377 148.48 97.75 148.75 97.75H177C179.317 97.7369 181.535 96.8108 183.173 95.1727C184.811 93.5346 185.737 91.3166 185.75 89V39C185.737 36.6834 184.811 34.4654 183.173 32.8273C181.535 31.1892 179.317 30.2631 177 30.25Z" fill="#52C98D"/>
<path d="M162 57.75H127C126.005 57.75 125.052 57.3549 124.348 56.6517C123.645 55.9484 123.25 54.9946 123.25 54C123.25 53.0054 123.645 52.0516 124.348 51.3483C125.052 50.6451 126.005 50.25 127 50.25H162C162.995 50.25 163.948 50.6451 164.652 51.3483C165.355 52.0516 165.75 53.0054 165.75 54C165.75 54.9946 165.355 55.9484 164.652 56.6517C163.948 57.3549 162.995 57.75 162 57.75Z" fill="white"/>
<path d="M147 77.75H127C126.005 77.75 125.052 77.3549 124.348 76.6516C123.645 75.9484 123.25 74.9946 123.25 74C123.25 73.0054 123.645 72.0516 124.348 71.3484C125.052 70.6451 126.005 70.25 127 70.25H147C147.995 70.25 148.948 70.6451 149.652 71.3484C150.355 72.0516 150.75 73.0054 150.75 74C150.75 74.9946 150.355 75.9484 149.652 76.6516C148.948 77.3549 147.995 77.75 147 77.75Z" fill="white"/>
<path d="M274.172 86.6416H176.358C171.288 86.6416 167.178 90.7515 167.178 95.8213V150.841C168.261 150.016 169.608 149.519 171.071 149.519C174.622 149.519 177.512 152.408 177.512 155.96C177.512 156.163 177.676 156.327 177.879 156.327C178.081 156.327 178.246 156.163 178.246 155.96C178.246 152.408 181.135 149.519 184.686 149.519C188.238 149.519 191.127 152.408 191.127 155.96C191.127 156.163 191.292 156.327 191.494 156.327C191.697 156.327 191.862 156.163 191.862 155.96V125.687C191.862 122.136 194.751 119.247 198.303 119.247C201.854 119.247 204.743 122.136 204.743 125.687V158.533C204.743 158.736 204.907 158.9 205.11 158.9H208.682C210.813 158.9 212.815 159.73 214.321 161.236L217.149 164.063C218.655 165.57 219.485 167.573 219.485 169.703V192.414C219.485 192.715 219.464 193.012 219.431 193.307H281.983L283.351 192.939V95.8213C283.351 90.7515 279.241 86.6416 274.172 86.6416Z" fill="#82AEE3"/>
<path d="M274.171 86.6416H258.859C263.929 86.6416 268.039 90.7515 268.039 95.8213V193.307H281.983L283.351 192.94V95.8213C283.351 90.7515 279.241 86.6416 274.171 86.6416Z" fill="#528FD8"/>
<path d="M219.46 192.94C219.334 194.872 218.531 196.673 217.149 198.054L202.737 212.466C202.632 212.571 202.6 212.729 202.657 212.866C202.714 213.004 202.848 213.093 202.997 213.093H204.305C206.127 213.093 207.61 214.575 207.61 216.397V226.386H274.171C279.241 226.386 283.351 222.276 283.351 217.206V192.94H219.46Z" fill="#CDBFBA"/>
<path d="M268.039 192.94V217.206C268.039 222.276 263.929 226.386 258.859 226.386H274.171C279.241 226.386 283.351 222.276 283.351 217.206V192.94H268.039Z" fill="#B9ACAC"/>
<path d="M270.5 203.955H211.248L202.737 212.466C202.632 212.571 202.6 212.729 202.657 212.866C202.714 213.004 202.848 213.093 202.997 213.093H204.305C205.768 213.093 207.011 214.05 207.444 215.37H270.499C271.513 215.37 272.335 214.548 272.335 213.534V205.791C272.336 204.777 271.513 203.955 270.5 203.955Z" fill="#FFE177"/>
<path d="M270.499 203.955H258.859C259.873 203.955 260.695 204.777 260.695 205.791V213.534C260.695 214.548 259.873 215.37 258.859 215.37H270.499C271.513 215.37 272.335 214.548 272.335 213.534V205.791C272.335 204.777 271.513 203.955 270.499 203.955Z" fill="#FFD15B"/>
<path d="M255.441 134.886C255.441 151.526 241.904 165.062 225.265 165.062C222.394 165.062 219.618 164.654 216.986 163.901L217.149 164.064C218.656 165.57 219.485 167.573 219.485 169.703V174.684C221.357 175.042 223.288 175.237 225.265 175.237C242.133 175.237 255.808 161.563 255.808 144.694V134.886H255.441Z" fill="#FFD15B"/>
<path d="M255.441 134.886C255.441 151.526 241.904 165.062 225.265 165.062C222.394 165.062 219.618 164.654 216.986 163.901L217.149 164.064C218.656 165.57 219.485 167.573 219.485 169.703V174.684C221.357 175.042 223.288 175.237 225.265 175.237C242.133 175.237 255.808 161.563 255.808 144.694V134.886H255.441Z" fill="#FFC344"/>
<path d="M225.265 104.344C214.097 104.344 204.333 110.341 199.007 119.287C202.228 119.639 204.743 122.374 204.743 125.687V158.533C204.743 158.736 204.908 158.9 205.11 158.9H208.682C210.813 158.9 212.815 159.73 214.321 161.236L217.149 164.063C217.263 164.178 217.366 164.3 217.473 164.42C219.961 165.075 222.571 165.429 225.265 165.429C242.133 165.429 255.807 151.755 255.807 134.886C255.807 118.018 242.133 104.344 225.265 104.344Z" fill="#FFE177"/>
<path d="M225.265 104.344C222.925 104.344 220.648 104.61 218.46 105.109C232.063 108.194 242.222 120.35 242.222 134.887C242.222 149.422 232.066 161.576 218.465 164.663C220.652 165.162 222.927 165.429 225.264 165.429C242.133 165.429 255.807 151.755 255.807 134.887C255.807 118.019 242.133 104.344 225.265 104.344Z" fill="#FFD15B"/>
<path d="M217.409 163.804L214.581 160.976C213.016 159.412 210.894 158.532 208.682 158.532H205.11V125.687C205.11 121.927 202.062 118.879 198.303 118.879C194.543 118.879 191.495 121.927 191.495 125.687V155.959C191.495 152.2 188.447 149.152 184.687 149.152C180.927 149.152 177.88 152.2 177.88 155.959C177.88 152.2 174.832 149.152 171.072 149.152C167.312 149.152 164.264 152.2 164.264 155.959C164.264 152.2 161.216 149.152 157.457 149.152C153.697 149.152 150.649 152.2 150.649 155.959V197.306C150.649 205.366 156.624 212.028 164.386 213.112H202.61L217.409 198.313C218.973 196.749 219.852 194.627 219.852 192.414V169.703C219.852 167.49 218.973 165.368 217.409 163.804Z" fill="#EDB48A"/>
<path d="M217.409 163.804L214.581 160.976C213.892 160.287 213.091 159.74 212.226 159.334V188.661C212.226 190.874 211.347 192.996 209.782 194.56L191.23 213.113H202.609L217.409 198.314C218.973 196.749 219.852 194.627 219.852 192.414V169.703C219.852 167.49 218.973 165.368 217.409 163.804Z" fill="#E3A577"/>
<path d="M198.302 118.88C196.901 118.88 195.599 119.304 194.517 120.03C196.339 121.251 197.539 123.329 197.539 125.687V171.244C197.539 173.335 199.233 175.03 201.324 175.03H205.11V125.687C205.11 121.928 202.062 118.88 198.302 118.88Z" fill="#E3A577"/>
<path d="M204.305 212.725H157.187C155.159 212.725 153.515 214.369 153.515 216.397V231.574C153.515 233.602 155.159 235.246 157.187 235.246H204.305C206.333 235.246 207.977 233.602 207.977 231.574V216.397C207.977 214.37 206.333 212.725 204.305 212.725Z" fill="#FE7D43"/>
<path d="M204.305 212.725H189.093C191.121 212.725 192.765 214.369 192.765 216.397V231.574C192.765 233.602 191.121 235.246 189.093 235.246H204.305C206.333 235.246 207.977 233.602 207.977 231.574V216.397C207.977 214.37 206.333 212.725 204.305 212.725Z" fill="#FD6930"/>
<path d="M274.172 83.8877H176.358C169.778 83.8877 164.424 89.2409 164.424 95.8213V111.687C164.424 113.209 165.657 114.441 167.178 114.441C168.699 114.441 169.932 113.209 169.932 111.687V95.8213C169.932 92.2783 172.815 89.3955 176.358 89.3955H274.172C277.715 89.3955 280.597 92.2783 280.597 95.8213V190.186H262.164C260.643 190.186 259.41 191.419 259.41 192.94C259.41 194.461 260.643 195.694 262.164 195.694H280.597V217.206C280.597 220.749 277.715 223.632 274.172 223.632H210.731V218.124H270.5C273.031 218.124 275.09 216.065 275.09 213.534V205.791C275.09 203.26 273.031 201.202 270.5 201.202H218.416L219.356 200.261C220.654 198.963 221.59 197.4 222.115 195.694H249.312C250.833 195.694 252.066 194.461 252.066 192.94C252.066 191.419 250.833 190.186 249.312 190.186H222.606V177.877C223.499 177.952 224.387 177.992 225.265 177.992C243.625 177.992 258.562 163.055 258.562 144.695V134.887C258.562 116.527 243.625 101.59 225.265 101.59C214.141 101.59 203.978 107.001 197.757 116.142C192.738 116.426 188.741 120.598 188.741 125.687V147.301C187.51 146.722 186.136 146.398 184.687 146.398C182.025 146.398 179.615 147.491 177.879 149.252C176.144 147.491 173.733 146.398 171.071 146.398C170.686 146.398 170.306 146.424 169.932 146.468V124.539C169.932 123.018 168.699 121.785 167.178 121.785C165.657 121.785 164.424 123.018 164.424 124.539V149.097C164.371 149.148 164.316 149.199 164.264 149.252C162.528 147.491 160.117 146.398 157.456 146.398C152.184 146.398 147.894 150.688 147.894 155.96V197.306C147.894 202.601 150.128 207.492 153.801 210.947C151.979 212.082 150.761 214.098 150.761 216.398V231.574C150.761 235.117 153.643 238 157.186 238H204.305C207.848 238 210.731 235.117 210.731 231.574V229.14H274.171C280.751 229.14 286.105 223.786 286.105 217.206V95.8213C286.105 89.2409 280.752 83.8877 274.172 83.8877ZM225.265 172.483C224.39 172.483 223.501 172.435 222.606 172.347V169.703C222.606 169.149 222.566 168.602 222.486 168.064C223.412 168.142 224.339 168.183 225.265 168.183C235.192 168.183 244.117 163.815 250.222 156.901C245.694 166.121 236.21 172.483 225.265 172.483ZM225.265 107.098C240.588 107.098 253.054 119.564 253.054 134.887C253.054 150.21 240.588 162.676 225.265 162.676C223.361 162.676 221.451 162.476 219.572 162.083C219.5 162.007 219.43 161.93 219.356 161.857L216.528 159.029C214.432 156.933 211.646 155.779 208.682 155.779H207.864V125.687C207.864 122.32 206.113 119.356 203.475 117.652C208.722 110.99 216.648 107.098 225.265 107.098ZM205.223 231.574C205.223 232.081 204.811 232.492 204.305 232.492H157.187C156.681 232.492 156.269 232.081 156.269 231.574V216.398C156.269 215.891 156.681 215.48 157.187 215.48H162.481C162.484 215.48 162.488 215.48 162.492 215.48C162.495 215.48 162.497 215.48 162.5 215.48H166.695C168.216 215.48 169.449 214.247 169.449 212.726C169.449 211.204 168.216 209.972 166.695 209.972H162.879C157.283 208.327 153.402 203.168 153.402 197.306V155.96C153.402 153.724 155.221 151.906 157.456 151.906C159.691 151.906 161.51 153.724 161.51 155.96C161.51 157.481 162.743 158.714 164.264 158.714C165.785 158.714 167.018 157.481 167.018 155.96C167.018 153.724 168.837 151.906 171.072 151.906C173.307 151.906 175.126 153.724 175.126 155.96C175.126 157.481 176.359 158.714 177.88 158.714C179.401 158.714 180.634 157.481 180.634 155.96C180.634 153.724 182.452 151.906 184.688 151.906C186.923 151.906 188.741 153.724 188.741 155.96C188.741 157.481 189.974 158.714 191.495 158.714C193.016 158.714 194.249 157.481 194.249 155.96V125.687C194.249 123.452 196.068 121.633 198.303 121.633C200.538 121.633 202.357 123.452 202.357 125.687V175.03C202.357 176.551 203.59 177.784 205.111 177.784C206.632 177.784 207.865 176.551 207.865 175.03V161.287H208.683C210.176 161.287 211.579 161.868 212.635 162.924L215.462 165.751C216.518 166.807 217.099 168.21 217.099 169.703V192.414C217.099 193.907 216.518 195.311 215.462 196.366L201.857 209.972H179.547C178.026 209.972 176.793 211.205 176.793 212.726C176.793 214.247 178.026 215.48 179.547 215.48H204.305C204.811 215.48 205.223 215.892 205.223 216.398V231.574ZM209.492 212.616C209.143 212.14 208.732 211.714 208.268 211.349L212.908 206.71H269.582V212.617H209.492V212.616Z" fill="#143A5A"/>
<path d="M225.265 142.715C226.786 142.715 228.019 141.482 228.019 139.961V117.93C228.019 116.408 226.786 115.176 225.265 115.176C223.744 115.176 222.511 116.408 222.511 117.93V139.961C222.511 141.482 223.744 142.715 225.265 142.715Z" fill="#143A5A"/>
<path d="M225.265 154.597C226.786 154.597 228.019 153.365 228.019 151.844V149.661C228.019 148.139 226.786 146.907 225.265 146.907C223.744 146.907 222.511 148.139 222.511 149.661V151.844C222.511 153.365 223.744 154.597 225.265 154.597Z" fill="#143A5A"/>
</g>
<defs>
<linearGradient id="paint0_linear_587_1278" x1="358.813" y1="151.562" x2="79.1854" y2="48.9493" gradientUnits="userSpaceOnUse">
<stop stop-color="#47A9EF"/>
<stop offset="1" stop-color="#C6D5E0"/>
</linearGradient>
<linearGradient id="paint1_linear_587_1278" x1="320.91" y1="142.745" x2="107.81" y2="64.545" gradientUnits="userSpaceOnUse">
<stop stop-color="#47A9EF"/>
<stop offset="1" stop-color="#C6D5E0"/>
</linearGradient>
<linearGradient id="paint2_linear_587_1278" x1="281.755" y1="133.613" x2="137.327" y2="80.6125" gradientUnits="userSpaceOnUse">
<stop stop-color="#47A9EF"/>
<stop offset="1" stop-color="#C6D5E0"/>
</linearGradient>
<clipPath id="clip0_587_1278">
<rect width="397" height="229" fill="white" transform="translate(0.5)"/>
</clipPath>
</defs>
</svg>
