<svg width="620" height="395" viewBox="0 0 620 395" fill="none" xmlns="http://www.w3.org/2000/svg">
<g clip-path="url(#clip0_560_55023)">
<path fill-rule="evenodd" clip-rule="evenodd" d="M523.5 24C523.5 10.7452 512.755 0 499.5 0H385.992C372.737 0 361.992 10.7452 361.992 24V138.729C361.992 151.984 351.247 162.729 337.992 162.729H336.581C323.326 162.729 312.581 151.984 312.581 138.729V100.342C312.581 87.0871 301.836 76.342 288.581 76.342H120.5C107.245 76.342 96.5 87.0871 96.5 100.342V284.046C96.5 297.301 107.245 308.046 120.5 308.046H237.695C250.95 308.046 261.695 318.792 261.695 332.046V370.433C261.695 383.688 272.44 394.433 285.695 394.433H363.067C376.322 394.433 387.067 383.688 387.067 370.433V332.047C387.067 318.792 397.812 308.047 411.067 308.047H499.5C512.755 308.047 523.5 297.301 523.5 284.047V24Z" fill="url(#paint0_linear_560_55023)"/>
<path d="M310.275 149.431C310.275 149.431 270.854 297.11 261.982 349.232L255.328 352.559L299.132 363.648L335.174 266.059L350.412 150.872" fill="#79C9E7"/>
<path d="M343.202 205.374C339.719 194.868 335.236 188.542 330.344 188.542C319.26 188.542 310.275 220.987 310.275 261.009C310.275 282.571 312.884 301.93 317.023 315.205L335.174 266.059L343.202 205.374Z" fill="#07294A"/>
<path d="M321.711 152.242C321.711 152.242 313.06 293.446 337.495 360.301L332.391 367.8H375.851C375.851 367.8 380.599 188.196 380.599 149.431L321.711 152.242Z" fill="#79C9E7"/>
<path d="M354.731 42.99V61.3409L331.998 66.9285V35.9604L354.731 30.3728V42.99Z" fill="#F0F8FF"/>
<path d="M341.889 49.3394C342.225 49.3394 342.497 49.0673 342.497 48.7316C342.497 48.3959 342.225 48.1238 341.889 48.1238C341.553 48.1238 341.281 48.3959 341.281 48.7316C341.281 49.0673 341.553 49.3394 341.889 49.3394Z" fill="#07294A"/>
<path d="M351.225 49.3394C351.561 49.3394 351.833 49.0673 351.833 48.7316C351.833 48.3959 351.561 48.1238 351.225 48.1238C350.889 48.1238 350.617 48.3959 350.617 48.7316C350.617 49.0673 350.889 49.3394 351.225 49.3394Z" fill="#07294A"/>
<path d="M348.486 52.3573V42.9902" stroke="#07294A" stroke-width="0.539302" stroke-linecap="round" stroke-linejoin="round"/>
<path d="M340.744 42.9904H345.437" stroke="#07294A" stroke-width="0.539302" stroke-linecap="round" stroke-linejoin="round"/>
<path d="M333.496 47.7898V51.0427C331.741 51.0427 330.318 49.6203 330.318 47.8656C330.318 47.7681 330.323 47.6717 330.331 47.5764C330.509 45.6035 333.496 45.8089 333.496 47.7898Z" fill="#F0F8FF"/>
<path d="M333.496 51.0426C331.741 51.0426 330.318 49.6202 330.318 47.8655" stroke="#07294A" stroke-width="0.539302" stroke-linecap="round" stroke-linejoin="round"/>
<path d="M346.433 54.6666C344.657 54.6666 343.218 53.2269 343.218 51.4509" stroke="#79C9E7" stroke-width="0.539302" stroke-linecap="round" stroke-linejoin="round"/>
<path d="M354.731 61.3411L331.998 66.9285" stroke="#07294A" stroke-width="0.539302" stroke-linecap="round" stroke-linejoin="round"/>
<path d="M348.486 52.365L346.434 52.8694" stroke="#07294A" stroke-width="0.539302" stroke-linecap="round" stroke-linejoin="round"/>
<path d="M310.275 99.7896V149.431L380.599 166.715V111.428C380.599 91.8246 367.215 74.7536 348.178 70.0746H348.178C339.049 67.8307 329.394 69.9081 321.996 75.7085C314.597 81.5088 310.275 90.3883 310.275 99.7896Z" fill="#F0F8FF"/>
<path d="M321.711 152.242C321.711 152.242 313.06 293.446 337.495 360.301" stroke="#07294A" stroke-width="0.539302" stroke-linecap="round" stroke-linejoin="round"/>
<path d="M355.959 44.0108C346.745 46.3679 338.924 38.761 338.924 38.761C338.924 38.761 337.922 45.4037 334.96 45.5108" stroke="#07294A" stroke-width="0.539302" stroke-linecap="round" stroke-linejoin="round"/>
<path d="M354.731 50.0105C354.731 50.0105 360.031 40.6893 358.745 34.9038C358.745 34.9038 353.279 26.5469 340.745 26.7611C328.21 26.9754 327.14 39.1677 331.907 46.1962" stroke="#07294A" stroke-width="0.539302" stroke-linecap="round" stroke-linejoin="round"/>
<path d="M336.245 83.3309L333.495 83.5452L326.388 78.8311L325.103 90.4022L333.495 86.7594L334.959 86.5451L343.365 91.6878L344.116 78.8311L336.245 83.3309Z" fill="#07294A"/>
<path d="M362.56 76.6272C362.56 76.6272 425.385 128.116 367.53 191.114L353.909 179.664L364.101 133.87L354.731 113.116" stroke="#07294A" stroke-width="0.539302" stroke-linecap="round" stroke-linejoin="round"/>
<path d="M367.53 191.114L343.091 170.569" stroke="#07294A" stroke-width="0.539302" stroke-linecap="round" stroke-linejoin="round"/>
<path d="M320.882 76.6272C320.882 76.6272 306.246 87.6881 296.246 123.116C296.246 123.116 276.818 87.6881 273.961 86.831C271.104 85.9739 270.247 88.8309 270.247 88.8309C270.247 88.8309 253.105 85.6882 253.676 89.9737C254.247 94.2593 265.676 97.6878 265.676 97.6878C265.676 97.6878 259.581 176.61 308.341 156.72" stroke="#07294A" stroke-width="0.539302" stroke-linecap="round" stroke-linejoin="round"/>
<path d="M138.226 112.352L159.236 92.3355L140.497 45.0552L106.142 76.4354L136.264 97.1621L134.925 107.667L138.226 112.352Z" fill="#79C9E7"/>
<path d="M168.047 168.009L157.508 358.968L151.26 367.84H193.423L215.569 205.23L202.989 148.396" fill="#DFEFFF"/>
<path d="M178.998 149.787L237.933 146.371V210.262V367.84H191.615L196.513 359.064L178.998 149.787Z" fill="#F0F8FF"/>
<path d="M221.214 45.0552V52.9265C221.214 59.0128 217.059 64.3128 211.148 65.7655L198.623 68.8441V38.0691L209.038 35.5093C211.971 34.7884 215.072 35.4558 217.449 37.3192C219.826 39.1825 221.214 42.035 221.214 45.0552V45.0552Z" fill="#F0F8FF"/>
<path d="M221.214 52.9265C221.214 59.0129 217.059 64.3129 211.148 65.7655L198.623 68.8442" stroke="#07294A" stroke-width="0.539302" stroke-linecap="round" stroke-linejoin="round"/>
<path d="M208.453 51.3646C208.119 51.3646 207.849 51.0941 207.849 50.7605C207.849 50.4269 208.119 50.1565 208.453 50.1565C208.786 50.1565 209.057 50.4269 209.057 50.7605C209.057 51.0941 208.786 51.3646 208.453 51.3646Z" fill="#07294A"/>
<path d="M217.73 51.3646C217.396 51.3646 217.126 51.0941 217.126 50.7605C217.126 50.4269 217.396 50.1565 217.73 50.1565C218.064 50.1565 218.334 50.4269 218.334 50.7605C218.334 51.0941 218.064 51.3646 217.73 51.3646Z" fill="#07294A"/>
<path d="M215.008 54.3638V45.0552H219.672" stroke="#07294A" stroke-width="0.539302" stroke-linecap="round" stroke-linejoin="round"/>
<path d="M207.315 45.0552H211.979" stroke="#07294A" stroke-width="0.539302" stroke-linecap="round" stroke-linejoin="round"/>
<path d="M200.11 49.8248V53.0575C198.367 53.0575 196.953 51.6439 196.953 49.9001C196.953 49.8032 196.957 49.7074 196.966 49.6127C197.143 47.6521 200.11 47.8563 200.11 49.8248Z" fill="#F0F8FF"/>
<path d="M200.11 53.0575C198.367 53.0575 196.953 51.6439 196.953 49.9001" stroke="#07294A" stroke-width="0.539302" stroke-linecap="round" stroke-linejoin="round"/>
<path d="M212.459 55.4517C212.067 55.8437 211.535 56.064 210.981 56.064C210.426 56.064 209.894 55.8437 209.502 55.4517" stroke="#79C9E7" stroke-width="0.539302" stroke-linecap="round" stroke-linejoin="round"/>
<path d="M215.009 54.3713L212.969 54.8726" stroke="#07294A" stroke-width="0.539302" stroke-linecap="round" stroke-linejoin="round"/>
<path d="M222.28 52.5266C225.472 46.4427 227.872 34.2794 217.127 29.5521C217.127 29.5521 205.083 22.4185 192.52 30.9363C179.956 39.454 181.021 68.8441 181.021 68.8441L198.623 65.9655" stroke="#07294A" stroke-width="0.539302" stroke-linecap="round" stroke-linejoin="round"/>
<path d="M221.214 42.3287C221.214 42.3287 216.422 41.4237 214.239 39.1345C214.239 39.1345 207.062 49.7764 199.445 48.528" stroke="#07294A" stroke-width="0.539302" stroke-linecap="round" stroke-linejoin="round"/>
<path d="M237.933 101.5V150.832L168.048 168.009V113.067C168.048 93.5851 181.348 76.6205 200.266 71.9707H200.266C209.339 69.7408 218.933 71.8052 226.285 77.5694C233.638 83.3336 237.933 92.1578 237.933 101.5V101.5Z" fill="#79C9E7"/>
<path d="M191.615 367.84L196.513 359.064L178.999 149.787" stroke="#07294A" stroke-width="0.539302" stroke-linecap="round" stroke-linejoin="round"/>
<path d="M229.265 80.2385C229.265 80.2385 258.442 109.832 263.837 151.001C269.232 192.17 224.982 207.786 224.982 207.786L221.214 185.214L234.919 159.728L215.57 122.183" stroke="#07294A" stroke-width="0.539302" stroke-linecap="round" stroke-linejoin="round"/>
<path d="M224.982 207.786L219.356 174.078" stroke="#07294A" stroke-width="0.539302" stroke-linecap="round" stroke-linejoin="round"/>
<path d="M220.416 131.586L234.92 159.728L225.446 177.345L220.416 131.586Z" fill="#07294A"/>
<path d="M237.933 201.168V215.239L228.625 206.26C231.84 204.778 234.95 203.076 237.933 201.168Z" fill="#07294A"/>
<path d="M174.635 90.3923C174.635 90.3923 158.501 109.483 155.945 144.012L151.26 110.4C151.26 110.4 157.081 101.03 149.699 100.746C142.317 100.462 148.563 105.005 148.563 105.005C148.563 105.005 142.033 108.412 141.749 112.955" stroke="#07294A" stroke-width="0.539302" stroke-linecap="round" stroke-linejoin="round"/>
<path d="M167.145 184.369C167.145 184.369 121.023 196.122 135.503 117.202" stroke="#07294A" stroke-width="0.539302" stroke-linecap="round" stroke-linejoin="round"/>
<path d="M137.633 119.543C137.633 119.543 126.256 114.07 132.69 94.7024" stroke="#07294A" stroke-width="0.539302" stroke-linecap="round" stroke-linejoin="round"/>
<path d="M503.983 165.712L474.645 147.53L445.573 234.747L384.198 266.403L393.243 326.486L400.996 310.335C588.996 262.527 503.983 165.712 503.983 165.712Z" fill="#79C9E7"/>
<path d="M456.123 203.096L445.573 234.747L421.811 247.003C419.086 258.656 417.736 270.588 417.788 282.555C417.779 290.149 418.307 297.734 419.369 305.254C453.893 294.88 477.628 282.686 493.585 269.898C490.685 232.157 475.032 203.293 456.123 203.096Z" fill="#07294A"/>
<path d="M493.342 147.284L442.909 143.829L433.739 147.563L429.429 367.812H476.272L471.319 358.936L493.342 147.284Z" fill="#79C9E7"/>
<path d="M448.17 41.3633V49.3239C448.17 55.4793 452.372 60.8395 458.35 62.3086L471.018 65.4222V34.2979L460.484 31.709C457.518 30.98 454.382 31.6549 451.978 33.5395C449.574 35.424 448.17 38.3088 448.17 41.3633V41.3633Z" fill="#F0F8FF"/>
<path d="M448.17 49.324C448.17 55.4794 452.372 60.8395 458.35 62.3087L471.018 65.4223" stroke="#07294A" stroke-width="0.539302" stroke-linecap="round" stroke-linejoin="round"/>
<path d="M461.076 47.7443C461.413 47.7443 461.687 47.4707 461.687 47.1334C461.687 46.796 461.413 46.5225 461.076 46.5225C460.738 46.5225 460.465 46.796 460.465 47.1334C460.465 47.4707 460.738 47.7443 461.076 47.7443Z" fill="#07294A"/>
<path d="M451.693 47.7443C452.03 47.7443 452.304 47.4707 452.304 47.1334C452.304 46.796 452.03 46.5225 451.693 46.5225C451.356 46.5225 451.082 46.796 451.082 47.1334C451.082 47.4707 451.356 47.7443 451.693 47.7443Z" fill="#07294A"/>
<path d="M454.446 50.7775V41.3633H449.729" stroke="#07294A" stroke-width="0.539302" stroke-linecap="round" stroke-linejoin="round"/>
<path d="M462.227 41.3633H457.511" stroke="#07294A" stroke-width="0.539302" stroke-linecap="round" stroke-linejoin="round"/>
<path d="M469.513 46.187V49.4563C471.276 49.4563 472.706 48.0267 472.706 46.2632C472.706 46.1652 472.702 46.0683 472.693 45.9725C472.514 43.9897 469.513 44.1961 469.513 46.187Z" fill="#F0F8FF"/>
<path d="M469.513 49.4564C471.276 49.4564 472.706 48.0267 472.706 46.2632" stroke="#07294A" stroke-width="0.539302" stroke-linecap="round" stroke-linejoin="round"/>
<path d="M457.024 51.8777C457.421 52.2742 457.959 52.497 458.52 52.497C459.08 52.497 459.618 52.2742 460.015 51.8777" stroke="#79C9E7" stroke-width="0.539302" stroke-linecap="round" stroke-linejoin="round"/>
<path d="M454.446 50.7852L456.509 51.2922" stroke="#07294A" stroke-width="0.539302" stroke-linecap="round" stroke-linejoin="round"/>
<path d="M433.305 98.4493V148.341L503.983 165.713V110.147C503.983 90.4442 490.532 73.287 471.399 68.5844H471.399C462.223 66.3292 452.52 68.4171 445.084 74.2467C437.648 80.0763 433.305 89.0006 433.305 98.4493V98.4493Z" fill="#F0F8FF"/>
<path d="M471.318 358.936L493.341 147.283" stroke="#07294A" stroke-width="0.539302" stroke-linecap="round" stroke-linejoin="round"/>
<path d="M447.686 41.9581C447.686 41.9581 455.355 39.1585 458.519 33.5591C458.519 33.5591 460.21 44.3627 469.831 45.2063" stroke="#07294A" stroke-width="0.539302" stroke-linecap="round" stroke-linejoin="round"/>
<path d="M448.17 46.2632C448.17 46.2632 442.087 39.4816 446.071 32.6977C450.055 25.9139 462.323 25.6631 471.109 28.6059C483.005 32.5901 486.159 48.9717 471.018 55.2029" stroke="#07294A" stroke-width="0.539302" stroke-linecap="round" stroke-linejoin="round"/>
<path d="M482.359 39.3828C482.862 41.2915 482.862 43.2978 482.359 45.2064" stroke="#79C9E7" stroke-width="0.539302" stroke-linecap="round" stroke-linejoin="round"/>
<path d="M483.436 39.3828C483.436 39.3828 486.451 33.8104 491.835 37.1844C497.219 40.5583 492.265 50.4072 483.436 44.5854" stroke="#07294A" stroke-width="0.539302" stroke-linecap="round" stroke-linejoin="round"/>
<path d="M447.686 72.4165C447.686 72.4165 412.915 94.6138 417.788 139.839C422.66 185.065 478.08 170.134 507.369 132.23C507.369 132.23 525.447 126.487 523.156 124.764C520.865 123.041 503.983 123.041 503.983 123.041C503.983 123.041 506.627 118.16 503.983 118.16C501.339 118.16 498.18 122.467 498.18 122.467L451.693 132.804L459.593 114.14" stroke="#07294A" stroke-width="0.539302" stroke-linecap="round" stroke-linejoin="round"/>
<path d="M503.983 123.041H543.262L567.167 72.4165" stroke="#07294A" stroke-width="0.539302" stroke-linecap="round" stroke-linejoin="round"/>
<path d="M562.644 75.2314L499.975 44.5854" stroke="#79C9E7" stroke-width="0.539302" stroke-linecap="round" stroke-linejoin="round"/>
<path d="M491.534 79.9692C491.534 79.9692 511.82 101.075 515.265 124.333" stroke="#07294A" stroke-width="0.539302" stroke-linecap="round" stroke-linejoin="round"/>
<path d="M503.399 150.938C503.399 150.938 547.266 172.926 532.63 123.042" stroke="#07294A" stroke-width="0.539302" stroke-linecap="round" stroke-linejoin="round"/>
<path d="M513.546 116.696C513.546 116.696 517.366 93.4465 524.475 97.7289C531.584 102.011 537.056 104.729 535.575 105.775C534.093 106.82 530.33 105.984 530.33 105.984C530.33 105.984 533.048 111.002 528.448 112.257L531.309 119.156" stroke="#07294A" stroke-width="0.539302" stroke-linecap="round" stroke-linejoin="round"/>
</g>
<defs>
<linearGradient id="paint0_linear_560_55023" x1="310" y1="0" x2="310" y2="394.433" gradientUnits="userSpaceOnUse">
<stop stop-color="#FFF2C5" stop-opacity="0"/>
<stop offset="1" stop-color="#FFF2C5"/>
</linearGradient>
<clipPath id="clip0_560_55023">
<rect width="620" height="394.433" fill="white"/>
</clipPath>
</defs>
</svg>
