<svg width="200" height="201" viewBox="0 0 200 201" fill="none" xmlns="http://www.w3.org/2000/svg">
<g clip-path="url(#clip0_721_12375)">
<rect width="200" height="200" transform="translate(0 0.102539)" fill="none"/>
<path d="M55.5728 104.521L76.8055 82.8458L87.332 245.64H55.5728L60.2639 239.239C59.9631 214.277 55.5728 104.521 55.5728 104.521Z" fill="#DFEFFF"/>
<path d="M63.1746 91.6526L98.3899 89.2402L104.793 91.8481L107.803 245.64H75.0939L78.5523 239.442L63.1746 91.6526Z" fill="#F0F8FF"/>
<path d="M75.0943 245.64L78.5527 239.442L63.175 91.6526" stroke="#07294A" stroke-width="0.378" stroke-linecap="round" stroke-linejoin="round"/>
<path d="M91.3516 17.6925V23.2511C91.3516 27.5492 88.4173 31.292 84.2434 32.3178L75.3978 34.4919V12.759L82.7528 10.9512C84.824 10.4422 87.0142 10.9135 88.6927 12.2294C90.3711 13.5452 91.3516 15.5597 91.3516 17.6925V17.6925Z" fill="#F0F8FF"/>
<path d="M91.3516 23.251C91.3516 27.5491 88.4173 31.2919 84.2434 32.3178L75.3978 34.4919" stroke="#07294A" stroke-width="0.378" stroke-linecap="round" stroke-linejoin="round"/>
<path d="M82.3391 22.1481C82.1035 22.1481 81.9125 21.9571 81.9125 21.7215C81.9125 21.486 82.1035 21.295 82.3391 21.295C82.5746 21.295 82.7656 21.486 82.7656 21.7215C82.7656 21.9571 82.5746 22.1481 82.3391 22.1481Z" fill="#07294A"/>
<path d="M88.8898 22.1481C88.6543 22.1481 88.4633 21.9571 88.4633 21.7215C88.4633 21.486 88.6543 21.295 88.8898 21.295C89.1254 21.295 89.3164 21.486 89.3164 21.7215C89.3164 21.9571 89.1254 22.1481 88.8898 22.1481Z" fill="#07294A"/>
<path d="M86.9684 24.2662V17.6926H90.2617" stroke="#07294A" stroke-width="0.378" stroke-linecap="round" stroke-linejoin="round"/>
<path d="M81.5349 17.6924H84.8281" stroke="#07294A" stroke-width="0.378" stroke-linecap="round" stroke-linejoin="round"/>
<path d="M76.4473 21.0607V23.3435C75.2158 23.3435 74.2176 22.3452 74.2176 21.1138C74.2176 21.0454 74.2206 20.9778 74.2267 20.9109C74.3516 19.5263 76.4473 19.6705 76.4473 21.0607Z" fill="#F0F8FF"/>
<path d="M76.4473 23.3435C75.2158 23.3435 74.2176 22.3452 74.2176 21.1138" stroke="#07294A" stroke-width="0.378" stroke-linecap="round" stroke-linejoin="round"/>
<path d="M85.168 25.0342C84.8911 25.3111 84.5156 25.4667 84.124 25.4667C83.7324 25.4667 83.3569 25.3111 83.08 25.0342" stroke="#79C9E7" stroke-width="0.378" stroke-linecap="round" stroke-linejoin="round"/>
<path d="M86.9688 24.2714L85.5284 24.6254" stroke="#07294A" stroke-width="0.378" stroke-linecap="round" stroke-linejoin="round"/>
<path d="M104.926 57.5535V92.391L55.5738 104.521V65.7214C55.5738 51.9637 64.966 39.9835 78.3261 36.6999H78.3261C84.7331 35.1251 91.5084 36.583 96.7007 40.6536C101.893 44.7243 104.926 50.9558 104.926 57.5535V57.5535Z" fill="#79C9E7"/>
<path d="M75.3328 29.712C75.3328 29.712 77.3698 35.1758 72.3948 38.434C67.7043 41.5058 63.8365 30.855 66.2461 23.2858C66.3866 22.8466 66.4561 22.3878 66.452 21.9266C66.422 18.9593 67.2543 7.43957 81.9119 6.65402C91.7033 6.12926 99.7539 13.2789 91.6885 21.295" stroke="#07294A" stroke-width="0.378" stroke-linecap="round" stroke-linejoin="round"/>
<path d="M91.3516 17.6924C91.3516 17.6924 88.2356 18.2331 86.7318 14.0225C86.7318 14.0225 82.0053 20.589 76.4486 19.5865L76.0527 20.199" stroke="#07294A" stroke-width="0.378" stroke-linecap="round" stroke-linejoin="round"/>
<path d="M66.5797 38.6116C66.5797 38.6116 66.4198 41.4086 72.0137 40.3697" stroke="#79C9E7" stroke-width="0.378" stroke-linecap="round" stroke-linejoin="round"/>
<path d="M65.5092 41.3413C65.5092 41.3413 62.3707 53.8227 68.3859 52.1686C74.401 50.5144 70.4912 42.9955 70.4912 42.9955" stroke="#07294A" stroke-width="0.378" stroke-linecap="round" stroke-linejoin="round"/>
<path d="M127.645 26.502L116.089 24.2713L152.781 6.60394L137.292 34.4919L133.683 30.5707L130.996 35.3262L129.297 29.3087" fill="#79C9E7"/>
<path d="M89.9599 37.1297C89.9599 37.1297 104.771 41.6421 114.244 66.0458C114.244 66.0458 122.652 31.0617 124.66 29.0103C127.768 25.8356 132.129 23.5966 130.725 26.8047C129.322 30.0128 127.918 30.5708 127.918 30.5708C127.918 30.5708 131.728 33.7039 129.121 36.069" stroke="#07294A" stroke-width="0.378" stroke-linecap="round" stroke-linejoin="round"/>
<path d="M133.148 24.2662C133.533 23.8974 138.846 35.7272 132.129 42.4441C132.129 42.4441 144.16 135.679 85.5283 79.5374" stroke="#07294A" stroke-width="0.378" stroke-linecap="round" stroke-linejoin="round"/>
<path d="M88.7658 82.5511C88.7658 82.5511 93.0995 110.813 104.926 119.386V94.3636C104.926 94.3636 89.8162 83.5205 88.7658 82.5511Z" fill="#07294A"/>
<path d="M60.3828 49.4665C60.3828 49.4665 34.3415 85.2518 55.5742 122.546" stroke="#07294A" stroke-width="0.378" stroke-linecap="round" stroke-linejoin="round"/>
</g>
<defs>
<clipPath id="clip0_721_12375">
<rect width="200" height="200" fill="none" transform="translate(0 0.102539)"/>
</clipPath>
</defs>
</svg>
