<svg width="200" height="201" viewBox="0 0 200 201" fill="none" xmlns="http://www.w3.org/2000/svg">
<g clip-path="url(#clip0_721_12455)">
<rect width="200" height="200" transform="translate(0 0.102539)" fill="none"/>
<path d="M115.752 180.655V237.683L119.516 245.788H93.7117L85.3566 165.891L115.752 180.655Z" fill="#DFEFFF"/>
<path d="M110.018 97.5734L69.9589 95.2515V138.679V245.788H97.0389L93.7101 239.823L110.018 97.5734Z" fill="#F0F8FF"/>
<path d="M108.055 26.3856V31.7358C108.055 35.8728 105.23 39.4753 101.213 40.4627L92.699 42.5553V21.637L99.7783 19.897C101.772 19.4071 103.88 19.8607 105.495 21.1272C107.111 22.3938 108.055 24.3327 108.055 26.3855V26.3856Z" fill="#F0F8FF"/>
<path d="M108.055 31.7357C108.055 35.8727 105.23 39.4752 101.213 40.4626L92.699 42.5552" stroke="#07294A" stroke-width="0.378" stroke-linecap="round" stroke-linejoin="round"/>
<path d="M99.3804 30.6742C99.1537 30.6742 98.9699 30.4904 98.9699 30.2636C98.9699 30.0368 99.1537 29.853 99.3804 29.853C99.6072 29.853 99.791 30.0368 99.791 30.2636C99.791 30.4904 99.6072 30.6742 99.3804 30.6742Z" fill="#07294A"/>
<path d="M105.687 30.6742C105.46 30.6742 105.277 30.4904 105.277 30.2636C105.277 30.0368 105.46 29.853 105.687 29.853C105.914 29.853 106.098 30.0368 106.098 30.2636C106.098 30.4904 105.914 30.6742 105.687 30.6742Z" fill="#07294A"/>
<path d="M103.836 32.7127V26.3855H107.006" stroke="#07294A" stroke-width="0.378" stroke-linecap="round" stroke-linejoin="round"/>
<path d="M98.6075 26.3855H101.777" stroke="#07294A" stroke-width="0.378" stroke-linecap="round" stroke-linejoin="round"/>
<path d="M93.7109 29.6274V31.8247C92.5257 31.8247 91.5648 30.8639 91.5648 29.6786C91.5648 29.6128 91.5678 29.5476 91.5736 29.4833C91.6939 28.1506 93.7109 28.2894 93.7109 29.6274Z" fill="#F0F8FF"/>
<path d="M93.7109 31.8248C92.5257 31.8248 91.5648 30.864 91.5648 29.6787" stroke="#07294A" stroke-width="0.378" stroke-linecap="round" stroke-linejoin="round"/>
<path d="M102.104 33.4521C101.837 33.7187 101.476 33.8684 101.099 33.8684C100.722 33.8684 100.36 33.7187 100.094 33.4521" stroke="#79C9E7" stroke-width="0.378" stroke-linecap="round" stroke-linejoin="round"/>
<path d="M103.838 32.7179L102.452 33.0586" stroke="#07294A" stroke-width="0.378" stroke-linecap="round" stroke-linejoin="round"/>
<path d="M107.748 24.3759C107.748 24.3759 107.512 20.8603 104.328 21.0774C101.143 21.2945 96.5839 21.005 96.222 23.8999C95.8602 26.7947 94.7458 29.1106 93.7108 29.1106" stroke="#07294A" stroke-width="0.378" stroke-linecap="round" stroke-linejoin="round"/>
<path d="M108.056 28.5511C108.056 28.5511 119.331 8.12308 99.3821 6.67566C79.4332 5.22825 70.0454 31.6677 92.639 35.7205" stroke="#07294A" stroke-width="0.378" stroke-linecap="round" stroke-linejoin="round"/>
<path d="M92.1629 33.3732C92.1629 34.2283 92.8561 34.9216 93.7113 34.9216C94.5665 34.9216 95.2598 34.2283 95.2598 33.3732C95.2598 32.518 94.5665 31.8247 93.7113 31.8247" stroke="#79C9E7" stroke-width="0.378" stroke-linecap="round" stroke-linejoin="round"/>
<path d="M108.055 34.5607C108.58 34.9996 109.33 35.0424 109.901 34.6661C110.472 34.2897 110.729 33.5834 110.532 32.9284C110.336 32.2733 109.733 31.8247 109.049 31.8247" stroke="#79C9E7" stroke-width="0.378" stroke-linecap="round" stroke-linejoin="round"/>
<path d="M69.9609 64.7523V98.284L117.463 109.959V72.6141C117.463 59.3722 108.423 47.841 95.5635 44.6804H95.5635C89.3966 43.1647 82.8753 44.568 77.8777 48.486C72.88 52.404 69.9609 58.402 69.9609 64.7523V64.7523Z" fill="#F0F8FF"/>
<path d="M69.9607 98.2841L117.463 109.959V183.405L45.2699 172.036L69.9607 98.2841Z" fill="#79C9E7"/>
<path d="M97.0395 245.788L93.7108 239.823L102.885 159.798" stroke="#07294A" stroke-width="0.378" stroke-linecap="round" stroke-linejoin="round"/>
<path d="M76.7717 49.4175C76.7717 49.4175 54.0906 69.011 68.9507 96.4154C83.8109 123.82 131.672 84.6431 132.251 81.5553C132.83 78.4675 127.812 77.6955 123.567 80.0114C123.567 80.0114 124.146 76.8512 121.83 77.7558C119.514 78.6604 118.356 81.3623 118.356 81.3623L85.7407 82.7132L89.9884 64.7653" stroke="#07294A" stroke-width="0.378" stroke-linecap="round" stroke-linejoin="round"/>
<path d="M107.5 81.8119L121.831 44.0731L154.639 52.993L134.375 98.284L116.245 94.6102" stroke="#07294A" stroke-width="0.378" stroke-linecap="round" stroke-linejoin="round"/>
<path d="M111.016 97.7604V97.7604C111.016 97.7604 92.7157 121.496 65.6596 111.127L70.0477 98.2316C78.858 111.34 96.6924 105.839 111.016 97.7604Z" fill="#07294A"/>
<path d="M107.748 51.0614L116.268 58.7239" stroke="#07294A" stroke-width="0.378" stroke-linecap="round" stroke-linejoin="round"/>
<path d="M146.868 70.3607C146.868 70.3607 152.226 90.481 139.489 99.0208C126.751 107.561 117.462 101.192 117.462 101.192" stroke="#07294A" stroke-width="0.378" stroke-linecap="round" stroke-linejoin="round"/>
</g>
<defs>
<clipPath id="clip0_721_12455">
<rect width="200" height="200" fill="white" transform="translate(0 0.102539)"/>
</clipPath>
</defs>
</svg>
