<svg width="200" height="201" viewBox="0 0 200 201" fill="none" xmlns="http://www.w3.org/2000/svg">
<g clip-path="url(#clip0_222_31673)">
<rect width="200" height="200" transform="translate(0 0.102539)" fill="none"/>
<path d="M107.194 109.066C107.194 109.066 154.978 145.2 148.425 162.673C141.873 180.147 109.109 197.621 109.109 197.621L107.194 207.668L88.5253 187.137L107.194 154.373C107.194 154.373 91.0941 150.005 88.5253 142.142C85.9565 134.279 79.918 98.2993 79.918 98.2993" fill="#79C9E7"/>
<path d="M88.8277 33.2303C91.4551 33.2303 93.585 31.1003 93.585 28.4729C93.585 25.8455 91.4551 23.7156 88.8277 23.7156C86.2002 23.7156 84.0703 25.8455 84.0703 28.4729C84.0703 31.1003 86.2002 33.2303 88.8277 33.2303Z" fill="#79C9E7"/>
<path d="M99.4235 99.2303C99.4235 99.2303 105.303 195.191 88.6973 240.625L92.1659 245.721H62.6309C62.6309 245.721 59.4043 123.665 59.4043 97.3202L99.4235 99.2303Z" fill="#79C9E7"/>
<path d="M91.2108 24.9842V37.4552L75.7617 41.2525V20.2069L91.2108 16.4097V24.9842Z" fill="#F0F8FF"/>
<path d="M82.4834 29.2989C82.7115 29.2989 82.8965 29.114 82.8965 28.8859C82.8965 28.6577 82.7115 28.4728 82.4834 28.4728C82.2553 28.4728 82.0703 28.6577 82.0703 28.8859C82.0703 29.114 82.2553 29.2989 82.4834 29.2989Z" fill="#07294A"/>
<path d="M88.8271 29.2989C89.0553 29.2989 89.2402 29.114 89.2402 28.8859C89.2402 28.6577 89.0553 28.4728 88.8271 28.4728C88.599 28.4728 88.4141 28.6577 88.4141 28.8859C88.4141 29.114 88.599 29.2989 88.8271 29.2989Z" fill="#07294A"/>
<path d="M86.9668 31.3501V24.9841H90.1559" stroke="#07294A" stroke-width="0.378" stroke-linecap="round" stroke-linejoin="round"/>
<path d="M81.7051 24.9842H84.8942" stroke="#07294A" stroke-width="0.378" stroke-linecap="round" stroke-linejoin="round"/>
<path d="M76.7783 28.2459V30.4566C75.5858 30.4566 74.6191 29.4899 74.6191 28.2974C74.6191 28.2312 74.6221 28.1657 74.628 28.1009C74.7489 26.7601 76.7783 26.8997 76.7783 28.2459Z" fill="#F0F8FF"/>
<path d="M76.7783 30.4565C75.5858 30.4565 74.6191 29.4898 74.6191 28.2974" stroke="#07294A" stroke-width="0.378" stroke-linecap="round" stroke-linejoin="round"/>
<path d="M85.572 32.9193C84.9925 32.9193 84.4366 32.6891 84.0268 32.2793C83.617 31.8694 83.3867 31.3136 83.3867 30.734" stroke="#79C9E7" stroke-width="0.378" stroke-linecap="round" stroke-linejoin="round"/>
<path d="M91.2108 37.4552L75.7617 41.2523" stroke="#07294A" stroke-width="0.378" stroke-linecap="round" stroke-linejoin="round"/>
<path d="M86.9671 31.3551L85.5723 31.6979" stroke="#07294A" stroke-width="0.378" stroke-linecap="round" stroke-linejoin="round"/>
<path d="M77.0977 27.6956C77.0977 27.6956 78.7966 26.4983 78.5053 23.9418C78.2141 21.3854 78.5011 19.0246 82.4836 18.5546C85.3829 18.2572 88.2961 18.1165 91.2106 18.1332" stroke="#07294A" stroke-width="0.378" stroke-linecap="round" stroke-linejoin="round"/>
<path d="M91.2105 23.9419C91.2105 23.9419 98.9042 10.0755 84.154 7.16302C69.4038 4.25058 64.6052 13.6554 65.5448 20.9243C66.5642 28.8098 71.5829 31.1178 75.6993 32.4284" stroke="#07294A" stroke-width="0.378" stroke-linecap="round" stroke-linejoin="round"/>
<path d="M59.4043 63.5845V97.3202L107.195 109.066V71.4941C107.195 58.1716 98.1001 46.5703 85.1626 43.3905H85.1626C78.9582 41.8656 72.3973 43.2773 67.3693 47.2192C62.3412 51.1611 59.4043 57.1955 59.4043 63.5845V63.5845Z" fill="#F0F8FF"/>
<path d="M73.8706 33.2303C76.498 33.2303 78.628 31.1003 78.628 28.4729C78.628 25.8455 76.498 23.7156 73.8706 23.7156C71.2432 23.7156 69.1133 25.8455 69.1133 28.4729C69.1133 31.1003 71.2432 33.2303 73.8706 33.2303Z" fill="#79C9E7"/>
<path d="M78.628 28.4728C78.6259 31.0987 76.4966 33.2264 73.8706 33.2264C71.2447 33.2264 69.1153 31.0987 69.1133 28.4728" stroke="#07294A" stroke-width="0.378" stroke-linecap="round" stroke-linejoin="round"/>
<path d="M99.4235 99.2303C99.4235 99.2303 105.303 195.191 88.6973 240.625" stroke="#07294A" stroke-width="0.378" stroke-linecap="round" stroke-linejoin="round"/>
<path d="M66.3831 48.0438C66.3831 48.0438 53.6035 56.9658 51.2736 80.2653C48.9436 103.565 78.068 123.952 108.94 90.1676C108.94 90.1676 117.968 83.469 118.26 77.9353C118.551 72.4017 107.195 79.1472 107.195 79.1472C107.195 79.1472 110.401 77.3528 107.195 77.0616C103.989 76.7704 103.406 80.0711 103.406 80.0711L75.7611 84.7796L79.9188 67.3049" stroke="#07294A" stroke-width="0.378" stroke-linecap="round" stroke-linejoin="round"/>
<path d="M59.6953 101.987V120.455C81.5146 125.549 93.9867 102.665 93.9867 102.665C80.0154 110.888 67.533 108.845 59.6953 101.987Z" fill="#07294A"/>
<path d="M107.195 77.0616C108.634 77.1923 108.78 77.6261 108.505 78.0643L108.944 78.1905C110.542 77.3664 112.948 76.2534 114.915 75.882L115.93 66.7704H106.808L105.633 77.24C106.134 77.0652 106.667 77.0043 107.195 77.0616Z" fill="#07294A"/>
<path d="M73.4084 33.2302C73.4084 33.2302 69.331 57.257 81.1749 55.5096C93.0189 53.7621 110.491 49.5876 108.843 67.1593" stroke="#07294A" stroke-width="0.378" stroke-linecap="round" stroke-linejoin="round"/>
<path d="M90.6523 45.3427C90.6523 45.3427 116.416 54.1504 120.105 55.7037C120.105 55.7037 119.922 34.6387 118.266 33.2302C116.61 31.8217 113.503 26.4958 116.804 24.9842C116.804 24.9842 114.086 18.0333 115.93 18.1318C117.775 18.2303 118.163 21.1427 120.881 21.7252C123.6 22.3077 152.336 63.6643 137.385 75.9229C126.836 84.5726 115.93 83.2773 115.93 83.2773" stroke="#07294A" stroke-width="0.378" stroke-linecap="round" stroke-linejoin="round"/>
</g>
<defs>
<clipPath id="clip0_222_31673">
<rect width="200" height="200" fill="white" transform="translate(0 0.102539)"/>
</clipPath>
</defs>
</svg>
